%TF.GenerationSoftware,KiCad,Pcbnew,9.0.0*%
%TF.CreationDate,2025-05-12T19:59:56-03:00*%
%TF.ProjectId,kicad proyecto,6b696361-6420-4707-926f-796563746f2e,rev?*%
%TF.SameCoordinates,Original*%
%TF.FileFunction,Copper,L2,Inr*%
%TF.FilePolarity,Positive*%
%FSLAX46Y46*%
G04 Gerber Fmt 4.6, Leading zero omitted, Abs format (unit mm)*
G04 Created by KiCad (PCBNEW 9.0.0) date 2025-05-12 19:59:56*
%MOMM*%
%LPD*%
G01*
G04 APERTURE LIST*
G04 Aperture macros list*
%AMRoundRect*
0 Rectangle with rounded corners*
0 $1 Rounding radius*
0 $2 $3 $4 $5 $6 $7 $8 $9 X,Y pos of 4 corners*
0 Add a 4 corners polygon primitive as box body*
4,1,4,$2,$3,$4,$5,$6,$7,$8,$9,$2,$3,0*
0 Add four circle primitives for the rounded corners*
1,1,$1+$1,$2,$3*
1,1,$1+$1,$4,$5*
1,1,$1+$1,$6,$7*
1,1,$1+$1,$8,$9*
0 Add four rect primitives between the rounded corners*
20,1,$1+$1,$2,$3,$4,$5,0*
20,1,$1+$1,$4,$5,$6,$7,0*
20,1,$1+$1,$6,$7,$8,$9,0*
20,1,$1+$1,$8,$9,$2,$3,0*%
G04 Aperture macros list end*
%TA.AperFunction,ComponentPad*%
%ADD10C,2.000000*%
%TD*%
%TA.AperFunction,ComponentPad*%
%ADD11C,1.498600*%
%TD*%
%TA.AperFunction,ComponentPad*%
%ADD12R,1.700000X1.700000*%
%TD*%
%TA.AperFunction,ComponentPad*%
%ADD13C,1.700000*%
%TD*%
%TA.AperFunction,ComponentPad*%
%ADD14RoundRect,0.190500X-0.809500X-0.444500X0.809500X-0.444500X0.809500X0.444500X-0.809500X0.444500X0*%
%TD*%
%TA.AperFunction,ViaPad*%
%ADD15C,0.600000*%
%TD*%
G04 APERTURE END LIST*
D10*
%TO.N,+5V*%
%TO.C,SW3*%
X187823557Y-125810418D03*
X184573557Y-131439583D03*
%TO.N,Net-(SW1-B)*%
X183926443Y-123560418D03*
X180676443Y-129189583D03*
%TD*%
D11*
%TO.N,+5V*%
%TO.C,50k1*%
X168503600Y-103378000D03*
X163503600Y-100878000D03*
%TO.N,Net-(U2-DIS)*%
X168503600Y-98378010D03*
%TD*%
%TO.N,+5V*%
%TO.C,10k1*%
X168518200Y-74875400D03*
X171018200Y-69875400D03*
%TO.N,Net-(U1-DIS)*%
X173518190Y-74875400D03*
%TD*%
D10*
%TO.N,RESET*%
%TO.C,SW2*%
X148250000Y-61750000D03*
X141750000Y-61750000D03*
%TO.N,GND*%
X148250000Y-57250000D03*
X141750000Y-57250000D03*
%TD*%
%TO.N,+5V*%
%TO.C,SW1*%
X105250000Y-131250000D03*
X102000000Y-125620835D03*
%TO.N,Net-(SW1-B)*%
X109147114Y-129000000D03*
X105897114Y-123370835D03*
%TD*%
D12*
%TO.N,Net-(J2-Pin_1)*%
%TO.C,J2*%
X189839600Y-90119200D03*
D13*
%TO.N,Net-(J2-Pin_2)*%
X189839599Y-92659199D03*
%TD*%
D14*
%TO.N,+5V*%
%TO.C,BZ1*%
X150500000Y-103500000D03*
%TO.N,Net-(BZ1--)*%
X150500000Y-99500000D03*
%TD*%
D15*
%TO.N,+5V*%
X160172400Y-70942200D03*
X157750000Y-93903800D03*
X159530802Y-85921602D03*
X172237400Y-96926400D03*
X184505602Y-100025202D03*
X155321000Y-85928200D03*
X187629800Y-108356400D03*
X179414893Y-82986042D03*
X152730200Y-95504000D03*
X159689800Y-68402200D03*
X188671200Y-108356400D03*
X158699200Y-95631000D03*
%TO.N,Net-(BZ1--)*%
X161086800Y-103098600D03*
%TO.N,GND*%
X165100000Y-114300000D03*
X149675000Y-86000000D03*
X155067000Y-94437200D03*
X165912800Y-107595000D03*
X156159200Y-96443800D03*
X127000000Y-88900000D03*
X127000000Y-114300000D03*
X188518800Y-103124000D03*
X114300000Y-127000000D03*
X127000000Y-76200000D03*
X139700000Y-152400000D03*
X139700000Y-63500000D03*
X157099000Y-67233800D03*
X101600000Y-101600000D03*
X152400000Y-139700000D03*
X165100000Y-139700000D03*
X114300000Y-88900000D03*
X114300000Y-139700000D03*
X139700000Y-114300000D03*
X139700000Y-76200000D03*
X168325800Y-82118200D03*
X139700000Y-127000000D03*
X127000000Y-139700000D03*
X181559205Y-85852005D03*
X114300000Y-101600000D03*
X187553600Y-103098600D03*
X172313600Y-95910400D03*
X173939200Y-110083600D03*
X183870600Y-97688400D03*
X152400000Y-152400000D03*
X167614600Y-104978200D03*
X101600000Y-114300000D03*
X152400000Y-127000000D03*
X167030400Y-87503000D03*
X153517600Y-81051400D03*
X139700000Y-101600000D03*
X114300000Y-76200000D03*
X155016200Y-82346800D03*
X114300000Y-114300000D03*
X101600000Y-88900000D03*
X181127400Y-102173200D03*
X173939200Y-111556800D03*
X162941000Y-107670600D03*
X183845200Y-96926400D03*
X139700000Y-139700000D03*
X165100000Y-127000000D03*
X184556400Y-103352600D03*
X180214231Y-83018647D03*
X139700000Y-88900000D03*
X145000000Y-57250000D03*
X181000400Y-100228400D03*
X127000000Y-63500000D03*
X171526200Y-81178400D03*
X152400000Y-114300000D03*
X176682400Y-99568000D03*
X171450000Y-114300000D03*
X171450000Y-63500000D03*
X165100000Y-114300000D03*
X171450000Y-76200000D03*
X171450000Y-88900000D03*
X150091837Y-94775180D03*
X177800000Y-107950000D03*
X152400000Y-101600000D03*
X190271389Y-100121316D03*
X177800000Y-120650000D03*
X152400000Y-107950000D03*
X190500000Y-114300000D03*
X146050000Y-63500000D03*
X184150000Y-95250000D03*
X165100000Y-76200000D03*
X146050000Y-82550000D03*
X146050000Y-95250000D03*
X146050000Y-101600000D03*
X158750000Y-63500000D03*
X184150000Y-114300000D03*
X158750000Y-101600000D03*
X184150000Y-120650000D03*
X190500000Y-95250000D03*
X177800000Y-101600000D03*
X184150000Y-88900000D03*
X192081279Y-105801585D03*
X165100000Y-82550000D03*
X184424053Y-104548585D03*
X158750000Y-107950000D03*
X165100000Y-69850000D03*
X184150000Y-82550000D03*
X177800000Y-88900000D03*
X146050000Y-88900000D03*
X146050000Y-69850000D03*
X152792749Y-90153000D03*
X152400000Y-57150000D03*
X152400000Y-63500000D03*
X165100000Y-63500000D03*
X171450000Y-95250000D03*
X158750000Y-82550000D03*
X163206576Y-95053625D03*
X155911329Y-75478971D03*
X146050000Y-76200000D03*
X172161200Y-101513539D03*
X184150000Y-76200000D03*
X177800000Y-114300000D03*
X190500000Y-120650000D03*
X184150000Y-107950000D03*
X156607440Y-94691647D03*
X163150887Y-88760777D03*
X152400000Y-82550000D03*
X177800000Y-76200000D03*
%TO.N,Net-(U6-Q0)*%
X161290000Y-78638400D03*
X159000000Y-81000000D03*
%TO.N,RESET*%
X157917213Y-90174999D03*
X159842200Y-77500000D03*
%TD*%
%TA.AperFunction,Conductor*%
%TO.N,GND*%
G36*
X145695952Y-55505417D02*
G01*
X147080386Y-55544260D01*
X147083735Y-55544401D01*
X147753994Y-55582042D01*
X147819823Y-55605455D01*
X147862545Y-55660741D01*
X147868595Y-55730348D01*
X147836052Y-55792177D01*
X147785359Y-55823778D01*
X147674195Y-55859897D01*
X147463830Y-55967084D01*
X147380894Y-56027340D01*
X148079766Y-56726212D01*
X148037708Y-56737482D01*
X147912292Y-56809890D01*
X147809890Y-56912292D01*
X147737482Y-57037708D01*
X147726212Y-57079766D01*
X147027340Y-56380894D01*
X146967084Y-56463830D01*
X146859897Y-56674197D01*
X146786934Y-56898752D01*
X146750000Y-57131947D01*
X146750000Y-57368052D01*
X146786934Y-57601247D01*
X146859897Y-57825802D01*
X146967087Y-58036174D01*
X147027338Y-58119104D01*
X147027340Y-58119105D01*
X147726212Y-57420233D01*
X147737482Y-57462292D01*
X147809890Y-57587708D01*
X147912292Y-57690110D01*
X148037708Y-57762518D01*
X148079765Y-57773787D01*
X147380893Y-58472658D01*
X147463828Y-58532914D01*
X147674197Y-58640102D01*
X147898752Y-58713065D01*
X147898751Y-58713065D01*
X148131948Y-58750000D01*
X148368052Y-58750000D01*
X148601247Y-58713065D01*
X148825802Y-58640102D01*
X149036163Y-58532918D01*
X149036169Y-58532914D01*
X149119104Y-58472658D01*
X149119105Y-58472658D01*
X148420233Y-57773787D01*
X148462292Y-57762518D01*
X148587708Y-57690110D01*
X148690110Y-57587708D01*
X148762518Y-57462292D01*
X148773787Y-57420234D01*
X149472658Y-58119105D01*
X149472658Y-58119104D01*
X149532914Y-58036169D01*
X149532918Y-58036163D01*
X149640102Y-57825802D01*
X149713065Y-57601247D01*
X149750000Y-57368052D01*
X149750000Y-57131947D01*
X149713065Y-56898752D01*
X149640102Y-56674197D01*
X149532914Y-56463828D01*
X149472658Y-56380894D01*
X149472658Y-56380893D01*
X148773787Y-57079765D01*
X148762518Y-57037708D01*
X148690110Y-56912292D01*
X148587708Y-56809890D01*
X148462292Y-56737482D01*
X148420234Y-56726212D01*
X149119105Y-56027340D01*
X149119104Y-56027338D01*
X149036174Y-55967087D01*
X148901273Y-55898351D01*
X148850477Y-55850376D01*
X148833682Y-55782555D01*
X148856219Y-55716420D01*
X148910935Y-55672969D01*
X148967988Y-55664305D01*
X149850124Y-55738712D01*
X149853470Y-55739042D01*
X151193980Y-55890080D01*
X151229760Y-55894112D01*
X151233213Y-55894550D01*
X152604545Y-56088150D01*
X152607935Y-56088677D01*
X153973367Y-56320673D01*
X153976768Y-56321301D01*
X155335101Y-56591490D01*
X155338440Y-56592203D01*
X156671418Y-56896446D01*
X156688689Y-56900388D01*
X156692063Y-56901207D01*
X158033165Y-57247149D01*
X158036411Y-57248035D01*
X159367349Y-57631472D01*
X159370558Y-57632445D01*
X160690146Y-58053035D01*
X160693377Y-58054115D01*
X161889503Y-58472658D01*
X162000664Y-58511555D01*
X162003928Y-58512749D01*
X162056764Y-58532918D01*
X163297789Y-59006642D01*
X163301021Y-59007928D01*
X164580537Y-59537921D01*
X164583731Y-59539297D01*
X165847879Y-60104966D01*
X165851003Y-60106417D01*
X166523320Y-60430188D01*
X167098812Y-60707330D01*
X167101924Y-60708883D01*
X168332385Y-61344554D01*
X168335379Y-61346153D01*
X169270829Y-61863159D01*
X169547556Y-62016101D01*
X169550576Y-62017826D01*
X170743427Y-62721471D01*
X170746398Y-62723280D01*
X171018916Y-62894514D01*
X171829579Y-63403887D01*
X171919066Y-63460115D01*
X171921975Y-63462000D01*
X173073523Y-64231441D01*
X173076343Y-64233383D01*
X174205920Y-65034859D01*
X174208668Y-65036869D01*
X174904624Y-65560630D01*
X175315241Y-65869651D01*
X175317991Y-65871781D01*
X176400790Y-66735285D01*
X176403478Y-66737491D01*
X177461613Y-67631006D01*
X177464239Y-67633287D01*
X177530841Y-67692806D01*
X178236426Y-68323355D01*
X178496909Y-68556136D01*
X178499465Y-68558485D01*
X178581126Y-68635689D01*
X179505866Y-69509954D01*
X179508359Y-69512379D01*
X180487620Y-70491640D01*
X180490045Y-70494133D01*
X181272137Y-71321379D01*
X181441509Y-71500529D01*
X181443863Y-71503090D01*
X182366712Y-72535760D01*
X182368993Y-72538386D01*
X183262508Y-73596521D01*
X183264714Y-73599209D01*
X184128218Y-74682008D01*
X184130348Y-74684758D01*
X184634876Y-75355157D01*
X184886562Y-75689590D01*
X184963108Y-75791301D01*
X184965148Y-75794092D01*
X185629397Y-76730263D01*
X185766601Y-76923634D01*
X185768568Y-76926491D01*
X186153282Y-77502256D01*
X186537992Y-78078014D01*
X186539884Y-78080933D01*
X187276719Y-79253601D01*
X187278528Y-79256572D01*
X187982173Y-80449423D01*
X187983898Y-80452443D01*
X188653826Y-81664584D01*
X188655465Y-81667651D01*
X189291116Y-82898075D01*
X189292669Y-82901187D01*
X189893575Y-84148981D01*
X189895040Y-84152136D01*
X190460702Y-85416268D01*
X190462078Y-85419462D01*
X190992071Y-86698978D01*
X190993357Y-86702210D01*
X191487249Y-87996069D01*
X191488444Y-87999335D01*
X191945873Y-89306589D01*
X191946975Y-89309888D01*
X191996607Y-89465608D01*
X192343567Y-90554184D01*
X192367535Y-90629381D01*
X192368541Y-90632695D01*
X192698905Y-91779414D01*
X192751949Y-91963533D01*
X192752865Y-91966889D01*
X193098790Y-93307931D01*
X193099611Y-93311310D01*
X193407789Y-94661528D01*
X193408515Y-94664930D01*
X193678696Y-96023222D01*
X193679327Y-96026642D01*
X193911318Y-97392041D01*
X193911852Y-97395478D01*
X194105449Y-98766789D01*
X194105887Y-98770239D01*
X194260951Y-100146471D01*
X194261292Y-100149933D01*
X194377695Y-101529955D01*
X194377939Y-101533424D01*
X194455595Y-102916202D01*
X194455741Y-102919677D01*
X194494583Y-104304047D01*
X194494632Y-104307525D01*
X194494632Y-105692474D01*
X194494583Y-105695952D01*
X194455741Y-107080322D01*
X194455595Y-107083797D01*
X194377939Y-108466575D01*
X194377695Y-108470044D01*
X194261292Y-109850066D01*
X194260951Y-109853528D01*
X194105887Y-111229760D01*
X194105449Y-111233210D01*
X193911852Y-112604521D01*
X193911318Y-112607958D01*
X193679327Y-113973357D01*
X193678696Y-113976777D01*
X193408515Y-115335069D01*
X193407789Y-115338471D01*
X193099611Y-116688689D01*
X193098790Y-116692068D01*
X192752865Y-118033110D01*
X192751949Y-118036466D01*
X192368545Y-119367290D01*
X192367535Y-119370618D01*
X191946975Y-120690111D01*
X191945873Y-120693410D01*
X191488444Y-122000664D01*
X191487249Y-122003930D01*
X190993357Y-123297789D01*
X190992071Y-123301021D01*
X190462078Y-124580537D01*
X190460702Y-124583731D01*
X189895040Y-125847863D01*
X189893575Y-125851018D01*
X189292669Y-127098812D01*
X189291116Y-127101924D01*
X188655465Y-128332348D01*
X188653826Y-128335415D01*
X187983898Y-129547556D01*
X187982173Y-129550576D01*
X187278528Y-130743427D01*
X187276719Y-130746398D01*
X186539884Y-131919066D01*
X186537992Y-131921985D01*
X185768573Y-133073501D01*
X185766601Y-133076365D01*
X184965161Y-134205890D01*
X184963108Y-134208698D01*
X184130348Y-135315241D01*
X184128218Y-135317991D01*
X183264714Y-136400790D01*
X183262508Y-136403478D01*
X182368993Y-137461613D01*
X182366712Y-137464239D01*
X181443863Y-138496909D01*
X181441509Y-138499470D01*
X180490045Y-139505866D01*
X180487620Y-139508359D01*
X179508359Y-140487620D01*
X179505866Y-140490045D01*
X178499470Y-141441509D01*
X178496909Y-141443863D01*
X177464239Y-142366712D01*
X177461613Y-142368993D01*
X176403478Y-143262508D01*
X176400790Y-143264714D01*
X175317991Y-144128218D01*
X175315241Y-144130348D01*
X174208698Y-144963108D01*
X174205890Y-144965161D01*
X173076365Y-145766601D01*
X173073501Y-145768573D01*
X171921985Y-146537992D01*
X171919066Y-146539884D01*
X170746398Y-147276719D01*
X170743427Y-147278528D01*
X169550576Y-147982173D01*
X169547556Y-147983898D01*
X168335415Y-148653826D01*
X168332348Y-148655465D01*
X167101924Y-149291116D01*
X167098812Y-149292669D01*
X165851018Y-149893575D01*
X165847863Y-149895040D01*
X164583731Y-150460702D01*
X164580537Y-150462078D01*
X163301021Y-150992071D01*
X163297789Y-150993357D01*
X162003930Y-151487249D01*
X162000664Y-151488444D01*
X160693410Y-151945873D01*
X160690111Y-151946975D01*
X159370618Y-152367535D01*
X159367290Y-152368545D01*
X158036466Y-152751949D01*
X158033110Y-152752865D01*
X156692068Y-153098790D01*
X156688689Y-153099611D01*
X155338471Y-153407789D01*
X155335069Y-153408515D01*
X153976777Y-153678696D01*
X153973357Y-153679327D01*
X152607958Y-153911318D01*
X152604521Y-153911852D01*
X151233210Y-154105449D01*
X151229760Y-154105887D01*
X149853528Y-154260951D01*
X149850066Y-154261292D01*
X148470044Y-154377695D01*
X148466575Y-154377939D01*
X147083797Y-154455595D01*
X147080322Y-154455741D01*
X145695952Y-154494583D01*
X145692474Y-154494632D01*
X144307526Y-154494632D01*
X144304048Y-154494583D01*
X142919677Y-154455741D01*
X142916202Y-154455595D01*
X141533424Y-154377939D01*
X141529955Y-154377695D01*
X140149933Y-154261292D01*
X140146471Y-154260951D01*
X138770239Y-154105887D01*
X138766789Y-154105449D01*
X137395478Y-153911852D01*
X137392041Y-153911318D01*
X136026642Y-153679327D01*
X136023222Y-153678696D01*
X134664930Y-153408515D01*
X134661528Y-153407789D01*
X133311310Y-153099611D01*
X133307931Y-153098790D01*
X131966889Y-152752865D01*
X131963533Y-152751949D01*
X130632695Y-152368541D01*
X130629396Y-152367539D01*
X129309888Y-151946975D01*
X129306589Y-151945873D01*
X127999335Y-151488444D01*
X127996069Y-151487249D01*
X126702210Y-150993357D01*
X126698978Y-150992071D01*
X125419462Y-150462078D01*
X125416268Y-150460702D01*
X124152136Y-149895040D01*
X124148981Y-149893575D01*
X122901187Y-149292669D01*
X122898075Y-149291116D01*
X121667651Y-148655465D01*
X121664584Y-148653826D01*
X120452443Y-147983898D01*
X120449423Y-147982173D01*
X119256572Y-147278528D01*
X119253601Y-147276719D01*
X118080933Y-146539884D01*
X118078014Y-146537992D01*
X116926498Y-145768573D01*
X116923634Y-145766601D01*
X115794092Y-144965148D01*
X115791318Y-144963120D01*
X115369272Y-144645498D01*
X114684758Y-144130348D01*
X114682008Y-144128218D01*
X113599209Y-143264714D01*
X113596521Y-143262508D01*
X112538386Y-142368993D01*
X112535760Y-142366712D01*
X111503090Y-141443863D01*
X111500529Y-141441509D01*
X110494133Y-140490045D01*
X110491640Y-140487620D01*
X109512379Y-139508359D01*
X109509954Y-139505866D01*
X108558490Y-138499470D01*
X108556136Y-138496909D01*
X107633287Y-137464239D01*
X107631006Y-137461613D01*
X106737491Y-136403478D01*
X106735285Y-136400790D01*
X105871781Y-135317991D01*
X105869651Y-135315241D01*
X105482541Y-134800863D01*
X105036869Y-134208668D01*
X105034859Y-134205920D01*
X104233383Y-133076343D01*
X104231426Y-133073501D01*
X104068823Y-132830149D01*
X103462000Y-131921975D01*
X103460115Y-131919066D01*
X103401635Y-131825996D01*
X102965508Y-131131902D01*
X103749500Y-131131902D01*
X103749500Y-131368097D01*
X103786446Y-131601368D01*
X103859433Y-131825996D01*
X103956029Y-132015575D01*
X103966657Y-132036433D01*
X104105483Y-132227510D01*
X104272490Y-132394517D01*
X104463567Y-132533343D01*
X104562991Y-132584002D01*
X104674003Y-132640566D01*
X104674005Y-132640566D01*
X104674008Y-132640568D01*
X104794412Y-132679689D01*
X104898631Y-132713553D01*
X105131903Y-132750500D01*
X105131908Y-132750500D01*
X105368097Y-132750500D01*
X105601368Y-132713553D01*
X105825992Y-132640568D01*
X106036433Y-132533343D01*
X106227510Y-132394517D01*
X106394517Y-132227510D01*
X106533343Y-132036433D01*
X106640568Y-131825992D01*
X106713553Y-131601368D01*
X106750500Y-131368097D01*
X106750500Y-131321485D01*
X183073057Y-131321485D01*
X183073057Y-131557680D01*
X183110003Y-131790951D01*
X183182990Y-132015579D01*
X183290214Y-132226016D01*
X183429040Y-132417093D01*
X183596047Y-132584100D01*
X183787124Y-132722926D01*
X183841241Y-132750500D01*
X183997560Y-132830149D01*
X183997562Y-132830149D01*
X183997565Y-132830151D01*
X184117969Y-132869272D01*
X184222188Y-132903136D01*
X184455460Y-132940083D01*
X184455465Y-132940083D01*
X184691654Y-132940083D01*
X184924925Y-132903136D01*
X185149549Y-132830151D01*
X185359990Y-132722926D01*
X185551067Y-132584100D01*
X185718074Y-132417093D01*
X185856900Y-132226016D01*
X185964125Y-132015575D01*
X186037110Y-131790951D01*
X186067137Y-131601368D01*
X186074057Y-131557680D01*
X186074057Y-131321485D01*
X186037110Y-131088214D01*
X186003246Y-130983995D01*
X185964125Y-130863591D01*
X185964123Y-130863588D01*
X185964123Y-130863586D01*
X185875718Y-130690083D01*
X185856900Y-130653150D01*
X185718074Y-130462073D01*
X185551067Y-130295066D01*
X185359990Y-130156240D01*
X185149553Y-130049016D01*
X184924925Y-129976029D01*
X184691654Y-129939083D01*
X184691649Y-129939083D01*
X184455465Y-129939083D01*
X184455460Y-129939083D01*
X184222188Y-129976029D01*
X183997560Y-130049016D01*
X183787123Y-130156240D01*
X183772183Y-130167095D01*
X183596047Y-130295066D01*
X183596045Y-130295068D01*
X183596044Y-130295068D01*
X183429042Y-130462070D01*
X183429042Y-130462071D01*
X183429040Y-130462073D01*
X183427955Y-130463567D01*
X183290214Y-130653149D01*
X183182990Y-130863586D01*
X183110003Y-131088214D01*
X183073057Y-131321485D01*
X106750500Y-131321485D01*
X106750500Y-131131902D01*
X106713553Y-130898631D01*
X106640566Y-130674003D01*
X106552161Y-130500500D01*
X106533343Y-130463567D01*
X106394517Y-130272490D01*
X106227510Y-130105483D01*
X106036433Y-129966657D01*
X105982316Y-129939083D01*
X105825996Y-129859433D01*
X105601368Y-129786446D01*
X105368097Y-129749500D01*
X105368092Y-129749500D01*
X105131908Y-129749500D01*
X105131903Y-129749500D01*
X104898631Y-129786446D01*
X104674003Y-129859433D01*
X104463566Y-129966657D01*
X104448626Y-129977512D01*
X104272490Y-130105483D01*
X104272488Y-130105485D01*
X104272487Y-130105485D01*
X104105485Y-130272487D01*
X104105485Y-130272488D01*
X104105483Y-130272490D01*
X104097599Y-130283342D01*
X103966657Y-130463566D01*
X103859433Y-130674003D01*
X103786446Y-130898631D01*
X103749500Y-131131902D01*
X102965508Y-131131902D01*
X102723280Y-130746398D01*
X102721471Y-130743427D01*
X102017826Y-129550576D01*
X102016101Y-129547556D01*
X102012451Y-129540951D01*
X101648206Y-128881902D01*
X107646614Y-128881902D01*
X107646614Y-129118097D01*
X107683560Y-129351368D01*
X107756547Y-129575996D01*
X107844953Y-129749500D01*
X107863771Y-129786433D01*
X108002597Y-129977510D01*
X108169604Y-130144517D01*
X108360681Y-130283343D01*
X108383689Y-130295066D01*
X108571117Y-130390566D01*
X108571119Y-130390566D01*
X108571122Y-130390568D01*
X108691526Y-130429689D01*
X108795745Y-130463553D01*
X109029017Y-130500500D01*
X109029022Y-130500500D01*
X109265211Y-130500500D01*
X109498482Y-130463553D01*
X109503046Y-130462070D01*
X109723106Y-130390568D01*
X109933547Y-130283343D01*
X110124624Y-130144517D01*
X110291631Y-129977510D01*
X110430457Y-129786433D01*
X110537682Y-129575992D01*
X110610667Y-129351368D01*
X110647614Y-129118097D01*
X110647614Y-129071485D01*
X179175943Y-129071485D01*
X179175943Y-129307680D01*
X179212889Y-129540951D01*
X179285876Y-129765579D01*
X179374282Y-129939083D01*
X179393100Y-129976016D01*
X179531926Y-130167093D01*
X179698933Y-130334100D01*
X179890010Y-130472926D01*
X179944127Y-130500500D01*
X180100446Y-130580149D01*
X180100448Y-130580149D01*
X180100451Y-130580151D01*
X180220855Y-130619272D01*
X180325074Y-130653136D01*
X180558346Y-130690083D01*
X180558351Y-130690083D01*
X180794540Y-130690083D01*
X181027811Y-130653136D01*
X181252435Y-130580151D01*
X181462876Y-130472926D01*
X181653953Y-130334100D01*
X181820960Y-130167093D01*
X181959786Y-129976016D01*
X182067011Y-129765575D01*
X182139996Y-129540951D01*
X182170023Y-129351368D01*
X182176943Y-129307680D01*
X182176943Y-129071485D01*
X182139996Y-128838214D01*
X182106132Y-128733995D01*
X182067011Y-128613591D01*
X182067009Y-128613588D01*
X182067009Y-128613586D01*
X182010445Y-128502574D01*
X181959786Y-128403150D01*
X181820960Y-128212073D01*
X181653953Y-128045066D01*
X181462876Y-127906240D01*
X181252439Y-127799016D01*
X181027811Y-127726029D01*
X180794540Y-127689083D01*
X180794535Y-127689083D01*
X180558351Y-127689083D01*
X180558346Y-127689083D01*
X180325074Y-127726029D01*
X180100446Y-127799016D01*
X179890009Y-127906240D01*
X179780993Y-127985445D01*
X179698933Y-128045066D01*
X179698931Y-128045068D01*
X179698930Y-128045068D01*
X179531928Y-128212070D01*
X179531928Y-128212071D01*
X179531926Y-128212073D01*
X179530841Y-128213567D01*
X179393100Y-128403149D01*
X179285876Y-128613586D01*
X179212889Y-128838214D01*
X179175943Y-129071485D01*
X110647614Y-129071485D01*
X110647614Y-128881902D01*
X110610667Y-128648631D01*
X110537680Y-128424003D01*
X110430456Y-128213566D01*
X110291631Y-128022490D01*
X110124624Y-127855483D01*
X109933547Y-127716657D01*
X109879430Y-127689083D01*
X109723110Y-127609433D01*
X109498482Y-127536446D01*
X109265211Y-127499500D01*
X109265206Y-127499500D01*
X109029022Y-127499500D01*
X109029017Y-127499500D01*
X108795745Y-127536446D01*
X108571117Y-127609433D01*
X108360680Y-127716657D01*
X108251664Y-127795862D01*
X108169604Y-127855483D01*
X108169602Y-127855485D01*
X108169601Y-127855485D01*
X108002599Y-128022487D01*
X108002599Y-128022488D01*
X108002597Y-128022490D01*
X107986195Y-128045066D01*
X107863771Y-128213566D01*
X107756547Y-128424003D01*
X107683560Y-128648631D01*
X107646614Y-128881902D01*
X101648206Y-128881902D01*
X101346153Y-128335379D01*
X101344554Y-128332385D01*
X100797764Y-127273971D01*
X100708883Y-127101924D01*
X100707330Y-127098812D01*
X100106424Y-125851018D01*
X100104959Y-125847863D01*
X100056213Y-125738927D01*
X99950525Y-125502737D01*
X100499500Y-125502737D01*
X100499500Y-125738932D01*
X100536446Y-125972203D01*
X100609433Y-126196831D01*
X100648334Y-126273177D01*
X100716657Y-126407268D01*
X100855483Y-126598345D01*
X101022490Y-126765352D01*
X101213567Y-126904178D01*
X101312991Y-126954837D01*
X101424003Y-127011401D01*
X101424005Y-127011401D01*
X101424008Y-127011403D01*
X101544412Y-127050524D01*
X101648631Y-127084388D01*
X101881903Y-127121335D01*
X101881908Y-127121335D01*
X102118097Y-127121335D01*
X102351368Y-127084388D01*
X102575992Y-127011403D01*
X102786433Y-126904178D01*
X102977510Y-126765352D01*
X103144517Y-126598345D01*
X103283343Y-126407268D01*
X103390568Y-126196827D01*
X103463553Y-125972203D01*
X103500500Y-125738932D01*
X103500500Y-125692320D01*
X186323057Y-125692320D01*
X186323057Y-125928515D01*
X186360003Y-126161786D01*
X186432990Y-126386414D01*
X186540214Y-126596851D01*
X186679040Y-126787928D01*
X186846047Y-126954935D01*
X187037124Y-127093761D01*
X187091241Y-127121335D01*
X187247560Y-127200984D01*
X187247562Y-127200984D01*
X187247565Y-127200986D01*
X187367969Y-127240107D01*
X187472188Y-127273971D01*
X187705460Y-127310918D01*
X187705465Y-127310918D01*
X187941654Y-127310918D01*
X188174925Y-127273971D01*
X188399549Y-127200986D01*
X188609990Y-127093761D01*
X188801067Y-126954935D01*
X188968074Y-126787928D01*
X189106900Y-126596851D01*
X189214125Y-126386410D01*
X189287110Y-126161786D01*
X189317137Y-125972203D01*
X189324057Y-125928515D01*
X189324057Y-125692320D01*
X189287110Y-125459049D01*
X189253246Y-125354830D01*
X189214125Y-125234426D01*
X189214123Y-125234423D01*
X189214123Y-125234421D01*
X189125718Y-125060918D01*
X189106900Y-125023985D01*
X188968074Y-124832908D01*
X188801067Y-124665901D01*
X188609990Y-124527075D01*
X188399553Y-124419851D01*
X188174925Y-124346864D01*
X187941654Y-124309918D01*
X187941649Y-124309918D01*
X187705465Y-124309918D01*
X187705460Y-124309918D01*
X187472188Y-124346864D01*
X187247560Y-124419851D01*
X187037123Y-124527075D01*
X186959144Y-124583731D01*
X186846047Y-124665901D01*
X186846045Y-124665903D01*
X186846044Y-124665903D01*
X186679042Y-124832905D01*
X186679042Y-124832906D01*
X186679040Y-124832908D01*
X186677955Y-124834402D01*
X186540214Y-125023984D01*
X186432990Y-125234421D01*
X186360003Y-125459049D01*
X186323057Y-125692320D01*
X103500500Y-125692320D01*
X103500500Y-125502737D01*
X103463553Y-125269466D01*
X103390566Y-125044838D01*
X103302161Y-124871335D01*
X103283343Y-124834402D01*
X103144517Y-124643325D01*
X102977510Y-124476318D01*
X102786433Y-124337492D01*
X102732316Y-124309918D01*
X102575996Y-124230268D01*
X102351368Y-124157281D01*
X102118097Y-124120335D01*
X102118092Y-124120335D01*
X101881908Y-124120335D01*
X101881903Y-124120335D01*
X101648631Y-124157281D01*
X101424003Y-124230268D01*
X101213566Y-124337492D01*
X101198626Y-124348347D01*
X101022490Y-124476318D01*
X101022488Y-124476320D01*
X101022487Y-124476320D01*
X100855485Y-124643322D01*
X100855485Y-124643323D01*
X100855483Y-124643325D01*
X100847599Y-124654177D01*
X100716657Y-124834401D01*
X100609433Y-125044838D01*
X100536446Y-125269466D01*
X100499500Y-125502737D01*
X99950525Y-125502737D01*
X99736297Y-125023984D01*
X99539297Y-124583731D01*
X99537921Y-124580537D01*
X99007928Y-123301021D01*
X99006644Y-123297795D01*
X99006642Y-123297789D01*
X98989445Y-123252737D01*
X104396614Y-123252737D01*
X104396614Y-123488932D01*
X104433560Y-123722203D01*
X104506547Y-123946831D01*
X104594953Y-124120335D01*
X104613771Y-124157268D01*
X104752597Y-124348345D01*
X104919604Y-124515352D01*
X105110681Y-124654178D01*
X105133689Y-124665901D01*
X105321117Y-124761401D01*
X105321119Y-124761401D01*
X105321122Y-124761403D01*
X105441526Y-124800524D01*
X105545745Y-124834388D01*
X105779017Y-124871335D01*
X105779022Y-124871335D01*
X106015211Y-124871335D01*
X106248482Y-124834388D01*
X106253046Y-124832905D01*
X106473106Y-124761403D01*
X106683547Y-124654178D01*
X106874624Y-124515352D01*
X107041631Y-124348345D01*
X107180457Y-124157268D01*
X107287682Y-123946827D01*
X107360667Y-123722203D01*
X107397614Y-123488932D01*
X107397614Y-123442320D01*
X182425943Y-123442320D01*
X182425943Y-123678515D01*
X182462889Y-123911786D01*
X182535876Y-124136414D01*
X182624282Y-124309918D01*
X182643100Y-124346851D01*
X182781926Y-124537928D01*
X182948933Y-124704935D01*
X183140010Y-124843761D01*
X183194127Y-124871335D01*
X183350446Y-124950984D01*
X183350448Y-124950984D01*
X183350451Y-124950986D01*
X183440061Y-124980102D01*
X183575074Y-125023971D01*
X183808346Y-125060918D01*
X183808351Y-125060918D01*
X184044540Y-125060918D01*
X184277811Y-125023971D01*
X184502435Y-124950986D01*
X184712876Y-124843761D01*
X184903953Y-124704935D01*
X185070960Y-124537928D01*
X185209786Y-124346851D01*
X185317011Y-124136410D01*
X185389996Y-123911786D01*
X185420023Y-123722203D01*
X185426943Y-123678515D01*
X185426943Y-123442320D01*
X185389996Y-123209049D01*
X185356132Y-123104830D01*
X185317011Y-122984426D01*
X185317009Y-122984423D01*
X185317009Y-122984421D01*
X185260445Y-122873409D01*
X185209786Y-122773985D01*
X185070960Y-122582908D01*
X184903953Y-122415901D01*
X184712876Y-122277075D01*
X184502439Y-122169851D01*
X184277811Y-122096864D01*
X184044540Y-122059918D01*
X184044535Y-122059918D01*
X183808351Y-122059918D01*
X183808346Y-122059918D01*
X183575074Y-122096864D01*
X183350446Y-122169851D01*
X183140009Y-122277075D01*
X183042633Y-122347824D01*
X182948933Y-122415901D01*
X182948931Y-122415903D01*
X182948930Y-122415903D01*
X182781928Y-122582905D01*
X182781928Y-122582906D01*
X182781926Y-122582908D01*
X182780841Y-122584402D01*
X182643100Y-122773984D01*
X182535876Y-122984421D01*
X182462889Y-123209049D01*
X182425943Y-123442320D01*
X107397614Y-123442320D01*
X107397614Y-123252737D01*
X107360667Y-123019466D01*
X107287680Y-122794838D01*
X107180456Y-122584401D01*
X107041631Y-122393325D01*
X106874624Y-122226318D01*
X106683547Y-122087492D01*
X106629430Y-122059918D01*
X106473110Y-121980268D01*
X106248482Y-121907281D01*
X106015211Y-121870335D01*
X106015206Y-121870335D01*
X105779022Y-121870335D01*
X105779017Y-121870335D01*
X105545745Y-121907281D01*
X105321117Y-121980268D01*
X105110680Y-122087492D01*
X105001664Y-122166697D01*
X104919604Y-122226318D01*
X104919602Y-122226320D01*
X104919601Y-122226320D01*
X104752599Y-122393322D01*
X104752599Y-122393323D01*
X104752597Y-122393325D01*
X104736195Y-122415901D01*
X104613771Y-122584401D01*
X104506547Y-122794838D01*
X104433560Y-123019466D01*
X104396614Y-123252737D01*
X98989445Y-123252737D01*
X98512749Y-122003928D01*
X98511555Y-122000664D01*
X98165148Y-121010692D01*
X98054115Y-120693377D01*
X98053035Y-120690146D01*
X97632445Y-119370558D01*
X97631472Y-119367349D01*
X97248035Y-118036411D01*
X97247149Y-118033165D01*
X96901207Y-116692063D01*
X96900388Y-116688689D01*
X96592210Y-115338471D01*
X96591484Y-115335069D01*
X96321303Y-113976777D01*
X96320672Y-113973357D01*
X96088681Y-112607958D01*
X96088147Y-112604521D01*
X95894550Y-111233210D01*
X95894112Y-111229760D01*
X95890080Y-111193980D01*
X95739042Y-109853470D01*
X95738712Y-109850124D01*
X95622303Y-108470036D01*
X95622060Y-108466575D01*
X95620301Y-108435246D01*
X95611445Y-108277553D01*
X186829300Y-108277553D01*
X186829300Y-108435246D01*
X186860061Y-108589889D01*
X186860064Y-108589901D01*
X186920402Y-108735572D01*
X186920409Y-108735585D01*
X187008010Y-108866688D01*
X187008013Y-108866692D01*
X187119507Y-108978186D01*
X187119511Y-108978189D01*
X187250614Y-109065790D01*
X187250627Y-109065797D01*
X187396298Y-109126135D01*
X187396303Y-109126137D01*
X187550953Y-109156899D01*
X187550956Y-109156900D01*
X187550958Y-109156900D01*
X187708644Y-109156900D01*
X187708645Y-109156899D01*
X187863297Y-109126137D01*
X188008979Y-109065794D01*
X188081609Y-109017263D01*
X188148286Y-108996386D01*
X188215666Y-109014870D01*
X188219385Y-109017260D01*
X188292021Y-109065794D01*
X188292023Y-109065795D01*
X188292027Y-109065797D01*
X188437698Y-109126135D01*
X188437703Y-109126137D01*
X188592353Y-109156899D01*
X188592356Y-109156900D01*
X188592358Y-109156900D01*
X188750044Y-109156900D01*
X188750045Y-109156899D01*
X188904697Y-109126137D01*
X189050379Y-109065794D01*
X189181489Y-108978189D01*
X189292989Y-108866689D01*
X189380594Y-108735579D01*
X189440937Y-108589897D01*
X189462889Y-108479536D01*
X189495272Y-108417629D01*
X189555988Y-108383055D01*
X189625757Y-108386794D01*
X189658171Y-108405060D01*
X189658393Y-108404730D01*
X189662745Y-108407637D01*
X189663171Y-108407878D01*
X189663451Y-108408107D01*
X189663458Y-108408114D01*
X189677698Y-108417629D01*
X189778182Y-108484771D01*
X189778195Y-108484778D01*
X189905667Y-108537578D01*
X189905672Y-108537580D01*
X189905676Y-108537580D01*
X189905677Y-108537581D01*
X190041004Y-108564500D01*
X190041007Y-108564500D01*
X190178995Y-108564500D01*
X190270041Y-108546389D01*
X190314328Y-108537580D01*
X190441811Y-108484775D01*
X190556542Y-108408114D01*
X190654114Y-108310542D01*
X190730775Y-108195811D01*
X190783580Y-108068328D01*
X190801701Y-107977227D01*
X190810500Y-107932995D01*
X190810500Y-107795004D01*
X190783581Y-107659677D01*
X190783580Y-107659676D01*
X190783580Y-107659672D01*
X190778332Y-107647002D01*
X190730778Y-107532195D01*
X190730771Y-107532182D01*
X190654114Y-107417458D01*
X190654111Y-107417454D01*
X190556545Y-107319888D01*
X190556541Y-107319885D01*
X190441817Y-107243228D01*
X190441804Y-107243221D01*
X190314332Y-107190421D01*
X190314322Y-107190418D01*
X190178995Y-107163500D01*
X190178993Y-107163500D01*
X190041007Y-107163500D01*
X190041005Y-107163500D01*
X189905677Y-107190418D01*
X189905667Y-107190421D01*
X189778195Y-107243221D01*
X189778182Y-107243228D01*
X189663458Y-107319885D01*
X189663454Y-107319888D01*
X189565888Y-107417454D01*
X189565885Y-107417458D01*
X189489228Y-107532182D01*
X189489221Y-107532195D01*
X189436421Y-107659667D01*
X189436418Y-107659677D01*
X189426949Y-107707283D01*
X189394564Y-107769194D01*
X189333848Y-107803768D01*
X189264078Y-107800028D01*
X189217651Y-107770772D01*
X189181492Y-107734613D01*
X189181488Y-107734610D01*
X189050385Y-107647009D01*
X189050372Y-107647002D01*
X188904701Y-107586664D01*
X188904689Y-107586661D01*
X188750045Y-107555900D01*
X188750042Y-107555900D01*
X188592358Y-107555900D01*
X188592355Y-107555900D01*
X188437710Y-107586661D01*
X188437698Y-107586664D01*
X188292027Y-107647002D01*
X188292014Y-107647009D01*
X188219391Y-107695535D01*
X188152713Y-107716413D01*
X188085333Y-107697928D01*
X188081609Y-107695535D01*
X188008985Y-107647009D01*
X188008972Y-107647002D01*
X187863301Y-107586664D01*
X187863289Y-107586661D01*
X187708645Y-107555900D01*
X187708642Y-107555900D01*
X187550958Y-107555900D01*
X187550955Y-107555900D01*
X187396310Y-107586661D01*
X187396298Y-107586664D01*
X187250627Y-107647002D01*
X187250614Y-107647009D01*
X187119511Y-107734610D01*
X187119507Y-107734613D01*
X187008013Y-107846107D01*
X187008010Y-107846111D01*
X186920409Y-107977214D01*
X186920402Y-107977227D01*
X186860064Y-108122898D01*
X186860061Y-108122910D01*
X186829300Y-108277553D01*
X95611445Y-108277553D01*
X95544401Y-107083735D01*
X95544260Y-107080386D01*
X95505417Y-105695952D01*
X95505368Y-105692474D01*
X95505368Y-104307525D01*
X95505417Y-104304047D01*
X95505764Y-104291686D01*
X95542014Y-102999655D01*
X148999500Y-102999655D01*
X148999500Y-104000354D01*
X149005825Y-104069966D01*
X149005828Y-104069977D01*
X149055747Y-104230175D01*
X149055749Y-104230179D01*
X149142556Y-104373777D01*
X149142560Y-104373782D01*
X149261217Y-104492439D01*
X149261222Y-104492443D01*
X149381815Y-104565343D01*
X149404822Y-104579251D01*
X149565029Y-104629173D01*
X149634653Y-104635500D01*
X151365346Y-104635499D01*
X151365353Y-104635499D01*
X151434966Y-104629174D01*
X151434969Y-104629173D01*
X151434971Y-104629173D01*
X151595178Y-104579251D01*
X151669089Y-104534570D01*
X151738777Y-104492443D01*
X151738778Y-104492441D01*
X151738783Y-104492439D01*
X151857439Y-104373783D01*
X151944251Y-104230178D01*
X151994173Y-104069971D01*
X152000500Y-104000347D01*
X152000499Y-103019753D01*
X160286300Y-103019753D01*
X160286300Y-103177446D01*
X160317061Y-103332089D01*
X160317064Y-103332101D01*
X160377402Y-103477772D01*
X160377409Y-103477785D01*
X160465010Y-103608888D01*
X160465013Y-103608892D01*
X160576507Y-103720386D01*
X160576511Y-103720389D01*
X160707614Y-103807990D01*
X160707627Y-103807997D01*
X160827760Y-103857757D01*
X160853303Y-103868337D01*
X161007953Y-103899099D01*
X161007956Y-103899100D01*
X161007958Y-103899100D01*
X161165644Y-103899100D01*
X161165645Y-103899099D01*
X161320297Y-103868337D01*
X161465979Y-103807994D01*
X161597089Y-103720389D01*
X161708589Y-103608889D01*
X161796194Y-103477779D01*
X161856537Y-103332097D01*
X161866973Y-103279633D01*
X167253800Y-103279633D01*
X167253800Y-103476366D01*
X167284573Y-103670662D01*
X167345366Y-103857761D01*
X167434675Y-104033038D01*
X167550306Y-104192190D01*
X167689410Y-104331294D01*
X167848562Y-104446925D01*
X167931374Y-104489120D01*
X168023838Y-104536233D01*
X168023840Y-104536233D01*
X168023843Y-104536235D01*
X168124130Y-104568820D01*
X168210937Y-104597026D01*
X168405234Y-104627800D01*
X168405239Y-104627800D01*
X168601966Y-104627800D01*
X168796262Y-104597026D01*
X168983357Y-104536235D01*
X169158638Y-104446925D01*
X169317790Y-104331294D01*
X169456894Y-104192190D01*
X169572525Y-104033038D01*
X169661835Y-103857757D01*
X169722626Y-103670662D01*
X169722997Y-103668322D01*
X169744431Y-103532995D01*
X189409499Y-103532995D01*
X189436418Y-103668322D01*
X189436421Y-103668332D01*
X189489221Y-103795804D01*
X189489228Y-103795817D01*
X189565885Y-103910541D01*
X189565888Y-103910545D01*
X189663454Y-104008111D01*
X189663458Y-104008114D01*
X189778182Y-104084771D01*
X189778195Y-104084778D01*
X189905667Y-104137578D01*
X189905672Y-104137580D01*
X189905676Y-104137580D01*
X189905677Y-104137581D01*
X190041004Y-104164500D01*
X190041007Y-104164500D01*
X190178995Y-104164500D01*
X190270041Y-104146389D01*
X190314328Y-104137580D01*
X190441811Y-104084775D01*
X190556542Y-104008114D01*
X190654114Y-103910542D01*
X190730775Y-103795811D01*
X190783580Y-103668328D01*
X190795403Y-103608889D01*
X190810500Y-103532995D01*
X190810500Y-103395004D01*
X190783581Y-103259677D01*
X190783580Y-103259676D01*
X190783580Y-103259672D01*
X190749521Y-103177446D01*
X190730778Y-103132195D01*
X190730771Y-103132182D01*
X190654114Y-103017458D01*
X190654111Y-103017454D01*
X190556545Y-102919888D01*
X190556541Y-102919885D01*
X190441817Y-102843228D01*
X190441804Y-102843221D01*
X190314332Y-102790421D01*
X190314322Y-102790418D01*
X190178995Y-102763500D01*
X190178993Y-102763500D01*
X190041007Y-102763500D01*
X190041005Y-102763500D01*
X189905677Y-102790418D01*
X189905667Y-102790421D01*
X189778195Y-102843221D01*
X189778182Y-102843228D01*
X189663458Y-102919885D01*
X189663454Y-102919888D01*
X189565888Y-103017454D01*
X189565885Y-103017458D01*
X189489228Y-103132182D01*
X189489221Y-103132195D01*
X189436421Y-103259667D01*
X189436418Y-103259677D01*
X189409500Y-103395004D01*
X189409500Y-103395007D01*
X189409500Y-103532993D01*
X189409500Y-103532995D01*
X189409499Y-103532995D01*
X169744431Y-103532995D01*
X169753400Y-103476366D01*
X169753400Y-103279633D01*
X169722626Y-103085337D01*
X169672163Y-102930029D01*
X169661835Y-102898243D01*
X169661833Y-102898240D01*
X169661833Y-102898238D01*
X169606897Y-102790421D01*
X169572525Y-102722962D01*
X169456894Y-102563810D01*
X169317790Y-102424706D01*
X169158638Y-102309075D01*
X168983361Y-102219766D01*
X168796262Y-102158973D01*
X168601966Y-102128200D01*
X168601961Y-102128200D01*
X168405239Y-102128200D01*
X168405234Y-102128200D01*
X168210937Y-102158973D01*
X168023838Y-102219766D01*
X167848561Y-102309075D01*
X167757759Y-102375047D01*
X167689410Y-102424706D01*
X167689408Y-102424708D01*
X167689407Y-102424708D01*
X167550308Y-102563807D01*
X167550308Y-102563808D01*
X167550306Y-102563810D01*
X167532508Y-102588307D01*
X167434675Y-102722961D01*
X167345366Y-102898238D01*
X167284573Y-103085337D01*
X167253800Y-103279633D01*
X161866973Y-103279633D01*
X161872753Y-103250576D01*
X161872753Y-103250575D01*
X161887300Y-103177444D01*
X161887300Y-103019755D01*
X161887299Y-103019753D01*
X161869452Y-102930032D01*
X161856537Y-102865103D01*
X161825602Y-102790418D01*
X161796197Y-102719427D01*
X161796190Y-102719414D01*
X161708589Y-102588311D01*
X161708586Y-102588307D01*
X161597092Y-102476813D01*
X161597088Y-102476810D01*
X161465985Y-102389209D01*
X161465972Y-102389202D01*
X161320301Y-102328864D01*
X161320289Y-102328861D01*
X161165645Y-102298100D01*
X161165642Y-102298100D01*
X161007958Y-102298100D01*
X161007955Y-102298100D01*
X160853310Y-102328861D01*
X160853298Y-102328864D01*
X160707627Y-102389202D01*
X160707614Y-102389209D01*
X160576511Y-102476810D01*
X160576507Y-102476813D01*
X160465013Y-102588307D01*
X160465010Y-102588311D01*
X160377409Y-102719414D01*
X160377402Y-102719427D01*
X160317064Y-102865098D01*
X160317061Y-102865110D01*
X160286300Y-103019753D01*
X152000499Y-103019753D01*
X152000499Y-102999654D01*
X152000499Y-102999653D01*
X152000499Y-102999645D01*
X151994174Y-102930033D01*
X151994171Y-102930022D01*
X151944252Y-102769824D01*
X151944250Y-102769820D01*
X151857443Y-102626222D01*
X151857439Y-102626217D01*
X151738782Y-102507560D01*
X151738777Y-102507556D01*
X151595180Y-102420750D01*
X151595179Y-102420749D01*
X151595178Y-102420749D01*
X151434971Y-102370827D01*
X151434969Y-102370826D01*
X151434967Y-102370826D01*
X151386221Y-102366396D01*
X151365347Y-102364500D01*
X151365344Y-102364500D01*
X149634645Y-102364500D01*
X149565033Y-102370825D01*
X149565022Y-102370828D01*
X149404824Y-102420747D01*
X149404820Y-102420749D01*
X149261222Y-102507556D01*
X149261217Y-102507560D01*
X149142560Y-102626217D01*
X149142556Y-102626222D01*
X149055750Y-102769819D01*
X149055750Y-102769820D01*
X149055749Y-102769822D01*
X149049330Y-102790421D01*
X149005826Y-102930032D01*
X149000764Y-102985736D01*
X149000072Y-102993365D01*
X148999500Y-102999655D01*
X95542014Y-102999655D01*
X95544260Y-102919613D01*
X95544401Y-102916267D01*
X95622060Y-101533411D01*
X95622304Y-101529955D01*
X95628102Y-101461214D01*
X95685593Y-100779633D01*
X162253800Y-100779633D01*
X162253800Y-100976366D01*
X162284573Y-101170662D01*
X162345366Y-101357761D01*
X162433104Y-101529955D01*
X162434675Y-101533038D01*
X162550306Y-101692190D01*
X162689410Y-101831294D01*
X162848562Y-101946925D01*
X162931374Y-101989120D01*
X163023838Y-102036233D01*
X163023840Y-102036233D01*
X163023843Y-102036235D01*
X163124130Y-102068820D01*
X163210937Y-102097026D01*
X163405234Y-102127800D01*
X163405239Y-102127800D01*
X163601966Y-102127800D01*
X163796262Y-102097026D01*
X163983357Y-102036235D01*
X164158638Y-101946925D01*
X164317790Y-101831294D01*
X164456894Y-101692190D01*
X164572525Y-101533038D01*
X164661835Y-101357757D01*
X164722626Y-101170662D01*
X164753400Y-100976366D01*
X164753400Y-100779633D01*
X164722626Y-100585337D01*
X164694420Y-100498530D01*
X164661835Y-100398243D01*
X164661833Y-100398240D01*
X164661833Y-100398238D01*
X164590730Y-100258691D01*
X164572525Y-100222962D01*
X164456894Y-100063810D01*
X164339439Y-99946355D01*
X183705102Y-99946355D01*
X183705102Y-100104048D01*
X183735863Y-100258691D01*
X183735866Y-100258703D01*
X183796204Y-100404374D01*
X183796211Y-100404387D01*
X183883812Y-100535490D01*
X183883815Y-100535494D01*
X183995309Y-100646988D01*
X183995313Y-100646991D01*
X184126416Y-100734592D01*
X184126429Y-100734599D01*
X184235167Y-100779639D01*
X184272105Y-100794939D01*
X184426755Y-100825701D01*
X184426758Y-100825702D01*
X184426760Y-100825702D01*
X184584446Y-100825702D01*
X184584447Y-100825701D01*
X184739099Y-100794939D01*
X184884781Y-100734596D01*
X185015891Y-100646991D01*
X185127391Y-100535491D01*
X185214996Y-100404381D01*
X185217539Y-100398243D01*
X185275337Y-100258703D01*
X185275339Y-100258699D01*
X185306102Y-100104044D01*
X185306102Y-99946360D01*
X185306102Y-99946357D01*
X185306101Y-99946355D01*
X185275340Y-99791712D01*
X185275339Y-99791705D01*
X185245541Y-99719765D01*
X185214999Y-99646029D01*
X185214992Y-99646016D01*
X185127391Y-99514913D01*
X185127388Y-99514909D01*
X185015894Y-99403415D01*
X185015890Y-99403412D01*
X184884787Y-99315811D01*
X184884774Y-99315804D01*
X184739103Y-99255466D01*
X184739091Y-99255463D01*
X184584447Y-99224702D01*
X184584444Y-99224702D01*
X184426760Y-99224702D01*
X184426757Y-99224702D01*
X184272112Y-99255463D01*
X184272100Y-99255466D01*
X184126429Y-99315804D01*
X184126416Y-99315811D01*
X183995313Y-99403412D01*
X183995309Y-99403415D01*
X183883815Y-99514909D01*
X183883812Y-99514913D01*
X183796211Y-99646016D01*
X183796204Y-99646029D01*
X183735866Y-99791700D01*
X183735863Y-99791712D01*
X183705102Y-99946355D01*
X164339439Y-99946355D01*
X164317790Y-99924706D01*
X164158638Y-99809075D01*
X163983361Y-99719766D01*
X163796262Y-99658973D01*
X163601966Y-99628200D01*
X163601961Y-99628200D01*
X163405239Y-99628200D01*
X163405234Y-99628200D01*
X163210937Y-99658973D01*
X163023838Y-99719766D01*
X162848561Y-99809075D01*
X162757759Y-99875047D01*
X162689410Y-99924706D01*
X162689408Y-99924708D01*
X162689407Y-99924708D01*
X162550308Y-100063807D01*
X162550308Y-100063808D01*
X162550306Y-100063810D01*
X162500647Y-100132159D01*
X162434675Y-100222961D01*
X162345366Y-100398238D01*
X162284573Y-100585337D01*
X162253800Y-100779633D01*
X95685593Y-100779633D01*
X95738713Y-100149868D01*
X95739041Y-100146536D01*
X95868262Y-98999655D01*
X148999500Y-98999655D01*
X148999500Y-100000354D01*
X149005825Y-100069966D01*
X149005828Y-100069977D01*
X149055747Y-100230175D01*
X149055749Y-100230179D01*
X149142556Y-100373777D01*
X149142560Y-100373782D01*
X149261217Y-100492439D01*
X149261222Y-100492443D01*
X149381815Y-100565343D01*
X149404822Y-100579251D01*
X149565029Y-100629173D01*
X149634653Y-100635500D01*
X151365346Y-100635499D01*
X151365353Y-100635499D01*
X151434966Y-100629174D01*
X151434969Y-100629173D01*
X151434971Y-100629173D01*
X151595178Y-100579251D01*
X151669089Y-100534570D01*
X151738777Y-100492443D01*
X151738778Y-100492441D01*
X151738783Y-100492439D01*
X151857439Y-100373783D01*
X151944251Y-100230178D01*
X151994173Y-100069971D01*
X152000500Y-100000347D01*
X152000499Y-98999654D01*
X152000499Y-98999653D01*
X152000499Y-98999645D01*
X151994174Y-98930033D01*
X151994171Y-98930022D01*
X151944252Y-98769824D01*
X151944250Y-98769820D01*
X151857443Y-98626222D01*
X151857439Y-98626217D01*
X151738782Y-98507560D01*
X151738777Y-98507556D01*
X151595180Y-98420750D01*
X151595179Y-98420749D01*
X151595178Y-98420749D01*
X151434971Y-98370827D01*
X151434969Y-98370826D01*
X151434967Y-98370826D01*
X151386221Y-98366396D01*
X151365347Y-98364500D01*
X151365344Y-98364500D01*
X149634645Y-98364500D01*
X149565033Y-98370825D01*
X149565022Y-98370828D01*
X149404824Y-98420747D01*
X149404820Y-98420749D01*
X149261222Y-98507556D01*
X149261217Y-98507560D01*
X149142560Y-98626217D01*
X149142556Y-98626222D01*
X149055750Y-98769819D01*
X149005826Y-98930032D01*
X148999500Y-98999655D01*
X95868262Y-98999655D01*
X95894112Y-98770232D01*
X95894550Y-98766789D01*
X95963324Y-98279643D01*
X167253800Y-98279643D01*
X167253800Y-98476376D01*
X167284573Y-98670672D01*
X167345366Y-98857771D01*
X167382186Y-98930033D01*
X167434675Y-99033048D01*
X167550306Y-99192200D01*
X167689410Y-99331304D01*
X167848562Y-99446935D01*
X167931374Y-99489130D01*
X168023838Y-99536243D01*
X168023840Y-99536243D01*
X168023843Y-99536245D01*
X168124130Y-99568830D01*
X168210937Y-99597036D01*
X168405234Y-99627810D01*
X168405239Y-99627810D01*
X168601966Y-99627810D01*
X168796262Y-99597036D01*
X168983357Y-99536245D01*
X169158638Y-99446935D01*
X169317790Y-99331304D01*
X169456894Y-99192200D01*
X169572525Y-99033048D01*
X169661835Y-98857767D01*
X169722626Y-98670672D01*
X169729667Y-98626217D01*
X169753400Y-98476376D01*
X169753400Y-98279643D01*
X169722626Y-98085347D01*
X169661833Y-97898248D01*
X169574526Y-97726900D01*
X169572525Y-97722972D01*
X169456894Y-97563820D01*
X169317790Y-97424716D01*
X169158638Y-97309085D01*
X169151743Y-97305572D01*
X168983361Y-97219776D01*
X168796262Y-97158983D01*
X168601966Y-97128210D01*
X168601961Y-97128210D01*
X168405239Y-97128210D01*
X168405234Y-97128210D01*
X168210937Y-97158983D01*
X168023838Y-97219776D01*
X167848561Y-97309085D01*
X167757759Y-97375057D01*
X167689410Y-97424716D01*
X167689408Y-97424718D01*
X167689407Y-97424718D01*
X167550308Y-97563817D01*
X167550308Y-97563818D01*
X167550306Y-97563820D01*
X167500647Y-97632169D01*
X167434675Y-97722971D01*
X167345366Y-97898248D01*
X167284573Y-98085347D01*
X167253800Y-98279643D01*
X95963324Y-98279643D01*
X96088152Y-97395443D01*
X96088675Y-97392075D01*
X96181193Y-96847553D01*
X171436900Y-96847553D01*
X171436900Y-97005246D01*
X171467661Y-97159889D01*
X171467664Y-97159901D01*
X171528002Y-97305572D01*
X171528009Y-97305585D01*
X171615610Y-97436688D01*
X171615613Y-97436692D01*
X171727107Y-97548186D01*
X171727111Y-97548189D01*
X171858214Y-97635790D01*
X171858227Y-97635797D01*
X172003898Y-97696135D01*
X172003903Y-97696137D01*
X172138806Y-97722971D01*
X172158553Y-97726899D01*
X172158556Y-97726900D01*
X172158558Y-97726900D01*
X172316244Y-97726900D01*
X172316245Y-97726899D01*
X172470897Y-97696137D01*
X172616579Y-97635794D01*
X172747689Y-97548189D01*
X172859189Y-97436689D01*
X172946794Y-97305579D01*
X173007137Y-97159897D01*
X173037900Y-97005242D01*
X173037900Y-96847558D01*
X173037900Y-96847555D01*
X173037899Y-96847553D01*
X173007138Y-96692910D01*
X173007137Y-96692903D01*
X173007135Y-96692898D01*
X172946797Y-96547227D01*
X172946790Y-96547214D01*
X172859189Y-96416111D01*
X172859186Y-96416107D01*
X172747692Y-96304613D01*
X172747688Y-96304610D01*
X172616585Y-96217009D01*
X172616572Y-96217002D01*
X172470901Y-96156664D01*
X172470889Y-96156661D01*
X172316245Y-96125900D01*
X172316242Y-96125900D01*
X172158558Y-96125900D01*
X172158555Y-96125900D01*
X172003910Y-96156661D01*
X172003898Y-96156664D01*
X171858227Y-96217002D01*
X171858214Y-96217009D01*
X171727111Y-96304610D01*
X171727107Y-96304613D01*
X171615613Y-96416107D01*
X171615610Y-96416111D01*
X171528009Y-96547214D01*
X171528002Y-96547227D01*
X171467664Y-96692898D01*
X171467661Y-96692910D01*
X171436900Y-96847553D01*
X96181193Y-96847553D01*
X96320676Y-96026619D01*
X96321303Y-96023222D01*
X96440266Y-95425153D01*
X151929700Y-95425153D01*
X151929700Y-95582846D01*
X151960461Y-95737489D01*
X151960464Y-95737501D01*
X152020802Y-95883172D01*
X152020809Y-95883185D01*
X152108410Y-96014288D01*
X152108413Y-96014292D01*
X152219907Y-96125786D01*
X152219911Y-96125789D01*
X152351014Y-96213390D01*
X152351027Y-96213397D01*
X152496698Y-96273735D01*
X152496703Y-96273737D01*
X152651353Y-96304499D01*
X152651356Y-96304500D01*
X152651358Y-96304500D01*
X152809044Y-96304500D01*
X152809045Y-96304499D01*
X152963697Y-96273737D01*
X153100659Y-96217006D01*
X153109372Y-96213397D01*
X153109372Y-96213396D01*
X153109379Y-96213394D01*
X153240489Y-96125789D01*
X153351989Y-96014289D01*
X153439594Y-95883179D01*
X153499937Y-95737497D01*
X153530700Y-95582842D01*
X153530700Y-95552153D01*
X157898700Y-95552153D01*
X157898700Y-95709846D01*
X157929461Y-95864489D01*
X157929464Y-95864501D01*
X157989802Y-96010172D01*
X157989809Y-96010185D01*
X158077410Y-96141288D01*
X158077413Y-96141292D01*
X158188907Y-96252786D01*
X158188911Y-96252789D01*
X158320014Y-96340390D01*
X158320027Y-96340397D01*
X158465698Y-96400735D01*
X158465703Y-96400737D01*
X158620353Y-96431499D01*
X158620356Y-96431500D01*
X158620358Y-96431500D01*
X158778044Y-96431500D01*
X158778045Y-96431499D01*
X158932697Y-96400737D01*
X159078379Y-96340394D01*
X159209489Y-96252789D01*
X159320989Y-96141289D01*
X159408594Y-96010179D01*
X159468937Y-95864497D01*
X159499700Y-95709842D01*
X159499700Y-95552158D01*
X159499700Y-95552155D01*
X159499699Y-95552153D01*
X159468938Y-95397510D01*
X159468937Y-95397503D01*
X159468935Y-95397498D01*
X159408597Y-95251827D01*
X159408590Y-95251814D01*
X159320989Y-95120711D01*
X159320986Y-95120707D01*
X159209492Y-95009213D01*
X159209488Y-95009210D01*
X159078385Y-94921609D01*
X159078372Y-94921602D01*
X158932701Y-94861264D01*
X158932689Y-94861261D01*
X158778045Y-94830500D01*
X158778042Y-94830500D01*
X158620358Y-94830500D01*
X158620355Y-94830500D01*
X158465710Y-94861261D01*
X158465698Y-94861264D01*
X158320027Y-94921602D01*
X158320014Y-94921609D01*
X158188911Y-95009210D01*
X158188907Y-95009213D01*
X158077413Y-95120707D01*
X158077410Y-95120711D01*
X157989809Y-95251814D01*
X157989802Y-95251827D01*
X157929464Y-95397498D01*
X157929461Y-95397510D01*
X157898700Y-95552153D01*
X153530700Y-95552153D01*
X153530700Y-95425158D01*
X153530700Y-95425155D01*
X153530699Y-95425153D01*
X153499938Y-95270510D01*
X153499937Y-95270503D01*
X153492196Y-95251814D01*
X153439597Y-95124827D01*
X153439590Y-95124814D01*
X153351989Y-94993711D01*
X153351986Y-94993707D01*
X153240492Y-94882213D01*
X153240488Y-94882210D01*
X153109385Y-94794609D01*
X153109372Y-94794602D01*
X152963701Y-94734264D01*
X152963689Y-94734261D01*
X152809045Y-94703500D01*
X152809042Y-94703500D01*
X152651358Y-94703500D01*
X152651355Y-94703500D01*
X152496710Y-94734261D01*
X152496698Y-94734264D01*
X152351027Y-94794602D01*
X152351014Y-94794609D01*
X152219911Y-94882210D01*
X152219907Y-94882213D01*
X152108413Y-94993707D01*
X152108410Y-94993711D01*
X152020809Y-95124814D01*
X152020802Y-95124827D01*
X151960464Y-95270498D01*
X151960461Y-95270510D01*
X151929700Y-95425153D01*
X96440266Y-95425153D01*
X96591493Y-94664883D01*
X96592200Y-94661573D01*
X96783153Y-93824953D01*
X156949500Y-93824953D01*
X156949500Y-93982646D01*
X156980261Y-94137289D01*
X156980264Y-94137301D01*
X157040602Y-94282972D01*
X157040609Y-94282985D01*
X157128210Y-94414088D01*
X157128213Y-94414092D01*
X157239707Y-94525586D01*
X157239711Y-94525589D01*
X157370814Y-94613190D01*
X157370827Y-94613197D01*
X157516498Y-94673535D01*
X157516503Y-94673537D01*
X157667136Y-94703500D01*
X157671153Y-94704299D01*
X157671156Y-94704300D01*
X157671158Y-94704300D01*
X157828844Y-94704300D01*
X157828845Y-94704299D01*
X157983497Y-94673537D01*
X158129179Y-94613194D01*
X158260289Y-94525589D01*
X158371789Y-94414089D01*
X158459394Y-94282979D01*
X158519737Y-94137297D01*
X158550500Y-93982642D01*
X158550500Y-93824958D01*
X158550500Y-93824955D01*
X158550499Y-93824953D01*
X158519738Y-93670310D01*
X158519737Y-93670303D01*
X158519735Y-93670298D01*
X158459397Y-93524627D01*
X158459390Y-93524614D01*
X158371789Y-93393511D01*
X158371786Y-93393507D01*
X158260292Y-93282013D01*
X158260288Y-93282010D01*
X158129185Y-93194409D01*
X158129172Y-93194402D01*
X157983501Y-93134064D01*
X157983489Y-93134061D01*
X157828845Y-93103300D01*
X157828842Y-93103300D01*
X157671158Y-93103300D01*
X157671155Y-93103300D01*
X157516510Y-93134061D01*
X157516498Y-93134064D01*
X157370827Y-93194402D01*
X157370814Y-93194409D01*
X157239711Y-93282010D01*
X157239707Y-93282013D01*
X157128213Y-93393507D01*
X157128210Y-93393511D01*
X157040609Y-93524614D01*
X157040602Y-93524627D01*
X156980264Y-93670298D01*
X156980261Y-93670310D01*
X156949500Y-93824953D01*
X96783153Y-93824953D01*
X96900389Y-93311305D01*
X96901209Y-93307931D01*
X96907895Y-93282011D01*
X97095968Y-92552912D01*
X188489099Y-92552912D01*
X188489099Y-92765486D01*
X188522353Y-92975442D01*
X188573892Y-93134063D01*
X188588043Y-93177613D01*
X188684550Y-93367019D01*
X188809489Y-93538985D01*
X188959812Y-93689308D01*
X189131778Y-93814247D01*
X189131780Y-93814248D01*
X189131783Y-93814250D01*
X189321187Y-93910756D01*
X189523356Y-93976445D01*
X189733312Y-94009699D01*
X189733313Y-94009699D01*
X189945885Y-94009699D01*
X189945886Y-94009699D01*
X190155842Y-93976445D01*
X190358011Y-93910756D01*
X190547415Y-93814250D01*
X190579042Y-93791272D01*
X190719385Y-93689308D01*
X190719387Y-93689305D01*
X190719391Y-93689303D01*
X190869703Y-93538991D01*
X190869705Y-93538987D01*
X190869708Y-93538985D01*
X190994647Y-93367019D01*
X190994646Y-93367019D01*
X190994650Y-93367015D01*
X191091156Y-93177611D01*
X191156845Y-92975442D01*
X191190099Y-92765486D01*
X191190099Y-92552912D01*
X191156845Y-92342956D01*
X191091156Y-92140787D01*
X190994650Y-91951383D01*
X190994648Y-91951380D01*
X190994647Y-91951378D01*
X190869708Y-91779412D01*
X190756169Y-91665873D01*
X190722684Y-91604550D01*
X190727668Y-91534858D01*
X190769540Y-91478925D01*
X190800515Y-91462010D01*
X190931931Y-91412996D01*
X191047146Y-91326746D01*
X191133396Y-91211531D01*
X191183691Y-91076683D01*
X191190100Y-91017073D01*
X191190099Y-89221328D01*
X191183691Y-89161717D01*
X191133396Y-89026869D01*
X191133395Y-89026868D01*
X191133393Y-89026864D01*
X191047147Y-88911655D01*
X191047144Y-88911652D01*
X190931935Y-88825406D01*
X190931928Y-88825402D01*
X190797082Y-88775108D01*
X190797083Y-88775108D01*
X190737483Y-88768701D01*
X190737481Y-88768700D01*
X190737473Y-88768700D01*
X190737464Y-88768700D01*
X188941729Y-88768700D01*
X188941723Y-88768701D01*
X188882116Y-88775108D01*
X188747271Y-88825402D01*
X188747264Y-88825406D01*
X188632055Y-88911652D01*
X188632052Y-88911655D01*
X188545806Y-89026864D01*
X188545802Y-89026871D01*
X188495508Y-89161717D01*
X188489101Y-89221316D01*
X188489101Y-89221323D01*
X188489100Y-89221335D01*
X188489100Y-91017070D01*
X188489101Y-91017076D01*
X188495508Y-91076683D01*
X188545802Y-91211528D01*
X188545806Y-91211535D01*
X188632052Y-91326744D01*
X188632055Y-91326747D01*
X188747264Y-91412993D01*
X188747273Y-91412998D01*
X188878680Y-91462009D01*
X188934614Y-91503880D01*
X188959032Y-91569344D01*
X188944181Y-91637617D01*
X188923030Y-91665872D01*
X188809488Y-91779414D01*
X188684550Y-91951378D01*
X188588043Y-92140784D01*
X188522352Y-92342959D01*
X188494776Y-92517068D01*
X188489099Y-92552912D01*
X97095968Y-92552912D01*
X97247153Y-91966816D01*
X97248029Y-91963606D01*
X97631477Y-90632630D01*
X97632439Y-90629461D01*
X97802420Y-90096152D01*
X157116713Y-90096152D01*
X157116713Y-90253845D01*
X157147474Y-90408488D01*
X157147477Y-90408500D01*
X157207815Y-90554171D01*
X157207822Y-90554184D01*
X157295423Y-90685287D01*
X157295426Y-90685291D01*
X157406920Y-90796785D01*
X157406924Y-90796788D01*
X157538027Y-90884389D01*
X157538040Y-90884396D01*
X157683711Y-90944734D01*
X157683716Y-90944736D01*
X157838366Y-90975498D01*
X157838369Y-90975499D01*
X157838371Y-90975499D01*
X157996057Y-90975499D01*
X157996058Y-90975498D01*
X158150710Y-90944736D01*
X158296392Y-90884393D01*
X158427502Y-90796788D01*
X158539002Y-90685288D01*
X158626607Y-90554178D01*
X158686950Y-90408496D01*
X158717713Y-90253841D01*
X158717713Y-90096157D01*
X158717713Y-90096154D01*
X158717712Y-90096152D01*
X158686951Y-89941509D01*
X158686950Y-89941502D01*
X158686948Y-89941497D01*
X158626610Y-89795826D01*
X158626603Y-89795813D01*
X158539002Y-89664710D01*
X158538999Y-89664706D01*
X158427505Y-89553212D01*
X158427501Y-89553209D01*
X158296398Y-89465608D01*
X158296385Y-89465601D01*
X158150714Y-89405263D01*
X158150702Y-89405260D01*
X157996058Y-89374499D01*
X157996055Y-89374499D01*
X157838371Y-89374499D01*
X157838368Y-89374499D01*
X157683723Y-89405260D01*
X157683711Y-89405263D01*
X157538040Y-89465601D01*
X157538027Y-89465608D01*
X157406924Y-89553209D01*
X157406920Y-89553212D01*
X157295426Y-89664706D01*
X157295423Y-89664710D01*
X157207822Y-89795813D01*
X157207815Y-89795826D01*
X157147477Y-89941497D01*
X157147474Y-89941509D01*
X157116713Y-90096152D01*
X97802420Y-90096152D01*
X98053042Y-89309832D01*
X98054107Y-89306643D01*
X98511563Y-87999310D01*
X98512750Y-87996069D01*
X98644021Y-87652176D01*
X99006653Y-86702181D01*
X99007928Y-86698978D01*
X99008359Y-86697938D01*
X99359854Y-85849353D01*
X154520500Y-85849353D01*
X154520500Y-86007046D01*
X154551261Y-86161689D01*
X154551264Y-86161701D01*
X154611602Y-86307372D01*
X154611609Y-86307385D01*
X154699210Y-86438488D01*
X154699213Y-86438492D01*
X154810707Y-86549986D01*
X154810711Y-86549989D01*
X154941814Y-86637590D01*
X154941827Y-86637597D01*
X155071569Y-86691337D01*
X155087503Y-86697937D01*
X155208983Y-86722101D01*
X155242153Y-86728699D01*
X155242156Y-86728700D01*
X155242158Y-86728700D01*
X155399844Y-86728700D01*
X155399845Y-86728699D01*
X155554497Y-86697937D01*
X155700179Y-86637594D01*
X155831289Y-86549989D01*
X155942789Y-86438489D01*
X156030394Y-86307379D01*
X156033125Y-86300787D01*
X156090735Y-86161701D01*
X156090737Y-86161697D01*
X156121500Y-86007042D01*
X156121500Y-85849358D01*
X156120187Y-85842755D01*
X158730302Y-85842755D01*
X158730302Y-86000448D01*
X158761063Y-86155091D01*
X158761066Y-86155103D01*
X158821404Y-86300774D01*
X158821411Y-86300787D01*
X158909012Y-86431890D01*
X158909015Y-86431894D01*
X159020509Y-86543388D01*
X159020513Y-86543391D01*
X159151616Y-86630992D01*
X159151629Y-86630999D01*
X159297300Y-86691337D01*
X159297305Y-86691339D01*
X159451955Y-86722101D01*
X159451958Y-86722102D01*
X159451960Y-86722102D01*
X159609646Y-86722102D01*
X159609647Y-86722101D01*
X159764299Y-86691339D01*
X159909981Y-86630996D01*
X160041091Y-86543391D01*
X160152591Y-86431891D01*
X160240196Y-86300781D01*
X160300539Y-86155099D01*
X160331302Y-86000444D01*
X160331302Y-85842760D01*
X160331302Y-85842757D01*
X160331301Y-85842755D01*
X160300539Y-85688105D01*
X160300537Y-85688100D01*
X160240199Y-85542429D01*
X160240192Y-85542416D01*
X160152591Y-85411313D01*
X160152588Y-85411309D01*
X160041094Y-85299815D01*
X160041090Y-85299812D01*
X159909987Y-85212211D01*
X159909974Y-85212204D01*
X159764303Y-85151866D01*
X159764291Y-85151863D01*
X159609647Y-85121102D01*
X159609644Y-85121102D01*
X159451960Y-85121102D01*
X159451957Y-85121102D01*
X159297312Y-85151863D01*
X159297300Y-85151866D01*
X159151629Y-85212204D01*
X159151616Y-85212211D01*
X159020513Y-85299812D01*
X159020509Y-85299815D01*
X158909015Y-85411309D01*
X158909012Y-85411313D01*
X158821411Y-85542416D01*
X158821404Y-85542429D01*
X158761066Y-85688100D01*
X158761063Y-85688112D01*
X158730302Y-85842755D01*
X156120187Y-85842755D01*
X156090737Y-85694703D01*
X156088002Y-85688100D01*
X156030397Y-85549027D01*
X156030390Y-85549014D01*
X155942789Y-85417911D01*
X155942786Y-85417907D01*
X155831292Y-85306413D01*
X155831288Y-85306410D01*
X155700185Y-85218809D01*
X155700172Y-85218802D01*
X155554501Y-85158464D01*
X155554489Y-85158461D01*
X155399845Y-85127700D01*
X155399842Y-85127700D01*
X155242158Y-85127700D01*
X155242155Y-85127700D01*
X155087510Y-85158461D01*
X155087498Y-85158464D01*
X154941827Y-85218802D01*
X154941814Y-85218809D01*
X154810711Y-85306410D01*
X154810707Y-85306413D01*
X154699213Y-85417907D01*
X154699210Y-85417911D01*
X154611609Y-85549014D01*
X154611602Y-85549027D01*
X154551264Y-85694698D01*
X154551261Y-85694710D01*
X154520500Y-85849353D01*
X99359854Y-85849353D01*
X99537927Y-85419446D01*
X99539297Y-85416268D01*
X99588455Y-85306411D01*
X100104979Y-84152092D01*
X100106404Y-84149023D01*
X100704436Y-82907195D01*
X178614393Y-82907195D01*
X178614393Y-83064888D01*
X178645154Y-83219531D01*
X178645157Y-83219543D01*
X178705495Y-83365214D01*
X178705502Y-83365227D01*
X178793103Y-83496330D01*
X178793106Y-83496334D01*
X178904600Y-83607828D01*
X178904604Y-83607831D01*
X179035707Y-83695432D01*
X179035720Y-83695439D01*
X179111489Y-83726823D01*
X179181396Y-83755779D01*
X179336046Y-83786541D01*
X179336049Y-83786542D01*
X179336051Y-83786542D01*
X179493737Y-83786542D01*
X179493738Y-83786541D01*
X179648390Y-83755779D01*
X179794072Y-83695436D01*
X179925182Y-83607831D01*
X180036682Y-83496331D01*
X180124287Y-83365221D01*
X180184630Y-83219539D01*
X180215393Y-83064884D01*
X180215393Y-82907200D01*
X180215393Y-82907197D01*
X180215392Y-82907195D01*
X180184631Y-82752552D01*
X180184630Y-82752545D01*
X180184628Y-82752540D01*
X180124290Y-82606869D01*
X180124283Y-82606856D01*
X180036682Y-82475753D01*
X180036679Y-82475749D01*
X179925185Y-82364255D01*
X179925181Y-82364252D01*
X179794078Y-82276651D01*
X179794065Y-82276644D01*
X179648394Y-82216306D01*
X179648382Y-82216303D01*
X179493738Y-82185542D01*
X179493735Y-82185542D01*
X179336051Y-82185542D01*
X179336048Y-82185542D01*
X179181403Y-82216303D01*
X179181391Y-82216306D01*
X179035720Y-82276644D01*
X179035707Y-82276651D01*
X178904604Y-82364252D01*
X178904600Y-82364255D01*
X178793106Y-82475749D01*
X178793103Y-82475753D01*
X178705502Y-82606856D01*
X178705495Y-82606869D01*
X178645157Y-82752540D01*
X178645154Y-82752552D01*
X178614393Y-82907195D01*
X100704436Y-82907195D01*
X100707337Y-82901171D01*
X100708883Y-82898075D01*
X100736719Y-82844194D01*
X100859327Y-82606863D01*
X101344569Y-81667584D01*
X101346137Y-81664649D01*
X101757053Y-80921153D01*
X158199500Y-80921153D01*
X158199500Y-81078846D01*
X158230261Y-81233489D01*
X158230264Y-81233501D01*
X158290602Y-81379172D01*
X158290609Y-81379185D01*
X158378210Y-81510288D01*
X158378213Y-81510292D01*
X158489707Y-81621786D01*
X158489711Y-81621789D01*
X158620814Y-81709390D01*
X158620827Y-81709397D01*
X158766498Y-81769735D01*
X158766503Y-81769737D01*
X158921153Y-81800499D01*
X158921156Y-81800500D01*
X158921158Y-81800500D01*
X159078844Y-81800500D01*
X159078845Y-81800499D01*
X159233497Y-81769737D01*
X159379179Y-81709394D01*
X159510289Y-81621789D01*
X159621789Y-81510289D01*
X159709394Y-81379179D01*
X159769737Y-81233497D01*
X159800500Y-81078842D01*
X159800500Y-80921158D01*
X159800500Y-80921155D01*
X159800499Y-80921153D01*
X159769738Y-80766510D01*
X159769737Y-80766503D01*
X159769735Y-80766498D01*
X159709397Y-80620827D01*
X159709390Y-80620814D01*
X159621789Y-80489711D01*
X159621786Y-80489707D01*
X159510292Y-80378213D01*
X159510288Y-80378210D01*
X159379185Y-80290609D01*
X159379172Y-80290602D01*
X159233501Y-80230264D01*
X159233489Y-80230261D01*
X159078845Y-80199500D01*
X159078842Y-80199500D01*
X158921158Y-80199500D01*
X158921155Y-80199500D01*
X158766510Y-80230261D01*
X158766498Y-80230264D01*
X158620827Y-80290602D01*
X158620814Y-80290609D01*
X158489711Y-80378210D01*
X158489707Y-80378213D01*
X158378213Y-80489707D01*
X158378210Y-80489711D01*
X158290609Y-80620814D01*
X158290602Y-80620827D01*
X158230264Y-80766498D01*
X158230261Y-80766510D01*
X158199500Y-80921153D01*
X101757053Y-80921153D01*
X102016118Y-80452411D01*
X102017807Y-80449454D01*
X102721483Y-79256550D01*
X102723280Y-79253601D01*
X102789199Y-79148692D01*
X103159379Y-78559553D01*
X160489500Y-78559553D01*
X160489500Y-78717246D01*
X160520261Y-78871889D01*
X160520264Y-78871901D01*
X160580602Y-79017572D01*
X160580609Y-79017585D01*
X160668210Y-79148688D01*
X160668213Y-79148692D01*
X160779707Y-79260186D01*
X160779711Y-79260189D01*
X160910814Y-79347790D01*
X160910827Y-79347797D01*
X161056498Y-79408135D01*
X161056503Y-79408137D01*
X161211153Y-79438899D01*
X161211156Y-79438900D01*
X161211158Y-79438900D01*
X161368844Y-79438900D01*
X161368845Y-79438899D01*
X161523497Y-79408137D01*
X161669179Y-79347794D01*
X161800289Y-79260189D01*
X161911789Y-79148689D01*
X161999394Y-79017579D01*
X162059737Y-78871897D01*
X162090500Y-78717242D01*
X162090500Y-78559558D01*
X162090500Y-78559555D01*
X162090499Y-78559553D01*
X162059738Y-78404910D01*
X162059737Y-78404903D01*
X162059735Y-78404898D01*
X161999397Y-78259227D01*
X161999390Y-78259214D01*
X161911789Y-78128111D01*
X161911786Y-78128107D01*
X161800292Y-78016613D01*
X161800288Y-78016610D01*
X161669185Y-77929009D01*
X161669172Y-77929002D01*
X161523501Y-77868664D01*
X161523489Y-77868661D01*
X161368845Y-77837900D01*
X161368842Y-77837900D01*
X161211158Y-77837900D01*
X161211155Y-77837900D01*
X161056510Y-77868661D01*
X161056498Y-77868664D01*
X160910827Y-77929002D01*
X160910814Y-77929009D01*
X160779711Y-78016610D01*
X160711040Y-78085280D01*
X160711032Y-78085289D01*
X160668211Y-78128111D01*
X160614642Y-78208281D01*
X160614629Y-78208299D01*
X160580608Y-78259216D01*
X160580602Y-78259227D01*
X160520264Y-78404898D01*
X160520261Y-78404910D01*
X160489500Y-78559553D01*
X103159379Y-78559553D01*
X103460142Y-78080890D01*
X103461978Y-78078057D01*
X103900908Y-77421153D01*
X159041700Y-77421153D01*
X159041700Y-77578846D01*
X159072461Y-77733489D01*
X159072464Y-77733501D01*
X159132802Y-77879172D01*
X159132809Y-77879185D01*
X159220410Y-78010288D01*
X159220413Y-78010292D01*
X159331907Y-78121786D01*
X159331911Y-78121789D01*
X159463014Y-78209390D01*
X159463027Y-78209397D01*
X159583298Y-78259214D01*
X159608703Y-78269737D01*
X159763353Y-78300499D01*
X159763356Y-78300500D01*
X159763358Y-78300500D01*
X159921044Y-78300500D01*
X159921045Y-78300499D01*
X160075697Y-78269737D01*
X160221379Y-78209394D01*
X160352489Y-78121789D01*
X160463989Y-78010289D01*
X160551594Y-77879179D01*
X160611937Y-77733497D01*
X160642700Y-77578842D01*
X160642700Y-77421158D01*
X160642700Y-77421155D01*
X160642699Y-77421153D01*
X160611938Y-77266510D01*
X160611937Y-77266503D01*
X160611935Y-77266498D01*
X160551597Y-77120827D01*
X160551590Y-77120814D01*
X160463989Y-76989711D01*
X160463986Y-76989707D01*
X160352492Y-76878213D01*
X160352488Y-76878210D01*
X160221385Y-76790609D01*
X160221372Y-76790602D01*
X160075701Y-76730264D01*
X160075689Y-76730261D01*
X159921045Y-76699500D01*
X159921042Y-76699500D01*
X159763358Y-76699500D01*
X159763355Y-76699500D01*
X159608710Y-76730261D01*
X159608698Y-76730264D01*
X159463027Y-76790602D01*
X159463014Y-76790609D01*
X159331911Y-76878210D01*
X159331907Y-76878213D01*
X159220413Y-76989707D01*
X159220410Y-76989711D01*
X159132809Y-77120814D01*
X159132802Y-77120827D01*
X159072464Y-77266498D01*
X159072461Y-77266510D01*
X159041700Y-77421153D01*
X103900908Y-77421153D01*
X104231464Y-76926442D01*
X104233360Y-76923689D01*
X105034883Y-75794046D01*
X105036843Y-75791365D01*
X105800206Y-74777033D01*
X167268400Y-74777033D01*
X167268400Y-74973766D01*
X167299173Y-75168062D01*
X167359966Y-75355161D01*
X167449275Y-75530438D01*
X167564906Y-75689590D01*
X167704010Y-75828694D01*
X167863162Y-75944325D01*
X167945974Y-75986520D01*
X168038438Y-76033633D01*
X168038440Y-76033633D01*
X168038443Y-76033635D01*
X168138730Y-76066220D01*
X168225537Y-76094426D01*
X168419834Y-76125200D01*
X168419839Y-76125200D01*
X168616566Y-76125200D01*
X168810862Y-76094426D01*
X168997957Y-76033635D01*
X169173238Y-75944325D01*
X169332390Y-75828694D01*
X169471494Y-75689590D01*
X169587125Y-75530438D01*
X169676435Y-75355157D01*
X169737226Y-75168062D01*
X169768000Y-74973766D01*
X169768000Y-74777033D01*
X172268390Y-74777033D01*
X172268390Y-74973766D01*
X172299163Y-75168062D01*
X172359956Y-75355161D01*
X172449265Y-75530438D01*
X172564896Y-75689590D01*
X172704000Y-75828694D01*
X172863152Y-75944325D01*
X172945964Y-75986520D01*
X173038428Y-76033633D01*
X173038430Y-76033633D01*
X173038433Y-76033635D01*
X173138720Y-76066220D01*
X173225527Y-76094426D01*
X173419824Y-76125200D01*
X173419829Y-76125200D01*
X173616556Y-76125200D01*
X173810852Y-76094426D01*
X173997947Y-76033635D01*
X174173228Y-75944325D01*
X174332380Y-75828694D01*
X174471484Y-75689590D01*
X174587115Y-75530438D01*
X174676425Y-75355157D01*
X174737216Y-75168062D01*
X174767990Y-74973766D01*
X174767990Y-74777033D01*
X174737216Y-74582737D01*
X174676423Y-74395638D01*
X174587114Y-74220361D01*
X174471484Y-74061210D01*
X174332380Y-73922106D01*
X174173228Y-73806475D01*
X173997951Y-73717166D01*
X173810852Y-73656373D01*
X173616556Y-73625600D01*
X173616551Y-73625600D01*
X173419829Y-73625600D01*
X173419824Y-73625600D01*
X173225527Y-73656373D01*
X173038428Y-73717166D01*
X172863151Y-73806475D01*
X172772349Y-73872447D01*
X172704000Y-73922106D01*
X172703998Y-73922108D01*
X172703997Y-73922108D01*
X172564898Y-74061207D01*
X172564898Y-74061208D01*
X172564896Y-74061210D01*
X172560518Y-74067236D01*
X172449265Y-74220361D01*
X172359956Y-74395638D01*
X172299163Y-74582737D01*
X172268390Y-74777033D01*
X169768000Y-74777033D01*
X169737226Y-74582737D01*
X169676433Y-74395638D01*
X169587124Y-74220361D01*
X169471494Y-74061210D01*
X169332390Y-73922106D01*
X169173238Y-73806475D01*
X168997961Y-73717166D01*
X168810862Y-73656373D01*
X168616566Y-73625600D01*
X168616561Y-73625600D01*
X168419839Y-73625600D01*
X168419834Y-73625600D01*
X168225537Y-73656373D01*
X168038438Y-73717166D01*
X167863161Y-73806475D01*
X167772359Y-73872447D01*
X167704010Y-73922106D01*
X167704008Y-73922108D01*
X167704007Y-73922108D01*
X167564908Y-74061207D01*
X167564908Y-74061208D01*
X167564906Y-74061210D01*
X167560528Y-74067236D01*
X167449275Y-74220361D01*
X167359966Y-74395638D01*
X167299173Y-74582737D01*
X167268400Y-74777033D01*
X105800206Y-74777033D01*
X105869682Y-74684715D01*
X105871781Y-74682008D01*
X105950947Y-74582738D01*
X106735293Y-73599198D01*
X106737491Y-73596521D01*
X107275263Y-72959671D01*
X107631030Y-72538357D01*
X107633262Y-72535788D01*
X108556173Y-71503049D01*
X108558452Y-71500569D01*
X109160887Y-70863353D01*
X159371900Y-70863353D01*
X159371900Y-71021046D01*
X159402661Y-71175689D01*
X159402664Y-71175701D01*
X159463002Y-71321372D01*
X159463009Y-71321385D01*
X159550610Y-71452488D01*
X159550613Y-71452492D01*
X159662107Y-71563986D01*
X159662111Y-71563989D01*
X159793214Y-71651590D01*
X159793227Y-71651597D01*
X159938898Y-71711935D01*
X159938903Y-71711937D01*
X160093553Y-71742699D01*
X160093556Y-71742700D01*
X160093558Y-71742700D01*
X160251244Y-71742700D01*
X160251245Y-71742699D01*
X160405897Y-71711937D01*
X160551579Y-71651594D01*
X160682689Y-71563989D01*
X160794189Y-71452489D01*
X160881794Y-71321379D01*
X160942137Y-71175697D01*
X160972900Y-71021042D01*
X160972900Y-70863358D01*
X160972900Y-70863355D01*
X160972899Y-70863353D01*
X160966004Y-70828691D01*
X160942137Y-70708703D01*
X160934220Y-70689590D01*
X160881797Y-70563027D01*
X160881790Y-70563014D01*
X160794189Y-70431911D01*
X160794186Y-70431907D01*
X160682692Y-70320413D01*
X160682688Y-70320410D01*
X160551585Y-70232809D01*
X160551572Y-70232802D01*
X160405901Y-70172464D01*
X160405889Y-70172461D01*
X160251245Y-70141700D01*
X160251242Y-70141700D01*
X160093558Y-70141700D01*
X160093555Y-70141700D01*
X159938910Y-70172461D01*
X159938898Y-70172464D01*
X159793227Y-70232802D01*
X159793214Y-70232809D01*
X159662111Y-70320410D01*
X159662107Y-70320413D01*
X159550613Y-70431907D01*
X159550610Y-70431911D01*
X159463009Y-70563014D01*
X159463002Y-70563027D01*
X159402664Y-70708698D01*
X159402661Y-70708710D01*
X159371900Y-70863353D01*
X109160887Y-70863353D01*
X109509988Y-70494097D01*
X109512343Y-70491676D01*
X110226986Y-69777033D01*
X169768400Y-69777033D01*
X169768400Y-69973766D01*
X169799173Y-70168062D01*
X169859966Y-70355161D01*
X169949275Y-70530438D01*
X170064906Y-70689590D01*
X170204010Y-70828694D01*
X170363162Y-70944325D01*
X170445974Y-70986520D01*
X170538438Y-71033633D01*
X170538440Y-71033633D01*
X170538443Y-71033635D01*
X170638730Y-71066220D01*
X170725537Y-71094426D01*
X170919834Y-71125200D01*
X170919839Y-71125200D01*
X171116566Y-71125200D01*
X171310862Y-71094426D01*
X171497957Y-71033635D01*
X171673238Y-70944325D01*
X171832390Y-70828694D01*
X171971494Y-70689590D01*
X172087125Y-70530438D01*
X172176435Y-70355157D01*
X172237226Y-70168062D01*
X172241401Y-70141700D01*
X172268000Y-69973766D01*
X172268000Y-69777033D01*
X172237226Y-69582737D01*
X172176433Y-69395638D01*
X172087124Y-69220361D01*
X171971494Y-69061210D01*
X171832390Y-68922106D01*
X171673238Y-68806475D01*
X171640708Y-68789900D01*
X171497961Y-68717166D01*
X171310862Y-68656373D01*
X171116566Y-68625600D01*
X171116561Y-68625600D01*
X170919839Y-68625600D01*
X170919834Y-68625600D01*
X170725537Y-68656373D01*
X170538438Y-68717166D01*
X170363161Y-68806475D01*
X170272359Y-68872447D01*
X170204010Y-68922106D01*
X170204008Y-68922108D01*
X170204007Y-68922108D01*
X170064908Y-69061207D01*
X170064908Y-69061208D01*
X170064906Y-69061210D01*
X170028303Y-69111590D01*
X169949275Y-69220361D01*
X169859966Y-69395638D01*
X169799173Y-69582737D01*
X169768400Y-69777033D01*
X110226986Y-69777033D01*
X110491676Y-69512343D01*
X110494097Y-69509988D01*
X111500569Y-68558452D01*
X111503049Y-68556173D01*
X111763575Y-68323353D01*
X158889300Y-68323353D01*
X158889300Y-68481046D01*
X158920061Y-68635689D01*
X158920064Y-68635701D01*
X158980402Y-68781372D01*
X158980409Y-68781385D01*
X159068010Y-68912488D01*
X159068013Y-68912492D01*
X159179507Y-69023986D01*
X159179511Y-69023989D01*
X159310614Y-69111590D01*
X159310627Y-69111597D01*
X159456298Y-69171935D01*
X159456303Y-69171937D01*
X159610953Y-69202699D01*
X159610956Y-69202700D01*
X159610958Y-69202700D01*
X159768644Y-69202700D01*
X159768645Y-69202699D01*
X159923297Y-69171937D01*
X160068979Y-69111594D01*
X160200089Y-69023989D01*
X160311589Y-68912489D01*
X160399194Y-68781379D01*
X160459537Y-68635697D01*
X160490300Y-68481042D01*
X160490300Y-68323358D01*
X160490300Y-68323355D01*
X160490299Y-68323353D01*
X160459537Y-68168703D01*
X160459535Y-68168698D01*
X160399197Y-68023027D01*
X160399190Y-68023014D01*
X160311589Y-67891911D01*
X160311586Y-67891907D01*
X160200092Y-67780413D01*
X160200088Y-67780410D01*
X160068985Y-67692809D01*
X160068972Y-67692802D01*
X159923301Y-67632464D01*
X159923289Y-67632461D01*
X159768645Y-67601700D01*
X159768642Y-67601700D01*
X159610958Y-67601700D01*
X159610955Y-67601700D01*
X159456310Y-67632461D01*
X159456298Y-67632464D01*
X159310627Y-67692802D01*
X159310614Y-67692809D01*
X159179511Y-67780410D01*
X159179507Y-67780413D01*
X159068013Y-67891907D01*
X159068010Y-67891911D01*
X158980409Y-68023014D01*
X158980402Y-68023027D01*
X158920064Y-68168698D01*
X158920061Y-68168710D01*
X158889300Y-68323353D01*
X111763575Y-68323353D01*
X112535788Y-67633262D01*
X112538357Y-67631030D01*
X113596531Y-66737482D01*
X113599209Y-66735285D01*
X114682025Y-65871767D01*
X114684740Y-65869664D01*
X115791365Y-65036843D01*
X115794046Y-65034883D01*
X116923689Y-64233360D01*
X116926442Y-64231464D01*
X118078057Y-63461978D01*
X118080890Y-63460142D01*
X119253621Y-62723267D01*
X119256550Y-62721483D01*
X120449454Y-62017807D01*
X120452411Y-62016118D01*
X121147597Y-61631902D01*
X140249500Y-61631902D01*
X140249500Y-61868097D01*
X140286446Y-62101368D01*
X140359433Y-62325996D01*
X140466657Y-62536433D01*
X140605483Y-62727510D01*
X140772490Y-62894517D01*
X140963567Y-63033343D01*
X141062991Y-63084002D01*
X141174003Y-63140566D01*
X141174005Y-63140566D01*
X141174008Y-63140568D01*
X141294412Y-63179689D01*
X141398631Y-63213553D01*
X141631903Y-63250500D01*
X141631908Y-63250500D01*
X141868097Y-63250500D01*
X142101368Y-63213553D01*
X142325992Y-63140568D01*
X142536433Y-63033343D01*
X142727510Y-62894517D01*
X142894517Y-62727510D01*
X143033343Y-62536433D01*
X143140568Y-62325992D01*
X143213553Y-62101368D01*
X143227058Y-62016101D01*
X143250500Y-61868097D01*
X143250500Y-61631902D01*
X146749500Y-61631902D01*
X146749500Y-61868097D01*
X146786446Y-62101368D01*
X146859433Y-62325996D01*
X146966657Y-62536433D01*
X147105483Y-62727510D01*
X147272490Y-62894517D01*
X147463567Y-63033343D01*
X147562991Y-63084002D01*
X147674003Y-63140566D01*
X147674005Y-63140566D01*
X147674008Y-63140568D01*
X147794412Y-63179689D01*
X147898631Y-63213553D01*
X148131903Y-63250500D01*
X148131908Y-63250500D01*
X148368097Y-63250500D01*
X148601368Y-63213553D01*
X148825992Y-63140568D01*
X149036433Y-63033343D01*
X149227510Y-62894517D01*
X149394517Y-62727510D01*
X149533343Y-62536433D01*
X149640568Y-62325992D01*
X149713553Y-62101368D01*
X149727058Y-62016101D01*
X149750500Y-61868097D01*
X149750500Y-61631902D01*
X149713553Y-61398631D01*
X149640566Y-61174003D01*
X149533342Y-60963566D01*
X149394517Y-60772490D01*
X149227510Y-60605483D01*
X149036433Y-60466657D01*
X149019747Y-60458155D01*
X148825996Y-60359433D01*
X148601368Y-60286446D01*
X148368097Y-60249500D01*
X148368092Y-60249500D01*
X148131908Y-60249500D01*
X148131903Y-60249500D01*
X147898631Y-60286446D01*
X147674003Y-60359433D01*
X147463566Y-60466657D01*
X147354550Y-60545862D01*
X147272490Y-60605483D01*
X147272488Y-60605485D01*
X147272487Y-60605485D01*
X147105485Y-60772487D01*
X147105485Y-60772488D01*
X147105483Y-60772490D01*
X147045862Y-60854550D01*
X146966657Y-60963566D01*
X146859433Y-61174003D01*
X146786446Y-61398631D01*
X146749500Y-61631902D01*
X143250500Y-61631902D01*
X143213553Y-61398631D01*
X143140566Y-61174003D01*
X143033342Y-60963566D01*
X142894517Y-60772490D01*
X142727510Y-60605483D01*
X142536433Y-60466657D01*
X142519747Y-60458155D01*
X142325996Y-60359433D01*
X142101368Y-60286446D01*
X141868097Y-60249500D01*
X141868092Y-60249500D01*
X141631908Y-60249500D01*
X141631903Y-60249500D01*
X141398631Y-60286446D01*
X141174003Y-60359433D01*
X140963566Y-60466657D01*
X140854550Y-60545862D01*
X140772490Y-60605483D01*
X140772488Y-60605485D01*
X140772487Y-60605485D01*
X140605485Y-60772487D01*
X140605485Y-60772488D01*
X140605483Y-60772490D01*
X140545862Y-60854550D01*
X140466657Y-60963566D01*
X140359433Y-61174003D01*
X140286446Y-61398631D01*
X140249500Y-61631902D01*
X121147597Y-61631902D01*
X121664649Y-61346137D01*
X121667584Y-61344569D01*
X122898090Y-60708875D01*
X122901171Y-60707337D01*
X124149023Y-60106404D01*
X124152092Y-60104979D01*
X125416284Y-59539290D01*
X125419446Y-59537927D01*
X126699006Y-59007916D01*
X126702181Y-59006653D01*
X127996093Y-58512740D01*
X127999335Y-58511556D01*
X128580036Y-58308359D01*
X128580035Y-58308359D01*
X129306643Y-58054107D01*
X129309832Y-58053042D01*
X130629461Y-57632439D01*
X130632630Y-57631477D01*
X131963606Y-57248029D01*
X131966816Y-57247153D01*
X133307952Y-56901203D01*
X133311289Y-56900392D01*
X134661573Y-56592200D01*
X134664883Y-56591493D01*
X136023244Y-56321298D01*
X136026619Y-56320676D01*
X137392075Y-56088675D01*
X137395443Y-56088152D01*
X138766795Y-55894549D01*
X138770232Y-55894112D01*
X140146536Y-55739041D01*
X140149868Y-55738713D01*
X141032010Y-55664305D01*
X141100466Y-55678285D01*
X141150497Y-55727056D01*
X141166218Y-55795134D01*
X141142637Y-55860905D01*
X141098727Y-55898350D01*
X140963832Y-55967083D01*
X140880894Y-56027340D01*
X141579766Y-56726212D01*
X141537708Y-56737482D01*
X141412292Y-56809890D01*
X141309890Y-56912292D01*
X141237482Y-57037708D01*
X141226212Y-57079766D01*
X140527340Y-56380894D01*
X140467084Y-56463830D01*
X140359897Y-56674197D01*
X140286934Y-56898752D01*
X140250000Y-57131947D01*
X140250000Y-57368052D01*
X140286934Y-57601247D01*
X140359897Y-57825802D01*
X140467087Y-58036174D01*
X140527338Y-58119104D01*
X140527340Y-58119105D01*
X141226212Y-57420233D01*
X141237482Y-57462292D01*
X141309890Y-57587708D01*
X141412292Y-57690110D01*
X141537708Y-57762518D01*
X141579765Y-57773787D01*
X140880893Y-58472658D01*
X140963828Y-58532914D01*
X141174197Y-58640102D01*
X141398752Y-58713065D01*
X141398751Y-58713065D01*
X141631948Y-58750000D01*
X141868052Y-58750000D01*
X142101247Y-58713065D01*
X142325802Y-58640102D01*
X142536163Y-58532918D01*
X142536169Y-58532914D01*
X142619104Y-58472658D01*
X142619105Y-58472658D01*
X141920233Y-57773787D01*
X141962292Y-57762518D01*
X142087708Y-57690110D01*
X142190110Y-57587708D01*
X142262518Y-57462292D01*
X142273787Y-57420234D01*
X142972658Y-58119105D01*
X142972658Y-58119104D01*
X143032914Y-58036169D01*
X143032918Y-58036163D01*
X143140102Y-57825802D01*
X143213065Y-57601247D01*
X143250000Y-57368052D01*
X143250000Y-57131947D01*
X143213065Y-56898752D01*
X143140102Y-56674197D01*
X143032914Y-56463828D01*
X142972658Y-56380894D01*
X142972658Y-56380893D01*
X142273787Y-57079765D01*
X142262518Y-57037708D01*
X142190110Y-56912292D01*
X142087708Y-56809890D01*
X141962292Y-56737482D01*
X141920234Y-56726212D01*
X142619105Y-56027340D01*
X142619104Y-56027338D01*
X142536174Y-55967087D01*
X142325804Y-55859897D01*
X142214640Y-55823778D01*
X142156965Y-55784340D01*
X142129767Y-55719981D01*
X142141682Y-55651135D01*
X142188926Y-55599659D01*
X142246004Y-55582042D01*
X142916267Y-55544401D01*
X142919610Y-55544260D01*
X144304048Y-55505417D01*
X144307526Y-55505368D01*
X145692474Y-55505368D01*
X145695952Y-55505417D01*
G37*
%TD.AperFunction*%
%TD*%
M02*
