M48
; DRILL file {KiCad 9.0.0} date 2025-05-12T20:00:46-0300
; FORMAT={-:-/ absolute / metric / decimal}
; #@! TF.CreationDate,2025-05-12T20:00:46-03:00
; #@! TF.GenerationSoftware,Kicad,Pcbnew,9.0.0
; #@! TF.FileFunction,Plated,1,4,PTH
FMAT,2
METRIC
; #@! TA.AperFunction,Plated,PTH,ViaDrill
T1C0.300
; #@! TA.AperFunction,Plated,PTH,ComponentDrill
T2C0.800
; #@! TA.AperFunction,Plated,PTH,ComponentDrill
T3C0.991
; #@! TA.AperFunction,Plated,PTH,ComponentDrill
T4C1.000
; #@! TA.AperFunction,Plated,PTH,ComponentDrill
T5C1.100
%
G90
G05
T1
X101.6Y-88.9
X101.6Y-101.6
X101.6Y-114.3
X114.3Y-76.2
X114.3Y-88.9
X114.3Y-101.6
X114.3Y-114.3
X114.3Y-127.0
X114.3Y-139.7
X127.0Y-63.5
X127.0Y-76.2
X127.0Y-88.9
X127.0Y-114.3
X127.0Y-139.7
X139.7Y-63.5
X139.7Y-76.2
X139.7Y-88.9
X139.7Y-101.6
X139.7Y-114.3
X139.7Y-127.0
X139.7Y-139.7
X139.7Y-152.4
X145.0Y-57.25
X149.675Y-86.0
X152.4Y-114.3
X152.4Y-127.0
X152.4Y-139.7
X152.4Y-152.4
X152.73Y-95.504
X153.518Y-81.051
X155.016Y-82.347
X155.067Y-94.437
X155.321Y-85.928
X156.159Y-96.444
X157.099Y-67.234
X157.75Y-93.904
X157.917Y-90.175
X158.699Y-95.631
X159.0Y-81.0
X159.531Y-85.922
X159.69Y-68.402
X159.842Y-77.5
X160.172Y-70.942
X161.087Y-103.099
X161.29Y-78.638
X162.941Y-107.671
X165.1Y-114.3
X165.1Y-127.0
X165.1Y-139.7
X165.913Y-107.595
X167.03Y-87.503
X167.615Y-104.978
X168.326Y-82.118
X171.526Y-81.178
X172.237Y-96.926
X172.314Y-95.91
X173.939Y-110.084
X173.939Y-111.557
X176.682Y-99.568
X179.415Y-82.986
X180.214Y-83.019
X181.0Y-100.228
X181.127Y-102.173
X181.559Y-85.852
X183.845Y-96.926
X183.871Y-97.688
X184.506Y-100.025
X184.556Y-103.353
X187.554Y-103.099
X187.63Y-108.356
X188.519Y-103.124
X188.671Y-108.356
T2
X150.5Y-99.5
X150.5Y-103.5
T3
X163.504Y-100.878
X168.504Y-98.378
X168.504Y-103.378
X168.518Y-74.875
X171.018Y-69.875
X173.518Y-74.875
T4
X189.84Y-92.659
X189.84Y-90.119
T5
X102.0Y-125.621
X105.25Y-131.25
X105.897Y-123.371
X109.147Y-129.0
X141.75Y-57.25
X141.75Y-61.75
X148.25Y-57.25
X148.25Y-61.75
X180.676Y-129.19
X183.926Y-123.56
X184.574Y-131.44
X187.824Y-125.81
M30
