%TF.GenerationSoftware,KiCad,Pcbnew,9.0.0*%
%TF.CreationDate,2025-05-12T19:59:56-03:00*%
%TF.ProjectId,kicad proyecto,6b696361-6420-4707-926f-796563746f2e,rev?*%
%TF.SameCoordinates,Original*%
%TF.FileFunction,Paste,Top*%
%TF.FilePolarity,Positive*%
%FSLAX46Y46*%
G04 Gerber Fmt 4.6, Leading zero omitted, Abs format (unit mm)*
G04 Created by KiCad (PCBNEW 9.0.0) date 2025-05-12 19:59:56*
%MOMM*%
%LPD*%
G01*
G04 APERTURE LIST*
G04 Aperture macros list*
%AMRoundRect*
0 Rectangle with rounded corners*
0 $1 Rounding radius*
0 $2 $3 $4 $5 $6 $7 $8 $9 X,Y pos of 4 corners*
0 Add a 4 corners polygon primitive as box body*
4,1,4,$2,$3,$4,$5,$6,$7,$8,$9,$2,$3,0*
0 Add four circle primitives for the rounded corners*
1,1,$1+$1,$2,$3*
1,1,$1+$1,$4,$5*
1,1,$1+$1,$6,$7*
1,1,$1+$1,$8,$9*
0 Add four rect primitives between the rounded corners*
20,1,$1+$1,$2,$3,$4,$5,0*
20,1,$1+$1,$4,$5,$6,$7,0*
20,1,$1+$1,$6,$7,$8,$9,0*
20,1,$1+$1,$8,$9,$2,$3,0*%
G04 Aperture macros list end*
%ADD10C,0.100000*%
%ADD11RoundRect,0.225000X-0.225000X-0.250000X0.225000X-0.250000X0.225000X0.250000X-0.225000X0.250000X0*%
%ADD12RoundRect,0.200000X0.200000X0.275000X-0.200000X0.275000X-0.200000X-0.275000X0.200000X-0.275000X0*%
%ADD13RoundRect,0.150000X0.825000X0.150000X-0.825000X0.150000X-0.825000X-0.150000X0.825000X-0.150000X0*%
%ADD14RoundRect,0.225000X0.225000X0.250000X-0.225000X0.250000X-0.225000X-0.250000X0.225000X-0.250000X0*%
%ADD15RoundRect,0.200000X-0.200000X-0.275000X0.200000X-0.275000X0.200000X0.275000X-0.200000X0.275000X0*%
%ADD16R,1.750000X0.450000*%
%ADD17RoundRect,0.200000X-0.275000X0.200000X-0.275000X-0.200000X0.275000X-0.200000X0.275000X0.200000X0*%
%ADD18RoundRect,0.150000X0.150000X-0.587500X0.150000X0.587500X-0.150000X0.587500X-0.150000X-0.587500X0*%
%ADD19RoundRect,0.225000X0.250000X-0.225000X0.250000X0.225000X-0.250000X0.225000X-0.250000X-0.225000X0*%
%ADD20RoundRect,0.150000X-0.825000X-0.150000X0.825000X-0.150000X0.825000X0.150000X-0.825000X0.150000X0*%
%ADD21R,2.500000X0.500000*%
%ADD22R,2.500000X2.000000*%
%ADD23RoundRect,0.200000X0.275000X-0.200000X0.275000X0.200000X-0.275000X0.200000X-0.275000X-0.200000X0*%
%ADD24RoundRect,0.225000X-0.250000X0.225000X-0.250000X-0.225000X0.250000X-0.225000X0.250000X0.225000X0*%
%ADD25RoundRect,0.150000X-0.150000X0.825000X-0.150000X-0.825000X0.150000X-0.825000X0.150000X0.825000X0*%
G04 APERTURE END LIST*
D10*
X148303884Y-99491466D02*
X149065789Y-99491466D01*
D11*
%TO.C,C11*%
X152717200Y-94437206D03*
X154267200Y-94437194D03*
%TD*%
D12*
%TO.C,R16*%
X150837400Y-71018400D03*
X149187400Y-71018400D03*
%TD*%
%TO.C,R6*%
X150817400Y-79844000D03*
X149167400Y-79844000D03*
%TD*%
D11*
%TO.C,C5*%
X179056995Y-85851995D03*
X180607005Y-85852005D03*
%TD*%
D13*
%TO.C,U5*%
X165562500Y-96445000D03*
X165562500Y-95175000D03*
X165562500Y-93905000D03*
X165562500Y-92635000D03*
X165562500Y-91365000D03*
X165562500Y-90095000D03*
X165562500Y-88825000D03*
X165562500Y-87555000D03*
X160612500Y-87555000D03*
X160612500Y-88825000D03*
X160612500Y-90095000D03*
X160612500Y-91365000D03*
X160612500Y-92635000D03*
X160612500Y-93905000D03*
X160612500Y-95175000D03*
X160612500Y-96445000D03*
%TD*%
D14*
%TO.C,C10*%
X158661401Y-68376795D03*
X157111399Y-68376805D03*
%TD*%
D15*
%TO.C,R12*%
X161290000Y-73380600D03*
X162940000Y-73380600D03*
%TD*%
D16*
%TO.C,U3*%
X175190601Y-95673200D03*
X175190600Y-96323200D03*
X175190601Y-96973200D03*
X175190600Y-97623200D03*
X175190601Y-98273200D03*
X175190601Y-98923200D03*
X175190601Y-99573200D03*
X175190601Y-100223200D03*
X175190601Y-100873200D03*
X175190601Y-101523200D03*
X175190600Y-102173200D03*
X175190601Y-102823200D03*
X175190600Y-103473200D03*
X175190600Y-104123199D03*
X182390599Y-104123200D03*
X182390600Y-103473200D03*
X182390599Y-102823200D03*
X182390600Y-102173200D03*
X182390599Y-101523200D03*
X182390599Y-100873200D03*
X182390599Y-100223200D03*
X182390599Y-99573200D03*
X182390599Y-98923200D03*
X182390599Y-98273200D03*
X182390600Y-97623200D03*
X182390599Y-96973200D03*
X182390600Y-96323200D03*
X182390600Y-95673201D03*
%TD*%
D12*
%TO.C,R17*%
X151412500Y-85000000D03*
X149762500Y-85000000D03*
%TD*%
%TO.C,R7*%
X150822400Y-78335400D03*
X149172400Y-78335400D03*
%TD*%
D14*
%TO.C,C1*%
X168923000Y-105943400D03*
X167373000Y-105943400D03*
%TD*%
D17*
%TO.C,R1*%
X169926000Y-79007199D03*
X169926000Y-80657201D03*
%TD*%
D11*
%TO.C,C6*%
X171437000Y-111556800D03*
X172987000Y-111556800D03*
%TD*%
D15*
%TO.C,R8*%
X161276800Y-76327000D03*
X162926800Y-76327000D03*
%TD*%
D12*
%TO.C,R15*%
X150832400Y-72494000D03*
X149182400Y-72494000D03*
%TD*%
%TO.C,R11*%
X150832400Y-75414200D03*
X149182400Y-75414200D03*
%TD*%
D18*
%TO.C,Q1*%
X160136800Y-107465100D03*
X162036800Y-107465100D03*
X161086800Y-105590100D03*
%TD*%
D19*
%TO.C,C7*%
X173228000Y-97193400D03*
X173228000Y-95643400D03*
%TD*%
D20*
%TO.C,U2*%
X164525000Y-107595000D03*
X164525000Y-108865000D03*
X164525000Y-110135000D03*
X164525000Y-111405000D03*
X169475000Y-111405000D03*
X169475000Y-110135000D03*
X169475000Y-108865000D03*
X169475000Y-107595000D03*
%TD*%
D21*
%TO.C,J1*%
X187510000Y-107264000D03*
X187510000Y-106464000D03*
X187510000Y-105664000D03*
X187510000Y-104864000D03*
X187510000Y-104064000D03*
D22*
X187510000Y-110064000D03*
X193010000Y-110064000D03*
X187510000Y-101264000D03*
X193010000Y-101264000D03*
%TD*%
D23*
%TO.C,R5*%
X157750000Y-93075001D03*
X157750000Y-91424999D03*
%TD*%
D15*
%TO.C,R10*%
X161276800Y-74853800D03*
X162926800Y-74853800D03*
%TD*%
D12*
%TO.C,R18*%
X154998750Y-84994531D03*
X153348750Y-84994531D03*
%TD*%
%TO.C,R9*%
X150827400Y-76884200D03*
X149177400Y-76884200D03*
%TD*%
D20*
%TO.C,U1*%
X172150000Y-82016600D03*
X172150000Y-83286600D03*
X172150000Y-84556600D03*
X172150000Y-85826600D03*
X177100000Y-85826600D03*
X177100000Y-84556600D03*
X177100000Y-83286600D03*
X177100000Y-82016600D03*
%TD*%
D15*
%TO.C,R3*%
X171387000Y-108585000D03*
X173037000Y-108585000D03*
%TD*%
D24*
%TO.C,C8*%
X184505602Y-100850391D03*
X184505598Y-102400409D03*
%TD*%
D20*
%TO.C,U6*%
X153525000Y-71055000D03*
X153525000Y-72325000D03*
X153525000Y-73595000D03*
X153525000Y-74865000D03*
X153525000Y-76135000D03*
X153525000Y-77405000D03*
X153525000Y-78675000D03*
X153525000Y-79945000D03*
X158475000Y-79945000D03*
X158475000Y-78675000D03*
X158475000Y-77405000D03*
X158475000Y-76135000D03*
X158475000Y-74865000D03*
X158475000Y-73595000D03*
X158475000Y-72325000D03*
X158475000Y-71055000D03*
%TD*%
D15*
%TO.C,R4*%
X161276800Y-77815600D03*
X162926800Y-77815600D03*
%TD*%
D25*
%TO.C,U4*%
X153992500Y-87525000D03*
X152722500Y-87525000D03*
X151452500Y-87525000D03*
X150182500Y-87525000D03*
X150182500Y-92475000D03*
X151452500Y-92475000D03*
X152722500Y-92475000D03*
X153992500Y-92475000D03*
%TD*%
D14*
%TO.C,C4*%
X169888206Y-83185004D03*
X168338194Y-83184996D03*
%TD*%
D15*
%TO.C,R14*%
X161277800Y-71907400D03*
X162927800Y-71907400D03*
%TD*%
D11*
%TO.C,C2*%
X171437000Y-110083600D03*
X172987000Y-110083600D03*
%TD*%
D14*
%TO.C,C9*%
X158673800Y-96443800D03*
X157123800Y-96443802D03*
%TD*%
D12*
%TO.C,R13*%
X150832400Y-73950800D03*
X149182400Y-73950800D03*
%TD*%
D11*
%TO.C,C3*%
X179031600Y-82016600D03*
X180581600Y-82016600D03*
%TD*%
D15*
%TO.C,R19*%
X153353000Y-83464400D03*
X155003000Y-83464400D03*
%TD*%
D12*
%TO.C,R2*%
X162623000Y-110083600D03*
X160973000Y-110083600D03*
%TD*%
M02*
