M48
; DRILL file {KiCad 9.0.0} date 2025-05-12T20:00:46-0300
; FORMAT={-:-/ absolute / metric / decimal}
; #@! TF.CreationDate,2025-05-12T20:00:46-03:00
; #@! TF.GenerationSoftware,Kicad,Pcbnew,9.0.0
; #@! TF.FileFunction,Plated,2,3,Buried
FMAT,2
METRIC
; #@! TA.AperFunction,Plated,Buried,ViaDrill
T1C0.300
%
G90
G05
T1
X146.05Y-63.5
X146.05Y-69.85
X146.05Y-76.2
X146.05Y-82.55
X146.05Y-88.9
X146.05Y-95.25
X146.05Y-101.6
X150.092Y-94.775
X152.4Y-57.15
X152.4Y-63.5
X152.4Y-82.55
X152.4Y-101.6
X152.4Y-107.95
X152.793Y-90.153
X155.911Y-75.479
X156.607Y-94.692
X158.75Y-63.5
X158.75Y-82.55
X158.75Y-101.6
X158.75Y-107.95
X163.151Y-88.761
X163.207Y-95.054
X165.1Y-63.5
X165.1Y-69.85
X165.1Y-76.2
X165.1Y-82.55
X165.1Y-114.3
X171.45Y-63.5
X171.45Y-76.2
X171.45Y-88.9
X171.45Y-95.25
X171.45Y-114.3
X172.161Y-101.514
X177.8Y-76.2
X177.8Y-88.9
X177.8Y-101.6
X177.8Y-107.95
X177.8Y-114.3
X177.8Y-120.65
X184.15Y-76.2
X184.15Y-82.55
X184.15Y-88.9
X184.15Y-95.25
X184.15Y-107.95
X184.15Y-114.3
X184.15Y-120.65
X184.424Y-104.549
X190.271Y-100.121
X190.5Y-95.25
X190.5Y-114.3
X190.5Y-120.65
X192.081Y-105.802
M30
