%TF.GenerationSoftware,KiCad,Pcbnew,9.0.0*%
%TF.CreationDate,2025-05-12T19:59:56-03:00*%
%TF.ProjectId,kicad proyecto,6b696361-6420-4707-926f-796563746f2e,rev?*%
%TF.SameCoordinates,Original*%
%TF.FileFunction,Copper,L1,Top*%
%TF.FilePolarity,Positive*%
%FSLAX46Y46*%
G04 Gerber Fmt 4.6, Leading zero omitted, Abs format (unit mm)*
G04 Created by KiCad (PCBNEW 9.0.0) date 2025-05-12 19:59:56*
%MOMM*%
%LPD*%
G01*
G04 APERTURE LIST*
G04 Aperture macros list*
%AMRoundRect*
0 Rectangle with rounded corners*
0 $1 Rounding radius*
0 $2 $3 $4 $5 $6 $7 $8 $9 X,Y pos of 4 corners*
0 Add a 4 corners polygon primitive as box body*
4,1,4,$2,$3,$4,$5,$6,$7,$8,$9,$2,$3,0*
0 Add four circle primitives for the rounded corners*
1,1,$1+$1,$2,$3*
1,1,$1+$1,$4,$5*
1,1,$1+$1,$6,$7*
1,1,$1+$1,$8,$9*
0 Add four rect primitives between the rounded corners*
20,1,$1+$1,$2,$3,$4,$5,0*
20,1,$1+$1,$4,$5,$6,$7,0*
20,1,$1+$1,$6,$7,$8,$9,0*
20,1,$1+$1,$8,$9,$2,$3,0*%
G04 Aperture macros list end*
%TA.AperFunction,SMDPad,CuDef*%
%ADD10RoundRect,0.225000X-0.225000X-0.250000X0.225000X-0.250000X0.225000X0.250000X-0.225000X0.250000X0*%
%TD*%
%TA.AperFunction,SMDPad,CuDef*%
%ADD11RoundRect,0.200000X0.200000X0.275000X-0.200000X0.275000X-0.200000X-0.275000X0.200000X-0.275000X0*%
%TD*%
%TA.AperFunction,SMDPad,CuDef*%
%ADD12RoundRect,0.150000X0.825000X0.150000X-0.825000X0.150000X-0.825000X-0.150000X0.825000X-0.150000X0*%
%TD*%
%TA.AperFunction,SMDPad,CuDef*%
%ADD13RoundRect,0.225000X0.225000X0.250000X-0.225000X0.250000X-0.225000X-0.250000X0.225000X-0.250000X0*%
%TD*%
%TA.AperFunction,SMDPad,CuDef*%
%ADD14RoundRect,0.200000X-0.200000X-0.275000X0.200000X-0.275000X0.200000X0.275000X-0.200000X0.275000X0*%
%TD*%
%TA.AperFunction,ComponentPad*%
%ADD15C,2.000000*%
%TD*%
%TA.AperFunction,SMDPad,CuDef*%
%ADD16R,1.750000X0.450000*%
%TD*%
%TA.AperFunction,ComponentPad*%
%ADD17C,1.498600*%
%TD*%
%TA.AperFunction,SMDPad,CuDef*%
%ADD18RoundRect,0.200000X-0.275000X0.200000X-0.275000X-0.200000X0.275000X-0.200000X0.275000X0.200000X0*%
%TD*%
%TA.AperFunction,SMDPad,CuDef*%
%ADD19RoundRect,0.150000X0.150000X-0.587500X0.150000X0.587500X-0.150000X0.587500X-0.150000X-0.587500X0*%
%TD*%
%TA.AperFunction,SMDPad,CuDef*%
%ADD20RoundRect,0.225000X0.250000X-0.225000X0.250000X0.225000X-0.250000X0.225000X-0.250000X-0.225000X0*%
%TD*%
%TA.AperFunction,SMDPad,CuDef*%
%ADD21RoundRect,0.150000X-0.825000X-0.150000X0.825000X-0.150000X0.825000X0.150000X-0.825000X0.150000X0*%
%TD*%
%TA.AperFunction,SMDPad,CuDef*%
%ADD22R,2.500000X0.500000*%
%TD*%
%TA.AperFunction,SMDPad,CuDef*%
%ADD23R,2.500000X2.000000*%
%TD*%
%TA.AperFunction,SMDPad,CuDef*%
%ADD24RoundRect,0.200000X0.275000X-0.200000X0.275000X0.200000X-0.275000X0.200000X-0.275000X-0.200000X0*%
%TD*%
%TA.AperFunction,SMDPad,CuDef*%
%ADD25RoundRect,0.225000X-0.250000X0.225000X-0.250000X-0.225000X0.250000X-0.225000X0.250000X0.225000X0*%
%TD*%
%TA.AperFunction,SMDPad,CuDef*%
%ADD26RoundRect,0.150000X-0.150000X0.825000X-0.150000X-0.825000X0.150000X-0.825000X0.150000X0.825000X0*%
%TD*%
%TA.AperFunction,ComponentPad*%
%ADD27R,1.700000X1.700000*%
%TD*%
%TA.AperFunction,ComponentPad*%
%ADD28C,1.700000*%
%TD*%
%TA.AperFunction,ComponentPad*%
%ADD29RoundRect,0.190500X-0.809500X-0.444500X0.809500X-0.444500X0.809500X0.444500X-0.809500X0.444500X0*%
%TD*%
%TA.AperFunction,ViaPad*%
%ADD30C,0.600000*%
%TD*%
%TA.AperFunction,Conductor*%
%ADD31C,0.400000*%
%TD*%
%TA.AperFunction,Conductor*%
%ADD32C,0.200000*%
%TD*%
%TA.AperFunction,Conductor*%
%ADD33C,0.500000*%
%TD*%
%TA.AperFunction,Conductor*%
%ADD34C,0.350000*%
%TD*%
%TA.AperFunction,Conductor*%
%ADD35C,1.000000*%
%TD*%
%TA.AperFunction,Conductor*%
%ADD36C,0.352000*%
%TD*%
%TA.AperFunction,Conductor*%
%ADD37C,0.150000*%
%TD*%
G04 APERTURE END LIST*
D10*
%TO.P,C11,1*%
%TO.N,+5V*%
X152717200Y-94437206D03*
%TO.P,C11,2*%
%TO.N,GND*%
X154267200Y-94437194D03*
%TD*%
D11*
%TO.P,R16,1*%
%TO.N,Net-(U6-Q11)*%
X150837400Y-71018400D03*
%TO.P,R16,2*%
%TO.N,Net-(U4-+)*%
X149187400Y-71018400D03*
%TD*%
%TO.P,R6,1*%
%TO.N,Net-(U6-Q1)*%
X150817400Y-79844000D03*
%TO.P,R6,2*%
%TO.N,Net-(U4-+)*%
X149167400Y-79844000D03*
%TD*%
D10*
%TO.P,C5,1*%
%TO.N,Net-(U1-CV)*%
X179056995Y-85851995D03*
%TO.P,C5,2*%
%TO.N,GND*%
X180607005Y-85852005D03*
%TD*%
D12*
%TO.P,U5,1,Q11*%
%TO.N,/alarm*%
X165562500Y-96445000D03*
%TO.P,U5,2,Q5*%
%TO.N,unconnected-(U5-Q5-Pad2)*%
X165562500Y-95175000D03*
%TO.P,U5,3,Q4*%
%TO.N,unconnected-(U5-Q4-Pad3)*%
X165562500Y-93905000D03*
%TO.P,U5,4,Q6*%
%TO.N,unconnected-(U5-Q6-Pad4)*%
X165562500Y-92635000D03*
%TO.P,U5,5,Q3*%
%TO.N,unconnected-(U5-Q3-Pad5)*%
X165562500Y-91365000D03*
%TO.P,U5,6,Q2*%
%TO.N,unconnected-(U5-Q2-Pad6)*%
X165562500Y-90095000D03*
%TO.P,U5,7,Q1*%
%TO.N,unconnected-(U5-Q1-Pad7)*%
X165562500Y-88825000D03*
%TO.P,U5,8,VSS*%
%TO.N,GND*%
X165562500Y-87555000D03*
%TO.P,U5,9,Q0*%
%TO.N,unconnected-(U5-Q0-Pad9)*%
X160612500Y-87555000D03*
%TO.P,U5,10,CLK*%
%TO.N,Net-(U5-CLK)*%
X160612500Y-88825000D03*
%TO.P,U5,11,Reset*%
%TO.N,RESET*%
X160612500Y-90095000D03*
%TO.P,U5,12,Q8*%
%TO.N,unconnected-(U5-Q8-Pad12)*%
X160612500Y-91365000D03*
%TO.P,U5,13,Q7*%
%TO.N,unconnected-(U5-Q7-Pad13)*%
X160612500Y-92635000D03*
%TO.P,U5,14,Q9*%
%TO.N,unconnected-(U5-Q9-Pad14)*%
X160612500Y-93905000D03*
%TO.P,U5,15,Q10*%
%TO.N,unconnected-(U5-Q10-Pad15)*%
X160612500Y-95175000D03*
%TO.P,U5,16,VDD*%
%TO.N,+5V*%
X160612500Y-96445000D03*
%TD*%
D13*
%TO.P,C10,1*%
%TO.N,+5V*%
X158661401Y-68376795D03*
%TO.P,C10,2*%
%TO.N,GND*%
X157111399Y-68376805D03*
%TD*%
D14*
%TO.P,R12,1*%
%TO.N,Net-(U6-Q9)*%
X161290000Y-73380600D03*
%TO.P,R12,2*%
%TO.N,Net-(U4-+)*%
X162940000Y-73380600D03*
%TD*%
D15*
%TO.P,SW3,1,A*%
%TO.N,+5V*%
X187823557Y-125810418D03*
X184573557Y-131439583D03*
%TO.P,SW3,2,B*%
%TO.N,Net-(SW1-B)*%
X183926443Y-123560418D03*
X180676443Y-129189583D03*
%TD*%
D16*
%TO.P,U3,1,TXD*%
%TO.N,Net-(J2-Pin_1)*%
X175190601Y-95673200D03*
%TO.P,U3,2,DTR*%
%TO.N,unconnected-(U3-DTR-Pad2)*%
X175190600Y-96323200D03*
%TO.P,U3,3,RTS*%
%TO.N,unconnected-(U3-RTS-Pad3)*%
X175190601Y-96973200D03*
%TO.P,U3,4,VCCIO*%
%TO.N,+5V*%
X175190600Y-97623200D03*
%TO.P,U3,5,RXD*%
%TO.N,Net-(J2-Pin_2)*%
X175190601Y-98273200D03*
%TO.P,U3,6,RI*%
%TO.N,unconnected-(U3-RI-Pad6)*%
X175190601Y-98923200D03*
%TO.P,U3,7,GND*%
%TO.N,GND*%
X175190601Y-99573200D03*
%TO.P,U3,8*%
%TO.N,N/C*%
X175190601Y-100223200D03*
%TO.P,U3,9,DCR*%
%TO.N,unconnected-(U3-DCR-Pad9)*%
X175190601Y-100873200D03*
%TO.P,U3,10,DCD*%
%TO.N,unconnected-(U3-DCD-Pad10)*%
X175190601Y-101523200D03*
%TO.P,U3,11,CTS*%
%TO.N,unconnected-(U3-CTS-Pad11)*%
X175190600Y-102173200D03*
%TO.P,U3,12,CBUS4*%
%TO.N,unconnected-(U3-CBUS4-Pad12)*%
X175190601Y-102823200D03*
%TO.P,U3,13,CBUS2*%
%TO.N,unconnected-(U3-CBUS2-Pad13)*%
X175190600Y-103473200D03*
%TO.P,U3,14,CBUS3*%
%TO.N,unconnected-(U3-CBUS3-Pad14)*%
X175190600Y-104123199D03*
%TO.P,U3,15,USBD+*%
%TO.N,/USB_D P*%
X182390599Y-104123200D03*
%TO.P,U3,16,USBD-*%
%TO.N,/USB_D N*%
X182390600Y-103473200D03*
%TO.P,U3,17,3V3OUT*%
%TO.N,unconnected-(U3-3V3OUT-Pad17)*%
X182390599Y-102823200D03*
%TO.P,U3,18,GND*%
%TO.N,GND*%
X182390600Y-102173200D03*
%TO.P,U3,19,~{RESET}*%
%TO.N,unconnected-(U3-~{RESET}-Pad19)*%
X182390599Y-101523200D03*
%TO.P,U3,20,VCC*%
%TO.N,+5V*%
X182390599Y-100873200D03*
%TO.P,U3,21,GND*%
%TO.N,GND*%
X182390599Y-100223200D03*
%TO.P,U3,22,CBUS1*%
%TO.N,unconnected-(U3-CBUS1-Pad22)*%
X182390599Y-99573200D03*
%TO.P,U3,23,CBUS0*%
%TO.N,unconnected-(U3-CBUS0-Pad23)*%
X182390599Y-98923200D03*
%TO.P,U3,24*%
%TO.N,N/C*%
X182390599Y-98273200D03*
%TO.P,U3,25,AGND*%
%TO.N,GND*%
X182390600Y-97623200D03*
%TO.P,U3,26,TEST*%
X182390599Y-96973200D03*
%TO.P,U3,27,OSCI*%
%TO.N,unconnected-(U3-OSCI-Pad27)*%
X182390600Y-96323200D03*
%TO.P,U3,28,OSCO*%
%TO.N,unconnected-(U3-OSCO-Pad28)*%
X182390600Y-95673201D03*
%TD*%
D11*
%TO.P,R17,1*%
%TO.N,Net-(U4-+)*%
X151412500Y-85000000D03*
%TO.P,R17,2*%
%TO.N,GND*%
X149762500Y-85000000D03*
%TD*%
%TO.P,R7,1*%
%TO.N,Net-(U6-Q2)*%
X150822400Y-78335400D03*
%TO.P,R7,2*%
%TO.N,Net-(U4-+)*%
X149172400Y-78335400D03*
%TD*%
D17*
%TO.P,50k1,1,1*%
%TO.N,+5V*%
X168503600Y-103378000D03*
%TO.P,50k1,2,2*%
X163503600Y-100878000D03*
%TO.P,50k1,3,3*%
%TO.N,Net-(U2-DIS)*%
X168503600Y-98378010D03*
%TD*%
D13*
%TO.P,C1,1*%
%TO.N,+5V*%
X168923000Y-105943400D03*
%TO.P,C1,2*%
%TO.N,GND*%
X167373000Y-105943400D03*
%TD*%
D18*
%TO.P,R1,1*%
%TO.N,Net-(U1-DIS)*%
X169926000Y-79007199D03*
%TO.P,R1,2*%
%TO.N,Net-(U1-THR)*%
X169926000Y-80657201D03*
%TD*%
D17*
%TO.P,10k1,1,1*%
%TO.N,+5V*%
X168518200Y-74875400D03*
%TO.P,10k1,2,2*%
X171018200Y-69875400D03*
%TO.P,10k1,3,3*%
%TO.N,Net-(U1-DIS)*%
X173518190Y-74875400D03*
%TD*%
D10*
%TO.P,C6,1*%
%TO.N,Net-(U2-CV)*%
X171437000Y-111556800D03*
%TO.P,C6,2*%
%TO.N,GND*%
X172987000Y-111556800D03*
%TD*%
D14*
%TO.P,R8,1*%
%TO.N,Net-(U6-Q8)*%
X161276800Y-76327000D03*
%TO.P,R8,2*%
%TO.N,Net-(U4-+)*%
X162926800Y-76327000D03*
%TD*%
D11*
%TO.P,R15,1*%
%TO.N,Net-(U6-Q5)*%
X150832400Y-72494000D03*
%TO.P,R15,2*%
%TO.N,Net-(U4-+)*%
X149182400Y-72494000D03*
%TD*%
%TO.P,R11,1*%
%TO.N,Net-(U6-Q6)*%
X150832400Y-75414200D03*
%TO.P,R11,2*%
%TO.N,Net-(U4-+)*%
X149182400Y-75414200D03*
%TD*%
D19*
%TO.P,Q1,1,B*%
%TO.N,Net-(Q1-B)*%
X160136800Y-107465100D03*
%TO.P,Q1,2,E*%
%TO.N,GND*%
X162036800Y-107465100D03*
%TO.P,Q1,3,C*%
%TO.N,Net-(BZ1--)*%
X161086800Y-105590100D03*
%TD*%
D20*
%TO.P,C7,1*%
%TO.N,+5V*%
X173228000Y-97193400D03*
%TO.P,C7,2*%
%TO.N,GND*%
X173228000Y-95643400D03*
%TD*%
D15*
%TO.P,SW2,1,A*%
%TO.N,RESET*%
X148250000Y-61750000D03*
X141750000Y-61750000D03*
%TO.P,SW2,2,B*%
%TO.N,GND*%
X148250000Y-57250000D03*
X141750000Y-57250000D03*
%TD*%
D21*
%TO.P,U2,1,GND*%
%TO.N,GND*%
X164525000Y-107595000D03*
%TO.P,U2,2,TR*%
%TO.N,Net-(U2-THR)*%
X164525000Y-108865000D03*
%TO.P,U2,3,Q*%
%TO.N,Net-(U2-Q)*%
X164525000Y-110135000D03*
%TO.P,U2,4,R*%
%TO.N,/alarm*%
X164525000Y-111405000D03*
%TO.P,U2,5,CV*%
%TO.N,Net-(U2-CV)*%
X169475000Y-111405000D03*
%TO.P,U2,6,THR*%
%TO.N,Net-(U2-THR)*%
X169475000Y-110135000D03*
%TO.P,U2,7,DIS*%
%TO.N,Net-(U2-DIS)*%
X169475000Y-108865000D03*
%TO.P,U2,8,VCC*%
%TO.N,+5V*%
X169475000Y-107595000D03*
%TD*%
D22*
%TO.P,J1,1,VBUS*%
%TO.N,+5V*%
X187510000Y-107264000D03*
%TO.P,J1,2,D-*%
%TO.N,/USB_D N*%
X187510000Y-106464000D03*
%TO.P,J1,3,D+*%
%TO.N,/USB_D P*%
X187510000Y-105664000D03*
%TO.P,J1,4,GND*%
%TO.N,GND*%
X187510000Y-104864000D03*
%TO.P,J1,5,Shield*%
X187510000Y-104064000D03*
D23*
%TO.P,J1,6*%
%TO.N,N/C*%
X187510000Y-110064000D03*
X193010000Y-110064000D03*
X187510000Y-101264000D03*
X193010000Y-101264000D03*
%TD*%
D24*
%TO.P,R5,1*%
%TO.N,+5V*%
X157750000Y-93075001D03*
%TO.P,R5,2*%
%TO.N,RESET*%
X157750000Y-91424999D03*
%TD*%
D14*
%TO.P,R10,1*%
%TO.N,Net-(U6-Q7)*%
X161276800Y-74853800D03*
%TO.P,R10,2*%
%TO.N,Net-(U4-+)*%
X162926800Y-74853800D03*
%TD*%
D11*
%TO.P,R18,1*%
%TO.N,+5V*%
X154998750Y-84994531D03*
%TO.P,R18,2*%
%TO.N,Net-(U4--)*%
X153348750Y-84994531D03*
%TD*%
%TO.P,R9,1*%
%TO.N,Net-(U6-Q3)*%
X150827400Y-76884200D03*
%TO.P,R9,2*%
%TO.N,Net-(U4-+)*%
X149177400Y-76884200D03*
%TD*%
D21*
%TO.P,U1,1,GND*%
%TO.N,GND*%
X172150000Y-82016600D03*
%TO.P,U1,2,TR*%
%TO.N,Net-(U1-THR)*%
X172150000Y-83286600D03*
%TO.P,U1,3,Q*%
%TO.N,CLOCK*%
X172150000Y-84556600D03*
%TO.P,U1,4,R*%
%TO.N,Net-(SW1-B)*%
X172150000Y-85826600D03*
%TO.P,U1,5,CV*%
%TO.N,Net-(U1-CV)*%
X177100000Y-85826600D03*
%TO.P,U1,6,THR*%
%TO.N,Net-(U1-THR)*%
X177100000Y-84556600D03*
%TO.P,U1,7,DIS*%
%TO.N,Net-(U1-DIS)*%
X177100000Y-83286600D03*
%TO.P,U1,8,VCC*%
%TO.N,+5V*%
X177100000Y-82016600D03*
%TD*%
D14*
%TO.P,R3,1*%
%TO.N,Net-(U2-DIS)*%
X171387000Y-108585000D03*
%TO.P,R3,2*%
%TO.N,Net-(U2-THR)*%
X173037000Y-108585000D03*
%TD*%
D15*
%TO.P,SW1,1,A*%
%TO.N,+5V*%
X105250000Y-131250000D03*
X102000000Y-125620835D03*
%TO.P,SW1,2,B*%
%TO.N,Net-(SW1-B)*%
X109147114Y-129000000D03*
X105897114Y-123370835D03*
%TD*%
D25*
%TO.P,C8,1*%
%TO.N,+5V*%
X184505602Y-100850391D03*
%TO.P,C8,2*%
%TO.N,GND*%
X184505598Y-102400409D03*
%TD*%
D21*
%TO.P,U6,1,Q11*%
%TO.N,Net-(U6-Q11)*%
X153525000Y-71055000D03*
%TO.P,U6,2,Q5*%
%TO.N,Net-(U6-Q5)*%
X153525000Y-72325000D03*
%TO.P,U6,3,Q4*%
%TO.N,Net-(U6-Q4)*%
X153525000Y-73595000D03*
%TO.P,U6,4,Q6*%
%TO.N,Net-(U6-Q6)*%
X153525000Y-74865000D03*
%TO.P,U6,5,Q3*%
%TO.N,Net-(U6-Q3)*%
X153525000Y-76135000D03*
%TO.P,U6,6,Q2*%
%TO.N,Net-(U6-Q2)*%
X153525000Y-77405000D03*
%TO.P,U6,7,Q1*%
%TO.N,Net-(U6-Q1)*%
X153525000Y-78675000D03*
%TO.P,U6,8,VSS*%
%TO.N,GND*%
X153525000Y-79945000D03*
%TO.P,U6,9,Q0*%
%TO.N,Net-(U6-Q0)*%
X158475000Y-79945000D03*
%TO.P,U6,10,CLK*%
%TO.N,CLOCK*%
X158475000Y-78675000D03*
%TO.P,U6,11,Reset*%
%TO.N,RESET*%
X158475000Y-77405000D03*
%TO.P,U6,12,Q8*%
%TO.N,Net-(U6-Q8)*%
X158475000Y-76135000D03*
%TO.P,U6,13,Q7*%
%TO.N,Net-(U6-Q7)*%
X158475000Y-74865000D03*
%TO.P,U6,14,Q9*%
%TO.N,Net-(U6-Q9)*%
X158475000Y-73595000D03*
%TO.P,U6,15,Q10*%
%TO.N,Net-(U6-Q10)*%
X158475000Y-72325000D03*
%TO.P,U6,16,VDD*%
%TO.N,+5V*%
X158475000Y-71055000D03*
%TD*%
D14*
%TO.P,R4,1*%
%TO.N,Net-(U6-Q0)*%
X161276800Y-77815600D03*
%TO.P,R4,2*%
%TO.N,Net-(U4-+)*%
X162926800Y-77815600D03*
%TD*%
D26*
%TO.P,U4,1,NULL*%
%TO.N,unconnected-(U4-NULL-Pad1)*%
X153992500Y-87525000D03*
%TO.P,U4,2,-*%
%TO.N,Net-(U4--)*%
X152722500Y-87525000D03*
%TO.P,U4,3,+*%
%TO.N,Net-(U4-+)*%
X151452500Y-87525000D03*
%TO.P,U4,4,V-*%
%TO.N,GND*%
X150182500Y-87525000D03*
%TO.P,U4,5,NULL*%
%TO.N,unconnected-(U4-NULL-Pad5)*%
X150182500Y-92475000D03*
%TO.P,U4,6*%
%TO.N,Net-(U5-CLK)*%
X151452500Y-92475000D03*
%TO.P,U4,7,V+*%
%TO.N,+5V*%
X152722500Y-92475000D03*
%TO.P,U4,8,NC*%
%TO.N,unconnected-(U4-NC-Pad8)*%
X153992500Y-92475000D03*
%TD*%
D13*
%TO.P,C4,1*%
%TO.N,Net-(U1-THR)*%
X169888206Y-83185004D03*
%TO.P,C4,2*%
%TO.N,GND*%
X168338194Y-83184996D03*
%TD*%
D14*
%TO.P,R14,1*%
%TO.N,Net-(U6-Q10)*%
X161277800Y-71907400D03*
%TO.P,R14,2*%
%TO.N,Net-(U4-+)*%
X162927800Y-71907400D03*
%TD*%
D10*
%TO.P,C2,1*%
%TO.N,Net-(U2-THR)*%
X171437000Y-110083600D03*
%TO.P,C2,2*%
%TO.N,GND*%
X172987000Y-110083600D03*
%TD*%
D27*
%TO.P,J2,1,Pin_1*%
%TO.N,Net-(J2-Pin_1)*%
X189839600Y-90119200D03*
D28*
%TO.P,J2,2,Pin_2*%
%TO.N,Net-(J2-Pin_2)*%
X189839599Y-92659199D03*
%TD*%
D13*
%TO.P,C9,1*%
%TO.N,+5V*%
X158673800Y-96443800D03*
%TO.P,C9,2*%
%TO.N,GND*%
X157123800Y-96443802D03*
%TD*%
D11*
%TO.P,R13,1*%
%TO.N,Net-(U6-Q4)*%
X150832400Y-73950800D03*
%TO.P,R13,2*%
%TO.N,Net-(U4-+)*%
X149182400Y-73950800D03*
%TD*%
D10*
%TO.P,C3,1*%
%TO.N,+5V*%
X179031600Y-82016600D03*
%TO.P,C3,2*%
%TO.N,GND*%
X180581600Y-82016600D03*
%TD*%
D29*
%TO.P,BZ1,1,+*%
%TO.N,+5V*%
X150500000Y-103500000D03*
%TO.P,BZ1,2,-*%
%TO.N,Net-(BZ1--)*%
X150500000Y-99500000D03*
%TD*%
D14*
%TO.P,R19,1*%
%TO.N,Net-(U4--)*%
X153353000Y-83464400D03*
%TO.P,R19,2*%
%TO.N,GND*%
X155003000Y-83464400D03*
%TD*%
D11*
%TO.P,R2,1*%
%TO.N,Net-(U2-Q)*%
X162623000Y-110083600D03*
%TO.P,R2,2*%
%TO.N,Net-(Q1-B)*%
X160973000Y-110083600D03*
%TD*%
D30*
%TO.N,+5V*%
X160172400Y-70942200D03*
X157750000Y-93903800D03*
X159530802Y-85921602D03*
X172237400Y-96926400D03*
X184505602Y-100025202D03*
X155321000Y-85928200D03*
X187629800Y-108356400D03*
X179414893Y-82986042D03*
X152730200Y-95504000D03*
X159689800Y-68402200D03*
X188671200Y-108356400D03*
X158699200Y-95631000D03*
%TO.N,Net-(BZ1--)*%
X161086800Y-103098600D03*
%TO.N,GND*%
X165100000Y-114300000D03*
X149675000Y-86000000D03*
X155067000Y-94437200D03*
X165912800Y-107595000D03*
X156159200Y-96443800D03*
X127000000Y-88900000D03*
X127000000Y-114300000D03*
X188518800Y-103124000D03*
X114300000Y-127000000D03*
X127000000Y-76200000D03*
X139700000Y-152400000D03*
X139700000Y-63500000D03*
X157099000Y-67233800D03*
X101600000Y-101600000D03*
X152400000Y-139700000D03*
X165100000Y-139700000D03*
X114300000Y-88900000D03*
X114300000Y-139700000D03*
X139700000Y-114300000D03*
X139700000Y-76200000D03*
X168325800Y-82118200D03*
X139700000Y-127000000D03*
X127000000Y-139700000D03*
X181559205Y-85852005D03*
X114300000Y-101600000D03*
X187553600Y-103098600D03*
X172313600Y-95910400D03*
X173939200Y-110083600D03*
X183870600Y-97688400D03*
X152400000Y-152400000D03*
X167614600Y-104978200D03*
X101600000Y-114300000D03*
X152400000Y-127000000D03*
X167030400Y-87503000D03*
X153517600Y-81051400D03*
X139700000Y-101600000D03*
X114300000Y-76200000D03*
X155016200Y-82346800D03*
X114300000Y-114300000D03*
X101600000Y-88900000D03*
X181127400Y-102173200D03*
X173939200Y-111556800D03*
X162941000Y-107670600D03*
X183845200Y-96926400D03*
X139700000Y-139700000D03*
X165100000Y-127000000D03*
X184556400Y-103352600D03*
X180214231Y-83018647D03*
X139700000Y-88900000D03*
X145000000Y-57250000D03*
X181000400Y-100228400D03*
X127000000Y-63500000D03*
X171526200Y-81178400D03*
X152400000Y-114300000D03*
X176682400Y-99568000D03*
%TO.N,Net-(U6-Q0)*%
X161290000Y-78638400D03*
X159000000Y-81000000D03*
%TO.N,RESET*%
X157917213Y-90174999D03*
X159842200Y-77500000D03*
%TD*%
D31*
%TO.N,+5V*%
X173657800Y-97623200D02*
X173228000Y-97193400D01*
D32*
X160557501Y-96499999D02*
X160612500Y-96445000D01*
D33*
X158699200Y-96443800D02*
X158572200Y-96316800D01*
D34*
X158475000Y-71055000D02*
X158587800Y-70942200D01*
X168605200Y-103479600D02*
X168503600Y-103378000D01*
D31*
X179031600Y-82602749D02*
X179031600Y-82016600D01*
D35*
X187510000Y-108338200D02*
X187528200Y-108356400D01*
D31*
X184505602Y-100850391D02*
X184505602Y-100177600D01*
D34*
X158661401Y-68376795D02*
X159664395Y-68376795D01*
X168503600Y-104927400D02*
X168503600Y-103378000D01*
D31*
X173228000Y-97193400D02*
X172504400Y-97193400D01*
D35*
X187629800Y-108356400D02*
X188671200Y-108356400D01*
D32*
X179372630Y-83030430D02*
X179374800Y-83032600D01*
D33*
X168923000Y-105943400D02*
X168943400Y-105943400D01*
D34*
X155371800Y-85877400D02*
X159486600Y-85877400D01*
D32*
X179414893Y-82986042D02*
X179372630Y-83028305D01*
D33*
X152730200Y-95504000D02*
X152730200Y-94958000D01*
X158572200Y-96316800D02*
X158546800Y-96316800D01*
X152730200Y-94958000D02*
X152722500Y-94950300D01*
X152722500Y-94950300D02*
X152722500Y-92475000D01*
D34*
X158673800Y-96469200D02*
X158699200Y-96443800D01*
D33*
X171018200Y-72375400D02*
X168518200Y-74875400D01*
D31*
X184482793Y-100873200D02*
X184505602Y-100850391D01*
X172504400Y-97193400D02*
X172237400Y-96926400D01*
D33*
X177100000Y-82016600D02*
X179031600Y-82016600D01*
D34*
X155321000Y-85928200D02*
X155371800Y-85877400D01*
D33*
X171018200Y-69875400D02*
X171018200Y-72375400D01*
D34*
X168923000Y-105346800D02*
X168503600Y-104927400D01*
D33*
X168943400Y-105943400D02*
X169475000Y-106475000D01*
D32*
X159664395Y-68376795D02*
X159689800Y-68402200D01*
D34*
X154998750Y-85529750D02*
X154998750Y-84994531D01*
X168923000Y-105943400D02*
X168923000Y-105346800D01*
D32*
X158546800Y-96316800D02*
X158673800Y-96443800D01*
D31*
X179414893Y-82986042D02*
X179031600Y-82602749D01*
D34*
X160501302Y-96443800D02*
X160557501Y-96499999D01*
D32*
X179372630Y-83028305D02*
X179372630Y-83030430D01*
D33*
X169475000Y-106475000D02*
X169475000Y-107595000D01*
D34*
X155321000Y-85852000D02*
X154998750Y-85529750D01*
D31*
X182390599Y-100873200D02*
X184482793Y-100873200D01*
D33*
X187510000Y-107264000D02*
X187510000Y-108338200D01*
D34*
X157750000Y-93903800D02*
X157750000Y-93075001D01*
D35*
X188671200Y-108356400D02*
X188899800Y-108356400D01*
D34*
X158587800Y-70942200D02*
X160172400Y-70942200D01*
D35*
X187528200Y-108356400D02*
X187629800Y-108356400D01*
D31*
X175190600Y-97623200D02*
X173657800Y-97623200D01*
D33*
X158699200Y-96443800D02*
X160501302Y-96443800D01*
X158699200Y-95631000D02*
X158699200Y-96443800D01*
D32*
X155321000Y-85928200D02*
X155321000Y-85852000D01*
X184505602Y-100025202D02*
X184505600Y-100025200D01*
D34*
%TO.N,Net-(U1-DIS)*%
X175488600Y-82675599D02*
X172923200Y-80110199D01*
X177100000Y-83286600D02*
X176125001Y-83286600D01*
X175514000Y-82675599D02*
X175488600Y-82675599D01*
X171820200Y-76573390D02*
X173518190Y-74875400D01*
X171820200Y-79007199D02*
X171820200Y-76573390D01*
X176125001Y-83286600D02*
X175514000Y-82675599D01*
X171820200Y-79007199D02*
X172923200Y-80110199D01*
X169926000Y-79007199D02*
X171820200Y-79007199D01*
%TO.N,Net-(U2-DIS)*%
X171387000Y-108635800D02*
X171373800Y-108622600D01*
D32*
X170310000Y-108865000D02*
X169475000Y-108865000D01*
D34*
X171373800Y-101248210D02*
X168503600Y-98378010D01*
X169698000Y-108788200D02*
X171234600Y-108788200D01*
D32*
X169621200Y-108865000D02*
X169698000Y-108788200D01*
D34*
X171373800Y-108622600D02*
X171373800Y-101248210D01*
D32*
X171234600Y-108788200D02*
X171387000Y-108635800D01*
X169475000Y-108865000D02*
X169621200Y-108865000D01*
D36*
%TO.N,Net-(BZ1--)*%
X161086800Y-103098600D02*
X161086800Y-105590100D01*
D31*
%TO.N,GND*%
X180581600Y-82562400D02*
X180581600Y-82016600D01*
D34*
X149675000Y-86000000D02*
X149675000Y-87017500D01*
X162941000Y-107670600D02*
X163016600Y-107595000D01*
D31*
X181005600Y-100223200D02*
X181000400Y-100228400D01*
X180214231Y-83018647D02*
X180214231Y-82929769D01*
D33*
X156159200Y-96443800D02*
X157123798Y-96443800D01*
D34*
X153525000Y-79945000D02*
X153525000Y-81044000D01*
X172150000Y-82016600D02*
X171526200Y-81392800D01*
X166250000Y-87500000D02*
X166195000Y-87555000D01*
D32*
X183805400Y-97623200D02*
X183870600Y-97688400D01*
D34*
X157111399Y-68376805D02*
X157111399Y-67246199D01*
D31*
X173939200Y-110083600D02*
X172987000Y-110083600D01*
X173228000Y-95643400D02*
X172580600Y-95643400D01*
X180214231Y-82929769D02*
X180581600Y-82562400D01*
X172987000Y-111556800D02*
X173939200Y-111556800D01*
D32*
X164367500Y-107437500D02*
X164525000Y-107595000D01*
D31*
X184556400Y-103352600D02*
X184556400Y-102451211D01*
X182390599Y-96973200D02*
X183798400Y-96973200D01*
D32*
X187510000Y-103142200D02*
X187553600Y-103098600D01*
D31*
X172580600Y-95643400D02*
X172313600Y-95910400D01*
D34*
X149675000Y-87017500D02*
X150182500Y-87525000D01*
D33*
X187510000Y-104064000D02*
X187510000Y-104864000D01*
X157123798Y-96443800D02*
X157123800Y-96443802D01*
D31*
X182390599Y-100223200D02*
X181005600Y-100223200D01*
D35*
X188518800Y-103124000D02*
X187579000Y-103124000D01*
D32*
X155003000Y-82360000D02*
X155016200Y-82346800D01*
X183798400Y-96973200D02*
X183845200Y-96926400D01*
X176677200Y-99573200D02*
X176682400Y-99568000D01*
D31*
X175190601Y-99573200D02*
X176677200Y-99573200D01*
D32*
X184556400Y-102451211D02*
X184505598Y-102400409D01*
D34*
X166195000Y-87555000D02*
X165562500Y-87555000D01*
D32*
X153525000Y-81044000D02*
X153517600Y-81051400D01*
D34*
X149675000Y-85000000D02*
X149675000Y-86000000D01*
D31*
X181559205Y-85852005D02*
X180607005Y-85852005D01*
D34*
X167614600Y-104978200D02*
X167373000Y-105219800D01*
X162941000Y-107670600D02*
X162242300Y-107670600D01*
X171526200Y-81392800D02*
X171526200Y-81178400D01*
D32*
X187579000Y-103124000D02*
X187553600Y-103098600D01*
D34*
X155066994Y-94437194D02*
X155067000Y-94437200D01*
D32*
X157111399Y-67246199D02*
X157099000Y-67233800D01*
D35*
X187510000Y-104064000D02*
X187510000Y-103142200D01*
D34*
X164525000Y-107595000D02*
X165912800Y-107595000D01*
X165912800Y-107595000D02*
X165937600Y-107595000D01*
X165937600Y-107595000D02*
X165938200Y-107594400D01*
X154267200Y-94437194D02*
X155066994Y-94437194D01*
X167373000Y-105219800D02*
X167373000Y-105943400D01*
D32*
X155003000Y-83464400D02*
X155003000Y-82360000D01*
D34*
X167027400Y-87500000D02*
X166250000Y-87500000D01*
D31*
X168338194Y-83184996D02*
X168338194Y-82130594D01*
D34*
X162242300Y-107670600D02*
X162036800Y-107465100D01*
D31*
X181127400Y-102173200D02*
X182390600Y-102173200D01*
D32*
X168338194Y-82130594D02*
X168325800Y-82118200D01*
D31*
X182390600Y-97623200D02*
X183805400Y-97623200D01*
D34*
X167030400Y-87503000D02*
X167027400Y-87500000D01*
D32*
%TO.N,Net-(U2-THR)*%
X169526400Y-110083600D02*
X169475000Y-110135000D01*
D34*
X166446800Y-108865000D02*
X167716800Y-110135000D01*
D32*
X171437000Y-110083600D02*
X171589200Y-110083600D01*
D34*
X164525000Y-108865000D02*
X166446800Y-108865000D01*
X167716800Y-110135000D02*
X169475000Y-110135000D01*
X171437000Y-110083600D02*
X169526400Y-110083600D01*
X171589200Y-110083600D02*
X173037000Y-108635800D01*
%TO.N,Net-(U1-THR)*%
X175234600Y-84556600D02*
X177100000Y-84556600D01*
X169888206Y-83185004D02*
X172048404Y-83185004D01*
X169926000Y-80657201D02*
X169926000Y-83147210D01*
X173964600Y-83286600D02*
X175234600Y-84556600D01*
X172150000Y-83286600D02*
X173964600Y-83286600D01*
D32*
X169926000Y-83147210D02*
X169888206Y-83185004D01*
X172048404Y-83185004D02*
X172150000Y-83286600D01*
D34*
%TO.N,Net-(U1-CV)*%
X177100000Y-85826600D02*
X179006200Y-85826600D01*
D32*
X179006200Y-85826600D02*
X179158595Y-85978995D01*
D34*
%TO.N,Net-(U2-CV)*%
X169626800Y-111556800D02*
X171437000Y-111556800D01*
D32*
X169475000Y-111405000D02*
X169626800Y-111556800D01*
D37*
%TO.N,/USB_D N*%
X180648400Y-104072202D02*
X180648400Y-105256710D01*
X181838600Y-106289000D02*
X185459999Y-106289000D01*
X185470400Y-106299401D02*
X185634999Y-106464000D01*
X185459999Y-106289000D02*
X185470400Y-106299401D01*
X182290600Y-103573200D02*
X181147402Y-103573200D01*
X180648400Y-105256710D02*
X181680690Y-106289000D01*
X181147402Y-103573200D02*
X180648400Y-104072202D01*
X185634999Y-106464000D02*
X187510000Y-106464000D01*
X181680690Y-106289000D02*
X181838600Y-106289000D01*
D32*
X182390600Y-103473200D02*
X182290600Y-103573200D01*
D34*
%TO.N,Net-(Q1-B)*%
X160973000Y-109030000D02*
X160973000Y-110083600D01*
X160136800Y-107465100D02*
X160136800Y-108193800D01*
X160136800Y-108193800D02*
X160973000Y-109030000D01*
%TO.N,Net-(U2-Q)*%
X164255600Y-110134400D02*
X164390000Y-110000000D01*
X162623000Y-110083600D02*
X162673800Y-110134400D01*
D32*
X164390000Y-110000000D02*
X164525000Y-110135000D01*
D34*
X162673800Y-110134400D02*
X164255600Y-110134400D01*
%TO.N,Net-(U4-+)*%
X162309800Y-69672200D02*
X149504400Y-69672200D01*
X162927800Y-71907400D02*
X162927800Y-77814600D01*
D32*
X151452500Y-85047500D02*
X151500000Y-85000000D01*
D34*
X150037500Y-83500000D02*
X149410250Y-82872750D01*
X151087500Y-83500000D02*
X150037500Y-83500000D01*
X149167400Y-79844000D02*
X149167400Y-82629900D01*
X162927800Y-70290200D02*
X162309800Y-69672200D01*
X149504400Y-69672200D02*
X149167400Y-70009200D01*
X151500000Y-85000000D02*
X151500000Y-83912500D01*
X149167400Y-82629900D02*
X149410250Y-82872750D01*
X149167400Y-70009200D02*
X149167400Y-79844000D01*
X151500000Y-83912500D02*
X151087500Y-83500000D01*
D32*
X162927800Y-77814600D02*
X162926800Y-77815600D01*
D34*
X151452500Y-87525000D02*
X151452500Y-85047500D01*
X162927800Y-71907400D02*
X162927800Y-70290200D01*
%TO.N,Net-(U6-Q0)*%
X159000000Y-80000000D02*
X159000000Y-81000000D01*
X158945000Y-79945000D02*
X159000000Y-80000000D01*
X158475000Y-79945000D02*
X158945000Y-79945000D01*
D32*
X161290000Y-77828800D02*
X161276800Y-77815600D01*
D34*
X161290000Y-78638400D02*
X161290000Y-77828800D01*
%TO.N,RESET*%
X157917213Y-91257786D02*
X157750000Y-91424999D01*
X157917213Y-90174999D02*
X160532501Y-90174999D01*
D32*
X160532501Y-90174999D02*
X160612500Y-90095000D01*
D34*
X158570000Y-77500000D02*
X158475000Y-77405000D01*
X159842200Y-77500000D02*
X158570000Y-77500000D01*
X157917213Y-90174999D02*
X157917213Y-91257786D01*
%TO.N,Net-(U6-Q1)*%
X151296000Y-79844000D02*
X152465000Y-78675000D01*
X152465000Y-78675000D02*
X153525000Y-78675000D01*
X150817400Y-79844000D02*
X151296000Y-79844000D01*
%TO.N,Net-(U6-Q2)*%
X151204400Y-78335400D02*
X152134800Y-77405000D01*
X150822400Y-78335400D02*
X151204400Y-78335400D01*
X152134800Y-77405000D02*
X153525000Y-77405000D01*
%TO.N,Net-(U6-Q8)*%
X160096200Y-76327000D02*
X161276800Y-76327000D01*
X158475000Y-76135000D02*
X159904200Y-76135000D01*
X159904200Y-76135000D02*
X160096200Y-76327000D01*
%TO.N,Net-(U6-Q3)*%
X151309400Y-76884200D02*
X152058600Y-76135000D01*
X150827400Y-76884200D02*
X151309400Y-76884200D01*
X152058600Y-76135000D02*
X153525000Y-76135000D01*
D32*
%TO.N,Net-(U6-Q7)*%
X158486200Y-74853800D02*
X158475000Y-74865000D01*
D34*
X161276800Y-74853800D02*
X158486200Y-74853800D01*
%TO.N,Net-(U6-Q6)*%
X151585600Y-75414200D02*
X152134800Y-74865000D01*
X152134800Y-74865000D02*
X153525000Y-74865000D01*
X150832400Y-75414200D02*
X151585600Y-75414200D01*
%TO.N,Net-(U6-Q9)*%
X160121600Y-73380600D02*
X161290000Y-73380600D01*
X158475000Y-73595000D02*
X159907200Y-73595000D01*
X159907200Y-73595000D02*
X160121600Y-73380600D01*
%TO.N,Net-(U6-Q4)*%
X150832400Y-73950800D02*
X151702800Y-73950800D01*
X151702800Y-73950800D02*
X152058600Y-73595000D01*
D32*
X153475800Y-73644200D02*
X153525000Y-73595000D01*
D34*
X152058600Y-73595000D02*
X153525000Y-73595000D01*
%TO.N,Net-(U6-Q10)*%
X158475000Y-72325000D02*
X159627800Y-72325000D01*
X160045400Y-71907400D02*
X161277800Y-71907400D01*
X159627800Y-72325000D02*
X160045400Y-71907400D01*
%TO.N,Net-(U6-Q5)*%
X150832400Y-72494000D02*
X151788000Y-72494000D01*
X151788000Y-72494000D02*
X151957000Y-72325000D01*
X151957000Y-72325000D02*
X153525000Y-72325000D01*
%TO.N,Net-(U6-Q11)*%
X150837400Y-71018400D02*
X153488400Y-71018400D01*
D32*
X153488400Y-71018400D02*
X153525000Y-71055000D01*
%TO.N,Net-(U4--)*%
X153348750Y-83468650D02*
X153353000Y-83464400D01*
D34*
X153348750Y-84994531D02*
X153348750Y-83468650D01*
X152722500Y-87525000D02*
X152722500Y-85620781D01*
X152722500Y-85620781D02*
X153348750Y-84994531D01*
D32*
X153350000Y-84993281D02*
X153348750Y-84994531D01*
D34*
%TO.N,CLOCK*%
X158475000Y-78675000D02*
X159925000Y-78675000D01*
X164306600Y-84556600D02*
X172150000Y-84556600D01*
X160500000Y-79250000D02*
X160500000Y-80750000D01*
X160500000Y-80750000D02*
X164306600Y-84556600D01*
X159925000Y-78675000D02*
X160500000Y-79250000D01*
%TO.N,Net-(SW1-B)*%
X180676443Y-126810418D02*
X180676443Y-129189583D01*
X181533800Y-121167775D02*
X181533800Y-113461800D01*
X183926443Y-123560418D02*
X180676443Y-126810418D01*
X180486860Y-129000000D02*
X180676443Y-129189583D01*
X109147114Y-129000000D02*
X180486860Y-129000000D01*
X173228401Y-105156401D02*
X173228401Y-99746201D01*
X170510200Y-97028000D02*
X170510200Y-85877400D01*
X105897114Y-123370835D02*
X109147114Y-126620835D01*
X170510200Y-85877400D02*
X170561000Y-85826600D01*
X109147114Y-126620835D02*
X109147114Y-129000000D01*
X173228401Y-99746201D02*
X170510200Y-97028000D01*
X181533800Y-113461800D02*
X173228401Y-105156401D01*
X183926443Y-123560418D02*
X181533800Y-121167775D01*
X170561000Y-85826600D02*
X172150000Y-85826600D01*
%TO.N,/alarm*%
X164525000Y-111405000D02*
X159655000Y-111405000D01*
X159250000Y-111000000D02*
X159250000Y-103000000D01*
X159655000Y-111405000D02*
X159250000Y-111000000D01*
D32*
X165562500Y-96445000D02*
X165562500Y-96687500D01*
D34*
X165562500Y-96687500D02*
X159250000Y-103000000D01*
%TO.N,Net-(J2-Pin_1)*%
X189834601Y-90114201D02*
X183265999Y-90114201D01*
X189839600Y-90119200D02*
X189834601Y-90114201D01*
X177707000Y-95673200D02*
X183265999Y-90114201D01*
X177707000Y-95673200D02*
X175190601Y-95673200D01*
%TO.N,Net-(J2-Pin_2)*%
X182395000Y-92654200D02*
X176776000Y-98273200D01*
X189834600Y-92654200D02*
X182395000Y-92654200D01*
X189839599Y-92659199D02*
X189834600Y-92654200D01*
X176776000Y-98273200D02*
X175190601Y-98273200D01*
%TO.N,Net-(U5-CLK)*%
X151500000Y-90968400D02*
X151500000Y-92522500D01*
X151714200Y-90754200D02*
X151917400Y-90551000D01*
X155599000Y-90551000D02*
X157325000Y-88825000D01*
D32*
X157325000Y-88825000D02*
X157251000Y-88825000D01*
D34*
X151917400Y-90551000D02*
X155599000Y-90551000D01*
X151714200Y-90754200D02*
X151500000Y-90968400D01*
X151500000Y-92522500D02*
X151452500Y-92475000D01*
X160612500Y-88825000D02*
X157325000Y-88825000D01*
D37*
%TO.N,/USB_D P*%
X181098400Y-104258598D02*
X181098400Y-105070314D01*
X183600200Y-105579000D02*
X183690200Y-105579000D01*
X185634999Y-105664000D02*
X187510000Y-105664000D01*
X182200200Y-105579000D02*
X182290200Y-105579000D01*
X185350200Y-105839000D02*
X185440200Y-105839000D01*
X183250200Y-105839000D02*
X183340200Y-105839000D01*
X182550200Y-105839000D02*
X182640200Y-105839000D01*
D32*
X182390599Y-104123200D02*
X182290600Y-104023201D01*
D37*
X181098400Y-105070314D02*
X181867086Y-105839000D01*
X185440200Y-105839000D02*
X185459999Y-105839000D01*
X181867086Y-105839000D02*
X181940200Y-105839000D01*
X185459999Y-105839000D02*
X185552900Y-105746099D01*
X184650200Y-105839000D02*
X184740200Y-105839000D01*
X183950200Y-105839000D02*
X184040200Y-105839000D01*
X185552900Y-105746099D02*
X185634999Y-105664000D01*
X184300200Y-105579000D02*
X184390200Y-105579000D01*
X185000200Y-105579000D02*
X185090200Y-105579000D01*
X182290600Y-104023201D02*
X181333797Y-104023201D01*
X181333797Y-104023201D02*
X181098400Y-104258598D01*
X182900200Y-105579000D02*
X182990200Y-105579000D01*
X183120200Y-105709000D02*
G75*
G03*
X183250200Y-105839000I130000J0D01*
G01*
X182290200Y-105579000D02*
G75*
G02*
X182420200Y-105709000I0J-130000D01*
G01*
X185090200Y-105579000D02*
G75*
G02*
X185220200Y-105709000I0J-130000D01*
G01*
X181940200Y-105839000D02*
G75*
G03*
X182070200Y-105709000I0J130000D01*
G01*
X182640200Y-105839000D02*
G75*
G03*
X182770200Y-105709000I0J130000D01*
G01*
X184740200Y-105839000D02*
G75*
G03*
X184870200Y-105709000I0J130000D01*
G01*
X184040200Y-105839000D02*
G75*
G03*
X184170200Y-105709000I0J130000D01*
G01*
X183820200Y-105709000D02*
G75*
G03*
X183950200Y-105839000I130000J0D01*
G01*
X183470200Y-105709000D02*
G75*
G02*
X183600200Y-105579000I130000J0D01*
G01*
X184390200Y-105579000D02*
G75*
G02*
X184520200Y-105709000I0J-130000D01*
G01*
X183340200Y-105839000D02*
G75*
G03*
X183470200Y-105709000I0J130000D01*
G01*
X183690200Y-105579000D02*
G75*
G02*
X183820200Y-105709000I0J-130000D01*
G01*
X184520200Y-105709000D02*
G75*
G03*
X184650200Y-105839000I130000J0D01*
G01*
X184170200Y-105709000D02*
G75*
G02*
X184300200Y-105579000I130000J0D01*
G01*
X185220200Y-105709000D02*
G75*
G03*
X185350200Y-105839000I130000J0D01*
G01*
X182420200Y-105709000D02*
G75*
G03*
X182550200Y-105839000I130000J0D01*
G01*
X182770200Y-105709000D02*
G75*
G02*
X182900200Y-105579000I130000J0D01*
G01*
X182990200Y-105579000D02*
G75*
G02*
X183120200Y-105709000I0J-130000D01*
G01*
X184870200Y-105709000D02*
G75*
G02*
X185000200Y-105579000I130000J0D01*
G01*
X182070200Y-105709000D02*
G75*
G02*
X182200200Y-105579000I130000J0D01*
G01*
%TD*%
M02*
