%TF.GenerationSoftware,KiCad,Pcbnew,9.0.0*%
%TF.CreationDate,2025-05-12T20:37:00-03:00*%
%TF.ProjectId,kicad proyecto,6b696361-6420-4707-926f-796563746f2e,rev?*%
%TF.SameCoordinates,Original*%
%TF.FileFunction,Legend,Top*%
%TF.FilePolarity,Positive*%
%FSLAX46Y46*%
G04 Gerber Fmt 4.6, Leading zero omitted, Abs format (unit mm)*
G04 Created by KiCad (PCBNEW 9.0.0) date 2025-05-12 20:37:00*
%MOMM*%
%LPD*%
G01*
G04 APERTURE LIST*
%ADD10C,0.150000*%
%ADD11C,0.100000*%
%ADD12C,0.120000*%
%ADD13C,0.152400*%
%ADD14C,0.000000*%
G04 APERTURE END LIST*
D10*
X171555580Y-96610466D02*
X171603200Y-96658085D01*
X171603200Y-96658085D02*
X171650819Y-96800942D01*
X171650819Y-96800942D02*
X171650819Y-96896180D01*
X171650819Y-96896180D02*
X171603200Y-97039037D01*
X171603200Y-97039037D02*
X171507961Y-97134275D01*
X171507961Y-97134275D02*
X171412723Y-97181894D01*
X171412723Y-97181894D02*
X171222247Y-97229513D01*
X171222247Y-97229513D02*
X171079390Y-97229513D01*
X171079390Y-97229513D02*
X170888914Y-97181894D01*
X170888914Y-97181894D02*
X170793676Y-97134275D01*
X170793676Y-97134275D02*
X170698438Y-97039037D01*
X170698438Y-97039037D02*
X170650819Y-96896180D01*
X170650819Y-96896180D02*
X170650819Y-96800942D01*
X170650819Y-96800942D02*
X170698438Y-96658085D01*
X170698438Y-96658085D02*
X170746057Y-96610466D01*
X170650819Y-96277132D02*
X170650819Y-95610466D01*
X170650819Y-95610466D02*
X171650819Y-96039037D01*
X143666667Y-65325800D02*
X143809524Y-65373419D01*
X143809524Y-65373419D02*
X144047619Y-65373419D01*
X144047619Y-65373419D02*
X144142857Y-65325800D01*
X144142857Y-65325800D02*
X144190476Y-65278180D01*
X144190476Y-65278180D02*
X144238095Y-65182942D01*
X144238095Y-65182942D02*
X144238095Y-65087704D01*
X144238095Y-65087704D02*
X144190476Y-64992466D01*
X144190476Y-64992466D02*
X144142857Y-64944847D01*
X144142857Y-64944847D02*
X144047619Y-64897228D01*
X144047619Y-64897228D02*
X143857143Y-64849609D01*
X143857143Y-64849609D02*
X143761905Y-64801990D01*
X143761905Y-64801990D02*
X143714286Y-64754371D01*
X143714286Y-64754371D02*
X143666667Y-64659133D01*
X143666667Y-64659133D02*
X143666667Y-64563895D01*
X143666667Y-64563895D02*
X143714286Y-64468657D01*
X143714286Y-64468657D02*
X143761905Y-64421038D01*
X143761905Y-64421038D02*
X143857143Y-64373419D01*
X143857143Y-64373419D02*
X144095238Y-64373419D01*
X144095238Y-64373419D02*
X144238095Y-64421038D01*
X144571429Y-64373419D02*
X144809524Y-65373419D01*
X144809524Y-65373419D02*
X145000000Y-64659133D01*
X145000000Y-64659133D02*
X145190476Y-65373419D01*
X145190476Y-65373419D02*
X145428572Y-64373419D01*
X145761905Y-64468657D02*
X145809524Y-64421038D01*
X145809524Y-64421038D02*
X145904762Y-64373419D01*
X145904762Y-64373419D02*
X146142857Y-64373419D01*
X146142857Y-64373419D02*
X146238095Y-64421038D01*
X146238095Y-64421038D02*
X146285714Y-64468657D01*
X146285714Y-64468657D02*
X146333333Y-64563895D01*
X146333333Y-64563895D02*
X146333333Y-64659133D01*
X146333333Y-64659133D02*
X146285714Y-64801990D01*
X146285714Y-64801990D02*
X145714286Y-65373419D01*
X145714286Y-65373419D02*
X146333333Y-65373419D01*
D11*
X145619047Y-96433609D02*
X145761904Y-96481228D01*
X145761904Y-96481228D02*
X145809523Y-96528847D01*
X145809523Y-96528847D02*
X145857142Y-96624085D01*
X145857142Y-96624085D02*
X145857142Y-96766942D01*
X145857142Y-96766942D02*
X145809523Y-96862180D01*
X145809523Y-96862180D02*
X145761904Y-96909800D01*
X145761904Y-96909800D02*
X145666666Y-96957419D01*
X145666666Y-96957419D02*
X145285714Y-96957419D01*
X145285714Y-96957419D02*
X145285714Y-95957419D01*
X145285714Y-95957419D02*
X145619047Y-95957419D01*
X145619047Y-95957419D02*
X145714285Y-96005038D01*
X145714285Y-96005038D02*
X145761904Y-96052657D01*
X145761904Y-96052657D02*
X145809523Y-96147895D01*
X145809523Y-96147895D02*
X145809523Y-96243133D01*
X145809523Y-96243133D02*
X145761904Y-96338371D01*
X145761904Y-96338371D02*
X145714285Y-96385990D01*
X145714285Y-96385990D02*
X145619047Y-96433609D01*
X145619047Y-96433609D02*
X145285714Y-96433609D01*
X146190476Y-95957419D02*
X146857142Y-95957419D01*
X146857142Y-95957419D02*
X146190476Y-96957419D01*
X146190476Y-96957419D02*
X146857142Y-96957419D01*
X147761904Y-96957419D02*
X147190476Y-96957419D01*
X147476190Y-96957419D02*
X147476190Y-95957419D01*
X147476190Y-95957419D02*
X147380952Y-96100276D01*
X147380952Y-96100276D02*
X147285714Y-96195514D01*
X147285714Y-96195514D02*
X147190476Y-96243133D01*
X148303884Y-99491466D02*
X149065789Y-99491466D01*
X148303884Y-103491466D02*
X149065789Y-103491466D01*
X148684836Y-103872419D02*
X148684836Y-103110514D01*
D10*
X152925542Y-96879580D02*
X152877923Y-96927200D01*
X152877923Y-96927200D02*
X152735066Y-96974819D01*
X152735066Y-96974819D02*
X152639828Y-96974819D01*
X152639828Y-96974819D02*
X152496971Y-96927200D01*
X152496971Y-96927200D02*
X152401733Y-96831961D01*
X152401733Y-96831961D02*
X152354114Y-96736723D01*
X152354114Y-96736723D02*
X152306495Y-96546247D01*
X152306495Y-96546247D02*
X152306495Y-96403390D01*
X152306495Y-96403390D02*
X152354114Y-96212914D01*
X152354114Y-96212914D02*
X152401733Y-96117676D01*
X152401733Y-96117676D02*
X152496971Y-96022438D01*
X152496971Y-96022438D02*
X152639828Y-95974819D01*
X152639828Y-95974819D02*
X152735066Y-95974819D01*
X152735066Y-95974819D02*
X152877923Y-96022438D01*
X152877923Y-96022438D02*
X152925542Y-96070057D01*
X153877923Y-96974819D02*
X153306495Y-96974819D01*
X153592209Y-96974819D02*
X153592209Y-95974819D01*
X153592209Y-95974819D02*
X153496971Y-96117676D01*
X153496971Y-96117676D02*
X153401733Y-96212914D01*
X153401733Y-96212914D02*
X153306495Y-96260533D01*
X154830304Y-96974819D02*
X154258876Y-96974819D01*
X154544590Y-96974819D02*
X154544590Y-95974819D01*
X154544590Y-95974819D02*
X154449352Y-96117676D01*
X154449352Y-96117676D02*
X154354114Y-96212914D01*
X154354114Y-96212914D02*
X154258876Y-96260533D01*
X146194542Y-71473219D02*
X145861209Y-70997028D01*
X145623114Y-71473219D02*
X145623114Y-70473219D01*
X145623114Y-70473219D02*
X146004066Y-70473219D01*
X146004066Y-70473219D02*
X146099304Y-70520838D01*
X146099304Y-70520838D02*
X146146923Y-70568457D01*
X146146923Y-70568457D02*
X146194542Y-70663695D01*
X146194542Y-70663695D02*
X146194542Y-70806552D01*
X146194542Y-70806552D02*
X146146923Y-70901790D01*
X146146923Y-70901790D02*
X146099304Y-70949409D01*
X146099304Y-70949409D02*
X146004066Y-70997028D01*
X146004066Y-70997028D02*
X145623114Y-70997028D01*
X147146923Y-71473219D02*
X146575495Y-71473219D01*
X146861209Y-71473219D02*
X146861209Y-70473219D01*
X146861209Y-70473219D02*
X146765971Y-70616076D01*
X146765971Y-70616076D02*
X146670733Y-70711314D01*
X146670733Y-70711314D02*
X146575495Y-70758933D01*
X148004066Y-70473219D02*
X147813590Y-70473219D01*
X147813590Y-70473219D02*
X147718352Y-70520838D01*
X147718352Y-70520838D02*
X147670733Y-70568457D01*
X147670733Y-70568457D02*
X147575495Y-70711314D01*
X147575495Y-70711314D02*
X147527876Y-70901790D01*
X147527876Y-70901790D02*
X147527876Y-71282742D01*
X147527876Y-71282742D02*
X147575495Y-71377980D01*
X147575495Y-71377980D02*
X147623114Y-71425600D01*
X147623114Y-71425600D02*
X147718352Y-71473219D01*
X147718352Y-71473219D02*
X147908828Y-71473219D01*
X147908828Y-71473219D02*
X148004066Y-71425600D01*
X148004066Y-71425600D02*
X148051685Y-71377980D01*
X148051685Y-71377980D02*
X148099304Y-71282742D01*
X148099304Y-71282742D02*
X148099304Y-71044647D01*
X148099304Y-71044647D02*
X148051685Y-70949409D01*
X148051685Y-70949409D02*
X148004066Y-70901790D01*
X148004066Y-70901790D02*
X147908828Y-70854171D01*
X147908828Y-70854171D02*
X147718352Y-70854171D01*
X147718352Y-70854171D02*
X147623114Y-70901790D01*
X147623114Y-70901790D02*
X147575495Y-70949409D01*
X147575495Y-70949409D02*
X147527876Y-71044647D01*
X147213233Y-80298819D02*
X146879900Y-79822628D01*
X146641805Y-80298819D02*
X146641805Y-79298819D01*
X146641805Y-79298819D02*
X147022757Y-79298819D01*
X147022757Y-79298819D02*
X147117995Y-79346438D01*
X147117995Y-79346438D02*
X147165614Y-79394057D01*
X147165614Y-79394057D02*
X147213233Y-79489295D01*
X147213233Y-79489295D02*
X147213233Y-79632152D01*
X147213233Y-79632152D02*
X147165614Y-79727390D01*
X147165614Y-79727390D02*
X147117995Y-79775009D01*
X147117995Y-79775009D02*
X147022757Y-79822628D01*
X147022757Y-79822628D02*
X146641805Y-79822628D01*
X148070376Y-79298819D02*
X147879900Y-79298819D01*
X147879900Y-79298819D02*
X147784662Y-79346438D01*
X147784662Y-79346438D02*
X147737043Y-79394057D01*
X147737043Y-79394057D02*
X147641805Y-79536914D01*
X147641805Y-79536914D02*
X147594186Y-79727390D01*
X147594186Y-79727390D02*
X147594186Y-80108342D01*
X147594186Y-80108342D02*
X147641805Y-80203580D01*
X147641805Y-80203580D02*
X147689424Y-80251200D01*
X147689424Y-80251200D02*
X147784662Y-80298819D01*
X147784662Y-80298819D02*
X147975138Y-80298819D01*
X147975138Y-80298819D02*
X148070376Y-80251200D01*
X148070376Y-80251200D02*
X148117995Y-80203580D01*
X148117995Y-80203580D02*
X148165614Y-80108342D01*
X148165614Y-80108342D02*
X148165614Y-79870247D01*
X148165614Y-79870247D02*
X148117995Y-79775009D01*
X148117995Y-79775009D02*
X148070376Y-79727390D01*
X148070376Y-79727390D02*
X147975138Y-79679771D01*
X147975138Y-79679771D02*
X147784662Y-79679771D01*
X147784662Y-79679771D02*
X147689424Y-79727390D01*
X147689424Y-79727390D02*
X147641805Y-79775009D01*
X147641805Y-79775009D02*
X147594186Y-79870247D01*
X182662533Y-86262380D02*
X182614914Y-86310000D01*
X182614914Y-86310000D02*
X182472057Y-86357619D01*
X182472057Y-86357619D02*
X182376819Y-86357619D01*
X182376819Y-86357619D02*
X182233962Y-86310000D01*
X182233962Y-86310000D02*
X182138724Y-86214761D01*
X182138724Y-86214761D02*
X182091105Y-86119523D01*
X182091105Y-86119523D02*
X182043486Y-85929047D01*
X182043486Y-85929047D02*
X182043486Y-85786190D01*
X182043486Y-85786190D02*
X182091105Y-85595714D01*
X182091105Y-85595714D02*
X182138724Y-85500476D01*
X182138724Y-85500476D02*
X182233962Y-85405238D01*
X182233962Y-85405238D02*
X182376819Y-85357619D01*
X182376819Y-85357619D02*
X182472057Y-85357619D01*
X182472057Y-85357619D02*
X182614914Y-85405238D01*
X182614914Y-85405238D02*
X182662533Y-85452857D01*
X183567295Y-85357619D02*
X183091105Y-85357619D01*
X183091105Y-85357619D02*
X183043486Y-85833809D01*
X183043486Y-85833809D02*
X183091105Y-85786190D01*
X183091105Y-85786190D02*
X183186343Y-85738571D01*
X183186343Y-85738571D02*
X183424438Y-85738571D01*
X183424438Y-85738571D02*
X183519676Y-85786190D01*
X183519676Y-85786190D02*
X183567295Y-85833809D01*
X183567295Y-85833809D02*
X183614914Y-85929047D01*
X183614914Y-85929047D02*
X183614914Y-86167142D01*
X183614914Y-86167142D02*
X183567295Y-86262380D01*
X183567295Y-86262380D02*
X183519676Y-86310000D01*
X183519676Y-86310000D02*
X183424438Y-86357619D01*
X183424438Y-86357619D02*
X183186343Y-86357619D01*
X183186343Y-86357619D02*
X183091105Y-86310000D01*
X183091105Y-86310000D02*
X183043486Y-86262380D01*
X162238095Y-85454819D02*
X162238095Y-86264342D01*
X162238095Y-86264342D02*
X162285714Y-86359580D01*
X162285714Y-86359580D02*
X162333333Y-86407200D01*
X162333333Y-86407200D02*
X162428571Y-86454819D01*
X162428571Y-86454819D02*
X162619047Y-86454819D01*
X162619047Y-86454819D02*
X162714285Y-86407200D01*
X162714285Y-86407200D02*
X162761904Y-86359580D01*
X162761904Y-86359580D02*
X162809523Y-86264342D01*
X162809523Y-86264342D02*
X162809523Y-85454819D01*
X163761904Y-85454819D02*
X163285714Y-85454819D01*
X163285714Y-85454819D02*
X163238095Y-85931009D01*
X163238095Y-85931009D02*
X163285714Y-85883390D01*
X163285714Y-85883390D02*
X163380952Y-85835771D01*
X163380952Y-85835771D02*
X163619047Y-85835771D01*
X163619047Y-85835771D02*
X163714285Y-85883390D01*
X163714285Y-85883390D02*
X163761904Y-85931009D01*
X163761904Y-85931009D02*
X163809523Y-86026247D01*
X163809523Y-86026247D02*
X163809523Y-86264342D01*
X163809523Y-86264342D02*
X163761904Y-86359580D01*
X163761904Y-86359580D02*
X163714285Y-86407200D01*
X163714285Y-86407200D02*
X163619047Y-86454819D01*
X163619047Y-86454819D02*
X163380952Y-86454819D01*
X163380952Y-86454819D02*
X163285714Y-86407200D01*
X163285714Y-86407200D02*
X163238095Y-86359580D01*
X161002742Y-68710980D02*
X160955123Y-68758600D01*
X160955123Y-68758600D02*
X160812266Y-68806219D01*
X160812266Y-68806219D02*
X160717028Y-68806219D01*
X160717028Y-68806219D02*
X160574171Y-68758600D01*
X160574171Y-68758600D02*
X160478933Y-68663361D01*
X160478933Y-68663361D02*
X160431314Y-68568123D01*
X160431314Y-68568123D02*
X160383695Y-68377647D01*
X160383695Y-68377647D02*
X160383695Y-68234790D01*
X160383695Y-68234790D02*
X160431314Y-68044314D01*
X160431314Y-68044314D02*
X160478933Y-67949076D01*
X160478933Y-67949076D02*
X160574171Y-67853838D01*
X160574171Y-67853838D02*
X160717028Y-67806219D01*
X160717028Y-67806219D02*
X160812266Y-67806219D01*
X160812266Y-67806219D02*
X160955123Y-67853838D01*
X160955123Y-67853838D02*
X161002742Y-67901457D01*
X161955123Y-68806219D02*
X161383695Y-68806219D01*
X161669409Y-68806219D02*
X161669409Y-67806219D01*
X161669409Y-67806219D02*
X161574171Y-67949076D01*
X161574171Y-67949076D02*
X161478933Y-68044314D01*
X161478933Y-68044314D02*
X161383695Y-68091933D01*
X162574171Y-67806219D02*
X162669409Y-67806219D01*
X162669409Y-67806219D02*
X162764647Y-67853838D01*
X162764647Y-67853838D02*
X162812266Y-67901457D01*
X162812266Y-67901457D02*
X162859885Y-67996695D01*
X162859885Y-67996695D02*
X162907504Y-68187171D01*
X162907504Y-68187171D02*
X162907504Y-68425266D01*
X162907504Y-68425266D02*
X162859885Y-68615742D01*
X162859885Y-68615742D02*
X162812266Y-68710980D01*
X162812266Y-68710980D02*
X162764647Y-68758600D01*
X162764647Y-68758600D02*
X162669409Y-68806219D01*
X162669409Y-68806219D02*
X162574171Y-68806219D01*
X162574171Y-68806219D02*
X162478933Y-68758600D01*
X162478933Y-68758600D02*
X162431314Y-68710980D01*
X162431314Y-68710980D02*
X162383695Y-68615742D01*
X162383695Y-68615742D02*
X162336076Y-68425266D01*
X162336076Y-68425266D02*
X162336076Y-68187171D01*
X162336076Y-68187171D02*
X162383695Y-67996695D01*
X162383695Y-67996695D02*
X162431314Y-67901457D01*
X162431314Y-67901457D02*
X162478933Y-67853838D01*
X162478933Y-67853838D02*
X162574171Y-67806219D01*
X164398498Y-73835419D02*
X164065165Y-73359228D01*
X163827070Y-73835419D02*
X163827070Y-72835419D01*
X163827070Y-72835419D02*
X164208022Y-72835419D01*
X164208022Y-72835419D02*
X164303260Y-72883038D01*
X164303260Y-72883038D02*
X164350879Y-72930657D01*
X164350879Y-72930657D02*
X164398498Y-73025895D01*
X164398498Y-73025895D02*
X164398498Y-73168752D01*
X164398498Y-73168752D02*
X164350879Y-73263990D01*
X164350879Y-73263990D02*
X164303260Y-73311609D01*
X164303260Y-73311609D02*
X164208022Y-73359228D01*
X164208022Y-73359228D02*
X163827070Y-73359228D01*
X165350879Y-73835419D02*
X164779451Y-73835419D01*
X165065165Y-73835419D02*
X165065165Y-72835419D01*
X165065165Y-72835419D02*
X164969927Y-72978276D01*
X164969927Y-72978276D02*
X164874689Y-73073514D01*
X164874689Y-73073514D02*
X164779451Y-73121133D01*
X165731832Y-72930657D02*
X165779451Y-72883038D01*
X165779451Y-72883038D02*
X165874689Y-72835419D01*
X165874689Y-72835419D02*
X166112784Y-72835419D01*
X166112784Y-72835419D02*
X166208022Y-72883038D01*
X166208022Y-72883038D02*
X166255641Y-72930657D01*
X166255641Y-72930657D02*
X166303260Y-73025895D01*
X166303260Y-73025895D02*
X166303260Y-73121133D01*
X166303260Y-73121133D02*
X166255641Y-73263990D01*
X166255641Y-73263990D02*
X165684213Y-73835419D01*
X165684213Y-73835419D02*
X166303260Y-73835419D01*
X178166667Y-125157200D02*
X178309524Y-125204819D01*
X178309524Y-125204819D02*
X178547619Y-125204819D01*
X178547619Y-125204819D02*
X178642857Y-125157200D01*
X178642857Y-125157200D02*
X178690476Y-125109580D01*
X178690476Y-125109580D02*
X178738095Y-125014342D01*
X178738095Y-125014342D02*
X178738095Y-124919104D01*
X178738095Y-124919104D02*
X178690476Y-124823866D01*
X178690476Y-124823866D02*
X178642857Y-124776247D01*
X178642857Y-124776247D02*
X178547619Y-124728628D01*
X178547619Y-124728628D02*
X178357143Y-124681009D01*
X178357143Y-124681009D02*
X178261905Y-124633390D01*
X178261905Y-124633390D02*
X178214286Y-124585771D01*
X178214286Y-124585771D02*
X178166667Y-124490533D01*
X178166667Y-124490533D02*
X178166667Y-124395295D01*
X178166667Y-124395295D02*
X178214286Y-124300057D01*
X178214286Y-124300057D02*
X178261905Y-124252438D01*
X178261905Y-124252438D02*
X178357143Y-124204819D01*
X178357143Y-124204819D02*
X178595238Y-124204819D01*
X178595238Y-124204819D02*
X178738095Y-124252438D01*
X179071429Y-124204819D02*
X179309524Y-125204819D01*
X179309524Y-125204819D02*
X179500000Y-124490533D01*
X179500000Y-124490533D02*
X179690476Y-125204819D01*
X179690476Y-125204819D02*
X179928572Y-124204819D01*
X180214286Y-124204819D02*
X180833333Y-124204819D01*
X180833333Y-124204819D02*
X180500000Y-124585771D01*
X180500000Y-124585771D02*
X180642857Y-124585771D01*
X180642857Y-124585771D02*
X180738095Y-124633390D01*
X180738095Y-124633390D02*
X180785714Y-124681009D01*
X180785714Y-124681009D02*
X180833333Y-124776247D01*
X180833333Y-124776247D02*
X180833333Y-125014342D01*
X180833333Y-125014342D02*
X180785714Y-125109580D01*
X180785714Y-125109580D02*
X180738095Y-125157200D01*
X180738095Y-125157200D02*
X180642857Y-125204819D01*
X180642857Y-125204819D02*
X180357143Y-125204819D01*
X180357143Y-125204819D02*
X180261905Y-125157200D01*
X180261905Y-125157200D02*
X180214286Y-125109580D01*
X176987295Y-93104619D02*
X176987295Y-93914142D01*
X176987295Y-93914142D02*
X177034914Y-94009380D01*
X177034914Y-94009380D02*
X177082533Y-94057000D01*
X177082533Y-94057000D02*
X177177771Y-94104619D01*
X177177771Y-94104619D02*
X177368247Y-94104619D01*
X177368247Y-94104619D02*
X177463485Y-94057000D01*
X177463485Y-94057000D02*
X177511104Y-94009380D01*
X177511104Y-94009380D02*
X177558723Y-93914142D01*
X177558723Y-93914142D02*
X177558723Y-93104619D01*
X177939676Y-93104619D02*
X178558723Y-93104619D01*
X178558723Y-93104619D02*
X178225390Y-93485571D01*
X178225390Y-93485571D02*
X178368247Y-93485571D01*
X178368247Y-93485571D02*
X178463485Y-93533190D01*
X178463485Y-93533190D02*
X178511104Y-93580809D01*
X178511104Y-93580809D02*
X178558723Y-93676047D01*
X178558723Y-93676047D02*
X178558723Y-93914142D01*
X178558723Y-93914142D02*
X178511104Y-94009380D01*
X178511104Y-94009380D02*
X178463485Y-94057000D01*
X178463485Y-94057000D02*
X178368247Y-94104619D01*
X178368247Y-94104619D02*
X178082533Y-94104619D01*
X178082533Y-94104619D02*
X177987295Y-94057000D01*
X177987295Y-94057000D02*
X177939676Y-94009380D01*
X146857142Y-85454819D02*
X146523809Y-84978628D01*
X146285714Y-85454819D02*
X146285714Y-84454819D01*
X146285714Y-84454819D02*
X146666666Y-84454819D01*
X146666666Y-84454819D02*
X146761904Y-84502438D01*
X146761904Y-84502438D02*
X146809523Y-84550057D01*
X146809523Y-84550057D02*
X146857142Y-84645295D01*
X146857142Y-84645295D02*
X146857142Y-84788152D01*
X146857142Y-84788152D02*
X146809523Y-84883390D01*
X146809523Y-84883390D02*
X146761904Y-84931009D01*
X146761904Y-84931009D02*
X146666666Y-84978628D01*
X146666666Y-84978628D02*
X146285714Y-84978628D01*
X147809523Y-85454819D02*
X147238095Y-85454819D01*
X147523809Y-85454819D02*
X147523809Y-84454819D01*
X147523809Y-84454819D02*
X147428571Y-84597676D01*
X147428571Y-84597676D02*
X147333333Y-84692914D01*
X147333333Y-84692914D02*
X147238095Y-84740533D01*
X148142857Y-84454819D02*
X148809523Y-84454819D01*
X148809523Y-84454819D02*
X148380952Y-85454819D01*
X147218233Y-78790219D02*
X146884900Y-78314028D01*
X146646805Y-78790219D02*
X146646805Y-77790219D01*
X146646805Y-77790219D02*
X147027757Y-77790219D01*
X147027757Y-77790219D02*
X147122995Y-77837838D01*
X147122995Y-77837838D02*
X147170614Y-77885457D01*
X147170614Y-77885457D02*
X147218233Y-77980695D01*
X147218233Y-77980695D02*
X147218233Y-78123552D01*
X147218233Y-78123552D02*
X147170614Y-78218790D01*
X147170614Y-78218790D02*
X147122995Y-78266409D01*
X147122995Y-78266409D02*
X147027757Y-78314028D01*
X147027757Y-78314028D02*
X146646805Y-78314028D01*
X147551567Y-77790219D02*
X148218233Y-77790219D01*
X148218233Y-77790219D02*
X147789662Y-78790219D01*
X161202019Y-102033247D02*
X161202019Y-102509437D01*
X161202019Y-102509437D02*
X161678209Y-102557056D01*
X161678209Y-102557056D02*
X161630590Y-102509437D01*
X161630590Y-102509437D02*
X161582971Y-102414199D01*
X161582971Y-102414199D02*
X161582971Y-102176104D01*
X161582971Y-102176104D02*
X161630590Y-102080866D01*
X161630590Y-102080866D02*
X161678209Y-102033247D01*
X161678209Y-102033247D02*
X161773447Y-101985628D01*
X161773447Y-101985628D02*
X162011542Y-101985628D01*
X162011542Y-101985628D02*
X162106780Y-102033247D01*
X162106780Y-102033247D02*
X162154400Y-102080866D01*
X162154400Y-102080866D02*
X162202019Y-102176104D01*
X162202019Y-102176104D02*
X162202019Y-102414199D01*
X162202019Y-102414199D02*
X162154400Y-102509437D01*
X162154400Y-102509437D02*
X162106780Y-102557056D01*
X161202019Y-101366580D02*
X161202019Y-101271342D01*
X161202019Y-101271342D02*
X161249638Y-101176104D01*
X161249638Y-101176104D02*
X161297257Y-101128485D01*
X161297257Y-101128485D02*
X161392495Y-101080866D01*
X161392495Y-101080866D02*
X161582971Y-101033247D01*
X161582971Y-101033247D02*
X161821066Y-101033247D01*
X161821066Y-101033247D02*
X162011542Y-101080866D01*
X162011542Y-101080866D02*
X162106780Y-101128485D01*
X162106780Y-101128485D02*
X162154400Y-101176104D01*
X162154400Y-101176104D02*
X162202019Y-101271342D01*
X162202019Y-101271342D02*
X162202019Y-101366580D01*
X162202019Y-101366580D02*
X162154400Y-101461818D01*
X162154400Y-101461818D02*
X162106780Y-101509437D01*
X162106780Y-101509437D02*
X162011542Y-101557056D01*
X162011542Y-101557056D02*
X161821066Y-101604675D01*
X161821066Y-101604675D02*
X161582971Y-101604675D01*
X161582971Y-101604675D02*
X161392495Y-101557056D01*
X161392495Y-101557056D02*
X161297257Y-101509437D01*
X161297257Y-101509437D02*
X161249638Y-101461818D01*
X161249638Y-101461818D02*
X161202019Y-101366580D01*
X162202019Y-100604675D02*
X161202019Y-100604675D01*
X161821066Y-100509437D02*
X162202019Y-100223723D01*
X161535352Y-100223723D02*
X161916304Y-100604675D01*
X162202019Y-99271342D02*
X162202019Y-99842770D01*
X162202019Y-99557056D02*
X161202019Y-99557056D01*
X161202019Y-99557056D02*
X161344876Y-99652294D01*
X161344876Y-99652294D02*
X161440114Y-99747532D01*
X161440114Y-99747532D02*
X161487733Y-99842770D01*
X165542933Y-106302980D02*
X165495314Y-106350600D01*
X165495314Y-106350600D02*
X165352457Y-106398219D01*
X165352457Y-106398219D02*
X165257219Y-106398219D01*
X165257219Y-106398219D02*
X165114362Y-106350600D01*
X165114362Y-106350600D02*
X165019124Y-106255361D01*
X165019124Y-106255361D02*
X164971505Y-106160123D01*
X164971505Y-106160123D02*
X164923886Y-105969647D01*
X164923886Y-105969647D02*
X164923886Y-105826790D01*
X164923886Y-105826790D02*
X164971505Y-105636314D01*
X164971505Y-105636314D02*
X165019124Y-105541076D01*
X165019124Y-105541076D02*
X165114362Y-105445838D01*
X165114362Y-105445838D02*
X165257219Y-105398219D01*
X165257219Y-105398219D02*
X165352457Y-105398219D01*
X165352457Y-105398219D02*
X165495314Y-105445838D01*
X165495314Y-105445838D02*
X165542933Y-105493457D01*
X166495314Y-106398219D02*
X165923886Y-106398219D01*
X166209600Y-106398219D02*
X166209600Y-105398219D01*
X166209600Y-105398219D02*
X166114362Y-105541076D01*
X166114362Y-105541076D02*
X166019124Y-105636314D01*
X166019124Y-105636314D02*
X165923886Y-105683933D01*
X169034619Y-79973466D02*
X168558428Y-80306799D01*
X169034619Y-80544894D02*
X168034619Y-80544894D01*
X168034619Y-80544894D02*
X168034619Y-80163942D01*
X168034619Y-80163942D02*
X168082238Y-80068704D01*
X168082238Y-80068704D02*
X168129857Y-80021085D01*
X168129857Y-80021085D02*
X168225095Y-79973466D01*
X168225095Y-79973466D02*
X168367952Y-79973466D01*
X168367952Y-79973466D02*
X168463190Y-80021085D01*
X168463190Y-80021085D02*
X168510809Y-80068704D01*
X168510809Y-80068704D02*
X168558428Y-80163942D01*
X168558428Y-80163942D02*
X168558428Y-80544894D01*
X169034619Y-79021085D02*
X169034619Y-79592513D01*
X169034619Y-79306799D02*
X168034619Y-79306799D01*
X168034619Y-79306799D02*
X168177476Y-79402037D01*
X168177476Y-79402037D02*
X168272714Y-79497275D01*
X168272714Y-79497275D02*
X168320333Y-79592513D01*
X170313161Y-67913419D02*
X169741733Y-67913419D01*
X170027447Y-67913419D02*
X170027447Y-66913419D01*
X170027447Y-66913419D02*
X169932209Y-67056276D01*
X169932209Y-67056276D02*
X169836971Y-67151514D01*
X169836971Y-67151514D02*
X169741733Y-67199133D01*
X170932209Y-66913419D02*
X171027447Y-66913419D01*
X171027447Y-66913419D02*
X171122685Y-66961038D01*
X171122685Y-66961038D02*
X171170304Y-67008657D01*
X171170304Y-67008657D02*
X171217923Y-67103895D01*
X171217923Y-67103895D02*
X171265542Y-67294371D01*
X171265542Y-67294371D02*
X171265542Y-67532466D01*
X171265542Y-67532466D02*
X171217923Y-67722942D01*
X171217923Y-67722942D02*
X171170304Y-67818180D01*
X171170304Y-67818180D02*
X171122685Y-67865800D01*
X171122685Y-67865800D02*
X171027447Y-67913419D01*
X171027447Y-67913419D02*
X170932209Y-67913419D01*
X170932209Y-67913419D02*
X170836971Y-67865800D01*
X170836971Y-67865800D02*
X170789352Y-67818180D01*
X170789352Y-67818180D02*
X170741733Y-67722942D01*
X170741733Y-67722942D02*
X170694114Y-67532466D01*
X170694114Y-67532466D02*
X170694114Y-67294371D01*
X170694114Y-67294371D02*
X170741733Y-67103895D01*
X170741733Y-67103895D02*
X170789352Y-67008657D01*
X170789352Y-67008657D02*
X170836971Y-66961038D01*
X170836971Y-66961038D02*
X170932209Y-66913419D01*
X171694114Y-67913419D02*
X171694114Y-66913419D01*
X171789352Y-67532466D02*
X172075066Y-67913419D01*
X172075066Y-67246752D02*
X171694114Y-67627704D01*
X173027447Y-67913419D02*
X172456019Y-67913419D01*
X172741733Y-67913419D02*
X172741733Y-66913419D01*
X172741733Y-66913419D02*
X172646495Y-67056276D01*
X172646495Y-67056276D02*
X172551257Y-67151514D01*
X172551257Y-67151514D02*
X172456019Y-67199133D01*
X175169533Y-112068780D02*
X175121914Y-112116400D01*
X175121914Y-112116400D02*
X174979057Y-112164019D01*
X174979057Y-112164019D02*
X174883819Y-112164019D01*
X174883819Y-112164019D02*
X174740962Y-112116400D01*
X174740962Y-112116400D02*
X174645724Y-112021161D01*
X174645724Y-112021161D02*
X174598105Y-111925923D01*
X174598105Y-111925923D02*
X174550486Y-111735447D01*
X174550486Y-111735447D02*
X174550486Y-111592590D01*
X174550486Y-111592590D02*
X174598105Y-111402114D01*
X174598105Y-111402114D02*
X174645724Y-111306876D01*
X174645724Y-111306876D02*
X174740962Y-111211638D01*
X174740962Y-111211638D02*
X174883819Y-111164019D01*
X174883819Y-111164019D02*
X174979057Y-111164019D01*
X174979057Y-111164019D02*
X175121914Y-111211638D01*
X175121914Y-111211638D02*
X175169533Y-111259257D01*
X176026676Y-111164019D02*
X175836200Y-111164019D01*
X175836200Y-111164019D02*
X175740962Y-111211638D01*
X175740962Y-111211638D02*
X175693343Y-111259257D01*
X175693343Y-111259257D02*
X175598105Y-111402114D01*
X175598105Y-111402114D02*
X175550486Y-111592590D01*
X175550486Y-111592590D02*
X175550486Y-111973542D01*
X175550486Y-111973542D02*
X175598105Y-112068780D01*
X175598105Y-112068780D02*
X175645724Y-112116400D01*
X175645724Y-112116400D02*
X175740962Y-112164019D01*
X175740962Y-112164019D02*
X175931438Y-112164019D01*
X175931438Y-112164019D02*
X176026676Y-112116400D01*
X176026676Y-112116400D02*
X176074295Y-112068780D01*
X176074295Y-112068780D02*
X176121914Y-111973542D01*
X176121914Y-111973542D02*
X176121914Y-111735447D01*
X176121914Y-111735447D02*
X176074295Y-111640209D01*
X176074295Y-111640209D02*
X176026676Y-111592590D01*
X176026676Y-111592590D02*
X175931438Y-111544971D01*
X175931438Y-111544971D02*
X175740962Y-111544971D01*
X175740962Y-111544971D02*
X175645724Y-111592590D01*
X175645724Y-111592590D02*
X175598105Y-111640209D01*
X175598105Y-111640209D02*
X175550486Y-111735447D01*
X164361489Y-76781819D02*
X164028156Y-76305628D01*
X163790061Y-76781819D02*
X163790061Y-75781819D01*
X163790061Y-75781819D02*
X164171013Y-75781819D01*
X164171013Y-75781819D02*
X164266251Y-75829438D01*
X164266251Y-75829438D02*
X164313870Y-75877057D01*
X164313870Y-75877057D02*
X164361489Y-75972295D01*
X164361489Y-75972295D02*
X164361489Y-76115152D01*
X164361489Y-76115152D02*
X164313870Y-76210390D01*
X164313870Y-76210390D02*
X164266251Y-76258009D01*
X164266251Y-76258009D02*
X164171013Y-76305628D01*
X164171013Y-76305628D02*
X163790061Y-76305628D01*
X164932918Y-76210390D02*
X164837680Y-76162771D01*
X164837680Y-76162771D02*
X164790061Y-76115152D01*
X164790061Y-76115152D02*
X164742442Y-76019914D01*
X164742442Y-76019914D02*
X164742442Y-75972295D01*
X164742442Y-75972295D02*
X164790061Y-75877057D01*
X164790061Y-75877057D02*
X164837680Y-75829438D01*
X164837680Y-75829438D02*
X164932918Y-75781819D01*
X164932918Y-75781819D02*
X165123394Y-75781819D01*
X165123394Y-75781819D02*
X165218632Y-75829438D01*
X165218632Y-75829438D02*
X165266251Y-75877057D01*
X165266251Y-75877057D02*
X165313870Y-75972295D01*
X165313870Y-75972295D02*
X165313870Y-76019914D01*
X165313870Y-76019914D02*
X165266251Y-76115152D01*
X165266251Y-76115152D02*
X165218632Y-76162771D01*
X165218632Y-76162771D02*
X165123394Y-76210390D01*
X165123394Y-76210390D02*
X164932918Y-76210390D01*
X164932918Y-76210390D02*
X164837680Y-76258009D01*
X164837680Y-76258009D02*
X164790061Y-76305628D01*
X164790061Y-76305628D02*
X164742442Y-76400866D01*
X164742442Y-76400866D02*
X164742442Y-76591342D01*
X164742442Y-76591342D02*
X164790061Y-76686580D01*
X164790061Y-76686580D02*
X164837680Y-76734200D01*
X164837680Y-76734200D02*
X164932918Y-76781819D01*
X164932918Y-76781819D02*
X165123394Y-76781819D01*
X165123394Y-76781819D02*
X165218632Y-76734200D01*
X165218632Y-76734200D02*
X165266251Y-76686580D01*
X165266251Y-76686580D02*
X165313870Y-76591342D01*
X165313870Y-76591342D02*
X165313870Y-76400866D01*
X165313870Y-76400866D02*
X165266251Y-76305628D01*
X165266251Y-76305628D02*
X165218632Y-76258009D01*
X165218632Y-76258009D02*
X165123394Y-76210390D01*
X146189542Y-72948819D02*
X145856209Y-72472628D01*
X145618114Y-72948819D02*
X145618114Y-71948819D01*
X145618114Y-71948819D02*
X145999066Y-71948819D01*
X145999066Y-71948819D02*
X146094304Y-71996438D01*
X146094304Y-71996438D02*
X146141923Y-72044057D01*
X146141923Y-72044057D02*
X146189542Y-72139295D01*
X146189542Y-72139295D02*
X146189542Y-72282152D01*
X146189542Y-72282152D02*
X146141923Y-72377390D01*
X146141923Y-72377390D02*
X146094304Y-72425009D01*
X146094304Y-72425009D02*
X145999066Y-72472628D01*
X145999066Y-72472628D02*
X145618114Y-72472628D01*
X147141923Y-72948819D02*
X146570495Y-72948819D01*
X146856209Y-72948819D02*
X146856209Y-71948819D01*
X146856209Y-71948819D02*
X146760971Y-72091676D01*
X146760971Y-72091676D02*
X146665733Y-72186914D01*
X146665733Y-72186914D02*
X146570495Y-72234533D01*
X148046685Y-71948819D02*
X147570495Y-71948819D01*
X147570495Y-71948819D02*
X147522876Y-72425009D01*
X147522876Y-72425009D02*
X147570495Y-72377390D01*
X147570495Y-72377390D02*
X147665733Y-72329771D01*
X147665733Y-72329771D02*
X147903828Y-72329771D01*
X147903828Y-72329771D02*
X147999066Y-72377390D01*
X147999066Y-72377390D02*
X148046685Y-72425009D01*
X148046685Y-72425009D02*
X148094304Y-72520247D01*
X148094304Y-72520247D02*
X148094304Y-72758342D01*
X148094304Y-72758342D02*
X148046685Y-72853580D01*
X148046685Y-72853580D02*
X147999066Y-72901200D01*
X147999066Y-72901200D02*
X147903828Y-72948819D01*
X147903828Y-72948819D02*
X147665733Y-72948819D01*
X147665733Y-72948819D02*
X147570495Y-72901200D01*
X147570495Y-72901200D02*
X147522876Y-72853580D01*
X146252042Y-75869019D02*
X145918709Y-75392828D01*
X145680614Y-75869019D02*
X145680614Y-74869019D01*
X145680614Y-74869019D02*
X146061566Y-74869019D01*
X146061566Y-74869019D02*
X146156804Y-74916638D01*
X146156804Y-74916638D02*
X146204423Y-74964257D01*
X146204423Y-74964257D02*
X146252042Y-75059495D01*
X146252042Y-75059495D02*
X146252042Y-75202352D01*
X146252042Y-75202352D02*
X146204423Y-75297590D01*
X146204423Y-75297590D02*
X146156804Y-75345209D01*
X146156804Y-75345209D02*
X146061566Y-75392828D01*
X146061566Y-75392828D02*
X145680614Y-75392828D01*
X147204423Y-75869019D02*
X146632995Y-75869019D01*
X146918709Y-75869019D02*
X146918709Y-74869019D01*
X146918709Y-74869019D02*
X146823471Y-75011876D01*
X146823471Y-75011876D02*
X146728233Y-75107114D01*
X146728233Y-75107114D02*
X146632995Y-75154733D01*
X148156804Y-75869019D02*
X147585376Y-75869019D01*
X147871090Y-75869019D02*
X147871090Y-74869019D01*
X147871090Y-74869019D02*
X147775852Y-75011876D01*
X147775852Y-75011876D02*
X147680614Y-75107114D01*
X147680614Y-75107114D02*
X147585376Y-75154733D01*
X158146761Y-107230057D02*
X158051523Y-107182438D01*
X158051523Y-107182438D02*
X157956285Y-107087200D01*
X157956285Y-107087200D02*
X157813428Y-106944342D01*
X157813428Y-106944342D02*
X157718190Y-106896723D01*
X157718190Y-106896723D02*
X157622952Y-106896723D01*
X157670571Y-107134819D02*
X157575333Y-107087200D01*
X157575333Y-107087200D02*
X157480095Y-106991961D01*
X157480095Y-106991961D02*
X157432476Y-106801485D01*
X157432476Y-106801485D02*
X157432476Y-106468152D01*
X157432476Y-106468152D02*
X157480095Y-106277676D01*
X157480095Y-106277676D02*
X157575333Y-106182438D01*
X157575333Y-106182438D02*
X157670571Y-106134819D01*
X157670571Y-106134819D02*
X157861047Y-106134819D01*
X157861047Y-106134819D02*
X157956285Y-106182438D01*
X157956285Y-106182438D02*
X158051523Y-106277676D01*
X158051523Y-106277676D02*
X158099142Y-106468152D01*
X158099142Y-106468152D02*
X158099142Y-106801485D01*
X158099142Y-106801485D02*
X158051523Y-106991961D01*
X158051523Y-106991961D02*
X157956285Y-107087200D01*
X157956285Y-107087200D02*
X157861047Y-107134819D01*
X157861047Y-107134819D02*
X157670571Y-107134819D01*
X159051523Y-107134819D02*
X158480095Y-107134819D01*
X158765809Y-107134819D02*
X158765809Y-106134819D01*
X158765809Y-106134819D02*
X158670571Y-106277676D01*
X158670571Y-106277676D02*
X158575333Y-106372914D01*
X158575333Y-106372914D02*
X158480095Y-106420533D01*
X166238095Y-112454819D02*
X166238095Y-113264342D01*
X166238095Y-113264342D02*
X166285714Y-113359580D01*
X166285714Y-113359580D02*
X166333333Y-113407200D01*
X166333333Y-113407200D02*
X166428571Y-113454819D01*
X166428571Y-113454819D02*
X166619047Y-113454819D01*
X166619047Y-113454819D02*
X166714285Y-113407200D01*
X166714285Y-113407200D02*
X166761904Y-113359580D01*
X166761904Y-113359580D02*
X166809523Y-113264342D01*
X166809523Y-113264342D02*
X166809523Y-112454819D01*
X167238095Y-112550057D02*
X167285714Y-112502438D01*
X167285714Y-112502438D02*
X167380952Y-112454819D01*
X167380952Y-112454819D02*
X167619047Y-112454819D01*
X167619047Y-112454819D02*
X167714285Y-112502438D01*
X167714285Y-112502438D02*
X167761904Y-112550057D01*
X167761904Y-112550057D02*
X167809523Y-112645295D01*
X167809523Y-112645295D02*
X167809523Y-112740533D01*
X167809523Y-112740533D02*
X167761904Y-112883390D01*
X167761904Y-112883390D02*
X167190476Y-113454819D01*
X167190476Y-113454819D02*
X167809523Y-113454819D01*
X189853219Y-111864733D02*
X190567504Y-111864733D01*
X190567504Y-111864733D02*
X190710361Y-111912352D01*
X190710361Y-111912352D02*
X190805600Y-112007590D01*
X190805600Y-112007590D02*
X190853219Y-112150447D01*
X190853219Y-112150447D02*
X190853219Y-112245685D01*
X190853219Y-110864733D02*
X190853219Y-111436161D01*
X190853219Y-111150447D02*
X189853219Y-111150447D01*
X189853219Y-111150447D02*
X189996076Y-111245685D01*
X189996076Y-111245685D02*
X190091314Y-111340923D01*
X190091314Y-111340923D02*
X190138933Y-111436161D01*
X156774818Y-92416664D02*
X156298627Y-92749997D01*
X156774818Y-92988092D02*
X155774818Y-92988092D01*
X155774818Y-92988092D02*
X155774818Y-92607140D01*
X155774818Y-92607140D02*
X155822437Y-92511902D01*
X155822437Y-92511902D02*
X155870056Y-92464283D01*
X155870056Y-92464283D02*
X155965294Y-92416664D01*
X155965294Y-92416664D02*
X156108151Y-92416664D01*
X156108151Y-92416664D02*
X156203389Y-92464283D01*
X156203389Y-92464283D02*
X156251008Y-92511902D01*
X156251008Y-92511902D02*
X156298627Y-92607140D01*
X156298627Y-92607140D02*
X156298627Y-92988092D01*
X155774818Y-91511902D02*
X155774818Y-91988092D01*
X155774818Y-91988092D02*
X156251008Y-92035711D01*
X156251008Y-92035711D02*
X156203389Y-91988092D01*
X156203389Y-91988092D02*
X156155770Y-91892854D01*
X156155770Y-91892854D02*
X156155770Y-91654759D01*
X156155770Y-91654759D02*
X156203389Y-91559521D01*
X156203389Y-91559521D02*
X156251008Y-91511902D01*
X156251008Y-91511902D02*
X156346246Y-91464283D01*
X156346246Y-91464283D02*
X156584341Y-91464283D01*
X156584341Y-91464283D02*
X156679579Y-91511902D01*
X156679579Y-91511902D02*
X156727199Y-91559521D01*
X156727199Y-91559521D02*
X156774818Y-91654759D01*
X156774818Y-91654759D02*
X156774818Y-91892854D01*
X156774818Y-91892854D02*
X156727199Y-91988092D01*
X156727199Y-91988092D02*
X156679579Y-92035711D01*
X164371442Y-75308619D02*
X164038109Y-74832428D01*
X163800014Y-75308619D02*
X163800014Y-74308619D01*
X163800014Y-74308619D02*
X164180966Y-74308619D01*
X164180966Y-74308619D02*
X164276204Y-74356238D01*
X164276204Y-74356238D02*
X164323823Y-74403857D01*
X164323823Y-74403857D02*
X164371442Y-74499095D01*
X164371442Y-74499095D02*
X164371442Y-74641952D01*
X164371442Y-74641952D02*
X164323823Y-74737190D01*
X164323823Y-74737190D02*
X164276204Y-74784809D01*
X164276204Y-74784809D02*
X164180966Y-74832428D01*
X164180966Y-74832428D02*
X163800014Y-74832428D01*
X165323823Y-75308619D02*
X164752395Y-75308619D01*
X165038109Y-75308619D02*
X165038109Y-74308619D01*
X165038109Y-74308619D02*
X164942871Y-74451476D01*
X164942871Y-74451476D02*
X164847633Y-74546714D01*
X164847633Y-74546714D02*
X164752395Y-74594333D01*
X165942871Y-74308619D02*
X166038109Y-74308619D01*
X166038109Y-74308619D02*
X166133347Y-74356238D01*
X166133347Y-74356238D02*
X166180966Y-74403857D01*
X166180966Y-74403857D02*
X166228585Y-74499095D01*
X166228585Y-74499095D02*
X166276204Y-74689571D01*
X166276204Y-74689571D02*
X166276204Y-74927666D01*
X166276204Y-74927666D02*
X166228585Y-75118142D01*
X166228585Y-75118142D02*
X166180966Y-75213380D01*
X166180966Y-75213380D02*
X166133347Y-75261000D01*
X166133347Y-75261000D02*
X166038109Y-75308619D01*
X166038109Y-75308619D02*
X165942871Y-75308619D01*
X165942871Y-75308619D02*
X165847633Y-75261000D01*
X165847633Y-75261000D02*
X165800014Y-75213380D01*
X165800014Y-75213380D02*
X165752395Y-75118142D01*
X165752395Y-75118142D02*
X165704776Y-74927666D01*
X165704776Y-74927666D02*
X165704776Y-74689571D01*
X165704776Y-74689571D02*
X165752395Y-74499095D01*
X165752395Y-74499095D02*
X165800014Y-74403857D01*
X165800014Y-74403857D02*
X165847633Y-74356238D01*
X165847633Y-74356238D02*
X165942871Y-74308619D01*
X156357142Y-85454819D02*
X156023809Y-84978628D01*
X155785714Y-85454819D02*
X155785714Y-84454819D01*
X155785714Y-84454819D02*
X156166666Y-84454819D01*
X156166666Y-84454819D02*
X156261904Y-84502438D01*
X156261904Y-84502438D02*
X156309523Y-84550057D01*
X156309523Y-84550057D02*
X156357142Y-84645295D01*
X156357142Y-84645295D02*
X156357142Y-84788152D01*
X156357142Y-84788152D02*
X156309523Y-84883390D01*
X156309523Y-84883390D02*
X156261904Y-84931009D01*
X156261904Y-84931009D02*
X156166666Y-84978628D01*
X156166666Y-84978628D02*
X155785714Y-84978628D01*
X157309523Y-85454819D02*
X156738095Y-85454819D01*
X157023809Y-85454819D02*
X157023809Y-84454819D01*
X157023809Y-84454819D02*
X156928571Y-84597676D01*
X156928571Y-84597676D02*
X156833333Y-84692914D01*
X156833333Y-84692914D02*
X156738095Y-84740533D01*
X157880952Y-84883390D02*
X157785714Y-84835771D01*
X157785714Y-84835771D02*
X157738095Y-84788152D01*
X157738095Y-84788152D02*
X157690476Y-84692914D01*
X157690476Y-84692914D02*
X157690476Y-84645295D01*
X157690476Y-84645295D02*
X157738095Y-84550057D01*
X157738095Y-84550057D02*
X157785714Y-84502438D01*
X157785714Y-84502438D02*
X157880952Y-84454819D01*
X157880952Y-84454819D02*
X158071428Y-84454819D01*
X158071428Y-84454819D02*
X158166666Y-84502438D01*
X158166666Y-84502438D02*
X158214285Y-84550057D01*
X158214285Y-84550057D02*
X158261904Y-84645295D01*
X158261904Y-84645295D02*
X158261904Y-84692914D01*
X158261904Y-84692914D02*
X158214285Y-84788152D01*
X158214285Y-84788152D02*
X158166666Y-84835771D01*
X158166666Y-84835771D02*
X158071428Y-84883390D01*
X158071428Y-84883390D02*
X157880952Y-84883390D01*
X157880952Y-84883390D02*
X157785714Y-84931009D01*
X157785714Y-84931009D02*
X157738095Y-84978628D01*
X157738095Y-84978628D02*
X157690476Y-85073866D01*
X157690476Y-85073866D02*
X157690476Y-85264342D01*
X157690476Y-85264342D02*
X157738095Y-85359580D01*
X157738095Y-85359580D02*
X157785714Y-85407200D01*
X157785714Y-85407200D02*
X157880952Y-85454819D01*
X157880952Y-85454819D02*
X158071428Y-85454819D01*
X158071428Y-85454819D02*
X158166666Y-85407200D01*
X158166666Y-85407200D02*
X158214285Y-85359580D01*
X158214285Y-85359580D02*
X158261904Y-85264342D01*
X158261904Y-85264342D02*
X158261904Y-85073866D01*
X158261904Y-85073866D02*
X158214285Y-84978628D01*
X158214285Y-84978628D02*
X158166666Y-84931009D01*
X158166666Y-84931009D02*
X158071428Y-84883390D01*
X147223233Y-77339019D02*
X146889900Y-76862828D01*
X146651805Y-77339019D02*
X146651805Y-76339019D01*
X146651805Y-76339019D02*
X147032757Y-76339019D01*
X147032757Y-76339019D02*
X147127995Y-76386638D01*
X147127995Y-76386638D02*
X147175614Y-76434257D01*
X147175614Y-76434257D02*
X147223233Y-76529495D01*
X147223233Y-76529495D02*
X147223233Y-76672352D01*
X147223233Y-76672352D02*
X147175614Y-76767590D01*
X147175614Y-76767590D02*
X147127995Y-76815209D01*
X147127995Y-76815209D02*
X147032757Y-76862828D01*
X147032757Y-76862828D02*
X146651805Y-76862828D01*
X147699424Y-77339019D02*
X147889900Y-77339019D01*
X147889900Y-77339019D02*
X147985138Y-77291400D01*
X147985138Y-77291400D02*
X148032757Y-77243780D01*
X148032757Y-77243780D02*
X148127995Y-77100923D01*
X148127995Y-77100923D02*
X148175614Y-76910447D01*
X148175614Y-76910447D02*
X148175614Y-76529495D01*
X148175614Y-76529495D02*
X148127995Y-76434257D01*
X148127995Y-76434257D02*
X148080376Y-76386638D01*
X148080376Y-76386638D02*
X147985138Y-76339019D01*
X147985138Y-76339019D02*
X147794662Y-76339019D01*
X147794662Y-76339019D02*
X147699424Y-76386638D01*
X147699424Y-76386638D02*
X147651805Y-76434257D01*
X147651805Y-76434257D02*
X147604186Y-76529495D01*
X147604186Y-76529495D02*
X147604186Y-76767590D01*
X147604186Y-76767590D02*
X147651805Y-76862828D01*
X147651805Y-76862828D02*
X147699424Y-76910447D01*
X147699424Y-76910447D02*
X147794662Y-76958066D01*
X147794662Y-76958066D02*
X147985138Y-76958066D01*
X147985138Y-76958066D02*
X148080376Y-76910447D01*
X148080376Y-76910447D02*
X148127995Y-76862828D01*
X148127995Y-76862828D02*
X148175614Y-76767590D01*
X173863095Y-79976419D02*
X173863095Y-80785942D01*
X173863095Y-80785942D02*
X173910714Y-80881180D01*
X173910714Y-80881180D02*
X173958333Y-80928800D01*
X173958333Y-80928800D02*
X174053571Y-80976419D01*
X174053571Y-80976419D02*
X174244047Y-80976419D01*
X174244047Y-80976419D02*
X174339285Y-80928800D01*
X174339285Y-80928800D02*
X174386904Y-80881180D01*
X174386904Y-80881180D02*
X174434523Y-80785942D01*
X174434523Y-80785942D02*
X174434523Y-79976419D01*
X175434523Y-80976419D02*
X174863095Y-80976419D01*
X175148809Y-80976419D02*
X175148809Y-79976419D01*
X175148809Y-79976419D02*
X175053571Y-80119276D01*
X175053571Y-80119276D02*
X174958333Y-80214514D01*
X174958333Y-80214514D02*
X174863095Y-80262133D01*
X175180333Y-109090619D02*
X174847000Y-108614428D01*
X174608905Y-109090619D02*
X174608905Y-108090619D01*
X174608905Y-108090619D02*
X174989857Y-108090619D01*
X174989857Y-108090619D02*
X175085095Y-108138238D01*
X175085095Y-108138238D02*
X175132714Y-108185857D01*
X175132714Y-108185857D02*
X175180333Y-108281095D01*
X175180333Y-108281095D02*
X175180333Y-108423952D01*
X175180333Y-108423952D02*
X175132714Y-108519190D01*
X175132714Y-108519190D02*
X175085095Y-108566809D01*
X175085095Y-108566809D02*
X174989857Y-108614428D01*
X174989857Y-108614428D02*
X174608905Y-108614428D01*
X175513667Y-108090619D02*
X176132714Y-108090619D01*
X176132714Y-108090619D02*
X175799381Y-108471571D01*
X175799381Y-108471571D02*
X175942238Y-108471571D01*
X175942238Y-108471571D02*
X176037476Y-108519190D01*
X176037476Y-108519190D02*
X176085095Y-108566809D01*
X176085095Y-108566809D02*
X176132714Y-108662047D01*
X176132714Y-108662047D02*
X176132714Y-108900142D01*
X176132714Y-108900142D02*
X176085095Y-108995380D01*
X176085095Y-108995380D02*
X176037476Y-109043000D01*
X176037476Y-109043000D02*
X175942238Y-109090619D01*
X175942238Y-109090619D02*
X175656524Y-109090619D01*
X175656524Y-109090619D02*
X175561286Y-109043000D01*
X175561286Y-109043000D02*
X175513667Y-108995380D01*
X109548899Y-125769311D02*
X109696427Y-125739122D01*
X109696427Y-125739122D02*
X109902623Y-125620075D01*
X109902623Y-125620075D02*
X109961292Y-125531216D01*
X109961292Y-125531216D02*
X109978722Y-125466167D01*
X109978722Y-125466167D02*
X109972343Y-125359879D01*
X109972343Y-125359879D02*
X109924723Y-125277401D01*
X109924723Y-125277401D02*
X109835865Y-125218732D01*
X109835865Y-125218732D02*
X109770816Y-125201302D01*
X109770816Y-125201302D02*
X109664528Y-125207682D01*
X109664528Y-125207682D02*
X109475761Y-125261680D01*
X109475761Y-125261680D02*
X109369473Y-125268060D01*
X109369473Y-125268060D02*
X109304424Y-125250630D01*
X109304424Y-125250630D02*
X109215566Y-125191961D01*
X109215566Y-125191961D02*
X109167947Y-125109483D01*
X109167947Y-125109483D02*
X109161567Y-125003194D01*
X109161567Y-125003194D02*
X109178997Y-124938146D01*
X109178997Y-124938146D02*
X109237666Y-124849287D01*
X109237666Y-124849287D02*
X109443863Y-124730240D01*
X109443863Y-124730240D02*
X109591390Y-124700050D01*
X109856256Y-124492144D02*
X110562452Y-125239122D01*
X110562452Y-125239122D02*
X110370267Y-124525294D01*
X110370267Y-124525294D02*
X110892367Y-125048646D01*
X110892367Y-125048646D02*
X110598563Y-124063573D01*
X111882110Y-124477217D02*
X111387238Y-124762932D01*
X111634674Y-124620075D02*
X111134674Y-123754049D01*
X111134674Y-123754049D02*
X111123624Y-123925386D01*
X111123624Y-123925386D02*
X111088765Y-124055484D01*
X111088765Y-124055484D02*
X111030095Y-124144342D01*
X185347780Y-98871066D02*
X185395400Y-98918685D01*
X185395400Y-98918685D02*
X185443019Y-99061542D01*
X185443019Y-99061542D02*
X185443019Y-99156780D01*
X185443019Y-99156780D02*
X185395400Y-99299637D01*
X185395400Y-99299637D02*
X185300161Y-99394875D01*
X185300161Y-99394875D02*
X185204923Y-99442494D01*
X185204923Y-99442494D02*
X185014447Y-99490113D01*
X185014447Y-99490113D02*
X184871590Y-99490113D01*
X184871590Y-99490113D02*
X184681114Y-99442494D01*
X184681114Y-99442494D02*
X184585876Y-99394875D01*
X184585876Y-99394875D02*
X184490638Y-99299637D01*
X184490638Y-99299637D02*
X184443019Y-99156780D01*
X184443019Y-99156780D02*
X184443019Y-99061542D01*
X184443019Y-99061542D02*
X184490638Y-98918685D01*
X184490638Y-98918685D02*
X184538257Y-98871066D01*
X184871590Y-98299637D02*
X184823971Y-98394875D01*
X184823971Y-98394875D02*
X184776352Y-98442494D01*
X184776352Y-98442494D02*
X184681114Y-98490113D01*
X184681114Y-98490113D02*
X184633495Y-98490113D01*
X184633495Y-98490113D02*
X184538257Y-98442494D01*
X184538257Y-98442494D02*
X184490638Y-98394875D01*
X184490638Y-98394875D02*
X184443019Y-98299637D01*
X184443019Y-98299637D02*
X184443019Y-98109161D01*
X184443019Y-98109161D02*
X184490638Y-98013923D01*
X184490638Y-98013923D02*
X184538257Y-97966304D01*
X184538257Y-97966304D02*
X184633495Y-97918685D01*
X184633495Y-97918685D02*
X184681114Y-97918685D01*
X184681114Y-97918685D02*
X184776352Y-97966304D01*
X184776352Y-97966304D02*
X184823971Y-98013923D01*
X184823971Y-98013923D02*
X184871590Y-98109161D01*
X184871590Y-98109161D02*
X184871590Y-98299637D01*
X184871590Y-98299637D02*
X184919209Y-98394875D01*
X184919209Y-98394875D02*
X184966828Y-98442494D01*
X184966828Y-98442494D02*
X185062066Y-98490113D01*
X185062066Y-98490113D02*
X185252542Y-98490113D01*
X185252542Y-98490113D02*
X185347780Y-98442494D01*
X185347780Y-98442494D02*
X185395400Y-98394875D01*
X185395400Y-98394875D02*
X185443019Y-98299637D01*
X185443019Y-98299637D02*
X185443019Y-98109161D01*
X185443019Y-98109161D02*
X185395400Y-98013923D01*
X185395400Y-98013923D02*
X185347780Y-97966304D01*
X185347780Y-97966304D02*
X185252542Y-97918685D01*
X185252542Y-97918685D02*
X185062066Y-97918685D01*
X185062066Y-97918685D02*
X184966828Y-97966304D01*
X184966828Y-97966304D02*
X184919209Y-98013923D01*
X184919209Y-98013923D02*
X184871590Y-98109161D01*
X152349295Y-68365019D02*
X152349295Y-69174542D01*
X152349295Y-69174542D02*
X152396914Y-69269780D01*
X152396914Y-69269780D02*
X152444533Y-69317400D01*
X152444533Y-69317400D02*
X152539771Y-69365019D01*
X152539771Y-69365019D02*
X152730247Y-69365019D01*
X152730247Y-69365019D02*
X152825485Y-69317400D01*
X152825485Y-69317400D02*
X152873104Y-69269780D01*
X152873104Y-69269780D02*
X152920723Y-69174542D01*
X152920723Y-69174542D02*
X152920723Y-68365019D01*
X153825485Y-68365019D02*
X153635009Y-68365019D01*
X153635009Y-68365019D02*
X153539771Y-68412638D01*
X153539771Y-68412638D02*
X153492152Y-68460257D01*
X153492152Y-68460257D02*
X153396914Y-68603114D01*
X153396914Y-68603114D02*
X153349295Y-68793590D01*
X153349295Y-68793590D02*
X153349295Y-69174542D01*
X153349295Y-69174542D02*
X153396914Y-69269780D01*
X153396914Y-69269780D02*
X153444533Y-69317400D01*
X153444533Y-69317400D02*
X153539771Y-69365019D01*
X153539771Y-69365019D02*
X153730247Y-69365019D01*
X153730247Y-69365019D02*
X153825485Y-69317400D01*
X153825485Y-69317400D02*
X153873104Y-69269780D01*
X153873104Y-69269780D02*
X153920723Y-69174542D01*
X153920723Y-69174542D02*
X153920723Y-68936447D01*
X153920723Y-68936447D02*
X153873104Y-68841209D01*
X153873104Y-68841209D02*
X153825485Y-68793590D01*
X153825485Y-68793590D02*
X153730247Y-68745971D01*
X153730247Y-68745971D02*
X153539771Y-68745971D01*
X153539771Y-68745971D02*
X153444533Y-68793590D01*
X153444533Y-68793590D02*
X153396914Y-68841209D01*
X153396914Y-68841209D02*
X153349295Y-68936447D01*
X164361489Y-78270419D02*
X164028156Y-77794228D01*
X163790061Y-78270419D02*
X163790061Y-77270419D01*
X163790061Y-77270419D02*
X164171013Y-77270419D01*
X164171013Y-77270419D02*
X164266251Y-77318038D01*
X164266251Y-77318038D02*
X164313870Y-77365657D01*
X164313870Y-77365657D02*
X164361489Y-77460895D01*
X164361489Y-77460895D02*
X164361489Y-77603752D01*
X164361489Y-77603752D02*
X164313870Y-77698990D01*
X164313870Y-77698990D02*
X164266251Y-77746609D01*
X164266251Y-77746609D02*
X164171013Y-77794228D01*
X164171013Y-77794228D02*
X163790061Y-77794228D01*
X165218632Y-77603752D02*
X165218632Y-78270419D01*
X164980537Y-77222800D02*
X164742442Y-77937085D01*
X164742442Y-77937085D02*
X165361489Y-77937085D01*
X154942319Y-90761904D02*
X155751842Y-90761904D01*
X155751842Y-90761904D02*
X155847080Y-90714285D01*
X155847080Y-90714285D02*
X155894700Y-90666666D01*
X155894700Y-90666666D02*
X155942319Y-90571428D01*
X155942319Y-90571428D02*
X155942319Y-90380952D01*
X155942319Y-90380952D02*
X155894700Y-90285714D01*
X155894700Y-90285714D02*
X155847080Y-90238095D01*
X155847080Y-90238095D02*
X155751842Y-90190476D01*
X155751842Y-90190476D02*
X154942319Y-90190476D01*
X155275652Y-89285714D02*
X155942319Y-89285714D01*
X154894700Y-89523809D02*
X155608985Y-89761904D01*
X155608985Y-89761904D02*
X155608985Y-89142857D01*
X166533533Y-83493780D02*
X166485914Y-83541400D01*
X166485914Y-83541400D02*
X166343057Y-83589019D01*
X166343057Y-83589019D02*
X166247819Y-83589019D01*
X166247819Y-83589019D02*
X166104962Y-83541400D01*
X166104962Y-83541400D02*
X166009724Y-83446161D01*
X166009724Y-83446161D02*
X165962105Y-83350923D01*
X165962105Y-83350923D02*
X165914486Y-83160447D01*
X165914486Y-83160447D02*
X165914486Y-83017590D01*
X165914486Y-83017590D02*
X165962105Y-82827114D01*
X165962105Y-82827114D02*
X166009724Y-82731876D01*
X166009724Y-82731876D02*
X166104962Y-82636638D01*
X166104962Y-82636638D02*
X166247819Y-82589019D01*
X166247819Y-82589019D02*
X166343057Y-82589019D01*
X166343057Y-82589019D02*
X166485914Y-82636638D01*
X166485914Y-82636638D02*
X166533533Y-82684257D01*
X167390676Y-82922352D02*
X167390676Y-83589019D01*
X167152581Y-82541400D02*
X166914486Y-83255685D01*
X166914486Y-83255685D02*
X167533533Y-83255685D01*
X164386298Y-72362219D02*
X164052965Y-71886028D01*
X163814870Y-72362219D02*
X163814870Y-71362219D01*
X163814870Y-71362219D02*
X164195822Y-71362219D01*
X164195822Y-71362219D02*
X164291060Y-71409838D01*
X164291060Y-71409838D02*
X164338679Y-71457457D01*
X164338679Y-71457457D02*
X164386298Y-71552695D01*
X164386298Y-71552695D02*
X164386298Y-71695552D01*
X164386298Y-71695552D02*
X164338679Y-71790790D01*
X164338679Y-71790790D02*
X164291060Y-71838409D01*
X164291060Y-71838409D02*
X164195822Y-71886028D01*
X164195822Y-71886028D02*
X163814870Y-71886028D01*
X165338679Y-72362219D02*
X164767251Y-72362219D01*
X165052965Y-72362219D02*
X165052965Y-71362219D01*
X165052965Y-71362219D02*
X164957727Y-71505076D01*
X164957727Y-71505076D02*
X164862489Y-71600314D01*
X164862489Y-71600314D02*
X164767251Y-71647933D01*
X166195822Y-71695552D02*
X166195822Y-72362219D01*
X165957727Y-71314600D02*
X165719632Y-72028885D01*
X165719632Y-72028885D02*
X166338679Y-72028885D01*
X175118733Y-110595580D02*
X175071114Y-110643200D01*
X175071114Y-110643200D02*
X174928257Y-110690819D01*
X174928257Y-110690819D02*
X174833019Y-110690819D01*
X174833019Y-110690819D02*
X174690162Y-110643200D01*
X174690162Y-110643200D02*
X174594924Y-110547961D01*
X174594924Y-110547961D02*
X174547305Y-110452723D01*
X174547305Y-110452723D02*
X174499686Y-110262247D01*
X174499686Y-110262247D02*
X174499686Y-110119390D01*
X174499686Y-110119390D02*
X174547305Y-109928914D01*
X174547305Y-109928914D02*
X174594924Y-109833676D01*
X174594924Y-109833676D02*
X174690162Y-109738438D01*
X174690162Y-109738438D02*
X174833019Y-109690819D01*
X174833019Y-109690819D02*
X174928257Y-109690819D01*
X174928257Y-109690819D02*
X175071114Y-109738438D01*
X175071114Y-109738438D02*
X175118733Y-109786057D01*
X175499686Y-109786057D02*
X175547305Y-109738438D01*
X175547305Y-109738438D02*
X175642543Y-109690819D01*
X175642543Y-109690819D02*
X175880638Y-109690819D01*
X175880638Y-109690819D02*
X175975876Y-109738438D01*
X175975876Y-109738438D02*
X176023495Y-109786057D01*
X176023495Y-109786057D02*
X176071114Y-109881295D01*
X176071114Y-109881295D02*
X176071114Y-109976533D01*
X176071114Y-109976533D02*
X176023495Y-110119390D01*
X176023495Y-110119390D02*
X175452067Y-110690819D01*
X175452067Y-110690819D02*
X176071114Y-110690819D01*
X189506262Y-87194012D02*
X189506262Y-87908297D01*
X189506262Y-87908297D02*
X189458643Y-88051154D01*
X189458643Y-88051154D02*
X189363405Y-88146393D01*
X189363405Y-88146393D02*
X189220548Y-88194012D01*
X189220548Y-88194012D02*
X189125310Y-88194012D01*
X189934834Y-87289250D02*
X189982453Y-87241631D01*
X189982453Y-87241631D02*
X190077691Y-87194012D01*
X190077691Y-87194012D02*
X190315786Y-87194012D01*
X190315786Y-87194012D02*
X190411024Y-87241631D01*
X190411024Y-87241631D02*
X190458643Y-87289250D01*
X190458643Y-87289250D02*
X190506262Y-87384488D01*
X190506262Y-87384488D02*
X190506262Y-87479726D01*
X190506262Y-87479726D02*
X190458643Y-87622583D01*
X190458643Y-87622583D02*
X189887215Y-88194012D01*
X189887215Y-88194012D02*
X190506262Y-88194012D01*
X157732133Y-98303381D02*
X157684514Y-98351001D01*
X157684514Y-98351001D02*
X157541657Y-98398620D01*
X157541657Y-98398620D02*
X157446419Y-98398620D01*
X157446419Y-98398620D02*
X157303562Y-98351001D01*
X157303562Y-98351001D02*
X157208324Y-98255762D01*
X157208324Y-98255762D02*
X157160705Y-98160524D01*
X157160705Y-98160524D02*
X157113086Y-97970048D01*
X157113086Y-97970048D02*
X157113086Y-97827191D01*
X157113086Y-97827191D02*
X157160705Y-97636715D01*
X157160705Y-97636715D02*
X157208324Y-97541477D01*
X157208324Y-97541477D02*
X157303562Y-97446239D01*
X157303562Y-97446239D02*
X157446419Y-97398620D01*
X157446419Y-97398620D02*
X157541657Y-97398620D01*
X157541657Y-97398620D02*
X157684514Y-97446239D01*
X157684514Y-97446239D02*
X157732133Y-97493858D01*
X158208324Y-98398620D02*
X158398800Y-98398620D01*
X158398800Y-98398620D02*
X158494038Y-98351001D01*
X158494038Y-98351001D02*
X158541657Y-98303381D01*
X158541657Y-98303381D02*
X158636895Y-98160524D01*
X158636895Y-98160524D02*
X158684514Y-97970048D01*
X158684514Y-97970048D02*
X158684514Y-97589096D01*
X158684514Y-97589096D02*
X158636895Y-97493858D01*
X158636895Y-97493858D02*
X158589276Y-97446239D01*
X158589276Y-97446239D02*
X158494038Y-97398620D01*
X158494038Y-97398620D02*
X158303562Y-97398620D01*
X158303562Y-97398620D02*
X158208324Y-97446239D01*
X158208324Y-97446239D02*
X158160705Y-97493858D01*
X158160705Y-97493858D02*
X158113086Y-97589096D01*
X158113086Y-97589096D02*
X158113086Y-97827191D01*
X158113086Y-97827191D02*
X158160705Y-97922429D01*
X158160705Y-97922429D02*
X158208324Y-97970048D01*
X158208324Y-97970048D02*
X158303562Y-98017667D01*
X158303562Y-98017667D02*
X158494038Y-98017667D01*
X158494038Y-98017667D02*
X158589276Y-97970048D01*
X158589276Y-97970048D02*
X158636895Y-97922429D01*
X158636895Y-97922429D02*
X158684514Y-97827191D01*
X146189542Y-74405619D02*
X145856209Y-73929428D01*
X145618114Y-74405619D02*
X145618114Y-73405619D01*
X145618114Y-73405619D02*
X145999066Y-73405619D01*
X145999066Y-73405619D02*
X146094304Y-73453238D01*
X146094304Y-73453238D02*
X146141923Y-73500857D01*
X146141923Y-73500857D02*
X146189542Y-73596095D01*
X146189542Y-73596095D02*
X146189542Y-73738952D01*
X146189542Y-73738952D02*
X146141923Y-73834190D01*
X146141923Y-73834190D02*
X146094304Y-73881809D01*
X146094304Y-73881809D02*
X145999066Y-73929428D01*
X145999066Y-73929428D02*
X145618114Y-73929428D01*
X147141923Y-74405619D02*
X146570495Y-74405619D01*
X146856209Y-74405619D02*
X146856209Y-73405619D01*
X146856209Y-73405619D02*
X146760971Y-73548476D01*
X146760971Y-73548476D02*
X146665733Y-73643714D01*
X146665733Y-73643714D02*
X146570495Y-73691333D01*
X147475257Y-73405619D02*
X148094304Y-73405619D01*
X148094304Y-73405619D02*
X147760971Y-73786571D01*
X147760971Y-73786571D02*
X147903828Y-73786571D01*
X147903828Y-73786571D02*
X147999066Y-73834190D01*
X147999066Y-73834190D02*
X148046685Y-73881809D01*
X148046685Y-73881809D02*
X148094304Y-73977047D01*
X148094304Y-73977047D02*
X148094304Y-74215142D01*
X148094304Y-74215142D02*
X148046685Y-74310380D01*
X148046685Y-74310380D02*
X147999066Y-74358000D01*
X147999066Y-74358000D02*
X147903828Y-74405619D01*
X147903828Y-74405619D02*
X147618114Y-74405619D01*
X147618114Y-74405619D02*
X147522876Y-74358000D01*
X147522876Y-74358000D02*
X147475257Y-74310380D01*
X182129133Y-82426980D02*
X182081514Y-82474600D01*
X182081514Y-82474600D02*
X181938657Y-82522219D01*
X181938657Y-82522219D02*
X181843419Y-82522219D01*
X181843419Y-82522219D02*
X181700562Y-82474600D01*
X181700562Y-82474600D02*
X181605324Y-82379361D01*
X181605324Y-82379361D02*
X181557705Y-82284123D01*
X181557705Y-82284123D02*
X181510086Y-82093647D01*
X181510086Y-82093647D02*
X181510086Y-81950790D01*
X181510086Y-81950790D02*
X181557705Y-81760314D01*
X181557705Y-81760314D02*
X181605324Y-81665076D01*
X181605324Y-81665076D02*
X181700562Y-81569838D01*
X181700562Y-81569838D02*
X181843419Y-81522219D01*
X181843419Y-81522219D02*
X181938657Y-81522219D01*
X181938657Y-81522219D02*
X182081514Y-81569838D01*
X182081514Y-81569838D02*
X182129133Y-81617457D01*
X182462467Y-81522219D02*
X183081514Y-81522219D01*
X183081514Y-81522219D02*
X182748181Y-81903171D01*
X182748181Y-81903171D02*
X182891038Y-81903171D01*
X182891038Y-81903171D02*
X182986276Y-81950790D01*
X182986276Y-81950790D02*
X183033895Y-81998409D01*
X183033895Y-81998409D02*
X183081514Y-82093647D01*
X183081514Y-82093647D02*
X183081514Y-82331742D01*
X183081514Y-82331742D02*
X183033895Y-82426980D01*
X183033895Y-82426980D02*
X182986276Y-82474600D01*
X182986276Y-82474600D02*
X182891038Y-82522219D01*
X182891038Y-82522219D02*
X182605324Y-82522219D01*
X182605324Y-82522219D02*
X182510086Y-82474600D01*
X182510086Y-82474600D02*
X182462467Y-82426980D01*
X156360142Y-83919219D02*
X156026809Y-83443028D01*
X155788714Y-83919219D02*
X155788714Y-82919219D01*
X155788714Y-82919219D02*
X156169666Y-82919219D01*
X156169666Y-82919219D02*
X156264904Y-82966838D01*
X156264904Y-82966838D02*
X156312523Y-83014457D01*
X156312523Y-83014457D02*
X156360142Y-83109695D01*
X156360142Y-83109695D02*
X156360142Y-83252552D01*
X156360142Y-83252552D02*
X156312523Y-83347790D01*
X156312523Y-83347790D02*
X156264904Y-83395409D01*
X156264904Y-83395409D02*
X156169666Y-83443028D01*
X156169666Y-83443028D02*
X155788714Y-83443028D01*
X157312523Y-83919219D02*
X156741095Y-83919219D01*
X157026809Y-83919219D02*
X157026809Y-82919219D01*
X157026809Y-82919219D02*
X156931571Y-83062076D01*
X156931571Y-83062076D02*
X156836333Y-83157314D01*
X156836333Y-83157314D02*
X156741095Y-83204933D01*
X157788714Y-83919219D02*
X157979190Y-83919219D01*
X157979190Y-83919219D02*
X158074428Y-83871600D01*
X158074428Y-83871600D02*
X158122047Y-83823980D01*
X158122047Y-83823980D02*
X158217285Y-83681123D01*
X158217285Y-83681123D02*
X158264904Y-83490647D01*
X158264904Y-83490647D02*
X158264904Y-83109695D01*
X158264904Y-83109695D02*
X158217285Y-83014457D01*
X158217285Y-83014457D02*
X158169666Y-82966838D01*
X158169666Y-82966838D02*
X158074428Y-82919219D01*
X158074428Y-82919219D02*
X157883952Y-82919219D01*
X157883952Y-82919219D02*
X157788714Y-82966838D01*
X157788714Y-82966838D02*
X157741095Y-83014457D01*
X157741095Y-83014457D02*
X157693476Y-83109695D01*
X157693476Y-83109695D02*
X157693476Y-83347790D01*
X157693476Y-83347790D02*
X157741095Y-83443028D01*
X157741095Y-83443028D02*
X157788714Y-83490647D01*
X157788714Y-83490647D02*
X157883952Y-83538266D01*
X157883952Y-83538266D02*
X158074428Y-83538266D01*
X158074428Y-83538266D02*
X158169666Y-83490647D01*
X158169666Y-83490647D02*
X158217285Y-83443028D01*
X158217285Y-83443028D02*
X158264904Y-83347790D01*
X158964333Y-110563819D02*
X158631000Y-110087628D01*
X158392905Y-110563819D02*
X158392905Y-109563819D01*
X158392905Y-109563819D02*
X158773857Y-109563819D01*
X158773857Y-109563819D02*
X158869095Y-109611438D01*
X158869095Y-109611438D02*
X158916714Y-109659057D01*
X158916714Y-109659057D02*
X158964333Y-109754295D01*
X158964333Y-109754295D02*
X158964333Y-109897152D01*
X158964333Y-109897152D02*
X158916714Y-109992390D01*
X158916714Y-109992390D02*
X158869095Y-110040009D01*
X158869095Y-110040009D02*
X158773857Y-110087628D01*
X158773857Y-110087628D02*
X158392905Y-110087628D01*
X159345286Y-109659057D02*
X159392905Y-109611438D01*
X159392905Y-109611438D02*
X159488143Y-109563819D01*
X159488143Y-109563819D02*
X159726238Y-109563819D01*
X159726238Y-109563819D02*
X159821476Y-109611438D01*
X159821476Y-109611438D02*
X159869095Y-109659057D01*
X159869095Y-109659057D02*
X159916714Y-109754295D01*
X159916714Y-109754295D02*
X159916714Y-109849533D01*
X159916714Y-109849533D02*
X159869095Y-109992390D01*
X159869095Y-109992390D02*
X159297667Y-110563819D01*
X159297667Y-110563819D02*
X159916714Y-110563819D01*
D12*
%TO.C,SW2*%
X148500000Y-60668600D02*
X148500000Y-59168600D01*
X147250000Y-56668600D02*
X142750000Y-56668600D01*
X142750000Y-63168600D02*
X147250001Y-63168600D01*
X141500001Y-59168600D02*
X141500000Y-60668600D01*
D11*
%TO.C,BZ1*%
X155000000Y-101500000D02*
G75*
G02*
X146000000Y-101500000I-4500000J0D01*
G01*
X146000000Y-101500000D02*
G75*
G02*
X155000000Y-101500000I4500000J0D01*
G01*
D12*
%TO.C,C11*%
X153351620Y-94947200D02*
X153632779Y-94947201D01*
X153351621Y-93927199D02*
X153632780Y-93927200D01*
%TO.C,R16*%
X150249658Y-70495900D02*
X149775142Y-70495900D01*
X150249658Y-71540900D02*
X149775142Y-71540900D01*
%TO.C,R6*%
X150229658Y-79321500D02*
X149755142Y-79321500D01*
X150229658Y-80366500D02*
X149755142Y-80366500D01*
%TO.C,C5*%
X179691412Y-86361996D02*
X179972580Y-86361999D01*
X179691420Y-85342001D02*
X179972588Y-85342004D01*
%TO.C,U5*%
X163087500Y-86940000D02*
X161137500Y-86940000D01*
X163087500Y-86940000D02*
X165037500Y-86940000D01*
X163087500Y-97060000D02*
X161137500Y-97060000D01*
X163087500Y-97060000D02*
X165037500Y-97060000D01*
X166027500Y-97335000D02*
X165547500Y-97335000D01*
X165787500Y-97005000D01*
X166027500Y-97335000D01*
G36*
X166027500Y-97335000D02*
G01*
X165547500Y-97335000D01*
X165787500Y-97005000D01*
X166027500Y-97335000D01*
G37*
%TO.C,C10*%
X158026979Y-68886801D02*
X157745820Y-68886800D01*
X158026980Y-67866800D02*
X157745821Y-67866799D01*
%TO.C,R12*%
X161877742Y-72858100D02*
X162352258Y-72858100D01*
X161877742Y-73903100D02*
X162352258Y-73903100D01*
%TO.C,SW3*%
X181850481Y-130156089D02*
X183149519Y-130906089D01*
X182560417Y-123926443D02*
X180310417Y-127823558D01*
X185939582Y-131073558D02*
X188189582Y-127176443D01*
X186649519Y-124843912D02*
X185350481Y-124093912D01*
D10*
%TO.C,U3*%
X175915600Y-94573200D02*
X175915600Y-95148200D01*
X175915600Y-94573200D02*
X181665600Y-94573200D01*
X175915600Y-104648200D02*
X175915600Y-105223200D01*
X175915600Y-105223200D02*
X181665600Y-105223200D01*
X181665600Y-94573200D02*
X181665600Y-95148200D01*
X181665600Y-104648200D02*
X181665600Y-105223200D01*
D12*
X175415600Y-95148200D02*
X175175600Y-94818200D01*
X175655600Y-94818200D01*
X175415600Y-95148200D01*
G36*
X175415600Y-95148200D02*
G01*
X175175600Y-94818200D01*
X175655600Y-94818200D01*
X175415600Y-95148200D01*
G37*
%TO.C,R17*%
X150824758Y-84477500D02*
X150350242Y-84477500D01*
X150824758Y-85522500D02*
X150350242Y-85522500D01*
%TO.C,R7*%
X150234658Y-77812900D02*
X149760142Y-77812900D01*
X150234658Y-78857900D02*
X149760142Y-78857900D01*
D13*
%TO.C,50k1*%
X162536800Y-97498600D02*
X162536800Y-100392090D01*
X162536800Y-101363910D02*
X162536800Y-104255000D01*
X162536800Y-104255000D02*
X167869816Y-104255000D01*
X167873165Y-97498600D02*
X162536800Y-97498600D01*
X169137384Y-104255000D02*
X170080600Y-104255000D01*
X170080600Y-97498600D02*
X169134035Y-97498600D01*
X170080600Y-104255000D02*
X170080600Y-97498600D01*
X171350600Y-103378000D02*
G75*
G02*
X171096600Y-103378000I-127000J0D01*
G01*
X171096600Y-103378000D02*
G75*
G02*
X171350600Y-103378000I127000J0D01*
G01*
D12*
%TO.C,C1*%
X168288580Y-105433400D02*
X168007420Y-105433400D01*
X168288580Y-106453400D02*
X168007420Y-106453400D01*
%TO.C,R1*%
X169403500Y-79594950D02*
X169403495Y-80069460D01*
X170448505Y-79594940D02*
X170448500Y-80069450D01*
D13*
%TO.C,10k1*%
X167641200Y-68908600D02*
X167641200Y-74241616D01*
X167641200Y-75509184D02*
X167641200Y-76452400D01*
X167641200Y-76452400D02*
X174397600Y-76452400D01*
X170532290Y-68908600D02*
X167641200Y-68908600D01*
X174397600Y-68908600D02*
X171504110Y-68908600D01*
X174397600Y-74244965D02*
X174397600Y-68908600D01*
X174397600Y-76452400D02*
X174397600Y-75505835D01*
X168645200Y-77595400D02*
G75*
G02*
X168391200Y-77595400I-127000J0D01*
G01*
X168391200Y-77595400D02*
G75*
G02*
X168645200Y-77595400I127000J0D01*
G01*
D12*
%TO.C,C6*%
X172071420Y-111046800D02*
X172352580Y-111046800D01*
X172071420Y-112066800D02*
X172352580Y-112066800D01*
%TO.C,R8*%
X161864542Y-75804500D02*
X162339058Y-75804500D01*
X161864542Y-76849500D02*
X162339058Y-76849500D01*
%TO.C,R15*%
X150244658Y-71971500D02*
X149770142Y-71971500D01*
X150244658Y-73016500D02*
X149770142Y-73016500D01*
%TO.C,R11*%
X150244658Y-74891700D02*
X149770142Y-74891700D01*
X150244658Y-75936700D02*
X149770142Y-75936700D01*
%TO.C,Q1*%
X159526800Y-106527600D02*
X159526800Y-105877600D01*
X159526800Y-106527600D02*
X159526800Y-107177600D01*
X162646800Y-106527600D02*
X162646800Y-105877600D01*
X162646800Y-106527600D02*
X162646800Y-107177600D01*
X159576800Y-107690100D02*
X159246800Y-107930100D01*
X159246800Y-107450100D01*
X159576800Y-107690100D01*
G36*
X159576800Y-107690100D02*
G01*
X159246800Y-107930100D01*
X159246800Y-107450100D01*
X159576800Y-107690100D01*
G37*
%TO.C,C7*%
X172718000Y-96558980D02*
X172718000Y-96277820D01*
X173738000Y-96558980D02*
X173738000Y-96277820D01*
%TO.C,U2*%
X167000000Y-106940000D02*
X165050000Y-106940000D01*
X167000000Y-106940000D02*
X168950000Y-106940000D01*
X167000000Y-112060000D02*
X165050000Y-112060000D01*
X167000000Y-112060000D02*
X168950000Y-112060000D01*
X164300000Y-107035000D02*
X164060000Y-106705000D01*
X164540000Y-106705000D01*
X164300000Y-107035000D01*
G36*
X164300000Y-107035000D02*
G01*
X164060000Y-106705000D01*
X164540000Y-106705000D01*
X164300000Y-107035000D01*
G37*
%TO.C,J1*%
X186060000Y-107714000D02*
X186060000Y-107014000D01*
X186650000Y-103614000D02*
X186650000Y-102464000D01*
X186650000Y-107714000D02*
X186060000Y-107714000D01*
X186650000Y-108864000D02*
X186650000Y-107714000D01*
X188960000Y-101704000D02*
X191560000Y-101704000D01*
X191560000Y-109624000D02*
X188960000Y-109624000D01*
X194460000Y-109624001D02*
X196120000Y-109624001D01*
X196120000Y-101704000D02*
X194460001Y-101704000D01*
X196120000Y-109624001D02*
X196120000Y-101704000D01*
%TO.C,R5*%
X157227495Y-92487261D02*
X157227501Y-92012749D01*
X158272499Y-92487251D02*
X158272505Y-92012739D01*
%TO.C,R10*%
X161864542Y-74331300D02*
X162339058Y-74331300D01*
X161864542Y-75376300D02*
X162339058Y-75376300D01*
%TO.C,R18*%
X154411008Y-84472031D02*
X153936492Y-84472031D01*
X154411008Y-85517031D02*
X153936492Y-85517031D01*
%TO.C,R9*%
X150239658Y-76361700D02*
X149765142Y-76361700D01*
X150239658Y-77406700D02*
X149765142Y-77406700D01*
%TO.C,U1*%
X174625000Y-81361600D02*
X172675000Y-81361600D01*
X174625000Y-81361600D02*
X176575000Y-81361600D01*
X174625000Y-86481600D02*
X172675000Y-86481600D01*
X174625000Y-86481600D02*
X176575000Y-86481600D01*
X171925000Y-81456599D02*
X171685000Y-81126600D01*
X172165000Y-81126600D01*
X171925000Y-81456599D01*
G36*
X171925000Y-81456599D02*
G01*
X171685000Y-81126600D01*
X172165000Y-81126600D01*
X171925000Y-81456599D01*
G37*
%TO.C,R3*%
X171974742Y-108062500D02*
X172449258Y-108062500D01*
X171974742Y-109107500D02*
X172449258Y-109107500D01*
%TO.C,SW1*%
X101633975Y-126986860D02*
X103883975Y-130883975D01*
X104473076Y-123904329D02*
X103174038Y-124654329D01*
X106674038Y-130716506D02*
X107973076Y-129966506D01*
X109513140Y-127633975D02*
X107263140Y-123736860D01*
%TO.C,C8*%
X183995604Y-101484814D02*
X183995600Y-101765980D01*
X185015600Y-101484820D02*
X185015596Y-101765986D01*
%TO.C,U6*%
X156000000Y-70440000D02*
X154050000Y-70439999D01*
X156000000Y-70440000D02*
X157950001Y-70440000D01*
X156000000Y-80560000D02*
X154049999Y-80560000D01*
X156000000Y-80560000D02*
X157950000Y-80560001D01*
X153540001Y-70165000D02*
X153300000Y-70495000D01*
X153060000Y-70164999D01*
X153540001Y-70165000D01*
G36*
X153540001Y-70165000D02*
G01*
X153300000Y-70495000D01*
X153060000Y-70164999D01*
X153540001Y-70165000D01*
G37*
D14*
%TO.C,G\u002A\u002A\u002A*%
G36*
X130980513Y-109472583D02*
G01*
X131260185Y-109567578D01*
X131512686Y-109739037D01*
X131616102Y-109835955D01*
X131783838Y-110037207D01*
X131910882Y-110269122D01*
X132007668Y-110554401D01*
X132066462Y-110815917D01*
X132126924Y-111303207D01*
X132116328Y-111750390D01*
X132036828Y-112151592D01*
X131890575Y-112500933D01*
X131679717Y-112792542D01*
X131406405Y-113020545D01*
X131222703Y-113120154D01*
X131016012Y-113181237D01*
X130761138Y-113209533D01*
X130493715Y-113205234D01*
X130249380Y-113168538D01*
X130090374Y-113113974D01*
X129807006Y-112926621D01*
X129583158Y-112673145D01*
X129417210Y-112350615D01*
X129307539Y-111956109D01*
X129261936Y-111619320D01*
X129241128Y-111255786D01*
X129884607Y-111255786D01*
X129897777Y-111518628D01*
X129927939Y-111760419D01*
X129959532Y-111903771D01*
X130066047Y-112159182D01*
X130219350Y-112361040D01*
X130405584Y-112502154D01*
X130610889Y-112575327D01*
X130821411Y-112573362D01*
X131023290Y-112489071D01*
X131050332Y-112470102D01*
X131151165Y-112376595D01*
X131265549Y-112244343D01*
X131313423Y-112180470D01*
X131374848Y-112089201D01*
X131415168Y-112007904D01*
X131438814Y-111913806D01*
X131450226Y-111784131D01*
X131453835Y-111596100D01*
X131454099Y-111458058D01*
X131438454Y-111073038D01*
X131389461Y-110765091D01*
X131304039Y-110522526D01*
X131179107Y-110333646D01*
X131149242Y-110301420D01*
X130947768Y-110152776D01*
X130728393Y-110088219D01*
X130505661Y-110103837D01*
X130294122Y-110195724D01*
X130108323Y-110359974D01*
X129962811Y-110592678D01*
X129949287Y-110623728D01*
X129910134Y-110780058D01*
X129888648Y-111000168D01*
X129884607Y-111255786D01*
X129241128Y-111255786D01*
X129237711Y-111196104D01*
X129246693Y-110848881D01*
X129289836Y-110565579D01*
X129362319Y-110346936D01*
X129522942Y-110047158D01*
X129713697Y-109819068D01*
X129953580Y-109641228D01*
X130021632Y-109603077D01*
X130202817Y-109514601D01*
X130354962Y-109466694D01*
X130525599Y-109447365D01*
X130650186Y-109444533D01*
X130980513Y-109472583D01*
G37*
G36*
X121268811Y-111133815D02*
G01*
X121415598Y-111427557D01*
X121548894Y-111695901D01*
X121662747Y-111926742D01*
X121751208Y-112107975D01*
X121808328Y-112227486D01*
X121827612Y-112270956D01*
X121855899Y-112325712D01*
X121879722Y-112308831D01*
X121899534Y-112216311D01*
X121915776Y-112044144D01*
X121928901Y-111788322D01*
X121939350Y-111444837D01*
X121943901Y-111228975D01*
X121950453Y-110922783D01*
X121957950Y-110646504D01*
X121965873Y-110414493D01*
X121973703Y-110241102D01*
X121980924Y-110140692D01*
X121983828Y-110123163D01*
X122036928Y-110084865D01*
X122167416Y-110073327D01*
X122250960Y-110076270D01*
X122497668Y-110090463D01*
X122497668Y-111919263D01*
X122497668Y-113748063D01*
X122228481Y-113762112D01*
X121959294Y-113776161D01*
X121829898Y-113569326D01*
X121769706Y-113464527D01*
X121676664Y-113291844D01*
X121559283Y-113067573D01*
X121426065Y-112808004D01*
X121285521Y-112529430D01*
X121255023Y-112468332D01*
X121121784Y-112203915D01*
X121001148Y-111970212D01*
X120899697Y-111779520D01*
X120824019Y-111644136D01*
X120780696Y-111576351D01*
X120774378Y-111570873D01*
X120763662Y-111614448D01*
X120753813Y-111738090D01*
X120745395Y-111928074D01*
X120738972Y-112170687D01*
X120735102Y-112452204D01*
X120734535Y-112540584D01*
X120731595Y-112840485D01*
X120726099Y-113114496D01*
X120718593Y-113346537D01*
X120709623Y-113520519D01*
X120699735Y-113620362D01*
X120697476Y-113630832D01*
X120663342Y-113705100D01*
X120595569Y-113743458D01*
X120465531Y-113761020D01*
X120448491Y-113762181D01*
X120284031Y-113758047D01*
X120196668Y-113720901D01*
X120192471Y-113715288D01*
X120183654Y-113656470D01*
X120175485Y-113516853D01*
X120168066Y-113309421D01*
X120161511Y-113047161D01*
X120155925Y-112743057D01*
X120151419Y-112410093D01*
X120148095Y-112061253D01*
X120146064Y-111709524D01*
X120145431Y-111367890D01*
X120146310Y-111049335D01*
X120148803Y-110766843D01*
X120153018Y-110533401D01*
X120159066Y-110361993D01*
X120164052Y-110289756D01*
X120185943Y-110067015D01*
X120460062Y-110067015D01*
X120734181Y-110067015D01*
X121268811Y-111133815D01*
G37*
G36*
X118661925Y-109957860D02*
G01*
X118740771Y-109972086D01*
X118911978Y-110014248D01*
X119063373Y-110062656D01*
X119129991Y-110090952D01*
X119338470Y-110238216D01*
X119541099Y-110451144D01*
X119714415Y-110703279D01*
X119773944Y-110816871D01*
X119828880Y-110935917D01*
X119867784Y-111036645D01*
X119893419Y-111138789D01*
X119908551Y-111262077D01*
X119915949Y-111426246D01*
X119918373Y-111651024D01*
X119918592Y-111848925D01*
X119918064Y-112125447D01*
X119914575Y-112327776D01*
X119905284Y-112475499D01*
X119887341Y-112588209D01*
X119857899Y-112685493D01*
X119814114Y-112786944D01*
X119768667Y-112880556D01*
X119560086Y-113221959D01*
X119311326Y-113478891D01*
X119021397Y-113652081D01*
X118689297Y-113742264D01*
X118584909Y-113753001D01*
X118396782Y-113751633D01*
X118212252Y-113728026D01*
X118136685Y-113708727D01*
X117789804Y-113549142D01*
X117507741Y-113322177D01*
X117291066Y-113028777D01*
X117140358Y-112669887D01*
X117056184Y-112246452D01*
X117047430Y-112085760D01*
X117696450Y-112085760D01*
X117760629Y-112398045D01*
X117831624Y-112575210D01*
X117988236Y-112827663D01*
X118173792Y-112998987D01*
X118380039Y-113086338D01*
X118598727Y-113086869D01*
X118821612Y-112997733D01*
X118900341Y-112943868D01*
X119063718Y-112768188D01*
X119185485Y-112533930D01*
X119265978Y-112258578D01*
X119305530Y-111959604D01*
X119304471Y-111654489D01*
X119263134Y-111360714D01*
X119181852Y-111095754D01*
X119060961Y-110877090D01*
X118900788Y-110722200D01*
X118857582Y-110696994D01*
X118732098Y-110656731D01*
X118565244Y-110632701D01*
X118489659Y-110629725D01*
X118344879Y-110637045D01*
X118237689Y-110670036D01*
X118129527Y-110745234D01*
X118044888Y-110820465D01*
X117926589Y-110940378D01*
X117850842Y-111055035D01*
X117797469Y-111201390D01*
X117764583Y-111333816D01*
X117698049Y-111736221D01*
X117696450Y-112085760D01*
X117047430Y-112085760D01*
X117037080Y-111895815D01*
X117067467Y-111443196D01*
X117157752Y-111038769D01*
X117302664Y-110688495D01*
X117496920Y-110398329D01*
X117735249Y-110174226D01*
X118012377Y-110022141D01*
X118323027Y-109948032D01*
X118661925Y-109957860D01*
G37*
G36*
X124226595Y-110038248D02*
G01*
X124419054Y-110061039D01*
X124568928Y-110103720D01*
X124693227Y-110171001D01*
X124808955Y-110267592D01*
X124923363Y-110387373D01*
X125118105Y-110657250D01*
X125257311Y-110978433D01*
X125343696Y-111360141D01*
X125379981Y-111811590D01*
X125381547Y-111940611D01*
X125352858Y-112370541D01*
X125269425Y-112753476D01*
X125135202Y-113079921D01*
X124954140Y-113340375D01*
X124730193Y-113525343D01*
X124719564Y-113531514D01*
X124592229Y-113597013D01*
X124466217Y-113640948D01*
X124313376Y-113669859D01*
X124105569Y-113690289D01*
X124006590Y-113697171D01*
X123769176Y-113713617D01*
X123534234Y-113731581D01*
X123338538Y-113748186D01*
X123269514Y-113754810D01*
X123095544Y-113763639D01*
X122993532Y-113744469D01*
X122958654Y-113717835D01*
X122940867Y-113649441D01*
X122923875Y-113493117D01*
X122908041Y-113254713D01*
X122893728Y-112940085D01*
X122881299Y-112555086D01*
X122877624Y-112411632D01*
X122868321Y-112047018D01*
X122858121Y-111684057D01*
X122847645Y-111342300D01*
X122837514Y-111041286D01*
X122828343Y-110800566D01*
X122823798Y-110700063D01*
X123482409Y-110700063D01*
X123497094Y-111755139D01*
X123502473Y-112068345D01*
X123509340Y-112356774D01*
X123517173Y-112604856D01*
X123525447Y-112797030D01*
X123533640Y-112917732D01*
X123537033Y-112943919D01*
X123562284Y-113077620D01*
X123929487Y-113060946D01*
X124146273Y-113044239D01*
X124295721Y-113013642D01*
X124403943Y-112963134D01*
X124428810Y-112945803D01*
X124553637Y-112819089D01*
X124641450Y-112646301D01*
X124695234Y-112415787D01*
X124717968Y-112115892D01*
X124715997Y-111824040D01*
X124704357Y-111559209D01*
X124686930Y-111366996D01*
X124660518Y-111226272D01*
X124621923Y-111115911D01*
X124602819Y-111076422D01*
X124496229Y-110904630D01*
X124374984Y-110792586D01*
X124217064Y-110729040D01*
X124000452Y-110702751D01*
X123865965Y-110700063D01*
X123482409Y-110700063D01*
X122823798Y-110700063D01*
X122822736Y-110676615D01*
X122815695Y-110442684D01*
X122819748Y-110258574D01*
X122834208Y-110141907D01*
X122844360Y-110115459D01*
X122881155Y-110088255D01*
X122957874Y-110067918D01*
X123087093Y-110053155D01*
X123281385Y-110042685D01*
X123553329Y-110035221D01*
X123645891Y-110033478D01*
X123974544Y-110030631D01*
X124226595Y-110038248D01*
G37*
G36*
X136587810Y-108524331D02*
G01*
X136681167Y-108545736D01*
X136765842Y-108591651D01*
X136867851Y-108666735D01*
X136985871Y-108778245D01*
X137105991Y-108925287D01*
X137209056Y-109080192D01*
X137275926Y-109215276D01*
X137290872Y-109278219D01*
X137251806Y-109352220D01*
X137145030Y-109429848D01*
X136994508Y-109494897D01*
X136951656Y-109507617D01*
X136832100Y-109535226D01*
X136753269Y-109527687D01*
X136678140Y-109472451D01*
X136597863Y-109387719D01*
X136430046Y-109232814D01*
X136275252Y-109160097D01*
X136112748Y-109164252D01*
X135955452Y-109223103D01*
X135770844Y-109338243D01*
X135674334Y-109465299D01*
X135659739Y-109607529D01*
X135714849Y-109729077D01*
X135843423Y-109821861D01*
X136051557Y-109888800D01*
X136337466Y-109932030D01*
X136547919Y-109957317D01*
X136742475Y-109987677D01*
X136887522Y-110017665D01*
X136917054Y-110025996D01*
X137120004Y-110132463D01*
X137310048Y-110307915D01*
X137464041Y-110528118D01*
X137526957Y-110664741D01*
X137598063Y-110903163D01*
X137614908Y-111119079D01*
X137578467Y-111353778D01*
X137546031Y-111472860D01*
X137425155Y-111727215D01*
X137230134Y-111955737D01*
X136980483Y-112137516D01*
X136878009Y-112188810D01*
X136693212Y-112246014D01*
X136460781Y-112283829D01*
X136216143Y-112299723D01*
X135994734Y-112291167D01*
X135849873Y-112262310D01*
X135690021Y-112171434D01*
X135523395Y-112017228D01*
X135372996Y-111825288D01*
X135261828Y-111621216D01*
X135252294Y-111597327D01*
X135204474Y-111462108D01*
X135192660Y-111382677D01*
X135215856Y-111328659D01*
X135242463Y-111299481D01*
X135330102Y-111240573D01*
X135465282Y-111175422D01*
X135605499Y-111122268D01*
X135708243Y-111099360D01*
X135708624Y-111099354D01*
X135748455Y-111136863D01*
X135809595Y-111232494D01*
X135839469Y-111288057D01*
X135960420Y-111457143D01*
X136118763Y-111586491D01*
X136286289Y-111655260D01*
X136344492Y-111661179D01*
X136486443Y-111631371D01*
X136653393Y-111555933D01*
X136804902Y-111456420D01*
X136890510Y-111370194D01*
X136952193Y-111218610D01*
X136956279Y-111050094D01*
X136903992Y-110904690D01*
X136875108Y-110869131D01*
X136773054Y-110806905D01*
X136610712Y-110748081D01*
X136421388Y-110702019D01*
X136238388Y-110678082D01*
X136190223Y-110676615D01*
X135870894Y-110637393D01*
X135587391Y-110526672D01*
X135351318Y-110354865D01*
X135174276Y-110132397D01*
X135067866Y-109869681D01*
X135041361Y-109644984D01*
X135086688Y-109347909D01*
X135216828Y-109067478D01*
X135311838Y-108939627D01*
X135497535Y-108758214D01*
X135703125Y-108636000D01*
X135951780Y-108562977D01*
X136261779Y-108529383D01*
X136457454Y-108521019D01*
X136587810Y-108524331D01*
G37*
G36*
X108182955Y-108578436D02*
G01*
X108335250Y-108610134D01*
X108526155Y-108656046D01*
X108632652Y-108683811D01*
X108833718Y-108734961D01*
X109009926Y-108774888D01*
X109135335Y-108797931D01*
X109171914Y-108801363D01*
X109289931Y-108830358D01*
X109449096Y-108905352D01*
X109620945Y-109009506D01*
X109777014Y-109125981D01*
X109868544Y-109213497D01*
X110014050Y-109406376D01*
X110111964Y-109614759D01*
X110179377Y-109875879D01*
X110184069Y-109900728D01*
X110229060Y-110308218D01*
X110218824Y-110718909D01*
X110157996Y-111118410D01*
X110051211Y-111492333D01*
X109903101Y-111826290D01*
X109718298Y-112105890D01*
X109501437Y-112316745D01*
X109381875Y-112392186D01*
X109245120Y-112432230D01*
X109047543Y-112451691D01*
X108819801Y-112450629D01*
X108592560Y-112429107D01*
X108406530Y-112390200D01*
X108241410Y-112345875D01*
X108037458Y-112296537D01*
X107896314Y-112265205D01*
X107729817Y-112224654D01*
X107594613Y-112182081D01*
X107527200Y-112150878D01*
X107507382Y-112135800D01*
X107492382Y-112116540D01*
X107483121Y-112083975D01*
X107480514Y-112028976D01*
X107485488Y-111942420D01*
X107498961Y-111815178D01*
X107521848Y-111638133D01*
X107542059Y-111494601D01*
X108198492Y-111494601D01*
X108201960Y-111608517D01*
X108233187Y-111671208D01*
X108316227Y-111710604D01*
X108406530Y-111736182D01*
X108702669Y-111791781D01*
X108950415Y-111788991D01*
X109138398Y-111728319D01*
X109178646Y-111701133D01*
X109297083Y-111572043D01*
X109394460Y-111382785D01*
X109474686Y-111122979D01*
X109541661Y-110782239D01*
X109553811Y-110703453D01*
X109591149Y-110381691D01*
X109593063Y-110131239D01*
X109556118Y-109935240D01*
X109476888Y-109776846D01*
X109351935Y-109639206D01*
X109333833Y-109623393D01*
X109202517Y-109537578D01*
X109020183Y-109450311D01*
X108822354Y-109375563D01*
X108644553Y-109327302D01*
X108554052Y-109316739D01*
X108539694Y-109318659D01*
X108526869Y-109331511D01*
X108513519Y-109365936D01*
X108497589Y-109432578D01*
X108477030Y-109542072D01*
X108449781Y-109705068D01*
X108413793Y-109932198D01*
X108367008Y-110234106D01*
X108327753Y-110489046D01*
X108285954Y-110769948D01*
X108249642Y-111031671D01*
X108221319Y-111254730D01*
X108203490Y-111419643D01*
X108198492Y-111494601D01*
X107542059Y-111494601D01*
X107555076Y-111402150D01*
X107599563Y-111098112D01*
X107656230Y-110716887D01*
X107704224Y-110395263D01*
X107750781Y-110082126D01*
X107795562Y-109778853D01*
X107835597Y-109505685D01*
X107867922Y-109282857D01*
X107889573Y-109130616D01*
X107890965Y-109120575D01*
X107925846Y-108883857D01*
X107956629Y-108725283D01*
X107988897Y-108629709D01*
X108028227Y-108581994D01*
X108080199Y-108566994D01*
X108095091Y-108566580D01*
X108182955Y-108578436D01*
G37*
G36*
X128098548Y-109821108D02*
G01*
X128212755Y-109837065D01*
X128301465Y-109866978D01*
X128387409Y-109914126D01*
X128392593Y-109917336D01*
X128595429Y-110083272D01*
X128787594Y-110313279D01*
X128923242Y-110535939D01*
X128982861Y-110702364D01*
X129032301Y-110936973D01*
X129070272Y-111217257D01*
X129095478Y-111520698D01*
X129106626Y-111824784D01*
X129102423Y-112107000D01*
X129081582Y-112344834D01*
X129042804Y-112515768D01*
X129037665Y-112528863D01*
X128974155Y-112679736D01*
X128916453Y-112814928D01*
X128816802Y-112970949D01*
X128661849Y-113134050D01*
X128482032Y-113277600D01*
X128307795Y-113374953D01*
X128256486Y-113392464D01*
X128085384Y-113430903D01*
X127871511Y-113467695D01*
X127633446Y-113500998D01*
X127389765Y-113528970D01*
X127159047Y-113549763D01*
X126959868Y-113561535D01*
X126810807Y-113562441D01*
X126730437Y-113550642D01*
X126722703Y-113544696D01*
X126711753Y-113485713D01*
X126697773Y-113348049D01*
X126681927Y-113146707D01*
X126665379Y-112896699D01*
X126649290Y-112613031D01*
X126646986Y-112568457D01*
X126628005Y-112203531D01*
X126606240Y-111796590D01*
X126583728Y-111384987D01*
X126562503Y-111006081D01*
X126550668Y-110800320D01*
X126542172Y-110645955D01*
X127168002Y-110645955D01*
X127177725Y-110790684D01*
X127181277Y-110829597D01*
X127192575Y-110979225D01*
X127205877Y-111198306D01*
X127219863Y-111462573D01*
X127233204Y-111747750D01*
X127239432Y-111895815D01*
X127252389Y-112163754D01*
X127268109Y-112405515D01*
X127285074Y-112602558D01*
X127301772Y-112736352D01*
X127311693Y-112780416D01*
X127339023Y-112838643D01*
X127381785Y-112868685D01*
X127463451Y-112875675D01*
X127607493Y-112864758D01*
X127668426Y-112858545D01*
X127854039Y-112829733D01*
X128021034Y-112787541D01*
X128119845Y-112747671D01*
X128246865Y-112651497D01*
X128354307Y-112536567D01*
X128393640Y-112475880D01*
X128420772Y-112406439D01*
X128437788Y-112310706D01*
X128446788Y-112171134D01*
X128449860Y-111970179D01*
X128449383Y-111739398D01*
X128439831Y-111380037D01*
X128412957Y-111100344D01*
X128364861Y-110887161D01*
X128291640Y-110727339D01*
X128189391Y-110607720D01*
X128092767Y-110537364D01*
X127928724Y-110475210D01*
X127714998Y-110443911D01*
X127491246Y-110445801D01*
X127297122Y-110483199D01*
X127279155Y-110489628D01*
X127211481Y-110520570D01*
X127176843Y-110564298D01*
X127168002Y-110645955D01*
X126542172Y-110645955D01*
X126535827Y-110530668D01*
X126524547Y-110295330D01*
X126517422Y-110109489D01*
X126515040Y-109988322D01*
X126517470Y-109947090D01*
X126582567Y-109923756D01*
X126721296Y-109898388D01*
X126913602Y-109873179D01*
X127139427Y-109850310D01*
X127378716Y-109831968D01*
X127611408Y-109820334D01*
X127702716Y-109817970D01*
X127936113Y-109815834D01*
X128098548Y-109821108D01*
G37*
G36*
X133835604Y-109012926D02*
G01*
X134050107Y-109035063D01*
X134217054Y-109078269D01*
X134267640Y-109103820D01*
X134526840Y-109326975D01*
X134727201Y-109612992D01*
X134757486Y-109673541D01*
X134825001Y-109827660D01*
X134844558Y-109922832D01*
X134811876Y-109983108D01*
X134722671Y-110032539D01*
X134691174Y-110045964D01*
X134516790Y-110102844D01*
X134378310Y-110099946D01*
X134246685Y-110030181D01*
X134109852Y-109904136D01*
X133913673Y-109739730D01*
X133720803Y-109662327D01*
X133515585Y-109667085D01*
X133423539Y-109691889D01*
X133200351Y-109813257D01*
X133015518Y-110010825D01*
X132881343Y-110270709D01*
X132862989Y-110324715D01*
X132821670Y-110470506D01*
X132802278Y-110595024D01*
X132803463Y-110731977D01*
X132823866Y-110915079D01*
X132835833Y-111000015D01*
X132916662Y-111389196D01*
X133035039Y-111693780D01*
X133192317Y-111915684D01*
X133389846Y-112056825D01*
X133624176Y-112118679D01*
X133825914Y-112116228D01*
X134008920Y-112059372D01*
X134201559Y-111937434D01*
X134285463Y-111869904D01*
X134383131Y-111769794D01*
X134424681Y-111661386D01*
X134431761Y-111543114D01*
X134416953Y-111399219D01*
X134362452Y-111322557D01*
X134253144Y-111304122D01*
X134080068Y-111333438D01*
X133939425Y-111365364D01*
X133859463Y-111373779D01*
X133809453Y-111356115D01*
X133758663Y-111309807D01*
X133755174Y-111306312D01*
X133711380Y-111219978D01*
X133686291Y-111088485D01*
X133680780Y-110944542D01*
X133695729Y-110820867D01*
X133732020Y-110750172D01*
X133740099Y-110745873D01*
X133824612Y-110724060D01*
X133970649Y-110695149D01*
X134156763Y-110662464D01*
X134361495Y-110629329D01*
X134563395Y-110599065D01*
X134741010Y-110574999D01*
X134872887Y-110560449D01*
X134937570Y-110558739D01*
X134940336Y-110559960D01*
X134955516Y-110614065D01*
X134977257Y-110741157D01*
X135002388Y-110920950D01*
X135022686Y-111087960D01*
X135053667Y-111351819D01*
X135088239Y-111634299D01*
X135120801Y-111890055D01*
X135133734Y-111987501D01*
X135163335Y-112232028D01*
X135170190Y-112400247D01*
X135148263Y-112508127D01*
X135091521Y-112571640D01*
X134993937Y-112606758D01*
X134893473Y-112623639D01*
X134745645Y-112638885D01*
X134657970Y-112628262D01*
X134598774Y-112584975D01*
X134574705Y-112555311D01*
X134498049Y-112453686D01*
X134221479Y-112620228D01*
X134054898Y-112713279D01*
X133919907Y-112763391D01*
X133772418Y-112783026D01*
X133637352Y-112785303D01*
X133390779Y-112767333D01*
X133184676Y-112709307D01*
X133102503Y-112672488D01*
X132871281Y-112536282D01*
X132689853Y-112370025D01*
X132535815Y-112149846D01*
X132439824Y-111966639D01*
X132317238Y-111644475D01*
X132231933Y-111280500D01*
X132186909Y-110903181D01*
X132185160Y-110540985D01*
X132229680Y-110222376D01*
X132248820Y-110151444D01*
X132402426Y-109796580D01*
X132628266Y-109488285D01*
X132913986Y-109240302D01*
X133212561Y-109079865D01*
X133386252Y-109034631D01*
X133604127Y-109012551D01*
X133835604Y-109012926D01*
G37*
G36*
X114540318Y-109707087D02*
G01*
X114726894Y-109724397D01*
X114877389Y-109746060D01*
X114967347Y-109768263D01*
X114980112Y-109775565D01*
X114999099Y-109831992D01*
X115028913Y-109965351D01*
X115066860Y-110159769D01*
X115110243Y-110399376D01*
X115156365Y-110668299D01*
X115202526Y-110950665D01*
X115246032Y-111230604D01*
X115284180Y-111492240D01*
X115314279Y-111719703D01*
X115322898Y-111792594D01*
X115353027Y-111969009D01*
X115391379Y-112056402D01*
X115434792Y-112053447D01*
X115480086Y-111958806D01*
X115504293Y-111868764D01*
X115534242Y-111749238D01*
X115582230Y-111570105D01*
X115643694Y-111347262D01*
X115714074Y-111096603D01*
X115788801Y-110834031D01*
X115863312Y-110575440D01*
X115933041Y-110336727D01*
X115993425Y-110133786D01*
X116039901Y-109982517D01*
X116067903Y-109898817D01*
X116073162Y-109887522D01*
X116142813Y-109868097D01*
X116275581Y-109866354D01*
X116445399Y-109878906D01*
X116626194Y-109902357D01*
X116791893Y-109933314D01*
X116916429Y-109968384D01*
X116973729Y-110004171D01*
X116973966Y-110004759D01*
X116979405Y-110072562D01*
X116977629Y-110215449D01*
X116969280Y-110415054D01*
X116955012Y-110653008D01*
X116947413Y-110759874D01*
X116926569Y-111051945D01*
X116902923Y-111402636D01*
X116878752Y-111776928D01*
X116856342Y-112139796D01*
X116845824Y-112317846D01*
X116828307Y-112608795D01*
X116810682Y-112881108D01*
X116794290Y-113115417D01*
X116780484Y-113292345D01*
X116771607Y-113384646D01*
X116747616Y-113583939D01*
X116527749Y-113583222D01*
X116381664Y-113574297D01*
X116269566Y-113552616D01*
X116242113Y-113540862D01*
X116219538Y-113514186D01*
X116205213Y-113459733D01*
X116199048Y-113365086D01*
X116200944Y-113217831D01*
X116210814Y-113005545D01*
X116228565Y-112715820D01*
X116235177Y-112615455D01*
X116256111Y-112311270D01*
X116277693Y-112015497D01*
X116298216Y-111750294D01*
X116315979Y-111537822D01*
X116327565Y-111415821D01*
X116339877Y-111232926D01*
X116335437Y-111096192D01*
X116316306Y-111019848D01*
X116284545Y-111018111D01*
X116272410Y-111035025D01*
X116251698Y-111095904D01*
X116216073Y-111225414D01*
X116171643Y-111400785D01*
X116148354Y-111497232D01*
X116045421Y-111916530D01*
X115936293Y-112336767D01*
X115828638Y-112729401D01*
X115730118Y-113065881D01*
X115707633Y-113138463D01*
X115650711Y-113309250D01*
X115604238Y-113409654D01*
X115554183Y-113459826D01*
X115486509Y-113479911D01*
X115468140Y-113482260D01*
X115319253Y-113484483D01*
X115179657Y-113469276D01*
X115095606Y-113447697D01*
X115044462Y-113406843D01*
X115011342Y-113323167D01*
X114981369Y-113173134D01*
X114977169Y-113148921D01*
X114918576Y-112787133D01*
X114860646Y-112389678D01*
X114807936Y-111990624D01*
X114765003Y-111624030D01*
X114741954Y-111390795D01*
X114717795Y-111153603D01*
X114693129Y-111000780D01*
X114665415Y-110922933D01*
X114632106Y-110910669D01*
X114615441Y-110923212D01*
X114604581Y-110976582D01*
X114590772Y-111108795D01*
X114575184Y-111305004D01*
X114558981Y-111550362D01*
X114543336Y-111830016D01*
X114541953Y-111857151D01*
X114525669Y-112161354D01*
X114508314Y-112453638D01*
X114491259Y-112713201D01*
X114475860Y-112919241D01*
X114464211Y-113044677D01*
X114432192Y-113326032D01*
X114162561Y-113340096D01*
X113892930Y-113354157D01*
X113892930Y-112954119D01*
X113897031Y-112737909D01*
X113908113Y-112467156D01*
X113924349Y-112180686D01*
X113938821Y-111978762D01*
X113959629Y-111709962D01*
X113983773Y-111385644D01*
X114008466Y-111043866D01*
X114030927Y-110722698D01*
X114034068Y-110676615D01*
X114053124Y-110414199D01*
X114072738Y-110175381D01*
X114091098Y-109980267D01*
X114106377Y-109848954D01*
X114112116Y-109814340D01*
X114140808Y-109678893D01*
X114540318Y-109707087D01*
G37*
G36*
X110712591Y-109128336D02*
G01*
X110741547Y-109129431D01*
X110900694Y-109145025D01*
X111056985Y-109184457D01*
X111179490Y-109237632D01*
X111236067Y-109290792D01*
X111241056Y-109381224D01*
X111219018Y-109489167D01*
X111197919Y-109584381D01*
X111170292Y-109750857D01*
X111139458Y-109966590D01*
X111108738Y-110209578D01*
X111103467Y-110254584D01*
X111066186Y-110572059D01*
X111025302Y-110911536D01*
X110982828Y-111257181D01*
X110940768Y-111593154D01*
X110901132Y-111903621D01*
X110865921Y-112172745D01*
X110837148Y-112384683D01*
X110816817Y-112523604D01*
X110813031Y-112546560D01*
X110802816Y-112661334D01*
X110823705Y-112694256D01*
X110871360Y-112650294D01*
X110941440Y-112534422D01*
X111029601Y-112351614D01*
X111075060Y-112246350D01*
X111157116Y-112053639D01*
X111231141Y-111885462D01*
X111286197Y-111766416D01*
X111303921Y-111731694D01*
X111342384Y-111652482D01*
X111395616Y-111533922D01*
X112085214Y-111533922D01*
X112086210Y-111565356D01*
X112149156Y-111598818D01*
X112265100Y-111617997D01*
X112289637Y-111619137D01*
X112441875Y-111632757D01*
X112574370Y-111659379D01*
X112579947Y-111661101D01*
X112714608Y-111687351D01*
X112777950Y-111656346D01*
X112783194Y-111609414D01*
X112772313Y-111538653D01*
X112748823Y-111397362D01*
X112716408Y-111207360D01*
X112685826Y-111031020D01*
X112632360Y-110764188D01*
X112581048Y-110587020D01*
X112532424Y-110500602D01*
X112487022Y-110506017D01*
X112456692Y-110567208D01*
X112426095Y-110645754D01*
X112367844Y-110786988D01*
X112291641Y-110967582D01*
X112241517Y-111084711D01*
X112165947Y-111271632D01*
X112111611Y-111428292D01*
X112085214Y-111533922D01*
X111395616Y-111533922D01*
X111407370Y-111507747D01*
X111489555Y-111318633D01*
X111572970Y-111122094D01*
X111667323Y-110898450D01*
X111757209Y-110687460D01*
X111831513Y-110515098D01*
X111873963Y-110418708D01*
X111930789Y-110290377D01*
X112010571Y-110107386D01*
X112099548Y-109901376D01*
X112136472Y-109815309D01*
X112314468Y-109399476D01*
X112569369Y-109429437D01*
X112728117Y-109454028D01*
X112856865Y-109484349D01*
X112904298Y-109502223D01*
X112946919Y-109555170D01*
X112994979Y-109675665D01*
X113051004Y-109871616D01*
X113117508Y-110150919D01*
X113132040Y-110216343D01*
X113187957Y-110470329D01*
X113258400Y-110790063D01*
X113337669Y-111149709D01*
X113420073Y-111523440D01*
X113499921Y-111885420D01*
X113516004Y-111958311D01*
X113583549Y-112270164D01*
X113643567Y-112558227D01*
X113693136Y-112807602D01*
X113729349Y-113003388D01*
X113749284Y-113130693D01*
X113752254Y-113165787D01*
X113750445Y-113235273D01*
X113732610Y-113275737D01*
X113680128Y-113292066D01*
X113574381Y-113289141D01*
X113396751Y-113271846D01*
X113361726Y-113268207D01*
X113232765Y-113240928D01*
X113158149Y-113176158D01*
X113120004Y-113100243D01*
X113073813Y-112958034D01*
X113033934Y-112784025D01*
X113024880Y-112730268D01*
X112994094Y-112582332D01*
X112954806Y-112466367D01*
X112938354Y-112436868D01*
X112869576Y-112397118D01*
X112731597Y-112352313D01*
X112548453Y-112307556D01*
X112344174Y-112267956D01*
X112142799Y-112238613D01*
X111968355Y-112224633D01*
X111936552Y-112224126D01*
X111846432Y-112232697D01*
X111783006Y-112272435D01*
X111723921Y-112364247D01*
X111673380Y-112470246D01*
X111605217Y-112625403D01*
X111550272Y-112760211D01*
X111528930Y-112819539D01*
X111464604Y-112917735D01*
X111345753Y-112955997D01*
X111162288Y-112936995D01*
X111119955Y-112927290D01*
X111000744Y-112898772D01*
X110900694Y-112877208D01*
X110788461Y-112856661D01*
X110632701Y-112831194D01*
X110512719Y-112812246D01*
X110369514Y-112783842D01*
X110260977Y-112751937D01*
X110235804Y-112740171D01*
X110219178Y-112718385D01*
X110208750Y-112672218D01*
X110205177Y-112594290D01*
X110209128Y-112477227D01*
X110221266Y-112313652D01*
X110242257Y-112096188D01*
X110272761Y-111817461D01*
X110313447Y-111470094D01*
X110364978Y-111046710D01*
X110428020Y-110539935D01*
X110449116Y-110371815D01*
X110495778Y-109999035D01*
X110532444Y-109708920D01*
X110561532Y-109491180D01*
X110585463Y-109335525D01*
X110606664Y-109231665D01*
X110627556Y-109169307D01*
X110650557Y-109138161D01*
X110678097Y-109127934D01*
X110712591Y-109128336D01*
G37*
G36*
X126606027Y-88955022D02*
G01*
X127425066Y-89066472D01*
X128210022Y-89256228D01*
X128973810Y-89527365D01*
X129679596Y-89856888D01*
X129945354Y-89992164D01*
X130146264Y-90086289D01*
X130298385Y-90145557D01*
X130417770Y-90176253D01*
X130516560Y-90184677D01*
X130799739Y-90194292D01*
X131108880Y-90220908D01*
X131424267Y-90261195D01*
X131726181Y-90311817D01*
X131994903Y-90369438D01*
X132210714Y-90430722D01*
X132353895Y-90492336D01*
X132360693Y-90496578D01*
X132490158Y-90632916D01*
X132596217Y-90859761D01*
X132678792Y-91176780D01*
X132737793Y-91583643D01*
X132773139Y-92080011D01*
X132774486Y-92112159D01*
X132784749Y-92436093D01*
X132785133Y-92693712D01*
X132774408Y-92912085D01*
X132751359Y-93118278D01*
X132720489Y-93307914D01*
X132684543Y-93585588D01*
X132663780Y-93915711D01*
X132657954Y-94270425D01*
X132666822Y-94621881D01*
X132690141Y-94942227D01*
X132727665Y-95203614D01*
X132737475Y-95249046D01*
X132771588Y-95394783D01*
X132818496Y-95594739D01*
X132869496Y-95811834D01*
X132883146Y-95869875D01*
X132992946Y-96286842D01*
X133139271Y-96757116D01*
X133324533Y-97287582D01*
X133551150Y-97885131D01*
X133821537Y-98556645D01*
X133848939Y-98622969D01*
X133917522Y-98819790D01*
X133950567Y-99008502D01*
X133946175Y-99207639D01*
X133902441Y-99435738D01*
X133817469Y-99711336D01*
X133706772Y-100008615D01*
X133590915Y-100289790D01*
X133446468Y-100616343D01*
X133280019Y-100975347D01*
X133098171Y-101353872D01*
X132907512Y-101738994D01*
X132714645Y-102117780D01*
X132526158Y-102477306D01*
X132348651Y-102804639D01*
X132188715Y-103086855D01*
X132052950Y-103311024D01*
X131947947Y-103464219D01*
X131936577Y-103478646D01*
X131890320Y-103537770D01*
X131805522Y-103647570D01*
X131701182Y-103783446D01*
X131603193Y-103909011D01*
X131512416Y-104016306D01*
X131418258Y-104112978D01*
X131310123Y-104206668D01*
X131177418Y-104305023D01*
X131009547Y-104415687D01*
X130795914Y-104546307D01*
X130525926Y-104704527D01*
X130188987Y-104897991D01*
X130033785Y-104986560D01*
X129661218Y-105194454D01*
X129303702Y-105385323D01*
X128972928Y-105553491D01*
X128680581Y-105693291D01*
X128438346Y-105799053D01*
X128257914Y-105865101D01*
X128186850Y-105882864D01*
X128056308Y-105894606D01*
X127861143Y-105899388D01*
X127630287Y-105896937D01*
X127444809Y-105889869D01*
X127140678Y-105867069D01*
X126913962Y-105834306D01*
X126772377Y-105792717D01*
X126764787Y-105788952D01*
X126688473Y-105732078D01*
X126561687Y-105618423D01*
X126397305Y-105460362D01*
X126208209Y-105270261D01*
X126014511Y-105068187D01*
X125791152Y-104831088D01*
X125560149Y-104586174D01*
X125340834Y-104353911D01*
X125152527Y-104154771D01*
X125047065Y-104043465D01*
X124879368Y-103866507D01*
X124715202Y-103692915D01*
X124577601Y-103547064D01*
X124513281Y-103478646D01*
X124337427Y-103291077D01*
X124366713Y-102447015D01*
X124379658Y-102122436D01*
X124396182Y-101858208D01*
X124420554Y-101630739D01*
X124457040Y-101416425D01*
X124509912Y-101191671D01*
X124583436Y-100932879D01*
X124681881Y-100616448D01*
X124718763Y-100500984D01*
X124806882Y-100221831D01*
X124875774Y-99987546D01*
X124928118Y-99779616D01*
X124955559Y-99636948D01*
X129182685Y-99636948D01*
X129198738Y-99691608D01*
X129248079Y-99703815D01*
X129326481Y-99679083D01*
X129443607Y-99616812D01*
X129494265Y-99584574D01*
X129764814Y-99379851D01*
X130066953Y-99111369D01*
X130384680Y-98796180D01*
X130701996Y-98451345D01*
X131002911Y-98093919D01*
X131271423Y-97740957D01*
X131403492Y-97548846D01*
X131585661Y-97267647D01*
X131716812Y-97054143D01*
X131800572Y-96899823D01*
X131840583Y-96796173D01*
X131840478Y-96734676D01*
X131803890Y-96706821D01*
X131764728Y-96702708D01*
X131700432Y-96736236D01*
X131611539Y-96840966D01*
X131493183Y-97023120D01*
X131430066Y-97130175D01*
X131025273Y-97760196D01*
X130574751Y-98322606D01*
X130407393Y-98503191D01*
X130196253Y-98714805D01*
X129963732Y-98934417D01*
X129730674Y-99143382D01*
X129517935Y-99323052D01*
X129346362Y-99454788D01*
X129332223Y-99464640D01*
X129229350Y-99555126D01*
X129182685Y-99636948D01*
X124955559Y-99636948D01*
X124966602Y-99579534D01*
X124993905Y-99368796D01*
X125012706Y-99128889D01*
X125025693Y-98841306D01*
X125035545Y-98487540D01*
X125040051Y-98283966D01*
X125043777Y-97351869D01*
X125014224Y-96488748D01*
X124951737Y-95701569D01*
X124884975Y-95175219D01*
X124849098Y-94932933D01*
X124813182Y-94684740D01*
X124783131Y-94471674D01*
X124774011Y-94404984D01*
X124709193Y-94050747D01*
X124609926Y-93741297D01*
X124461087Y-93434823D01*
X124363188Y-93269376D01*
X124051101Y-92814336D01*
X123718956Y-92429442D01*
X123450639Y-92177601D01*
X123268704Y-92029185D01*
X123143538Y-91947687D01*
X123069027Y-91930446D01*
X123039051Y-91974807D01*
X123037809Y-91998315D01*
X123072504Y-92067459D01*
X123163551Y-92172948D01*
X123292743Y-92294229D01*
X123321201Y-92318277D01*
X123484263Y-92468871D01*
X123667392Y-92661414D01*
X123837489Y-92860587D01*
X123878655Y-92913231D01*
X124018740Y-93108813D01*
X124151724Y-93315624D01*
X124268469Y-93516789D01*
X124359834Y-93695427D01*
X124416684Y-93834666D01*
X124429881Y-93917628D01*
X124426752Y-93925551D01*
X124373523Y-93941052D01*
X124241961Y-93957795D01*
X124047474Y-93974439D01*
X123805482Y-93989646D01*
X123555861Y-94001154D01*
X123272496Y-94014876D01*
X123011640Y-94032654D01*
X122791899Y-94052820D01*
X122631870Y-94073715D01*
X122557713Y-94090422D01*
X122398965Y-94156893D01*
X122217213Y-94245222D01*
X122031702Y-94344399D01*
X121861674Y-94443411D01*
X121726374Y-94531245D01*
X121645047Y-94596891D01*
X121630161Y-94621227D01*
X121649424Y-94671024D01*
X121713333Y-94679151D01*
X121831071Y-94643115D01*
X122011818Y-94560441D01*
X122185125Y-94471176D01*
X122366715Y-94377264D01*
X122508879Y-94313826D01*
X122640906Y-94272999D01*
X122792091Y-94246926D01*
X122991729Y-94227738D01*
X123130716Y-94217424D01*
X123402138Y-94201626D01*
X123692337Y-94190610D01*
X123958056Y-94185774D01*
X124086480Y-94186404D01*
X124502982Y-94193970D01*
X124563162Y-94428432D01*
X124590843Y-94565022D01*
X124624572Y-94776513D01*
X124661979Y-95044407D01*
X124700679Y-95350197D01*
X124738299Y-95675388D01*
X124772457Y-96001470D01*
X124792146Y-96210339D01*
X124824225Y-96655302D01*
X124844391Y-97126002D01*
X124853091Y-97608045D01*
X124850778Y-98087025D01*
X124837896Y-98548548D01*
X124814895Y-98978211D01*
X124782231Y-99361614D01*
X124740348Y-99684357D01*
X124689696Y-99932040D01*
X124674264Y-99985170D01*
X124532112Y-100440516D01*
X124418337Y-100825134D01*
X124329375Y-101156469D01*
X124261662Y-101451966D01*
X124211631Y-101729073D01*
X124175718Y-102005241D01*
X124150359Y-102297909D01*
X124131984Y-102624531D01*
X124131138Y-102643140D01*
X124101129Y-103308189D01*
X123697983Y-103450806D01*
X123322620Y-103575759D01*
X122962032Y-103677558D01*
X122601717Y-103757958D01*
X122227167Y-103818717D01*
X121823871Y-103861587D01*
X121377321Y-103888326D01*
X120873015Y-103900689D01*
X120296439Y-103900428D01*
X120012378Y-103896705D01*
X119675832Y-103892616D01*
X119357814Y-103891284D01*
X119074395Y-103892589D01*
X118841646Y-103896393D01*
X118675635Y-103902567D01*
X118608963Y-103908069D01*
X118514823Y-103925412D01*
X118423497Y-103957092D01*
X118320441Y-104012142D01*
X118191117Y-104099601D01*
X118020975Y-104228505D01*
X117795474Y-104407890D01*
X117764901Y-104432514D01*
X117560238Y-104598096D01*
X117381726Y-104743677D01*
X117241953Y-104858898D01*
X117153492Y-104933412D01*
X117128499Y-104956215D01*
X117066513Y-105011703D01*
X116946819Y-105102186D01*
X116789139Y-105214332D01*
X116613195Y-105334809D01*
X116438703Y-105450288D01*
X116285382Y-105547443D01*
X116172957Y-105612939D01*
X116126676Y-105633411D01*
X116030871Y-105643302D01*
X115855365Y-105652146D01*
X115614234Y-105659826D01*
X115321560Y-105666216D01*
X114991419Y-105671190D01*
X114637887Y-105674622D01*
X114275049Y-105676395D01*
X113916975Y-105676377D01*
X113577750Y-105674451D01*
X113271450Y-105670488D01*
X113012154Y-105664368D01*
X112931640Y-105661557D01*
X112611453Y-105646953D01*
X112371036Y-105630441D01*
X112196370Y-105610380D01*
X112073439Y-105585126D01*
X111988227Y-105553035D01*
X111983010Y-105550329D01*
X111886962Y-105484728D01*
X111751149Y-105372876D01*
X111589953Y-105228840D01*
X111417762Y-105066678D01*
X111248958Y-104900451D01*
X111097923Y-104744226D01*
X110979042Y-104612064D01*
X110906700Y-104518026D01*
X110891430Y-104483169D01*
X110935776Y-104425413D01*
X111069189Y-104349963D01*
X111293004Y-104256063D01*
X111302130Y-104252571D01*
X111612876Y-104135898D01*
X111862629Y-104049381D01*
X112077213Y-103987701D01*
X112282452Y-103945548D01*
X112504173Y-103917603D01*
X112768200Y-103898556D01*
X113096715Y-103883235D01*
X113918286Y-103849326D01*
X114354525Y-103597557D01*
X114790767Y-103345788D01*
X115164918Y-103472085D01*
X115341114Y-103526820D01*
X115484364Y-103562553D01*
X115571082Y-103573713D01*
X115583508Y-103570914D01*
X115605939Y-103513401D01*
X115621914Y-103389144D01*
X115627947Y-103226427D01*
X115632183Y-103049655D01*
X115650117Y-102938010D01*
X115689582Y-102863028D01*
X115742640Y-102809682D01*
X115955562Y-102655503D01*
X116143134Y-102588507D01*
X116312025Y-102607728D01*
X116461824Y-102705501D01*
X116564313Y-102772302D01*
X116631621Y-102753009D01*
X116659158Y-102649398D01*
X116659578Y-102628734D01*
X116691456Y-102460929D01*
X116795130Y-102328842D01*
X116940630Y-102236154D01*
X117088023Y-102168138D01*
X117191211Y-102152574D01*
X117285039Y-102195012D01*
X117404355Y-102300993D01*
X117415368Y-102311724D01*
X117522510Y-102401967D01*
X117608547Y-102449142D01*
X117640107Y-102449616D01*
X117681579Y-102388113D01*
X117726819Y-102269589D01*
X117744072Y-102208266D01*
X117826686Y-102012060D01*
X117956046Y-101896695D01*
X118124118Y-101860863D01*
X118227879Y-101884356D01*
X118323666Y-101967144D01*
X118383315Y-102046089D01*
X118492323Y-102188415D01*
X118572843Y-102248613D01*
X118638123Y-102228546D01*
X118701405Y-102130080D01*
X118718547Y-102093246D01*
X118774941Y-101976396D01*
X118833786Y-101891757D01*
X118910436Y-101834259D01*
X119020245Y-101798823D01*
X119178561Y-101780373D01*
X119400741Y-101773833D01*
X119684130Y-101774028D01*
X120012882Y-101777937D01*
X120385566Y-101785635D01*
X120756018Y-101796000D01*
X121073217Y-101807706D01*
X121322433Y-101817285D01*
X121542084Y-101823459D01*
X121713264Y-101825859D01*
X121817064Y-101824131D01*
X121835217Y-101822256D01*
X121905558Y-101783571D01*
X121901406Y-101726505D01*
X121832739Y-101673411D01*
X121759116Y-101651769D01*
X121573374Y-101628990D01*
X121312560Y-101608980D01*
X120995361Y-101592210D01*
X120640464Y-101579151D01*
X120266550Y-101570268D01*
X119892306Y-101566029D01*
X119536419Y-101566905D01*
X119217573Y-101573364D01*
X119004192Y-101582718D01*
X118562358Y-101616762D01*
X118162356Y-101667447D01*
X117786609Y-101740086D01*
X117417537Y-101839989D01*
X117037566Y-101972466D01*
X116629116Y-102142827D01*
X116174616Y-102356385D01*
X115769910Y-102559914D01*
X115597257Y-102649656D01*
X115434219Y-102737220D01*
X115266777Y-102830775D01*
X115080900Y-102938496D01*
X114862569Y-103068558D01*
X114597762Y-103229133D01*
X114272451Y-103428390D01*
X114139962Y-103509855D01*
X113847732Y-103689663D01*
X113105814Y-103689663D01*
X112822581Y-103690473D01*
X112609593Y-103694991D01*
X112443315Y-103706349D01*
X112300209Y-103727676D01*
X112156734Y-103762101D01*
X111989358Y-103812756D01*
X111856983Y-103855737D01*
X111613149Y-103939275D01*
X111365346Y-104030286D01*
X111149076Y-104115468D01*
X111044124Y-104160537D01*
X110885466Y-104229225D01*
X110757195Y-104278839D01*
X110685744Y-104299194D01*
X110683878Y-104299263D01*
X110615727Y-104269638D01*
X110490660Y-104187510D01*
X110321577Y-104062998D01*
X110121372Y-103906224D01*
X109902942Y-103727310D01*
X109679187Y-103536372D01*
X109463004Y-103343535D01*
X109445796Y-103327755D01*
X109231599Y-103120608D01*
X109008540Y-102886824D01*
X108784653Y-102636783D01*
X108567981Y-102380853D01*
X108366555Y-102129414D01*
X108188418Y-101892840D01*
X108041607Y-101681508D01*
X107934159Y-101505795D01*
X107874111Y-101376072D01*
X107869500Y-101302716D01*
X107873337Y-101297916D01*
X107937117Y-101272551D01*
X108067299Y-101242590D01*
X108237096Y-101214081D01*
X108257130Y-101211279D01*
X108505575Y-101165799D01*
X108678012Y-101102175D01*
X108791922Y-101009619D01*
X108830133Y-100940259D01*
X115216092Y-100940259D01*
X115265139Y-100996026D01*
X115348578Y-101016801D01*
X115428336Y-101005161D01*
X115576536Y-100973556D01*
X115771215Y-100926969D01*
X115967133Y-100876578D01*
X116457528Y-100740357D01*
X116869737Y-100610868D01*
X117218394Y-100481403D01*
X117518124Y-100345248D01*
X117783564Y-100195689D01*
X118029342Y-100026018D01*
X118270089Y-99829518D01*
X118292631Y-99809742D01*
X118490472Y-99639888D01*
X118645950Y-99524574D01*
X118784289Y-99453321D01*
X118930716Y-99415650D01*
X119110455Y-99401082D01*
X119281467Y-99399015D01*
X119502219Y-99401868D01*
X119662599Y-99414882D01*
X119795970Y-99444762D01*
X119935680Y-99498201D01*
X120059268Y-99555189D01*
X120230184Y-99635709D01*
X120378021Y-99703935D01*
X120473973Y-99746598D01*
X120481299Y-99749643D01*
X120575586Y-99788082D01*
X120719811Y-99846831D01*
X120832992Y-99892914D01*
X121141992Y-100012533D01*
X121388889Y-100095051D01*
X121567386Y-100138716D01*
X121671192Y-100141764D01*
X121689498Y-100132161D01*
X121721076Y-100054893D01*
X121661922Y-99981093D01*
X121515090Y-99913896D01*
X121460208Y-99897120D01*
X121325229Y-99854550D01*
X121141077Y-99790548D01*
X120927474Y-99712662D01*
X120704133Y-99628440D01*
X120490779Y-99545433D01*
X120307128Y-99471186D01*
X120172902Y-99413250D01*
X120108363Y-99379614D01*
X119955120Y-99299919D01*
X119736108Y-99239133D01*
X119478354Y-99202542D01*
X119208885Y-99195432D01*
X119174547Y-99196941D01*
X118992243Y-99209823D01*
X118848216Y-99233136D01*
X118721217Y-99276873D01*
X118590015Y-99351033D01*
X118433361Y-99465612D01*
X118230015Y-99630609D01*
X118199649Y-99655779D01*
X118013742Y-99802359D01*
X117813237Y-99948456D01*
X117638238Y-100064982D01*
X117621255Y-100075356D01*
X117417264Y-100183098D01*
X117157122Y-100298994D01*
X116875839Y-100409169D01*
X116608419Y-100499751D01*
X116425116Y-100549434D01*
X116204520Y-100601238D01*
X115969419Y-100660248D01*
X115738686Y-100721271D01*
X115531185Y-100779102D01*
X115365786Y-100828545D01*
X115261359Y-100864392D01*
X115235793Y-100877238D01*
X115216092Y-100940259D01*
X108830133Y-100940259D01*
X108864798Y-100877334D01*
X108882114Y-100825494D01*
X108912192Y-100701054D01*
X108906978Y-100603587D01*
X108860337Y-100489521D01*
X108825438Y-100423458D01*
X108760203Y-100298457D01*
X108738060Y-100227696D01*
X108756693Y-100183356D01*
X108802356Y-100146030D01*
X108905967Y-100106406D01*
X109090563Y-100083066D01*
X109318170Y-100075368D01*
X109516239Y-100072188D01*
X109683945Y-100066743D01*
X109795161Y-100059996D01*
X109818990Y-100056954D01*
X109991970Y-99977310D01*
X110169441Y-99806046D01*
X110349744Y-99545127D01*
X110512677Y-99236097D01*
X110573094Y-99077985D01*
X110618667Y-98901591D01*
X110633043Y-98811108D01*
X112563561Y-98811108D01*
X112569465Y-98880336D01*
X112570926Y-98881995D01*
X112642098Y-98903931D01*
X112716540Y-98839038D01*
X112788168Y-98693811D01*
X112811421Y-98625294D01*
X112876674Y-98442981D01*
X112959381Y-98274054D01*
X113070717Y-98102784D01*
X113221860Y-97913442D01*
X113423979Y-97690302D01*
X113620530Y-97486422D01*
X113839191Y-97268772D01*
X114013458Y-97113732D01*
X114160803Y-97013424D01*
X114298698Y-96959973D01*
X114444612Y-96945498D01*
X114616020Y-96962130D01*
X114736344Y-96983373D01*
X114921720Y-97003530D01*
X115064133Y-96974583D01*
X115181817Y-96884940D01*
X115293000Y-96723015D01*
X115365609Y-96583404D01*
X115479474Y-96321348D01*
X115501554Y-96254922D01*
X116612685Y-96254922D01*
X116656404Y-96315936D01*
X116777088Y-96357297D01*
X116959035Y-96373752D01*
X116968134Y-96373821D01*
X117089115Y-96392247D01*
X117254376Y-96439326D01*
X117390165Y-96489711D01*
X117536832Y-96544380D01*
X117677733Y-96579072D01*
X117841941Y-96598149D01*
X118058538Y-96605967D01*
X118171854Y-96606942D01*
X118394538Y-96606705D01*
X118539846Y-96601911D01*
X118624182Y-96589566D01*
X118663938Y-96566691D01*
X118675515Y-96530298D01*
X118675947Y-96515139D01*
X118669758Y-96473253D01*
X118640127Y-96446109D01*
X118570449Y-96430530D01*
X118444119Y-96423351D01*
X118244538Y-96421398D01*
X118184913Y-96421356D01*
X117943353Y-96417981D01*
X117767025Y-96405009D01*
X117627543Y-96378159D01*
X117496503Y-96333156D01*
X117440277Y-96309198D01*
X117206994Y-96221124D01*
X116992827Y-96167862D01*
X116813016Y-96150411D01*
X116682804Y-96169773D01*
X116617431Y-96226944D01*
X116612685Y-96254922D01*
X115501554Y-96254922D01*
X115562454Y-96071703D01*
X115611984Y-95849307D01*
X115625502Y-95669007D01*
X115600443Y-95545644D01*
X115552875Y-95498649D01*
X115470825Y-95502714D01*
X115418718Y-95591181D01*
X115395474Y-95766345D01*
X115393971Y-95835201D01*
X115377741Y-96003603D01*
X115324293Y-96184086D01*
X115224390Y-96407313D01*
X115217406Y-96421356D01*
X115041792Y-96773046D01*
X114643209Y-96775728D01*
X114395061Y-96782154D01*
X114214134Y-96802686D01*
X114074085Y-96845049D01*
X113948571Y-96916971D01*
X113822592Y-97016481D01*
X113664591Y-97162794D01*
X113479524Y-97352328D01*
X113284938Y-97565112D01*
X113098374Y-97781172D01*
X112937376Y-97980540D01*
X112819491Y-98143239D01*
X112787835Y-98194464D01*
X112710078Y-98350464D01*
X112641618Y-98521611D01*
X112590195Y-98683347D01*
X112563561Y-98811108D01*
X110633043Y-98811108D01*
X110645514Y-98732631D01*
X110649759Y-98596815D01*
X110627517Y-98519856D01*
X110621499Y-98514879D01*
X110564991Y-98511558D01*
X110510361Y-98579430D01*
X110453445Y-98726169D01*
X110398503Y-98925246D01*
X110288382Y-99268731D01*
X110142474Y-99544620D01*
X110007747Y-99715539D01*
X109951062Y-99772752D01*
X109893117Y-99809922D01*
X109813212Y-99831363D01*
X109690653Y-99841398D01*
X109504749Y-99844335D01*
X109389432Y-99844494D01*
X109158411Y-99846690D01*
X108998529Y-99855705D01*
X108887199Y-99875178D01*
X108801831Y-99908748D01*
X108734388Y-99950001D01*
X108590307Y-100060785D01*
X108522891Y-100159809D01*
X108523983Y-100275303D01*
X108585417Y-100435491D01*
X108590712Y-100446861D01*
X108664704Y-100656702D01*
X108663621Y-100813701D01*
X108586824Y-100922064D01*
X108512634Y-100962243D01*
X108387453Y-100994550D01*
X108211062Y-101020398D01*
X108019923Y-101036610D01*
X107850501Y-101040015D01*
X107744877Y-101029038D01*
X107679786Y-100971219D01*
X107602734Y-100840236D01*
X107519691Y-100654980D01*
X107436624Y-100434336D01*
X107359497Y-100197201D01*
X107294280Y-99962460D01*
X107246934Y-99749007D01*
X107223432Y-99575730D01*
X107229735Y-99461523D01*
X107241915Y-99436638D01*
X107300892Y-99390840D01*
X107429289Y-99306936D01*
X107614614Y-99192495D01*
X107844378Y-99055092D01*
X108106089Y-98902296D01*
X108387258Y-98741673D01*
X108406530Y-98730792D01*
X108705759Y-98559771D01*
X109048854Y-98359947D01*
X109423293Y-98138925D01*
X109816545Y-97904319D01*
X110216088Y-97663737D01*
X110609394Y-97424784D01*
X110983938Y-97195077D01*
X111327192Y-96982221D01*
X111626628Y-96793827D01*
X111869724Y-96637503D01*
X112040685Y-96523125D01*
X112223871Y-96395004D01*
X112438092Y-96243450D01*
X112669521Y-96078441D01*
X112904322Y-95909955D01*
X113128674Y-95747973D01*
X113328741Y-95602467D01*
X113490699Y-95483418D01*
X113600712Y-95400807D01*
X113641551Y-95368098D01*
X113715594Y-95307894D01*
X113821389Y-95229120D01*
X113826303Y-95225601D01*
X114171453Y-94972440D01*
X114449700Y-94751472D01*
X114675837Y-94548837D01*
X114864663Y-94350666D01*
X114996018Y-94186731D01*
X116143761Y-94186731D01*
X116181990Y-94303593D01*
X116296332Y-94366146D01*
X116486265Y-94374144D01*
X116530944Y-94369464D01*
X116648088Y-94365765D01*
X116744616Y-94398954D01*
X116857149Y-94483833D01*
X116893176Y-94515858D01*
X117023373Y-94623192D01*
X117141444Y-94688391D01*
X117262227Y-94708962D01*
X117400554Y-94682409D01*
X117571254Y-94606236D01*
X117789165Y-94477944D01*
X118023081Y-94325730D01*
X118218813Y-94205898D01*
X118362870Y-94143594D01*
X118471569Y-94131762D01*
X118535067Y-94142724D01*
X118577172Y-94170339D01*
X118605690Y-94233072D01*
X118628427Y-94349403D01*
X118653186Y-94537794D01*
X118657299Y-94571298D01*
X118687437Y-94784664D01*
X118722435Y-94983402D01*
X118756155Y-95133915D01*
X118766283Y-95168259D01*
X118796820Y-95289660D01*
X118800804Y-95373258D01*
X118797087Y-95383395D01*
X118738164Y-95415999D01*
X118621638Y-95447148D01*
X118571016Y-95456019D01*
X118380978Y-95497599D01*
X118280625Y-95550837D01*
X118271703Y-95614776D01*
X118274121Y-95618943D01*
X118353795Y-95660856D01*
X118516386Y-95666949D01*
X118738128Y-95640402D01*
X118873938Y-95595075D01*
X119026971Y-95497878D01*
X119203266Y-95342919D01*
X119408859Y-95124321D01*
X119649792Y-94836195D01*
X119919921Y-94488750D01*
X120092388Y-94264008D01*
X120253944Y-94058673D01*
X120392766Y-93887370D01*
X120497034Y-93764739D01*
X120548256Y-93710940D01*
X120705198Y-93579258D01*
X120896511Y-93431448D01*
X121098729Y-93284322D01*
X121288392Y-93154686D01*
X121442031Y-93059349D01*
X121501209Y-93028299D01*
X121616748Y-92956299D01*
X121671600Y-92884710D01*
X121659489Y-92830527D01*
X121581501Y-92810646D01*
X121443237Y-92834259D01*
X121235964Y-92901813D01*
X120970725Y-93008385D01*
X120658557Y-93149052D01*
X120310500Y-93318891D01*
X119937594Y-93512979D01*
X119637240Y-93677667D01*
X119262099Y-93887988D01*
X118787778Y-93888579D01*
X118557639Y-93891918D01*
X118400211Y-93903339D01*
X118294551Y-93925974D01*
X118219710Y-93962946D01*
X118201623Y-93976143D01*
X118097829Y-94050513D01*
X117951321Y-94147578D01*
X117782022Y-94255116D01*
X117609849Y-94360902D01*
X117454725Y-94452714D01*
X117336567Y-94518324D01*
X117275292Y-94545513D01*
X117273519Y-94545663D01*
X117218337Y-94517190D01*
X117115173Y-94442475D01*
X116986152Y-94337565D01*
X116983593Y-94335381D01*
X116846574Y-94223460D01*
X116749551Y-94163799D01*
X116664264Y-94144350D01*
X116562447Y-94153059D01*
X116557734Y-94153806D01*
X116441178Y-94166700D01*
X116390001Y-94148043D01*
X116378241Y-94087566D01*
X116378223Y-94082817D01*
X116399103Y-94004916D01*
X116456145Y-93863667D01*
X116540961Y-93678255D01*
X116645154Y-93467856D01*
X116659578Y-93439875D01*
X116764746Y-93233673D01*
X116852037Y-93056562D01*
X116913282Y-92925549D01*
X116940324Y-92857641D01*
X116940930Y-92853636D01*
X116901615Y-92818716D01*
X116846988Y-92810646D01*
X116800251Y-92828271D01*
X116744100Y-92888394D01*
X116671599Y-93001878D01*
X116575812Y-93179601D01*
X116449803Y-93432429D01*
X116448405Y-93435294D01*
X116339931Y-93666060D01*
X116248494Y-93876507D01*
X116181648Y-94047999D01*
X116146950Y-94161894D01*
X116143761Y-94186731D01*
X114996018Y-94186731D01*
X115030974Y-94143105D01*
X115126998Y-94006971D01*
X115234938Y-93850887D01*
X115371114Y-93658848D01*
X115519722Y-93452604D01*
X115664961Y-93253899D01*
X115791033Y-93084480D01*
X115882134Y-92966094D01*
X115894056Y-92951325D01*
X115942047Y-92891667D01*
X116036946Y-92772936D01*
X116167308Y-92609475D01*
X116311215Y-92428782D01*
X118910409Y-92428782D01*
X118923534Y-92515848D01*
X118968975Y-92536071D01*
X119055816Y-92487558D01*
X119191284Y-92370153D01*
X119329680Y-92255982D01*
X119464596Y-92169408D01*
X119547918Y-92134878D01*
X119697399Y-92133936D01*
X119902341Y-92178561D01*
X119966058Y-92198616D01*
X120176460Y-92262075D01*
X120349620Y-92291409D01*
X120508362Y-92282484D01*
X120675513Y-92231166D01*
X120873897Y-92133321D01*
X121117785Y-91990032D01*
X121314639Y-91873299D01*
X121486797Y-91777224D01*
X121616385Y-91711377D01*
X121685529Y-91685322D01*
X121687362Y-91685232D01*
X121808217Y-91666458D01*
X121931349Y-91620432D01*
X122023368Y-91562595D01*
X122052192Y-91516521D01*
X122018334Y-91453962D01*
X121993578Y-91445580D01*
X121813620Y-91452408D01*
X121610676Y-91507041D01*
X121371360Y-91614756D01*
X121082286Y-91780833D01*
X120979611Y-91845546D01*
X120807144Y-91949625D01*
X120649077Y-92033736D01*
X120532863Y-92083602D01*
X120510348Y-92089731D01*
X120401148Y-92088969D01*
X120236745Y-92062113D01*
X120050244Y-92014629D01*
X120043455Y-92012577D01*
X119771613Y-91946517D01*
X119573457Y-91935687D01*
X119544126Y-91939920D01*
X119418771Y-91985616D01*
X119270949Y-92070876D01*
X119123802Y-92177853D01*
X119000466Y-92288697D01*
X118924083Y-92385558D01*
X118910409Y-92428782D01*
X116311215Y-92428782D01*
X116321688Y-92415630D01*
X116417802Y-92294832D01*
X116626065Y-92034798D01*
X116791842Y-91835190D01*
X116930076Y-91682298D01*
X117055722Y-91562406D01*
X117183729Y-91461804D01*
X117329046Y-91366779D01*
X117506622Y-91263621D01*
X117597423Y-91212903D01*
X117826227Y-91085652D01*
X118067670Y-90951183D01*
X118283931Y-90830562D01*
X118371147Y-90781836D01*
X118691955Y-90609954D01*
X119056344Y-90427020D01*
X119435196Y-90246789D01*
X119799396Y-90083010D01*
X120119829Y-89949438D01*
X120195177Y-89920293D01*
X120390225Y-89845977D01*
X120560265Y-89780343D01*
X120680523Y-89732994D01*
X120715761Y-89718528D01*
X120927246Y-89639535D01*
X121211994Y-89550111D01*
X121550739Y-89455158D01*
X121924221Y-89359578D01*
X122313174Y-89268270D01*
X122698344Y-89186133D01*
X123060459Y-89118072D01*
X123107268Y-89110104D01*
X123453819Y-89060748D01*
X123868563Y-89015913D01*
X124325946Y-88977453D01*
X124800417Y-88947225D01*
X125266422Y-88927086D01*
X125698410Y-88918893D01*
X125739993Y-88918803D01*
X126606027Y-88955022D01*
G37*
G36*
X124008012Y-86058177D02*
G01*
X125189187Y-86058258D01*
X126283269Y-86058420D01*
X127293603Y-86058684D01*
X128223537Y-86059074D01*
X129076416Y-86059611D01*
X129855585Y-86060316D01*
X130564392Y-86061216D01*
X131206179Y-86062329D01*
X131784294Y-86063679D01*
X132302085Y-86065284D01*
X132762897Y-86067174D01*
X133170072Y-86069364D01*
X133526961Y-86071881D01*
X133836906Y-86074743D01*
X134103255Y-86077974D01*
X134329353Y-86081598D01*
X134518545Y-86085636D01*
X134674179Y-86090109D01*
X134799600Y-86095041D01*
X134898156Y-86100453D01*
X134973189Y-86106369D01*
X135028044Y-86112807D01*
X135066072Y-86119794D01*
X135090618Y-86127348D01*
X135105024Y-86135493D01*
X135109821Y-86140215D01*
X135168348Y-86211414D01*
X135269280Y-86334294D01*
X135395532Y-86488044D01*
X135466074Y-86573970D01*
X135600351Y-86737410D01*
X135719859Y-86882637D01*
X135806787Y-86988021D01*
X135832830Y-87019446D01*
X135891378Y-87091314D01*
X135994137Y-87218919D01*
X136126923Y-87384603D01*
X136275564Y-87570711D01*
X136284687Y-87582156D01*
X136427697Y-87760749D01*
X136549896Y-87911844D01*
X136639305Y-88020741D01*
X136683948Y-88072731D01*
X136685817Y-88074525D01*
X136720845Y-88115313D01*
X136807773Y-88220367D01*
X136939521Y-88381026D01*
X137109018Y-88588632D01*
X137309193Y-88834521D01*
X137532966Y-89110035D01*
X137700900Y-89317170D01*
X137940390Y-89612298D01*
X138164289Y-89887308D01*
X138364935Y-90132858D01*
X138534672Y-90339618D01*
X138665844Y-90498246D01*
X138750795Y-90599412D01*
X138777810Y-90630156D01*
X138849972Y-90714291D01*
X138955020Y-90846408D01*
X139070778Y-90998574D01*
X139075770Y-91005294D01*
X139179924Y-91144275D01*
X139262469Y-91251927D01*
X139307547Y-91307601D01*
X139309986Y-91310094D01*
X139348908Y-91354434D01*
X139433793Y-91455474D01*
X139551414Y-91597173D01*
X139688538Y-91763484D01*
X139831941Y-91938366D01*
X139968390Y-92105775D01*
X140082285Y-92246709D01*
X140186082Y-92375712D01*
X140324289Y-92547114D01*
X140484867Y-92746026D01*
X140655783Y-92957559D01*
X140824995Y-93166827D01*
X140980467Y-93358941D01*
X141110166Y-93519015D01*
X141202047Y-93632157D01*
X141238920Y-93677277D01*
X141312255Y-93767106D01*
X141416193Y-93895527D01*
X141486603Y-93982956D01*
X141602292Y-94124148D01*
X141712584Y-94254318D01*
X141762792Y-94311201D01*
X141840882Y-94402773D01*
X141954726Y-94543140D01*
X142083408Y-94706376D01*
X142122351Y-94756677D01*
X142262292Y-94935195D01*
X142404513Y-95111574D01*
X142522428Y-95252949D01*
X142541772Y-95275293D01*
X142626723Y-95372922D01*
X142702752Y-95462013D01*
X142781964Y-95557425D01*
X142876461Y-95674020D01*
X142998345Y-95826657D01*
X143159718Y-96030198D01*
X143265864Y-96164388D01*
X143410698Y-96345948D01*
X143537943Y-96502482D01*
X143634588Y-96618192D01*
X143687619Y-96677265D01*
X143689803Y-96679263D01*
X143775621Y-96770418D01*
X143868489Y-96892545D01*
X143947959Y-97015629D01*
X143993583Y-97109649D01*
X143997792Y-97131351D01*
X143970519Y-97219599D01*
X143926161Y-97291047D01*
X143871663Y-97363581D01*
X143771418Y-97499706D01*
X143634507Y-97686924D01*
X143470011Y-97912740D01*
X143287008Y-98164653D01*
X143094579Y-98430168D01*
X142901805Y-98696784D01*
X142717764Y-98952009D01*
X142567578Y-99160974D01*
X142380051Y-99421758D01*
X142181505Y-99696723D01*
X141980478Y-99974154D01*
X141785508Y-100242345D01*
X141605133Y-100489587D01*
X141447891Y-100704168D01*
X141322323Y-100874376D01*
X141236964Y-100988502D01*
X141205458Y-101029059D01*
X141151698Y-101104416D01*
X141137361Y-101137815D01*
X141111135Y-101183397D01*
X141039513Y-101289033D01*
X140933079Y-101439531D01*
X140802420Y-101619699D01*
X140786511Y-101641371D01*
X140625366Y-101860692D01*
X140458899Y-102087339D01*
X140308650Y-102291975D01*
X140212083Y-102423570D01*
X140103579Y-102567726D01*
X140014338Y-102679389D01*
X139959954Y-102739251D01*
X139953330Y-102744000D01*
X139921155Y-102797982D01*
X139918161Y-102826062D01*
X139897206Y-102885990D01*
X139881381Y-102892494D01*
X139834899Y-102928269D01*
X139774908Y-103012341D01*
X139721730Y-103109838D01*
X139695681Y-103185879D01*
X139699275Y-103205052D01*
X139724616Y-103205163D01*
X139790631Y-103190922D01*
X139902537Y-103160712D01*
X140065551Y-103112910D01*
X140284890Y-103045902D01*
X140565771Y-102958059D01*
X140913414Y-102847770D01*
X141333033Y-102713406D01*
X141829851Y-102553353D01*
X142409082Y-102365991D01*
X142583451Y-102309483D01*
X142930170Y-102199623D01*
X143192829Y-102122262D01*
X143374995Y-102076479D01*
X143480244Y-102061359D01*
X143511630Y-102071145D01*
X143503809Y-102138885D01*
X143463006Y-102264111D01*
X143397930Y-102420306D01*
X143394597Y-102427578D01*
X143329776Y-102570555D01*
X143236737Y-102778545D01*
X143124792Y-103030605D01*
X143003241Y-103305798D01*
X142905861Y-103527345D01*
X142787454Y-103797165D01*
X142675371Y-104052189D01*
X142577718Y-104274015D01*
X142502595Y-104444229D01*
X142462083Y-104535528D01*
X142347876Y-104792127D01*
X142227771Y-105063405D01*
X142112274Y-105325515D01*
X142011891Y-105554604D01*
X141937128Y-105726816D01*
X141925923Y-105752925D01*
X141861126Y-105901179D01*
X141803265Y-106028397D01*
X141785763Y-106064976D01*
X141762039Y-106112190D01*
X141749268Y-106151637D01*
X141756183Y-106189806D01*
X141791526Y-106233183D01*
X141864030Y-106288260D01*
X141982434Y-106361526D01*
X142155480Y-106459470D01*
X142391898Y-106588581D01*
X142700430Y-106755348D01*
X142755147Y-106784919D01*
X142916385Y-106872675D01*
X143139183Y-106994769D01*
X143403120Y-107139972D01*
X143687790Y-107297049D01*
X143972778Y-107454774D01*
X143974347Y-107455644D01*
X144263613Y-107615511D01*
X144556860Y-107776689D01*
X144832461Y-107927361D01*
X145068795Y-108055701D01*
X145240440Y-108147867D01*
X145603272Y-108342015D01*
X145889547Y-108498432D01*
X146106522Y-108621468D01*
X146261457Y-108715461D01*
X146361615Y-108784755D01*
X146414253Y-108833691D01*
X146426547Y-108857226D01*
X146399625Y-108911583D01*
X146292234Y-108967998D01*
X146168637Y-109010061D01*
X146011767Y-109059102D01*
X145796709Y-109128138D01*
X145554156Y-109207251D01*
X145357668Y-109272213D01*
X145205982Y-109322478D01*
X144976191Y-109398288D01*
X144679335Y-109496025D01*
X144326439Y-109612062D01*
X143928537Y-109742772D01*
X143496657Y-109884534D01*
X143041836Y-110033718D01*
X142575102Y-110186703D01*
X142497240Y-110212212D01*
X142048872Y-110359851D01*
X141626448Y-110500389D01*
X141238572Y-110630865D01*
X140893848Y-110748315D01*
X140600886Y-110849775D01*
X140368284Y-110932281D01*
X140204655Y-110992875D01*
X140118597Y-111028590D01*
X140108346Y-111034713D01*
X140070192Y-111089739D01*
X140065638Y-111173025D01*
X140093277Y-111314238D01*
X140094774Y-111320442D01*
X140126370Y-111456648D01*
X140171004Y-111656466D01*
X140222445Y-111891729D01*
X140268642Y-112106832D01*
X140323044Y-112359381D01*
X140378292Y-112610538D01*
X140427294Y-112828332D01*
X140458062Y-112960530D01*
X140504709Y-113170155D01*
X140522229Y-113309661D01*
X140507580Y-113399010D01*
X140457732Y-113458167D01*
X140375361Y-113504412D01*
X140200245Y-113575086D01*
X139942464Y-113662269D01*
X139611213Y-113763540D01*
X139215684Y-113876487D01*
X138765072Y-113998698D01*
X138268569Y-114127755D01*
X137735367Y-114261249D01*
X137174658Y-114396759D01*
X136595637Y-114531876D01*
X136007499Y-114664182D01*
X135721299Y-114726708D01*
X135549126Y-114761643D01*
X135301785Y-114808710D01*
X134996655Y-114864852D01*
X134651112Y-114927015D01*
X134282541Y-114992148D01*
X133908318Y-115057191D01*
X133545822Y-115119096D01*
X133212432Y-115174806D01*
X132925527Y-115221267D01*
X132767085Y-115245834D01*
X132525183Y-115282620D01*
X132287616Y-115319199D01*
X132087711Y-115350423D01*
X131993361Y-115365468D01*
X131826417Y-115390470D01*
X131605455Y-115420845D01*
X131369625Y-115451268D01*
X131289978Y-115461045D01*
X131084073Y-115491237D01*
X130904565Y-115527174D01*
X130778274Y-115563063D01*
X130743585Y-115579101D01*
X130703076Y-115612824D01*
X130644642Y-115675992D01*
X130563687Y-115774782D01*
X130455609Y-115915371D01*
X130315818Y-116103930D01*
X130139715Y-116346636D01*
X129922704Y-116649660D01*
X129660189Y-117019182D01*
X129441267Y-117328680D01*
X129291693Y-117538713D01*
X129156903Y-117724830D01*
X129048009Y-117871923D01*
X128976120Y-117964890D01*
X128957391Y-117986484D01*
X128883810Y-118073970D01*
X128813178Y-118173645D01*
X128762613Y-118247037D01*
X128666073Y-118382967D01*
X128533002Y-118568307D01*
X128372829Y-118789935D01*
X128194998Y-119034717D01*
X128135289Y-119116635D01*
X127917105Y-119417073D01*
X127679373Y-119746698D01*
X127441386Y-120078609D01*
X127222434Y-120385908D01*
X127058595Y-120617784D01*
X126902592Y-120838869D01*
X126764568Y-121032597D01*
X126653754Y-121186158D01*
X126579387Y-121286745D01*
X126551547Y-121321170D01*
X126515697Y-121365408D01*
X126435213Y-121472892D01*
X126319800Y-121630416D01*
X126179145Y-121824780D01*
X126069450Y-121977663D01*
X125871294Y-122253711D01*
X125647860Y-122563281D01*
X125423916Y-122872152D01*
X125224224Y-123146103D01*
X125187051Y-123196863D01*
X124845744Y-123663285D01*
X124550820Y-124068129D01*
X124304961Y-124407684D01*
X124110858Y-124678242D01*
X124014213Y-124814646D01*
X123925377Y-124939638D01*
X123796812Y-125118837D01*
X123644055Y-125330667D01*
X123482634Y-125553555D01*
X123440316Y-125611815D01*
X123284727Y-125827083D01*
X123139275Y-126030489D01*
X123017586Y-126202824D01*
X122933283Y-126324891D01*
X122916315Y-126350370D01*
X122839413Y-126456414D01*
X122779437Y-126519024D01*
X122764275Y-126526215D01*
X122725788Y-126490035D01*
X122643189Y-126390024D01*
X122526447Y-126238968D01*
X122385528Y-126049659D01*
X122284218Y-125910117D01*
X122121318Y-125683941D01*
X121965978Y-125468892D01*
X121831629Y-125283525D01*
X121731708Y-125146395D01*
X121698492Y-125101224D01*
X121624419Y-125000322D01*
X121507437Y-124839978D01*
X121359582Y-124636746D01*
X121192908Y-124407180D01*
X121046397Y-124205046D01*
X120856221Y-123942939D01*
X120658416Y-123671151D01*
X120470106Y-123413154D01*
X120308403Y-123192411D01*
X120225387Y-123079632D01*
X120067077Y-122863692D01*
X119899635Y-122632821D01*
X119748720Y-122422485D01*
X119683014Y-122329773D01*
X119539923Y-122128503D01*
X119382900Y-121910706D01*
X119244963Y-121722162D01*
X119239941Y-121715376D01*
X119121618Y-121554804D01*
X119012595Y-121405377D01*
X118935804Y-121298535D01*
X118933854Y-121295772D01*
X118853865Y-121183962D01*
X118745898Y-121035078D01*
X118665669Y-120925428D01*
X118537986Y-120751572D01*
X118444770Y-120624036D01*
X118364910Y-120513597D01*
X118277298Y-120391038D01*
X118160820Y-120227130D01*
X118136685Y-120193128D01*
X118001931Y-120005238D01*
X117837735Y-119779149D01*
X117670905Y-119551695D01*
X117597423Y-119452383D01*
X117440148Y-119238423D01*
X117273981Y-119008836D01*
X117125151Y-118799982D01*
X117066465Y-118716180D01*
X116997669Y-118617438D01*
X116927133Y-118517154D01*
X116848794Y-118406964D01*
X116756589Y-118278501D01*
X116644461Y-118123401D01*
X116506341Y-117933300D01*
X116336175Y-117699831D01*
X116127894Y-117414630D01*
X115875438Y-117069333D01*
X115618884Y-116718627D01*
X115393458Y-116407704D01*
X115214592Y-116160933D01*
X115069389Y-115969932D01*
X114993747Y-115882635D01*
X116709060Y-115882635D01*
X116765763Y-115992837D01*
X116802336Y-116045784D01*
X116901354Y-116184396D01*
X117025170Y-116359605D01*
X117133857Y-116514708D01*
X117257568Y-116689551D01*
X117408966Y-116899821D01*
X117559482Y-117105909D01*
X117590382Y-117147756D01*
X117731283Y-117338607D01*
X117874752Y-117533787D01*
X117995109Y-117698343D01*
X118020981Y-117733908D01*
X118256826Y-118058901D01*
X118469409Y-118352205D01*
X118652115Y-118604667D01*
X118798323Y-118807137D01*
X118901415Y-118950465D01*
X118949265Y-119017617D01*
X119037765Y-119138289D01*
X119125518Y-119252079D01*
X119183892Y-119329437D01*
X119285688Y-119468427D01*
X119420112Y-119654148D01*
X119576373Y-119871699D01*
X119724006Y-120078525D01*
X119900220Y-120325461D01*
X120073266Y-120566790D01*
X120229587Y-120783690D01*
X120355626Y-120957339D01*
X120423297Y-121049445D01*
X120688785Y-121408008D01*
X120908478Y-121707225D01*
X121093455Y-121962321D01*
X121254801Y-122188521D01*
X121320912Y-122282463D01*
X121440753Y-122451177D01*
X121596441Y-122667117D01*
X121767735Y-122902353D01*
X121932594Y-123126525D01*
X122095887Y-123348588D01*
X122260185Y-123574335D01*
X122406603Y-123777687D01*
X122516259Y-123932565D01*
X122518245Y-123935415D01*
X122620065Y-124075362D01*
X122703810Y-124178955D01*
X122753898Y-124227165D01*
X122758251Y-124228494D01*
X122799048Y-124192296D01*
X122877405Y-124095570D01*
X122979303Y-123956112D01*
X123026124Y-123888525D01*
X123148401Y-123712584D01*
X123305727Y-123490971D01*
X123477039Y-123253152D01*
X123628119Y-123046413D01*
X123798357Y-122814567D01*
X123999924Y-122538702D01*
X124209396Y-122250942D01*
X124403349Y-121983417D01*
X124431516Y-121944444D01*
X124840833Y-121377918D01*
X125227842Y-120842481D01*
X125589321Y-120342585D01*
X125922042Y-119882685D01*
X126222780Y-119467230D01*
X126488307Y-119100681D01*
X126715398Y-118787484D01*
X126900825Y-118532100D01*
X127041360Y-118338978D01*
X127133784Y-118212570D01*
X127174863Y-118157334D01*
X127175988Y-118155939D01*
X127220334Y-118096137D01*
X127300797Y-117982161D01*
X127400850Y-117837459D01*
X127412019Y-117821142D01*
X127513515Y-117676053D01*
X127654425Y-117479100D01*
X127817976Y-117253515D01*
X127987401Y-117022530D01*
X128030961Y-116963622D01*
X128187306Y-116750886D01*
X128330691Y-116552637D01*
X128448357Y-116386743D01*
X128527551Y-116271063D01*
X128545299Y-116243343D01*
X128640627Y-116104371D01*
X128742477Y-115978242D01*
X128744592Y-115975926D01*
X128835555Y-115860816D01*
X128851695Y-115788795D01*
X128788431Y-115754544D01*
X128641182Y-115752744D01*
X128558499Y-115759839D01*
X127856052Y-115823331D01*
X127081872Y-115879182D01*
X126251319Y-115927077D01*
X125379744Y-115966695D01*
X124482501Y-115997721D01*
X123574944Y-116019837D01*
X122672427Y-116032725D01*
X121790301Y-116036067D01*
X120943923Y-116029548D01*
X120148647Y-116012850D01*
X119419824Y-115985658D01*
X118933854Y-115958691D01*
X118570305Y-115934802D01*
X118211991Y-115910709D01*
X117877317Y-115887684D01*
X117584676Y-115867005D01*
X117352470Y-115849956D01*
X117222285Y-115839762D01*
X117023367Y-115826544D01*
X116857626Y-115821471D01*
X116748735Y-115824975D01*
X116721897Y-115830594D01*
X116709060Y-115882635D01*
X114993747Y-115882635D01*
X114944958Y-115826328D01*
X114828405Y-115721733D01*
X114706839Y-115647771D01*
X114567360Y-115596060D01*
X114397083Y-115558221D01*
X114183108Y-115525872D01*
X113912544Y-115490634D01*
X113681916Y-115459671D01*
X113071116Y-115372455D01*
X112486392Y-115284765D01*
X111942942Y-115199019D01*
X111455961Y-115117647D01*
X111040650Y-115043073D01*
X110891823Y-115014474D01*
X110432688Y-114924147D01*
X110051988Y-114849195D01*
X109736184Y-114786666D01*
X109471734Y-114733608D01*
X109245102Y-114687066D01*
X109042746Y-114644085D01*
X108851127Y-114601710D01*
X108656706Y-114556986D01*
X108445938Y-114506961D01*
X108205290Y-114448680D01*
X107921217Y-114379188D01*
X107580183Y-114295533D01*
X107445240Y-114262452D01*
X107079513Y-114171576D01*
X106712451Y-114078072D01*
X106363233Y-113987004D01*
X106051047Y-113903418D01*
X105795078Y-113832375D01*
X105639885Y-113786805D01*
X105412605Y-113717901D01*
X105203463Y-113655960D01*
X105037083Y-113608188D01*
X104944245Y-113583258D01*
X104787348Y-113537652D01*
X104651166Y-113488506D01*
X104566467Y-113436753D01*
X104522733Y-113357757D01*
X104517747Y-113234283D01*
X104549286Y-113049093D01*
X104578656Y-112925577D01*
X104610120Y-112790754D01*
X104646330Y-112625499D01*
X105512547Y-112625499D01*
X105522090Y-112725732D01*
X105554052Y-112771722D01*
X105620697Y-112800411D01*
X105764373Y-112846722D01*
X105970818Y-112906776D01*
X106225779Y-112976688D01*
X106514994Y-113052582D01*
X106824207Y-113130576D01*
X107139162Y-113206785D01*
X107234223Y-113229090D01*
X107504046Y-113291190D01*
X107810871Y-113360625D01*
X108140097Y-113434209D01*
X108477114Y-113508759D01*
X108807327Y-113581089D01*
X109116129Y-113648013D01*
X109388919Y-113706345D01*
X109611096Y-113752899D01*
X109768053Y-113784492D01*
X109836747Y-113796834D01*
X109964991Y-113817864D01*
X110154195Y-113851419D01*
X110373297Y-113891922D01*
X110493240Y-113914743D01*
X110766246Y-113964798D01*
X111076047Y-114017853D01*
X111366498Y-114064374D01*
X111436704Y-114074928D01*
X111642810Y-114106638D01*
X111817548Y-114135954D01*
X111937782Y-114158859D01*
X111975966Y-114168489D01*
X112049439Y-114184425D01*
X112190919Y-114207003D01*
X112375227Y-114232356D01*
X112462716Y-114243306D01*
X112699986Y-114272487D01*
X112946358Y-114303387D01*
X113155476Y-114330186D01*
X113189547Y-114334647D01*
X113385366Y-114359655D01*
X113627967Y-114389571D01*
X113870940Y-114418689D01*
X113916378Y-114424017D01*
X114153777Y-114452991D01*
X114400266Y-114485103D01*
X114609411Y-114514266D01*
X114643209Y-114519291D01*
X115064934Y-114574923D01*
X115568820Y-114627336D01*
X116143263Y-114675429D01*
X116636130Y-114709434D01*
X116908008Y-114727539D01*
X117161514Y-114746133D01*
X117375261Y-114763521D01*
X117527868Y-114778011D01*
X117575901Y-114783831D01*
X117794739Y-114807804D01*
X118096728Y-114830070D01*
X118471248Y-114850461D01*
X118907676Y-114868809D01*
X119395392Y-114884940D01*
X119923773Y-114898689D01*
X120482202Y-114909885D01*
X121060053Y-114918357D01*
X121646709Y-114923940D01*
X122231547Y-114926460D01*
X122803944Y-114925749D01*
X123353283Y-114921642D01*
X123868941Y-114913962D01*
X124340298Y-114902547D01*
X124560930Y-114895203D01*
X124940721Y-114880257D01*
X125329872Y-114863298D01*
X125706360Y-114845400D01*
X126048156Y-114827643D01*
X126333228Y-114811104D01*
X126483516Y-114801096D01*
X126793047Y-114779160D01*
X127151895Y-114754347D01*
X127515783Y-114729684D01*
X127840428Y-114708210D01*
X127843392Y-114708015D01*
X128143626Y-114685800D01*
X128500455Y-114655173D01*
X128877432Y-114619497D01*
X129238110Y-114582141D01*
X129390840Y-114565053D01*
X129697224Y-114530025D01*
X130004160Y-114495417D01*
X130286181Y-114464067D01*
X130517820Y-114438810D01*
X130633485Y-114426570D01*
X130874802Y-114399078D01*
X131155917Y-114363291D01*
X131424051Y-114325998D01*
X131477547Y-114318039D01*
X131717064Y-114283689D01*
X131963931Y-114251271D01*
X132175041Y-114226368D01*
X132227823Y-114220914D01*
X132429210Y-114197187D01*
X132629241Y-114167244D01*
X132743640Y-114145941D01*
X132871716Y-114121350D01*
X133066551Y-114087327D01*
X133302156Y-114048279D01*
X133552524Y-114008616D01*
X133564254Y-114006807D01*
X133839984Y-113963292D01*
X134126712Y-113916369D01*
X134388588Y-113871987D01*
X134572440Y-113839320D01*
X134786982Y-113799903D01*
X134994891Y-113761953D01*
X135157419Y-113732532D01*
X135182040Y-113728122D01*
X135461163Y-113675820D01*
X135797106Y-113609088D01*
X136155402Y-113534970D01*
X136501575Y-113460504D01*
X136612254Y-113435940D01*
X136851990Y-113382468D01*
X137105529Y-113326299D01*
X137325213Y-113277984D01*
X137362530Y-113269836D01*
X137627745Y-113209821D01*
X137920968Y-113139801D01*
X138224637Y-113064357D01*
X138521190Y-112988073D01*
X138793068Y-112915524D01*
X139022706Y-112851297D01*
X139192542Y-112799973D01*
X139273392Y-112771347D01*
X139384143Y-112709514D01*
X139445127Y-112645356D01*
X139449240Y-112628826D01*
X139440423Y-112558764D01*
X139416324Y-112416510D01*
X139380465Y-112221759D01*
X139336368Y-111994197D01*
X139329216Y-111958218D01*
X139239426Y-111502512D01*
X139160802Y-111089655D01*
X139085799Y-110678901D01*
X139006863Y-110229501D01*
X138978876Y-110067015D01*
X138937038Y-109828554D01*
X138895635Y-109601883D01*
X138860043Y-109415925D01*
X138839544Y-109316739D01*
X138787449Y-109073106D01*
X138730749Y-108793347D01*
X138673698Y-108500067D01*
X138620553Y-108215877D01*
X138575577Y-107963382D01*
X138543021Y-107765184D01*
X138530457Y-107675508D01*
X138501450Y-107484915D01*
X138459861Y-107273262D01*
X138411393Y-107063598D01*
X138361752Y-106878975D01*
X138316641Y-106742445D01*
X138283860Y-106678941D01*
X138209247Y-106666128D01*
X138058872Y-106695417D01*
X137941131Y-106730841D01*
X137794947Y-106774722D01*
X137574357Y-106835793D01*
X137296257Y-106909776D01*
X136977528Y-106992390D01*
X136635069Y-107079360D01*
X136285764Y-107166411D01*
X135946506Y-107249259D01*
X135634188Y-107323632D01*
X135365694Y-107385249D01*
X135299268Y-107399940D01*
X135029655Y-107457606D01*
X134720415Y-107521125D01*
X134357388Y-107593317D01*
X133926417Y-107677014D01*
X133564254Y-107746335D01*
X133328202Y-107791917D01*
X133073541Y-107842029D01*
X132860868Y-107884722D01*
X132706698Y-107913321D01*
X132478860Y-107951907D01*
X132196581Y-107997504D01*
X131879076Y-108047133D01*
X131545566Y-108097821D01*
X131215272Y-108146589D01*
X130907415Y-108190464D01*
X130727268Y-108215103D01*
X130309893Y-108270594D01*
X129962421Y-108315768D01*
X129661896Y-108353382D01*
X129385350Y-108386181D01*
X129109824Y-108416919D01*
X128812353Y-108448350D01*
X128593668Y-108470724D01*
X127514055Y-108573279D01*
X126495714Y-108654816D01*
X125509926Y-108716784D01*
X124527981Y-108760632D01*
X123521163Y-108787806D01*
X122460762Y-108799755D01*
X122052192Y-108800607D01*
X121311384Y-108797886D01*
X120620709Y-108789327D01*
X119963334Y-108774054D01*
X119322423Y-108751188D01*
X118681134Y-108719859D01*
X118022634Y-108679182D01*
X117330087Y-108628281D01*
X116586654Y-108566283D01*
X115775499Y-108492309D01*
X115346592Y-108451269D01*
X114620451Y-108370800D01*
X113824230Y-108264480D01*
X112976922Y-108135789D01*
X112097526Y-107988213D01*
X111205032Y-107825241D01*
X110318439Y-107650356D01*
X109456743Y-107467041D01*
X108638940Y-107278788D01*
X107884023Y-107089077D01*
X107796930Y-107065944D01*
X107475384Y-106980294D01*
X107232837Y-106917057D01*
X107057760Y-106874148D01*
X106938621Y-106849494D01*
X106863888Y-106841007D01*
X106822029Y-106846614D01*
X106801518Y-106864227D01*
X106792965Y-106884819D01*
X106775685Y-106952133D01*
X106742445Y-107092227D01*
X106697613Y-107286339D01*
X106645560Y-107515689D01*
X106630719Y-107581725D01*
X106562061Y-107887557D01*
X106482969Y-108239280D01*
X106403700Y-108591309D01*
X106340559Y-108871263D01*
X106274043Y-109170153D01*
X106203042Y-109496259D01*
X106136139Y-109809807D01*
X106082718Y-110067015D01*
X106035087Y-110299878D01*
X105991572Y-110508519D01*
X105947949Y-110712093D01*
X105900000Y-110929752D01*
X105843501Y-111180651D01*
X105774231Y-111483945D01*
X105687969Y-111858783D01*
X105684837Y-111872370D01*
X105628824Y-112115649D01*
X105579099Y-112332384D01*
X105540114Y-112503114D01*
X105516321Y-112608381D01*
X105512547Y-112625499D01*
X104646330Y-112625499D01*
X104654874Y-112586511D01*
X104708100Y-112335453D01*
X104764977Y-112060176D01*
X104796798Y-111902988D01*
X104854569Y-111607023D01*
X104892324Y-111390888D01*
X104911416Y-111243096D01*
X104913195Y-111152157D01*
X104899005Y-111106581D01*
X104891178Y-111099618D01*
X104828874Y-111073272D01*
X104693229Y-111023160D01*
X104499981Y-110954856D01*
X104264871Y-110873943D01*
X104051712Y-110802042D01*
X103508538Y-110620032D01*
X102958812Y-110435079D01*
X102409956Y-110249727D01*
X101869383Y-110066523D01*
X101344512Y-109888014D01*
X100842756Y-109716747D01*
X100371531Y-109555266D01*
X99938256Y-109406115D01*
X99550347Y-109271847D01*
X99215217Y-109155003D01*
X98940282Y-109058130D01*
X98732961Y-108983775D01*
X98600670Y-108934485D01*
X98552337Y-108913947D01*
X98566494Y-108880239D01*
X98650383Y-108818340D01*
X98788455Y-108739071D01*
X98846298Y-108709425D01*
X98875812Y-108694404D01*
X101114283Y-108694404D01*
X101114739Y-108707079D01*
X101163252Y-108730254D01*
X101291070Y-108779349D01*
X101488416Y-108850926D01*
X101745528Y-108941553D01*
X102052635Y-109047795D01*
X102399966Y-109166214D01*
X102777756Y-109293372D01*
X102862029Y-109321527D01*
X103255410Y-109452876D01*
X103629504Y-109577970D01*
X103972923Y-109692987D01*
X104274279Y-109794108D01*
X104522184Y-109877514D01*
X104705256Y-109939377D01*
X104812104Y-109975881D01*
X104819268Y-109978380D01*
X104992326Y-110035527D01*
X105099351Y-110059152D01*
X105161136Y-110051184D01*
X105198471Y-110013546D01*
X105198492Y-110013516D01*
X105220365Y-109948521D01*
X105255117Y-109811793D01*
X105297885Y-109623678D01*
X105341553Y-109415637D01*
X105393408Y-109163409D01*
X105447060Y-108909783D01*
X105495225Y-108688851D01*
X105523047Y-108566463D01*
X105565185Y-108379074D01*
X105601803Y-108202875D01*
X105621255Y-108097539D01*
X105645069Y-107973072D01*
X105683841Y-107792682D01*
X105729969Y-107591475D01*
X105739098Y-107553123D01*
X105789348Y-107334636D01*
X105836781Y-107113485D01*
X105871884Y-106934214D01*
X105874389Y-106920078D01*
X105916218Y-106693689D01*
X105965601Y-106446690D01*
X106018539Y-106196805D01*
X106071036Y-105961770D01*
X106105104Y-105818241D01*
X107541078Y-105818241D01*
X107562519Y-105862866D01*
X107676618Y-105908118D01*
X107806896Y-105938211D01*
X108025998Y-105983748D01*
X108238593Y-106032771D01*
X108423816Y-106079943D01*
X108560805Y-106119921D01*
X108628695Y-106147362D01*
X108630810Y-106149141D01*
X108690522Y-106155300D01*
X108762948Y-106098672D01*
X108824262Y-106002849D01*
X108845814Y-105936297D01*
X108870813Y-105759774D01*
X108871812Y-105618090D01*
X108849801Y-105533130D01*
X108826866Y-105518463D01*
X108761352Y-105528732D01*
X108629385Y-105556068D01*
X108455610Y-105595278D01*
X108393111Y-105609978D01*
X108178353Y-105658833D01*
X107965545Y-105703668D01*
X107796150Y-105735792D01*
X107777343Y-105738930D01*
X107612586Y-105776262D01*
X107541078Y-105818241D01*
X106105104Y-105818241D01*
X106119090Y-105759309D01*
X106158702Y-105607158D01*
X106185873Y-105523044D01*
X106191777Y-105512889D01*
X106255998Y-105484842D01*
X106391622Y-105444240D01*
X106577916Y-105396039D01*
X106794156Y-105345204D01*
X107019603Y-105296694D01*
X107233533Y-105255468D01*
X107347734Y-105236292D01*
X107567826Y-105197778D01*
X107697807Y-105161616D01*
X107737362Y-105123321D01*
X107686176Y-105078399D01*
X107543931Y-105022365D01*
X107328009Y-104955861D01*
X107166702Y-104907381D01*
X106938726Y-104836821D01*
X106666554Y-104751234D01*
X106372662Y-104657685D01*
X106132254Y-104580315D01*
X105809253Y-104475978D01*
X105429387Y-104353566D01*
X105025140Y-104223522D01*
X104628984Y-104096301D01*
X104303454Y-103991967D01*
X104013285Y-103898937D01*
X103751613Y-103814778D01*
X103532205Y-103743933D01*
X103368831Y-103690857D01*
X103275258Y-103659999D01*
X103260099Y-103654740D01*
X103208442Y-103670634D01*
X103201485Y-103699446D01*
X103220925Y-103766397D01*
X103276452Y-103908447D01*
X103363890Y-104115990D01*
X103479048Y-104379429D01*
X103617750Y-104689164D01*
X103775811Y-105035589D01*
X103908066Y-105321276D01*
X103976463Y-105470871D01*
X104025696Y-105583776D01*
X104045511Y-105636444D01*
X104045547Y-105636990D01*
X104064588Y-105685164D01*
X104116020Y-105799101D01*
X104191305Y-105960183D01*
X104256285Y-106096560D01*
X104388078Y-106384482D01*
X104470524Y-106597527D01*
X104504748Y-106739877D01*
X104491872Y-106815702D01*
X104453901Y-106831446D01*
X104380650Y-106850886D01*
X104365977Y-106866615D01*
X104318100Y-106907694D01*
X104215656Y-106970160D01*
X104162778Y-106998504D01*
X104073177Y-107045220D01*
X103964313Y-107103102D01*
X103825248Y-107178096D01*
X103645047Y-107276148D01*
X103412769Y-107403207D01*
X103117479Y-107565213D01*
X102849792Y-107712291D01*
X102621912Y-107837103D01*
X102386886Y-107965086D01*
X102178614Y-108077817D01*
X102076068Y-108132885D01*
X101755545Y-108305022D01*
X101510133Y-108439155D01*
X101331564Y-108540222D01*
X101211579Y-108613164D01*
X101141907Y-108662910D01*
X101114283Y-108694404D01*
X98875812Y-108694404D01*
X99047973Y-108606786D01*
X99252636Y-108499221D01*
X99418038Y-108408957D01*
X99426654Y-108404088D01*
X99595065Y-108310149D01*
X99798426Y-108198846D01*
X99965916Y-108108630D01*
X100149744Y-108009774D01*
X100330107Y-107911443D01*
X100458285Y-107840331D01*
X100578492Y-107774172D01*
X100755165Y-107678925D01*
X100961628Y-107568903D01*
X101114778Y-107488035D01*
X101600952Y-107231097D01*
X102021621Y-107005743D01*
X102395325Y-106801944D01*
X102740601Y-106609662D01*
X102820635Y-106564485D01*
X103003920Y-106462800D01*
X103157862Y-106381185D01*
X103263831Y-106329282D01*
X103301280Y-106315632D01*
X103331727Y-106298820D01*
X103335567Y-106243050D01*
X103310007Y-106140318D01*
X103252245Y-105982620D01*
X103159488Y-105761949D01*
X103028937Y-105470301D01*
X102932520Y-105260556D01*
X102772473Y-104914395D01*
X102645357Y-104638632D01*
X102544500Y-104418645D01*
X102463242Y-104239815D01*
X102394917Y-104087526D01*
X102332853Y-103947153D01*
X102312492Y-103900677D01*
X102240756Y-103736961D01*
X102173766Y-103584627D01*
X102147675Y-103525539D01*
X102094482Y-103407948D01*
X102012048Y-103228620D01*
X101911095Y-103010661D01*
X101802357Y-102777168D01*
X101696562Y-102551247D01*
X101607330Y-102362088D01*
X101552136Y-102223398D01*
X101533524Y-102125454D01*
X101542020Y-102097413D01*
X101599272Y-102097215D01*
X101728065Y-102123369D01*
X101911287Y-102171624D01*
X102131829Y-102237729D01*
X102216747Y-102264975D01*
X102449817Y-102341034D01*
X102680544Y-102416283D01*
X102921516Y-102494817D01*
X103185315Y-102580740D01*
X103484526Y-102678144D01*
X103831734Y-102791133D01*
X104239527Y-102923799D01*
X104720490Y-103080240D01*
X104866161Y-103127619D01*
X105140931Y-103218330D01*
X105385833Y-103301724D01*
X105586560Y-103372725D01*
X105728808Y-103426251D01*
X105798270Y-103457229D01*
X105801663Y-103459743D01*
X105876417Y-103497702D01*
X105945855Y-103492434D01*
X105968130Y-103458219D01*
X105942063Y-103404045D01*
X105871734Y-103292751D01*
X105768939Y-103142391D01*
X105684642Y-103024464D01*
X105536841Y-102819711D01*
X105383787Y-102605250D01*
X105250593Y-102416349D01*
X105206691Y-102353232D01*
X105081393Y-102176952D01*
X104927706Y-101967840D01*
X104775555Y-101766507D01*
X104751627Y-101735502D01*
X104624148Y-101566710D01*
X104463240Y-101347413D01*
X104288421Y-101104518D01*
X104119212Y-100864926D01*
X104099529Y-100836693D01*
X103953945Y-100629273D01*
X103821576Y-100443852D01*
X103714326Y-100296882D01*
X103644102Y-100204809D01*
X103630233Y-100188333D01*
X103549737Y-100087494D01*
X103463919Y-99963945D01*
X103462497Y-99961725D01*
X103402188Y-99873072D01*
X103299027Y-99727290D01*
X103166034Y-99542562D01*
X103016241Y-99337074D01*
X102970500Y-99274815D01*
X102801417Y-99044625D01*
X102628707Y-98808684D01*
X102471375Y-98592996D01*
X102348420Y-98423571D01*
X102336681Y-98407308D01*
X102210252Y-98233668D01*
X102050331Y-98016363D01*
X101879937Y-97786578D01*
X101759316Y-97625076D01*
X101625903Y-97450653D01*
X101532177Y-97322307D01*
X101480358Y-97222149D01*
X101479473Y-97211805D01*
X103154592Y-97211805D01*
X103181838Y-97272669D01*
X103255827Y-97389549D01*
X103364925Y-97545066D01*
X103484046Y-97704372D01*
X103644519Y-97916460D01*
X103834308Y-98172444D01*
X104029107Y-98439282D01*
X104196261Y-98672184D01*
X104336154Y-98868033D01*
X104457486Y-99035550D01*
X104549631Y-99160248D01*
X104601972Y-99227640D01*
X104608776Y-99234894D01*
X104645166Y-99279330D01*
X104725815Y-99386334D01*
X104840526Y-99542106D01*
X104979093Y-99732861D01*
X105057147Y-99841233D01*
X105294936Y-100172313D01*
X105489843Y-100443600D01*
X105653670Y-100671486D01*
X105798225Y-100872366D01*
X105935313Y-101062632D01*
X106076739Y-101258679D01*
X106234311Y-101476902D01*
X106419834Y-101733690D01*
X106460499Y-101789970D01*
X106751226Y-102192210D01*
X106990731Y-102523362D01*
X107182635Y-102788415D01*
X107330562Y-102992364D01*
X107438127Y-103140195D01*
X107508951Y-103236906D01*
X107546658Y-103287480D01*
X107549436Y-103291077D01*
X107592786Y-103352580D01*
X107669940Y-103466835D01*
X107755464Y-103595877D01*
X107914125Y-103827648D01*
X108054483Y-104001288D01*
X108197724Y-104132310D01*
X108365034Y-104236239D01*
X108577596Y-104328588D01*
X108856596Y-104424876D01*
X108911094Y-104442417D01*
X109142931Y-104518620D01*
X109346016Y-104589198D01*
X109501767Y-104647410D01*
X109591599Y-104686521D01*
X109602267Y-104693022D01*
X109640481Y-104741217D01*
X109650003Y-104823573D01*
X109632858Y-104965806D01*
X109626591Y-105002646D01*
X109594266Y-105189963D01*
X109555926Y-105415353D01*
X109526025Y-105593226D01*
X109470507Y-105925899D01*
X109613499Y-106132488D01*
X109737768Y-106308399D01*
X109837932Y-106429032D01*
X109937559Y-106508679D01*
X110060223Y-106561623D01*
X110229495Y-106602153D01*
X110454198Y-106642041D01*
X111883173Y-106871511D01*
X113340384Y-107078697D01*
X114806991Y-107261595D01*
X116264154Y-107418201D01*
X117693036Y-107546511D01*
X119074797Y-107644521D01*
X120390600Y-107710227D01*
X120551640Y-107716143D01*
X120863445Y-107727342D01*
X121143018Y-107737824D01*
X121377048Y-107747052D01*
X121552230Y-107754492D01*
X121655250Y-107759610D01*
X121677054Y-107761383D01*
X121732014Y-107745654D01*
X121761336Y-107729265D01*
X121795926Y-107686248D01*
X121751595Y-107632104D01*
X121678410Y-107544630D01*
X121574907Y-107383506D01*
X121447035Y-107161146D01*
X121300743Y-106889970D01*
X121141980Y-106582392D01*
X120976695Y-106250829D01*
X120810837Y-105907701D01*
X120650361Y-105565419D01*
X120501210Y-105236406D01*
X120369339Y-104933073D01*
X120260694Y-104667840D01*
X120181227Y-104453124D01*
X120136887Y-104301342D01*
X120129609Y-104247084D01*
X120140211Y-104211300D01*
X120178755Y-104182359D01*
X120255339Y-104158920D01*
X120380067Y-104139645D01*
X120563031Y-104123193D01*
X120814338Y-104108226D01*
X121144083Y-104093403D01*
X121348809Y-104085348D01*
X121746279Y-104066427D01*
X122078850Y-104040057D01*
X122375367Y-104001564D01*
X122664675Y-103946262D01*
X122975616Y-103869471D01*
X123337041Y-103766511D01*
X123365178Y-103758144D01*
X123661035Y-103668975D01*
X123884448Y-103606023D01*
X124054176Y-103573632D01*
X124188972Y-103576149D01*
X124307589Y-103617912D01*
X124428786Y-103703268D01*
X124571319Y-103836558D01*
X124753938Y-104022129D01*
X124827363Y-104096760D01*
X125040066Y-104313819D01*
X125256357Y-104537778D01*
X125455824Y-104747292D01*
X125618070Y-104921025D01*
X125671116Y-104979201D01*
X125970576Y-105305688D01*
X126219537Y-105563976D01*
X126424734Y-105760149D01*
X126592905Y-105900303D01*
X126730785Y-105990522D01*
X126839646Y-106035474D01*
X126962841Y-106056474D01*
X127154778Y-106074909D01*
X127390416Y-106088928D01*
X127644720Y-106096695D01*
X127676577Y-106097133D01*
X127944435Y-106098495D01*
X128137518Y-106093965D01*
X128274765Y-106081623D01*
X128375097Y-106059540D01*
X128457450Y-106025796D01*
X128476440Y-106015860D01*
X128642148Y-105927786D01*
X128748618Y-105876558D01*
X128818149Y-105852693D01*
X128873052Y-105846711D01*
X128874387Y-105846708D01*
X128914557Y-105852762D01*
X128935377Y-105880677D01*
X128935545Y-105945075D01*
X128913759Y-106060584D01*
X128868717Y-106241826D01*
X128824320Y-106409415D01*
X128766945Y-106625859D01*
X128713644Y-106830351D01*
X128672670Y-106991073D01*
X128660016Y-107042463D01*
X128616591Y-107200782D01*
X128568930Y-107344548D01*
X128562333Y-107361594D01*
X128535231Y-107482212D01*
X128554251Y-107537616D01*
X128617821Y-107559459D01*
X128685570Y-107498922D01*
X128759160Y-107353014D01*
X128840262Y-107118747D01*
X128895750Y-106925232D01*
X128995047Y-106557570D01*
X129072996Y-106269363D01*
X129134058Y-106049913D01*
X129182706Y-105888513D01*
X129223401Y-105774462D01*
X129260610Y-105697050D01*
X129298797Y-105645579D01*
X129342429Y-105609345D01*
X129395973Y-105577644D01*
X129463893Y-105539769D01*
X129476994Y-105532065D01*
X129541836Y-105495015D01*
X136237116Y-105495015D01*
X136253670Y-105727410D01*
X136271640Y-105887802D01*
X136297911Y-106024332D01*
X136310379Y-106065417D01*
X136337400Y-106124487D01*
X136376361Y-106147839D01*
X136452918Y-106138272D01*
X136592727Y-106098582D01*
X136598625Y-106096818D01*
X136767072Y-106051113D01*
X136984842Y-105998355D01*
X137209092Y-105948846D01*
X137242893Y-105941877D01*
X137469858Y-105888255D01*
X137606514Y-105838623D01*
X137651979Y-105793653D01*
X137605380Y-105754029D01*
X137517414Y-105729813D01*
X137398398Y-105704052D01*
X137221848Y-105664161D01*
X137021457Y-105617772D01*
X136974735Y-105606801D01*
X136770360Y-105562362D01*
X136578270Y-105526944D01*
X136433871Y-105506928D01*
X136412028Y-105505230D01*
X136237116Y-105495015D01*
X129541836Y-105495015D01*
X130090875Y-105181308D01*
X130146414Y-105151068D01*
X130264482Y-105084285D01*
X137429898Y-105084285D01*
X137506362Y-105096411D01*
X137511714Y-105096432D01*
X137601948Y-105106647D01*
X137755425Y-105134181D01*
X137951847Y-105174357D01*
X138170904Y-105222501D01*
X138392292Y-105273945D01*
X138595704Y-105324012D01*
X138760839Y-105368028D01*
X138867390Y-105401325D01*
X138895518Y-105414906D01*
X138911964Y-105441732D01*
X138931737Y-105497142D01*
X138956709Y-105589761D01*
X138988755Y-105728211D01*
X139029741Y-105921114D01*
X139081545Y-106177101D01*
X139146036Y-106504791D01*
X139225089Y-106912809D01*
X139259076Y-107089356D01*
X139303686Y-107321088D01*
X139358316Y-107604405D01*
X139419990Y-107923941D01*
X139485744Y-108264330D01*
X139552599Y-108610212D01*
X139617591Y-108946221D01*
X139677747Y-109256991D01*
X139730091Y-109527162D01*
X139771659Y-109741365D01*
X139799475Y-109884237D01*
X139805427Y-109914615D01*
X139848306Y-109997073D01*
X139896738Y-110020125D01*
X139967394Y-110006307D01*
X140106492Y-109968759D01*
X140293479Y-109913319D01*
X140493720Y-109850382D01*
X140716398Y-109777755D01*
X140919141Y-109710141D01*
X141077733Y-109655703D01*
X141160809Y-109625472D01*
X141240069Y-109597143D01*
X141396036Y-109543770D01*
X141616293Y-109469520D01*
X141888426Y-109378545D01*
X142200021Y-109275012D01*
X142538658Y-109163082D01*
X142648191Y-109126995D01*
X143036502Y-108997248D01*
X143368332Y-108882432D01*
X143636949Y-108785067D01*
X143835621Y-108707661D01*
X143957610Y-108652728D01*
X143996343Y-108623916D01*
X143958405Y-108565248D01*
X143876670Y-108518091D01*
X143791251Y-108478110D01*
X143644128Y-108401652D01*
X143454810Y-108299136D01*
X143242818Y-108180972D01*
X143208456Y-108161511D01*
X142910787Y-107992617D01*
X142672701Y-107857692D01*
X142472256Y-107744334D01*
X142287522Y-107640132D01*
X142098654Y-107533860D01*
X141969918Y-107461479D01*
X141791772Y-107361297D01*
X141596535Y-107251491D01*
X141535947Y-107217411D01*
X141326973Y-107100492D01*
X141110088Y-106980153D01*
X140925435Y-106878651D01*
X140891748Y-106860309D01*
X140749182Y-106775667D01*
X140642814Y-106699038D01*
X140598420Y-106651110D01*
X140604990Y-106579146D01*
X140645661Y-106451670D01*
X140710209Y-106299417D01*
X140801124Y-106104411D01*
X140894169Y-105901452D01*
X140950494Y-105776370D01*
X141011181Y-105640977D01*
X141099009Y-105446457D01*
X141202140Y-105218976D01*
X141307056Y-104988375D01*
X141401304Y-104780217D01*
X141479547Y-104604696D01*
X141534486Y-104478396D01*
X141558825Y-104417895D01*
X141559392Y-104415336D01*
X141577170Y-104363775D01*
X141622650Y-104253897D01*
X141684054Y-104112447D01*
X141749607Y-103966170D01*
X141807528Y-103841823D01*
X141842508Y-103772361D01*
X141886188Y-103657602D01*
X141877764Y-103582500D01*
X141820869Y-103566789D01*
X141805578Y-103571865D01*
X141720594Y-103602657D01*
X141558687Y-103658301D01*
X141332157Y-103734738D01*
X141053301Y-103827924D01*
X140734419Y-103933797D01*
X140387808Y-104048310D01*
X140025762Y-104167404D01*
X139660587Y-104287032D01*
X139304571Y-104403135D01*
X138970020Y-104511663D01*
X138669231Y-104608563D01*
X138414498Y-104689779D01*
X138396042Y-104695614D01*
X138024666Y-104816340D01*
X137741871Y-104915796D01*
X137548146Y-104993754D01*
X137443992Y-105049989D01*
X137429898Y-105084285D01*
X130264482Y-105084285D01*
X130654338Y-104863767D01*
X131073255Y-104600673D01*
X131404512Y-104360865D01*
X131649462Y-104143428D01*
X131696739Y-104093154D01*
X131917275Y-103820799D01*
X132161244Y-103470132D01*
X132422712Y-103051899D01*
X132695745Y-102576855D01*
X132974406Y-102055752D01*
X133252761Y-101499345D01*
X133524876Y-100918383D01*
X133784814Y-100323615D01*
X133808079Y-100268175D01*
X133961925Y-99879978D01*
X134068695Y-99557070D01*
X134130279Y-99284757D01*
X134148561Y-99048342D01*
X134125431Y-98833122D01*
X134062773Y-98624403D01*
X134029365Y-98544567D01*
X133571559Y-97424907D01*
X133191369Y-96284301D01*
X133063821Y-95835201D01*
X133014675Y-95651490D01*
X132977388Y-95498997D01*
X132950295Y-95360193D01*
X132931734Y-95217555D01*
X132920043Y-95053560D01*
X132913566Y-94850682D01*
X132910635Y-94591398D01*
X132909594Y-94258188D01*
X132909507Y-94207368D01*
X132908613Y-93810393D01*
X132911229Y-93502500D01*
X132923115Y-93279009D01*
X132950031Y-93135240D01*
X132997740Y-93066519D01*
X133072005Y-93068166D01*
X133178589Y-93135501D01*
X133323252Y-93263850D01*
X133511754Y-93448533D01*
X133661115Y-93597162D01*
X134146539Y-94083267D01*
X134572176Y-94519644D01*
X134949027Y-94918089D01*
X135288084Y-95290395D01*
X135600351Y-95648364D01*
X135837603Y-95931534D01*
X136016721Y-96148536D01*
X136180533Y-96345918D01*
X136317582Y-96509952D01*
X136416414Y-96626925D01*
X136461963Y-96679263D01*
X136534683Y-96764907D01*
X136639680Y-96895986D01*
X136744128Y-97030956D01*
X136845840Y-97163343D01*
X136925256Y-97264206D01*
X136965450Y-97312062D01*
X136965714Y-97312308D01*
X137009790Y-97364280D01*
X137098830Y-97477515D01*
X137222136Y-97637799D01*
X137368998Y-97830924D01*
X137528718Y-98042673D01*
X137690589Y-98258838D01*
X137843907Y-98465202D01*
X137977971Y-98647560D01*
X138082074Y-98791695D01*
X138113517Y-98836308D01*
X138279573Y-99076104D01*
X138457737Y-99335844D01*
X138640302Y-99604035D01*
X138819567Y-99869187D01*
X138987825Y-100119804D01*
X139137381Y-100344393D01*
X139260528Y-100531464D01*
X139349562Y-100669524D01*
X139396785Y-100747080D01*
X139402347Y-100759302D01*
X139436550Y-100821336D01*
X139510458Y-100888770D01*
X139581030Y-100922874D01*
X139584312Y-100923015D01*
X139634661Y-100887024D01*
X139714806Y-100794027D01*
X139782513Y-100700277D01*
X139884579Y-100552800D01*
X140016966Y-100366713D01*
X140153721Y-100178433D01*
X140175192Y-100149294D01*
X140435415Y-99796746D01*
X140647065Y-99509343D01*
X140817528Y-99276966D01*
X140954187Y-99089499D01*
X141064431Y-98936826D01*
X141155643Y-98808828D01*
X141207699Y-98734818D01*
X141306873Y-98595384D01*
X141445101Y-98404134D01*
X141605391Y-98184450D01*
X141770742Y-97959705D01*
X141800289Y-97919766D01*
X141949911Y-97715724D01*
X142082898Y-97530696D01*
X142187382Y-97381455D01*
X142251504Y-97284780D01*
X142261998Y-97266873D01*
X142281747Y-97223775D01*
X142287252Y-97179795D01*
X142271916Y-97124580D01*
X142229148Y-97047780D01*
X142152354Y-96939036D01*
X142034940Y-96788004D01*
X141870312Y-96584325D01*
X141676623Y-96347805D01*
X141515250Y-96150504D01*
X141315114Y-95904828D01*
X141096276Y-95635461D01*
X140878791Y-95367075D01*
X140762223Y-95222883D01*
X140542671Y-94951773D01*
X140287815Y-94638294D01*
X140022069Y-94312392D01*
X139769832Y-94004016D01*
X139636809Y-93841902D01*
X139438812Y-93600315D01*
X139245777Y-93363573D01*
X139071597Y-93148806D01*
X138930177Y-92973150D01*
X138839640Y-92859147D01*
X138736794Y-92729565D01*
X138589944Y-92546919D01*
X138414720Y-92330529D01*
X138226743Y-92099718D01*
X138113703Y-91961574D01*
X137941101Y-91750929D01*
X137786445Y-91561941D01*
X137660739Y-91408080D01*
X137574984Y-91302813D01*
X137542995Y-91263201D01*
X137487756Y-91195407D01*
X137390775Y-91078047D01*
X137270523Y-90933447D01*
X137237298Y-90893634D01*
X137107314Y-90736458D01*
X136989630Y-90591474D01*
X136906140Y-90485709D01*
X136895442Y-90471603D01*
X136820268Y-90375252D01*
X136707711Y-90235590D01*
X136580736Y-90081090D01*
X136567197Y-90064797D01*
X136425285Y-89893038D01*
X136281108Y-89716614D01*
X136166778Y-89574846D01*
X136022727Y-89395239D01*
X135875280Y-89213331D01*
X135737352Y-89044830D01*
X135621846Y-88905435D01*
X135541677Y-88810848D01*
X135511557Y-88777908D01*
X135470055Y-88730418D01*
X135391455Y-88632492D01*
X135322179Y-88543446D01*
X135221352Y-88414938D01*
X135136044Y-88310745D01*
X135099942Y-88269756D01*
X135035421Y-88194390D01*
X134945340Y-88080297D01*
X134911698Y-88035948D01*
X134725914Y-87800031D01*
X134549712Y-87598248D01*
X134457888Y-87504633D01*
X134445960Y-87495309D01*
X134428119Y-87486678D01*
X134400867Y-87478710D01*
X134360703Y-87471384D01*
X134304123Y-87464673D01*
X134227632Y-87458547D01*
X134127729Y-87452988D01*
X134000910Y-87447963D01*
X133843683Y-87443448D01*
X133652538Y-87439419D01*
X133423983Y-87435846D01*
X133154514Y-87432708D01*
X132840630Y-87429978D01*
X132478833Y-87427626D01*
X132065622Y-87425631D01*
X131597499Y-87423963D01*
X131070963Y-87422601D01*
X130482510Y-87421515D01*
X129828645Y-87420681D01*
X129105867Y-87420069D01*
X128310672Y-87419661D01*
X127439565Y-87419424D01*
X126489045Y-87419334D01*
X125455608Y-87419367D01*
X124335756Y-87419496D01*
X123125991Y-87419694D01*
X122992719Y-87419718D01*
X121962600Y-87420018D01*
X120955188Y-87420537D01*
X119974656Y-87421263D01*
X119025174Y-87422184D01*
X118110909Y-87423291D01*
X117236034Y-87424572D01*
X116404719Y-87426018D01*
X115621131Y-87427617D01*
X114889446Y-87429357D01*
X114213831Y-87431229D01*
X113598453Y-87433224D01*
X113047488Y-87435327D01*
X112565103Y-87437529D01*
X112155468Y-87439821D01*
X111822753Y-87442191D01*
X111571131Y-87444627D01*
X111404766Y-87447123D01*
X111327837Y-87449661D01*
X111326574Y-87449775D01*
X111034491Y-87477768D01*
X110620938Y-87975438D01*
X110423307Y-88214403D01*
X110180544Y-88509729D01*
X109906278Y-88844694D01*
X109614144Y-89202567D01*
X109317771Y-89566623D01*
X109030794Y-89920137D01*
X108766845Y-90246375D01*
X108539556Y-90528618D01*
X108500316Y-90577542D01*
X108301755Y-90824661D01*
X108099918Y-91074720D01*
X107903871Y-91316595D01*
X107722683Y-91539174D01*
X107565420Y-91731342D01*
X107441151Y-91881981D01*
X107358942Y-91979976D01*
X107329020Y-92013477D01*
X107287713Y-92061012D01*
X107209368Y-92159022D01*
X107140440Y-92247939D01*
X107046828Y-92367453D01*
X106975236Y-92454060D01*
X106948467Y-92482401D01*
X106909611Y-92526420D01*
X106825356Y-92629707D01*
X106707678Y-92777349D01*
X106568571Y-92954436D01*
X106552710Y-92974770D01*
X106409199Y-93157029D01*
X106282824Y-93314070D01*
X106186596Y-93429966D01*
X106133517Y-93488790D01*
X106131486Y-93490584D01*
X106079436Y-93546546D01*
X105986136Y-93657672D01*
X105867498Y-93804783D01*
X105801039Y-93889170D01*
X105645900Y-94085664D01*
X105460926Y-94316793D01*
X105276216Y-94545051D01*
X105196245Y-94642872D01*
X105041229Y-94832142D01*
X104889189Y-95018598D01*
X104761527Y-95175948D01*
X104702040Y-95249820D01*
X104586672Y-95391876D01*
X104441880Y-95567427D01*
X104298978Y-95738505D01*
X104298759Y-95738766D01*
X104064573Y-96019764D01*
X103841367Y-96293004D01*
X103636860Y-96548553D01*
X103458759Y-96776478D01*
X103314780Y-96966852D01*
X103212639Y-97109742D01*
X103160052Y-97195215D01*
X103154592Y-97211805D01*
X101479473Y-97211805D01*
X101472663Y-97132296D01*
X101511312Y-97034859D01*
X101598516Y-96911952D01*
X101736501Y-96745689D01*
X101891106Y-96562032D01*
X102062640Y-96355116D01*
X102247947Y-96129783D01*
X102456309Y-95874633D01*
X102697011Y-95578272D01*
X102979335Y-95229306D01*
X103247238Y-94897356D01*
X103401402Y-94708224D01*
X103551678Y-94527399D01*
X103678287Y-94378491D01*
X103746219Y-94301520D01*
X103837356Y-94196661D01*
X103894728Y-94121010D01*
X103904868Y-94100268D01*
X103933986Y-94050495D01*
X104004003Y-93969342D01*
X104004069Y-93969270D01*
X104076474Y-93885639D01*
X104185566Y-93750225D01*
X104312412Y-93586761D01*
X104367486Y-93514032D01*
X104508387Y-93331182D01*
X104652069Y-93152439D01*
X104773560Y-93008658D01*
X104803947Y-92974770D01*
X104933187Y-92826573D01*
X105076128Y-92651817D01*
X105153000Y-92552739D01*
X105250053Y-92426352D01*
X105325479Y-92332353D01*
X105359169Y-92294832D01*
X105397749Y-92251632D01*
X105483534Y-92149092D01*
X105605100Y-92001066D01*
X105751011Y-91821405D01*
X105804141Y-91755570D01*
X105990291Y-91525254D01*
X106211523Y-91252650D01*
X106443330Y-90967890D01*
X106661208Y-90701112D01*
X106715262Y-90635106D01*
X107216241Y-90021591D01*
X107672496Y-89458080D01*
X108100836Y-88923804D01*
X108163527Y-88845141D01*
X108325671Y-88642974D01*
X108517872Y-88405509D01*
X108710256Y-88169580D01*
X108807576Y-88051077D01*
X108947796Y-87880341D01*
X109131096Y-87656274D01*
X109341525Y-87398427D01*
X109563135Y-87126348D01*
X109779972Y-86859579D01*
X109792944Y-86843601D01*
X110430519Y-86058156D01*
X122736399Y-86058156D01*
X124008012Y-86058177D01*
G37*
D12*
%TO.C,R4*%
X161864542Y-77293100D02*
X162339058Y-77293100D01*
X161864542Y-78338100D02*
X162339058Y-78338100D01*
%TO.C,U4*%
X149527500Y-90000000D02*
X149527500Y-88050000D01*
X149527500Y-90000000D02*
X149527500Y-91950000D01*
X154647500Y-90000000D02*
X154647500Y-88050000D01*
X154647500Y-90000000D02*
X154647500Y-91950000D01*
X154882500Y-87540000D02*
X154552500Y-87300000D01*
X154882500Y-87060000D01*
X154882500Y-87540000D01*
G36*
X154882500Y-87540000D02*
G01*
X154552500Y-87300000D01*
X154882500Y-87060000D01*
X154882500Y-87540000D01*
G37*
%TO.C,C4*%
X169253780Y-83695000D02*
X168972613Y-83694996D01*
X169253787Y-82675004D02*
X168972620Y-82675000D01*
%TO.C,R14*%
X161865542Y-71384900D02*
X162340058Y-71384900D01*
X161865542Y-72429900D02*
X162340058Y-72429900D01*
%TO.C,C2*%
X172071420Y-109573600D02*
X172352580Y-109573600D01*
X172071420Y-110593600D02*
X172352580Y-110593600D01*
%TO.C,J2*%
X188459594Y-91389201D02*
X188459598Y-94039203D01*
X188459594Y-91389201D02*
X191219598Y-91389203D01*
X188459598Y-94039203D02*
X191219600Y-94039202D01*
X188459601Y-88739201D02*
X189839602Y-88739201D01*
X188459601Y-90119198D02*
X188459601Y-88739201D01*
X191219598Y-91389203D02*
X191219600Y-94039202D01*
%TO.C,C9*%
X158039379Y-96953802D02*
X157758220Y-96953801D01*
X158039380Y-95933801D02*
X157758221Y-95933800D01*
%TO.C,R13*%
X150244658Y-73428300D02*
X149770142Y-73428300D01*
X150244658Y-74473300D02*
X149770142Y-74473300D01*
%TO.C,C3*%
X179666020Y-81506600D02*
X179947180Y-81506600D01*
X179666020Y-82526600D02*
X179947180Y-82526600D01*
%TO.C,R19*%
X153940742Y-82941900D02*
X154415258Y-82941900D01*
X153940742Y-83986900D02*
X154415258Y-83986900D01*
%TO.C,R2*%
X162035258Y-109561100D02*
X161560742Y-109561100D01*
X162035258Y-110606100D02*
X161560742Y-110606100D01*
%TD*%
M02*
