%TF.GenerationSoftware,KiCad,Pcbnew,9.0.0*%
%TF.CreationDate,2025-05-12T20:37:00-03:00*%
%TF.ProjectId,kicad proyecto,6b696361-6420-4707-926f-796563746f2e,rev?*%
%TF.SameCoordinates,Original*%
%TF.FileFunction,Copper,L4,Bot*%
%TF.FilePolarity,Positive*%
%FSLAX46Y46*%
G04 Gerber Fmt 4.6, Leading zero omitted, Abs format (unit mm)*
G04 Created by KiCad (PCBNEW 9.0.0) date 2025-05-12 20:37:00*
%MOMM*%
%LPD*%
G01*
G04 APERTURE LIST*
G04 Aperture macros list*
%AMRoundRect*
0 Rectangle with rounded corners*
0 $1 Rounding radius*
0 $2 $3 $4 $5 $6 $7 $8 $9 X,Y pos of 4 corners*
0 Add a 4 corners polygon primitive as box body*
4,1,4,$2,$3,$4,$5,$6,$7,$8,$9,$2,$3,0*
0 Add four circle primitives for the rounded corners*
1,1,$1+$1,$2,$3*
1,1,$1+$1,$4,$5*
1,1,$1+$1,$6,$7*
1,1,$1+$1,$8,$9*
0 Add four rect primitives between the rounded corners*
20,1,$1+$1,$2,$3,$4,$5,0*
20,1,$1+$1,$4,$5,$6,$7,0*
20,1,$1+$1,$6,$7,$8,$9,0*
20,1,$1+$1,$8,$9,$2,$3,0*%
G04 Aperture macros list end*
%TA.AperFunction,ComponentPad*%
%ADD10C,2.000000*%
%TD*%
%TA.AperFunction,ComponentPad*%
%ADD11RoundRect,0.190500X-0.809500X-0.444500X0.809500X-0.444500X0.809500X0.444500X-0.809500X0.444500X0*%
%TD*%
%TA.AperFunction,ComponentPad*%
%ADD12C,1.498600*%
%TD*%
%TA.AperFunction,ComponentPad*%
%ADD13R,1.700000X1.700000*%
%TD*%
%TA.AperFunction,ComponentPad*%
%ADD14C,1.700000*%
%TD*%
%TA.AperFunction,ViaPad*%
%ADD15C,0.600000*%
%TD*%
%TA.AperFunction,Conductor*%
%ADD16C,0.500000*%
%TD*%
%TA.AperFunction,Conductor*%
%ADD17C,0.200000*%
%TD*%
%TA.AperFunction,Conductor*%
%ADD18C,1.000000*%
%TD*%
%TA.AperFunction,Conductor*%
%ADD19C,0.350000*%
%TD*%
%TA.AperFunction,Conductor*%
%ADD20C,0.600000*%
%TD*%
%TA.AperFunction,Conductor*%
%ADD21C,0.400000*%
%TD*%
G04 APERTURE END LIST*
D10*
%TO.P,SW2,2,B*%
%TO.N,GND*%
X141750000Y-57668600D03*
X148250000Y-57668600D03*
%TO.P,SW2,1,A*%
%TO.N,RESET*%
X141750000Y-62168600D03*
X148250000Y-62168600D03*
%TD*%
D11*
%TO.P,BZ1,2,-*%
%TO.N,Net-(BZ1--)*%
X150500000Y-99500000D03*
%TO.P,BZ1,1,+*%
%TO.N,+5V*%
X150500000Y-103500000D03*
%TD*%
D10*
%TO.P,SW3,1,A*%
%TO.N,+5V*%
X187823557Y-125810418D03*
X184573557Y-131439583D03*
%TO.P,SW3,2,B*%
%TO.N,Net-(SW1-B)*%
X183926443Y-123560418D03*
X180676443Y-129189583D03*
%TD*%
D12*
%TO.P,50k1,1,1*%
%TO.N,+5V*%
X168503600Y-103378000D03*
%TO.P,50k1,2,2*%
X163503600Y-100878000D03*
%TO.P,50k1,3,3*%
%TO.N,Net-(U2-DIS)*%
X168503600Y-98378010D03*
%TD*%
%TO.P,10k1,1,1*%
%TO.N,+5V*%
X168518200Y-74875400D03*
%TO.P,10k1,2,2*%
X171018200Y-69875400D03*
%TO.P,10k1,3,3*%
%TO.N,Net-(U1-DIS)*%
X173518190Y-74875400D03*
%TD*%
D10*
%TO.P,SW1,1,A*%
%TO.N,+5V*%
X105250000Y-131250000D03*
X102000000Y-125620835D03*
%TO.P,SW1,2,B*%
%TO.N,Net-(SW1-B)*%
X109147114Y-129000000D03*
X105897114Y-123370835D03*
%TD*%
D13*
%TO.P,J2,1,Pin_1*%
%TO.N,Net-(J2-Pin_1)*%
X189839600Y-90119200D03*
D14*
%TO.P,J2,2,Pin_2*%
%TO.N,Net-(J2-Pin_2)*%
X189839599Y-92659199D03*
%TD*%
D15*
%TO.N,GND*%
X144780000Y-76200000D03*
X158750000Y-63500000D03*
X187960000Y-86360000D03*
X172720000Y-93980000D03*
X154940000Y-106680000D03*
X152400000Y-63500000D03*
X165100000Y-63500000D03*
X177800000Y-76200000D03*
X165100000Y-76200000D03*
X177800000Y-88900000D03*
X190500000Y-101600000D03*
X177800000Y-101600000D03*
X177800000Y-127000000D03*
X190500000Y-114300000D03*
X177800000Y-114300000D03*
X165100000Y-114300000D03*
X127000000Y-101600000D03*
X152400000Y-114300000D03*
%TO.N,+5V*%
X188671200Y-108356400D03*
X187510000Y-108338200D03*
X160172400Y-70942200D03*
X157750000Y-93903800D03*
X159530802Y-85921602D03*
X172237400Y-96926400D03*
X184505602Y-100025202D03*
X155321000Y-85928200D03*
X179414893Y-82986042D03*
X152730200Y-95504000D03*
X159689800Y-68402200D03*
X158699200Y-95631000D03*
%TO.N,Net-(BZ1--)*%
X161086800Y-103098600D03*
%TO.N,GND*%
X149675000Y-86000000D03*
X155067000Y-94437200D03*
X165912800Y-107595000D03*
X156159200Y-96443800D03*
X127000000Y-88900000D03*
X127000000Y-114300000D03*
X188518800Y-103124000D03*
X114300000Y-127000000D03*
X127000000Y-76200000D03*
X139700000Y-152400000D03*
X139700000Y-63500000D03*
X157099000Y-67233800D03*
X101600000Y-101600000D03*
X152400000Y-139700000D03*
X165100000Y-139700000D03*
X114300000Y-88900000D03*
X114300000Y-139700000D03*
X139700000Y-114300000D03*
X139700000Y-76200000D03*
X168325800Y-82118200D03*
X139700000Y-127000000D03*
X127000000Y-139700000D03*
X181610000Y-85877400D03*
X114300000Y-101600000D03*
X187553600Y-103098600D03*
X172313600Y-95910400D03*
X173939200Y-110083600D03*
X183870600Y-97688400D03*
X152400000Y-152400000D03*
X167614600Y-104978200D03*
X101600000Y-114300000D03*
X152400000Y-127000000D03*
X167030400Y-87503000D03*
X153517600Y-81051400D03*
X139700000Y-101600000D03*
X114300000Y-76200000D03*
X155016200Y-82346800D03*
X114300000Y-114300000D03*
X101600000Y-88900000D03*
X181127400Y-102173200D03*
X173939200Y-111556800D03*
X162941000Y-107670600D03*
X183845200Y-96926400D03*
X139700000Y-139700000D03*
X165100000Y-127000000D03*
X184556400Y-103352600D03*
X180517800Y-82981800D03*
X139700000Y-88900000D03*
X145000000Y-57668600D03*
X181000400Y-100228400D03*
X127000000Y-63500000D03*
X171526200Y-81178400D03*
X152400000Y-114300000D03*
X176682400Y-99568000D03*
%TO.N,Net-(U6-Q0)*%
X161290000Y-78638400D03*
X159000000Y-81000000D03*
%TO.N,RESET*%
X157917213Y-90174999D03*
X159842200Y-77500000D03*
%TD*%
D16*
%TO.N,+5V*%
X186182000Y-107772200D02*
X186893200Y-108483400D01*
X163503600Y-102917000D02*
X163964600Y-103378000D01*
D17*
X172237400Y-103441996D02*
X173297602Y-104502198D01*
D16*
X186131200Y-101650800D02*
X186182000Y-101600000D01*
X162420600Y-104000000D02*
X163503600Y-102917000D01*
D18*
X172173404Y-103378000D02*
X173297602Y-104502198D01*
D16*
X186131200Y-101650800D02*
X186182000Y-101701600D01*
D18*
X157911800Y-134543800D02*
X181469340Y-134543800D01*
X187823557Y-125810418D02*
X184573557Y-129060418D01*
X186182000Y-86334600D02*
X186182000Y-87452200D01*
D19*
X160407598Y-85921602D02*
X168518200Y-77811000D01*
D16*
X147066000Y-94183200D02*
X147066000Y-97332800D01*
X161224600Y-69890000D02*
X171003600Y-69890000D01*
D20*
X174066200Y-69875400D02*
X171018200Y-69875400D01*
X186182000Y-81991200D02*
X186182000Y-87452200D01*
D21*
X184505602Y-100025202D02*
X184607202Y-100025202D01*
D19*
X171003600Y-69890000D02*
X171018200Y-69875400D01*
D16*
X163503600Y-102917000D02*
X163503600Y-100878000D01*
X150500000Y-107111800D02*
X150500000Y-103500000D01*
D19*
X158496000Y-95427800D02*
X158546800Y-95377000D01*
D18*
X168503600Y-103378000D02*
X172173404Y-103378000D01*
D16*
X160172400Y-70942200D02*
X161224600Y-69890000D01*
D18*
X188671200Y-110000886D02*
X188645800Y-110026286D01*
D17*
X159689800Y-68402200D02*
X159736800Y-68402200D01*
D19*
X158699200Y-95529400D02*
X158546800Y-95377000D01*
D18*
X164693600Y-134543800D02*
X157911800Y-134543800D01*
D16*
X184150000Y-84302600D02*
X186182000Y-86334600D01*
D18*
X108543800Y-134543800D02*
X157911800Y-134543800D01*
D21*
X172237400Y-96926400D02*
X172237400Y-103441996D01*
D16*
X162420600Y-104000000D02*
X153611800Y-104000000D01*
D18*
X178269404Y-109474000D02*
X188595000Y-109474000D01*
X150500000Y-103500000D02*
X150500000Y-110769400D01*
D16*
X152806400Y-95427800D02*
X158496000Y-95427800D01*
X148894800Y-95504000D02*
X147066000Y-97332800D01*
D20*
X186182000Y-81991200D02*
X174066200Y-69875400D01*
D16*
X147066000Y-105791000D02*
X150500000Y-109225000D01*
X147066000Y-97332800D02*
X147066000Y-105791000D01*
D18*
X186182000Y-101701600D02*
X186182000Y-107772200D01*
D16*
X179414893Y-83428293D02*
X180289200Y-84302600D01*
X159736800Y-68402200D02*
X161224600Y-69890000D01*
D18*
X188645800Y-110026286D02*
X188645800Y-124988175D01*
X181469340Y-134543800D02*
X184573557Y-131439583D01*
X188671200Y-109397800D02*
X188671200Y-110000886D01*
X188595000Y-109474000D02*
X188671200Y-109397800D01*
D19*
X159530802Y-85921602D02*
X160407598Y-85921602D01*
X152730200Y-95504000D02*
X152806400Y-95427800D01*
D18*
X105250000Y-128870835D02*
X105250000Y-131250000D01*
D21*
X184607202Y-100025202D02*
X186182000Y-101600000D01*
D16*
X152730200Y-95504000D02*
X148894800Y-95504000D01*
X155321000Y-85928200D02*
X147066000Y-94183200D01*
D18*
X150500000Y-110769400D02*
X150500000Y-120350200D01*
X102000000Y-125620835D02*
X105250000Y-128870835D01*
D19*
X158699200Y-95631000D02*
X158699200Y-95529400D01*
D18*
X150500000Y-120350200D02*
X164693600Y-134543800D01*
D21*
X172237400Y-96926400D02*
X172313600Y-96850200D01*
D16*
X158546800Y-94700600D02*
X157750000Y-93903800D01*
X153611800Y-104000000D02*
X150500000Y-107111800D01*
D18*
X105250000Y-131250000D02*
X108543800Y-134543800D01*
D19*
X168518200Y-77811000D02*
X168518200Y-74875400D01*
D21*
X186182000Y-101600000D02*
X186182000Y-101701600D01*
D16*
X179414893Y-82986042D02*
X179414893Y-83428293D01*
D18*
X186182000Y-101600000D02*
X186182000Y-87452200D01*
D16*
X180289200Y-84302600D02*
X184150000Y-84302600D01*
X158546800Y-95377000D02*
X158546800Y-94700600D01*
D18*
X184573557Y-129060418D02*
X184573557Y-131439583D01*
X188645800Y-124988175D02*
X187823557Y-125810418D01*
D19*
X150500000Y-109225000D02*
X150500000Y-110769400D01*
D16*
X163964600Y-103378000D02*
X168503600Y-103378000D01*
D18*
X173297602Y-104502198D02*
X178269404Y-109474000D01*
D19*
%TO.N,Net-(BZ1--)*%
X157750000Y-99500000D02*
X150500000Y-99500000D01*
X161086800Y-102836800D02*
X157750000Y-99500000D01*
X161086800Y-103098600D02*
X161086800Y-102836800D01*
D18*
%TO.N,GND*%
X141750000Y-57668600D02*
X145000000Y-57668600D01*
X145000000Y-57668600D02*
X148250000Y-57668600D01*
D19*
%TO.N,Net-(U6-Q0)*%
X161290000Y-78638400D02*
X161290000Y-79885000D01*
D17*
X160198400Y-80976600D02*
X160198400Y-81000000D01*
D19*
X159000000Y-81000000D02*
X160198400Y-81000000D01*
X161290000Y-79885000D02*
X160198400Y-80976600D01*
%TO.N,RESET*%
X157917213Y-79424987D02*
X157917213Y-88461204D01*
X141750000Y-62168600D02*
X148250000Y-62168600D01*
X157926000Y-88469991D02*
X157926000Y-89030009D01*
X159842200Y-77500000D02*
X159842200Y-73342200D01*
X159842200Y-73760800D02*
X148250000Y-62168600D01*
X157926000Y-89030009D02*
X157917213Y-89038796D01*
X159842200Y-77500000D02*
X157917213Y-79424987D01*
X157917213Y-89038796D02*
X157917213Y-90174999D01*
X157917213Y-88461204D02*
X157926000Y-88469991D01*
D18*
%TO.N,+5V*%
X188671200Y-108356400D02*
X188671200Y-109397800D01*
%TD*%
%TA.AperFunction,Conductor*%
%TO.N,+5V*%
G36*
X189173039Y-107690285D02*
G01*
X189218794Y-107743089D01*
X189230000Y-107794600D01*
X189230000Y-109021545D01*
X189210315Y-109088584D01*
X189157511Y-109134339D01*
X189107759Y-109145533D01*
X185772280Y-109192845D01*
X185704968Y-109174113D01*
X185658469Y-109121963D01*
X185646538Y-109070926D01*
X185625301Y-107796665D01*
X185643866Y-107729308D01*
X185695900Y-107682680D01*
X185749284Y-107670600D01*
X189106000Y-107670600D01*
X189173039Y-107690285D01*
G37*
%TD.AperFunction*%
%TD*%
M02*
